<?xml version="1.0" standalone="no"?>
<!DOCTYPE svg PUBLIC "-//W3C//DTD SVG 1.1//EN" "http://www.w3.org/Graphics/SVG/1.1/DTD/svg11.dtd" >
<svg xmlns="http://www.w3.org/2000/svg">
<metadata></metadata>
<defs>
<font id="hangupregular" horiz-adv-x="2441" >
<font-face units-per-em="2048" ascent="1638" descent="-410" />
<missing-glyph horiz-adv-x="737" />
<glyph horiz-adv-x="2048" />
<glyph horiz-adv-x="2048" />
<glyph unicode="&#xd;" horiz-adv-x="2048" />
<glyph unicode=" "  horiz-adv-x="737" />
<glyph unicode="&#x09;" horiz-adv-x="737" />
<glyph unicode="&#xa0;" horiz-adv-x="737" />
<glyph unicode="!" horiz-adv-x="530" d="M465 758q-66 -31 -98 -39q-218 341 -242 547q20 26 111 26q126 0 200 -26q-9 -40 -12 -111q3 -25 12 -199q6 -113 29 -198zM471 735h2q0 -16 -31 -174h-18q-27 6 -92 6q-105 187 -172 328l-119 190q0 25 70 144h6q118 -348 235 -520v-31q0 -64 -20 -90q1 -1 2 -4.5 t2 -5.5h12q4 17 31 120q84 37 92 37zM387 463q-25 -17 -29 -19q0 1 4 21q15 0 25 -2zM496 389q0 -26 -27 -47q-3 -1 -19 -3.5t-26 -4.5q-100 18 -100 100q21 6 22 6h6l-4 -10q59 19 64 19q18 0 32 -17h11v12q41 -18 41 -55zM489 330q-5 -33 -33.5 -62t-60.5 -30 q-54 31 -121 104q0 32 31 68q27 -84 154 -93q16 6 30 13z" />
<glyph unicode="&#x22;" horiz-adv-x="782" d="M23 1473q34 43 194 118q62 -36 92 -57q60 -44 68 -76q-176 -7 -223 -10q-27 10 -41 10q-22 0 -31 -12q-2 1 -22.5 11t-36.5 16zM174 963q-29 300 -29 364q0 17 5 90q-4 3 -11 6l6 11q5 -5 9 -7q11 11 79 11q139 0 162 -23q-10 -82 -20 -182l6 -293q-68 2 -152 2 q-30 18 -55 21zM31 961q-19 185 -19 327q0 54 4 148q91 -31 103 -31q3 -21 0 -154q0 -47 14 -121t14 -118q0 -38 -8 -54q-54 -4 -67 -4q-30 0 -41 7zM172 829l-127 91q30 12 51 12q15 0 55.5 -17t47.5 -18q52 25 88 25q24 0 51 -9q4 7 8 7q12 -2 33 -13l-103 -49 q-68 -32 -104 -29zM760 1458l-10 -6q-39 2 -91 4.5t-65 3.5q-27 -18 -55 -18q-33 0 -84 31q-2 10 -2 20q80 51 209 117q50 -76 98 -152zM553 1047q4 12 4 26q0 21 -2 33q-2 -18 -2 -59zM514 926q-27 19 -70 47q9 205 9 319q0 71 -4 111q5 16 14 27q17 -3 35.5 -7.5 t21.5 -5.5q35 -12 49 -26q-31 -113 -55 -465zM676 918q-1 1 -55 -11q-55 -10 -60 -10q-8 21 -8 49q0 19 2 29q-7 3 -10 0q-3 -39 -10 -41q0 153 20 182q-1 1 -4 10q3 6 12 15q-4 4 -10 16q4 4 4 14q0 15 -2 25q12 9 12 49v55q3 15 13 25q-5 10 -5 16q0 19 14.5 49.5 t28.5 41.5q48 -2 142 -7q2 0 5 -1l-1 -1l10 -12q-16 -96 -45 -225q0 -104 -4 -144q-9 -90 -49 -124z" />
<glyph unicode="#" d="M2324 193q3 -72 -65 -72q-67 0 -70 78l17 14l22 -12q3 -43 29 -43q27 3 27 32q0 18 -33 54q-25 22 -47 47q-11 26 -11 41q0 69 64 69q62 0 65 -63l-38 -8q-3 35 -27 35q-21 0 -21 -31q0 -20 54 -74q34 -34 34 -67zM2075 123v233h-43v41h129v-41h-45v-233l-21 -14zM2269 0 h-8l35 74h8zM2185 2h-10v57h10l29 -34l27 34h10v-57h-13v39l-24 -33h-2l-27 33v-39zM987 1245l180 393l174 -391l431 -49l-318 -287l88 -424l-373 213l-376 -213l88 418l-320 293zM1855 397h48l53 -184v184h43v-274h-45l-58 176v-176h-41v235l-14 19zM2079 16v29q0 14 14 14 h43q14 0 14 -14v-29q0 -14 -14 -14h-43q-14 0 -14 14zM2044 37v10h-37v-35h37v13l12 -2v-7q0 -14 -14 -14h-35q-14 0 -14 14v29q0 14 14 14h35q14 0 14 -14v-6zM1753 401q66 0 66 -65v-150q0 -65 -66 -65q-65 0 -65 65v150q0 65 65 65zM1950 23h18q2 -2 2 -5v-12q0 -2 -2 -4 h-16q-2 0 -2 2v19zM1931 49h-26v-47h-15v47h-26v10h67v-10zM1583 240v-117h-41v233l-14 21l14 20h117v-41h-76v-75h55v-41h-55zM1776 16v29q0 14 14 14h43q14 0 14 -14v-29q0 -14 -14 -14h-43q-14 0 -14 14zM1706 2h-14v57h51q14 0 14 -12v-12q0 -10 -14 -10h-37v-23z M1485 164v-41h-113v274l21 17l20 -17v-233h72zM1657 43v6h-39v-12h37q14 0 14 -14v-7q0 -14 -14 -14h-37q-14 0 -14 14l10 2v-6h43v13h-37q-14 0 -14 14v6q0 14 14 14h33q14 0 14 -12v-2zM1567 43v4h-43v-35h43v13h-23v10h37v-19q0 -14 -14 -14h-41q-15 0 -15 14v29 q0 14 15 14h41q14 0 14 -14zM1343 123h-116v233l-15 21l15 20h116v-41h-75v-75h55v-41h-55v-76h75v-41zM1415 16v29q0 14 15 14h45q14 0 14 -14v-29q0 -14 -14 -14h-45q-15 0 -15 14zM1401 2h-58v57h15v-47h43v-10zM1124 119q-65 0 -65 65v150q0 67 65 67q66 0 66 -67v-31 h-43v33q0 24 -23 24q-24 0 -24 -24v-150q0 -24 24 -24q23 0 23 24v54h-23l-16 18l16 23h66v-97q0 -65 -66 -65zM1303 2h-48v57h52q12 0 12 -12v-6q0 -7 -8 -10q10 -3 10 -11v-8q0 -10 -18 -10zM1212 23h19v-21h-17q-4 0 -4 4v12q0 3 2 5zM893 397h63q66 0 66 -65v-39 q0 -29 -23 -49l31 -121h-45l-24 104h-27v-104h-41v235l-14 19zM1196 2h-57v57h14v-47h43v-10zM1118 2h-61v57h61v-10h-47v-12h27v-10h-27v-15h47v-10zM805 186h-43l-10 -63l-23 -12l-20 12l45 274h57l47 -274l-22 -12l-23 12zM1020 43v4h-43v-35h43v13h-23v10h37v-19 q0 -14 -14 -14h-41q-14 0 -14 14v29q0 14 14 14h41q14 0 14 -14zM893 2h-14v57h51q12 0 12 -12v-12q0 -12 -12 -12h-8l26 -21h-18l-25 21h-12v-21zM799 2h-15l33 57h14l33 -57h-14l-8 12h-37zM555 123v115l-55 159h45l30 -98l31 98h45l-55 -159v-115h-41zM756 2h-13v25 l-30 32h18l19 -22l20 22h16l-30 -30v-27zM522 164v-41h-112v274l18 17l23 -17v-233h71zM721 2h-59v57h14v-47h45v-10zM647 2h-57v57h12v-47h45v-10zM381 164v-41h-113v274l19 17l22 -17v-233h72zM563 2h-12v57h12v-57zM510 2h-47v57h51q12 0 12 -12v-6q0 -7 -10 -10 q10 -3 10 -11v-8q0 -10 -16 -10zM418 0h-8l34 74h9zM231 397v-274l-22 -14l-21 14v274h43zM381 0h-8l35 74h8zM350 59h10q3 0 5 -2v-18h-21v18q2 2 6 2zM344 23h21v-21h-19l-2 2v19zM90 123h-76v233l-14 19l14 22h62q71 0 71 -75q0 -40 -28 -56q35 -12 35 -65q0 -78 -64 -78 zM274 2h-14v57h51q15 0 15 -12v-12q0 -10 -15 -10h-37v-23zM244 49h-29v-47h-12v47h-27v10h68v-10zM170 49h-27v-47h-14v47h-27v10h68v-10zM29 2h-15v57h15v-22h43v22h12v-57h-12v25h-43v-25zM1280 698l45 29l-98 592h-123l-100 -592l47 -29l45 29l22 135h92l21 -135z M2091 47v-35h47v35h-47zM1776 186v150q0 24 -23 24q-24 0 -24 -24v-150q0 -24 24 -24q23 0 23 24zM1788 47v-35h45v35h-45zM1737 49h-31v-14h31q6 0 6 4v6q0 4 -6 4zM1430 47v-35h45v35h-45zM1300 49h-30v-12h30q7 0 7 4v4q0 4 -7 4zM1300 27h-30v-15h30q7 0 7 4v7q0 4 -7 4 zM981 291v41q0 22 -23 22h-24v-86h24q23 0 23 23zM799 227l-17 107l-14 -107h31zM924 49h-31v-16h31q6 0 6 4v8q0 4 -6 4zM823 49l-12 -24h27zM508 49h-33v-12h33q6 0 6 4v4q0 4 -6 4zM508 27h-33v-15h33q6 0 6 4v7q0 4 -6 4zM59 356v-71h17q28 0 28 37q0 34 -28 34h-17z M305 49h-31v-14h31q6 0 6 4v6q0 4 -6 4zM59 246v-82h17q33 0 33 39q0 43 -33 43h-17zM1130 950l33 234l35 -234h-68z" />
<glyph unicode="$" d="M2324 193q3 -72 -65 -72q-67 0 -70 78l17 14l22 -12q3 -43 29 -43q27 3 27 32q0 18 -33 54q-25 22 -47 47q-11 26 -11 41q0 69 64 69q62 0 65 -63l-38 -8q-3 35 -27 35q-21 0 -21 -31q0 -20 54 -74q34 -34 34 -67zM2075 123v233h-43v41h129v-41h-45v-233l-21 -14zM2269 0 h-8l35 74h8zM2185 2h-10v57h10l29 -34l27 34h10v-57h-13v39l-24 -33h-2l-27 33v-39zM987 1245l180 393l174 -391l431 -49l-318 -287l88 -424l-373 213l-376 -213l88 418l-320 293zM1855 397h48l53 -184v184h43v-274h-45l-58 176v-176h-41v235l-14 19zM2079 16v29q0 14 14 14 h43q14 0 14 -14v-29q0 -14 -14 -14h-43q-14 0 -14 14zM2044 37v10h-37v-35h37v13l12 -2v-7q0 -14 -14 -14h-35q-14 0 -14 14v29q0 14 14 14h35q14 0 14 -14v-6zM1753 401q66 0 66 -65v-150q0 -65 -66 -65q-65 0 -65 65v150q0 65 65 65zM1950 23h18q2 -2 2 -5v-12q0 -2 -2 -4 h-16q-2 0 -2 2v19zM1931 49h-26v-47h-15v47h-26v10h67v-10zM1583 240v-117h-41v233l-14 21l14 20h117v-41h-76v-75h55v-41h-55zM1776 16v29q0 14 14 14h43q14 0 14 -14v-29q0 -14 -14 -14h-43q-14 0 -14 14zM1706 2h-14v57h51q14 0 14 -12v-12q0 -10 -14 -10h-37v-23z M1485 164v-41h-113v274l21 17l20 -17v-233h72zM1657 43v6h-39v-12h37q14 0 14 -14v-7q0 -14 -14 -14h-37q-14 0 -14 14l10 2v-6h43v13h-37q-14 0 -14 14v6q0 14 14 14h33q14 0 14 -12v-2zM1567 43v4h-43v-35h43v13h-23v10h37v-19q0 -14 -14 -14h-41q-15 0 -15 14v29 q0 14 15 14h41q14 0 14 -14zM1343 123h-116v233l-15 21l15 20h116v-41h-75v-75h55v-41h-55v-76h75v-41zM1415 16v29q0 14 15 14h45q14 0 14 -14v-29q0 -14 -14 -14h-45q-15 0 -15 14zM1401 2h-58v57h15v-47h43v-10zM1124 119q-65 0 -65 65v150q0 67 65 67q66 0 66 -67v-31 h-43v33q0 24 -23 24q-24 0 -24 -24v-150q0 -24 24 -24q23 0 23 24v54h-23l-16 18l16 23h66v-97q0 -65 -66 -65zM1303 2h-48v57h52q12 0 12 -12v-6q0 -7 -8 -10q10 -3 10 -11v-8q0 -10 -18 -10zM1212 23h19v-21h-17q-4 0 -4 4v12q0 3 2 5zM893 397h63q66 0 66 -65v-39 q0 -29 -23 -49l31 -121h-45l-24 104h-27v-104h-41v235l-14 19zM1196 2h-57v57h14v-47h43v-10zM1118 2h-61v57h61v-10h-47v-12h27v-10h-27v-15h47v-10zM805 186h-43l-10 -63l-23 -12l-20 12l45 274h57l47 -274l-22 -12l-23 12zM1020 43v4h-43v-35h43v13h-23v10h37v-19 q0 -14 -14 -14h-41q-14 0 -14 14v29q0 14 14 14h41q14 0 14 -14zM893 2h-14v57h51q12 0 12 -12v-12q0 -12 -12 -12h-8l26 -21h-18l-25 21h-12v-21zM799 2h-15l33 57h14l33 -57h-14l-8 12h-37zM555 123v115l-55 159h45l30 -98l31 98h45l-55 -159v-115h-41zM756 2h-13v25 l-30 32h18l19 -22l20 22h16l-30 -30v-27zM522 164v-41h-112v274l18 17l23 -17v-233h71zM721 2h-59v57h14v-47h45v-10zM647 2h-57v57h12v-47h45v-10zM381 164v-41h-113v274l19 17l22 -17v-233h72zM563 2h-12v57h12v-57zM510 2h-47v57h51q12 0 12 -12v-6q0 -7 -10 -10 q10 -3 10 -11v-8q0 -10 -16 -10zM418 0h-8l34 74h9zM231 397v-274l-22 -14l-21 14v274h43zM381 0h-8l35 74h8zM350 59h10q3 0 5 -2v-18h-21v18q2 2 6 2zM344 23h21v-21h-19l-2 2v19zM90 123h-76v233l-14 19l14 22h62q71 0 71 -75q0 -40 -28 -56q35 -12 35 -65q0 -78 -64 -78 zM274 2h-14v57h51q15 0 15 -12v-12q0 -10 -15 -10h-37v-23zM244 49h-29v-47h-12v47h-27v10h68v-10zM170 49h-27v-47h-14v47h-27v10h68v-10zM29 2h-15v57h15v-22h43v22h12v-57h-12v25h-43v-25zM1280 698l45 29l-98 592h-123l-100 -592l47 -29l45 29l22 135h92l21 -135z M2091 47v-35h47v35h-47zM1776 186v150q0 24 -23 24q-24 0 -24 -24v-150q0 -24 24 -24q23 0 23 24zM1788 47v-35h45v35h-45zM1737 49h-31v-14h31q6 0 6 4v6q0 4 -6 4zM1430 47v-35h45v35h-45zM1300 49h-30v-12h30q7 0 7 4v4q0 4 -7 4zM1300 27h-30v-15h30q7 0 7 4v7q0 4 -7 4 zM981 291v41q0 22 -23 22h-24v-86h24q23 0 23 23zM799 227l-17 107l-14 -107h31zM924 49h-31v-16h31q6 0 6 4v8q0 4 -6 4zM823 49l-12 -24h27zM508 49h-33v-12h33q6 0 6 4v4q0 4 -6 4zM508 27h-33v-15h33q6 0 6 4v7q0 4 -6 4zM59 356v-71h17q28 0 28 37q0 34 -28 34h-17z M305 49h-31v-14h31q6 0 6 4v6q0 4 -6 4zM59 246v-82h17q33 0 33 39q0 43 -33 43h-17zM1130 950l33 234l35 -234h-68z" />
<glyph unicode="%" d="M2324 193q3 -72 -65 -72q-67 0 -70 78l17 14l22 -12q3 -43 29 -43q27 3 27 32q0 18 -33 54q-25 22 -47 47q-11 26 -11 41q0 69 64 69q62 0 65 -63l-38 -8q-3 35 -27 35q-21 0 -21 -31q0 -20 54 -74q34 -34 34 -67zM2075 123v233h-43v41h129v-41h-45v-233l-21 -14zM2269 0 h-8l35 74h8zM2185 2h-10v57h10l29 -34l27 34h10v-57h-13v39l-24 -33h-2l-27 33v-39zM987 1245l180 393l174 -391l431 -49l-318 -287l88 -424l-373 213l-376 -213l88 418l-320 293zM1855 397h48l53 -184v184h43v-274h-45l-58 176v-176h-41v235l-14 19zM2079 16v29q0 14 14 14 h43q14 0 14 -14v-29q0 -14 -14 -14h-43q-14 0 -14 14zM2044 37v10h-37v-35h37v13l12 -2v-7q0 -14 -14 -14h-35q-14 0 -14 14v29q0 14 14 14h35q14 0 14 -14v-6zM1753 401q66 0 66 -65v-150q0 -65 -66 -65q-65 0 -65 65v150q0 65 65 65zM1950 23h18q2 -2 2 -5v-12q0 -2 -2 -4 h-16q-2 0 -2 2v19zM1931 49h-26v-47h-15v47h-26v10h67v-10zM1583 240v-117h-41v233l-14 21l14 20h117v-41h-76v-75h55v-41h-55zM1776 16v29q0 14 14 14h43q14 0 14 -14v-29q0 -14 -14 -14h-43q-14 0 -14 14zM1706 2h-14v57h51q14 0 14 -12v-12q0 -10 -14 -10h-37v-23z M1485 164v-41h-113v274l21 17l20 -17v-233h72zM1657 43v6h-39v-12h37q14 0 14 -14v-7q0 -14 -14 -14h-37q-14 0 -14 14l10 2v-6h43v13h-37q-14 0 -14 14v6q0 14 14 14h33q14 0 14 -12v-2zM1567 43v4h-43v-35h43v13h-23v10h37v-19q0 -14 -14 -14h-41q-15 0 -15 14v29 q0 14 15 14h41q14 0 14 -14zM1343 123h-116v233l-15 21l15 20h116v-41h-75v-75h55v-41h-55v-76h75v-41zM1415 16v29q0 14 15 14h45q14 0 14 -14v-29q0 -14 -14 -14h-45q-15 0 -15 14zM1401 2h-58v57h15v-47h43v-10zM1124 119q-65 0 -65 65v150q0 67 65 67q66 0 66 -67v-31 h-43v33q0 24 -23 24q-24 0 -24 -24v-150q0 -24 24 -24q23 0 23 24v54h-23l-16 18l16 23h66v-97q0 -65 -66 -65zM1303 2h-48v57h52q12 0 12 -12v-6q0 -7 -8 -10q10 -3 10 -11v-8q0 -10 -18 -10zM1212 23h19v-21h-17q-4 0 -4 4v12q0 3 2 5zM893 397h63q66 0 66 -65v-39 q0 -29 -23 -49l31 -121h-45l-24 104h-27v-104h-41v235l-14 19zM1196 2h-57v57h14v-47h43v-10zM1118 2h-61v57h61v-10h-47v-12h27v-10h-27v-15h47v-10zM805 186h-43l-10 -63l-23 -12l-20 12l45 274h57l47 -274l-22 -12l-23 12zM1020 43v4h-43v-35h43v13h-23v10h37v-19 q0 -14 -14 -14h-41q-14 0 -14 14v29q0 14 14 14h41q14 0 14 -14zM893 2h-14v57h51q12 0 12 -12v-12q0 -12 -12 -12h-8l26 -21h-18l-25 21h-12v-21zM799 2h-15l33 57h14l33 -57h-14l-8 12h-37zM555 123v115l-55 159h45l30 -98l31 98h45l-55 -159v-115h-41zM756 2h-13v25 l-30 32h18l19 -22l20 22h16l-30 -30v-27zM522 164v-41h-112v274l18 17l23 -17v-233h71zM721 2h-59v57h14v-47h45v-10zM647 2h-57v57h12v-47h45v-10zM381 164v-41h-113v274l19 17l22 -17v-233h72zM563 2h-12v57h12v-57zM510 2h-47v57h51q12 0 12 -12v-6q0 -7 -10 -10 q10 -3 10 -11v-8q0 -10 -16 -10zM418 0h-8l34 74h9zM231 397v-274l-22 -14l-21 14v274h43zM381 0h-8l35 74h8zM350 59h10q3 0 5 -2v-18h-21v18q2 2 6 2zM344 23h21v-21h-19l-2 2v19zM90 123h-76v233l-14 19l14 22h62q71 0 71 -75q0 -40 -28 -56q35 -12 35 -65q0 -78 -64 -78 zM274 2h-14v57h51q15 0 15 -12v-12q0 -10 -15 -10h-37v-23zM244 49h-29v-47h-12v47h-27v10h68v-10zM170 49h-27v-47h-14v47h-27v10h68v-10zM29 2h-15v57h15v-22h43v22h12v-57h-12v25h-43v-25zM1280 698l45 29l-98 592h-123l-100 -592l47 -29l45 29l22 135h92l21 -135z M2091 47v-35h47v35h-47zM1776 186v150q0 24 -23 24q-24 0 -24 -24v-150q0 -24 24 -24q23 0 23 24zM1788 47v-35h45v35h-45zM1737 49h-31v-14h31q6 0 6 4v6q0 4 -6 4zM1430 47v-35h45v35h-45zM1300 49h-30v-12h30q7 0 7 4v4q0 4 -7 4zM1300 27h-30v-15h30q7 0 7 4v7q0 4 -7 4 zM981 291v41q0 22 -23 22h-24v-86h24q23 0 23 23zM799 227l-17 107l-14 -107h31zM924 49h-31v-16h31q6 0 6 4v8q0 4 -6 4zM823 49l-12 -24h27zM508 49h-33v-12h33q6 0 6 4v4q0 4 -6 4zM508 27h-33v-15h33q6 0 6 4v7q0 4 -6 4zM59 356v-71h17q28 0 28 37q0 34 -28 34h-17z M305 49h-31v-14h31q6 0 6 4v6q0 4 -6 4zM59 246v-82h17q33 0 33 39q0 43 -33 43h-17zM1130 950l33 234l35 -234h-68z" />
<glyph unicode="'" horiz-adv-x="425" d="M53 1450q35 44 201 111q83 -59 88 -64q56 -47 64 -78q-71 3 -224 0q-27 15 -45 15q-15 0 -26 -11q-16 7 -58 27zM178 934q-8 159 -8 295q0 101 6 160q-4 4 -10 6l6 12l8 -8q9 6 51 6q163 0 191 -31q-16 -93 -29 -180q3 -162 -10 -293q-42 4 -152 10q-30 20 -53 23z M35 940q-6 99 -6 188q0 146 16 287q87 -37 100 -37q0 -26 -8 -151q-3 -39 6 -109q11 -94 11 -108q0 -55 -13 -78q-88 -3 -106 8zM168 803l-121 96q24 8 47 8q16 0 53 -16q31 -16 52 -23q47 21 82 21q30 0 57 -12q6 6 10 6q2 -1 31 -15q-161 -68 -211 -65z" />
<glyph unicode="(" d="M2324 193q3 -72 -65 -72q-67 0 -70 78l17 14l22 -12q3 -43 29 -43q27 3 27 32q0 18 -33 54q-25 22 -47 47q-11 26 -11 41q0 69 64 69q62 0 65 -63l-38 -8q-3 35 -27 35q-21 0 -21 -31q0 -20 54 -74q34 -34 34 -67zM2075 123v233h-43v41h129v-41h-45v-233l-21 -14zM2269 0 h-8l35 74h8zM2185 2h-10v57h10l29 -34l27 34h10v-57h-13v39l-24 -33h-2l-27 33v-39zM987 1245l180 393l174 -391l431 -49l-318 -287l88 -424l-373 213l-376 -213l88 418l-320 293zM1855 397h48l53 -184v184h43v-274h-45l-58 176v-176h-41v235l-14 19zM2079 16v29q0 14 14 14 h43q14 0 14 -14v-29q0 -14 -14 -14h-43q-14 0 -14 14zM2044 37v10h-37v-35h37v13l12 -2v-7q0 -14 -14 -14h-35q-14 0 -14 14v29q0 14 14 14h35q14 0 14 -14v-6zM1753 401q66 0 66 -65v-150q0 -65 -66 -65q-65 0 -65 65v150q0 65 65 65zM1950 23h18q2 -2 2 -5v-12q0 -2 -2 -4 h-16q-2 0 -2 2v19zM1931 49h-26v-47h-15v47h-26v10h67v-10zM1583 240v-117h-41v233l-14 21l14 20h117v-41h-76v-75h55v-41h-55zM1776 16v29q0 14 14 14h43q14 0 14 -14v-29q0 -14 -14 -14h-43q-14 0 -14 14zM1706 2h-14v57h51q14 0 14 -12v-12q0 -10 -14 -10h-37v-23z M1485 164v-41h-113v274l21 17l20 -17v-233h72zM1657 43v6h-39v-12h37q14 0 14 -14v-7q0 -14 -14 -14h-37q-14 0 -14 14l10 2v-6h43v13h-37q-14 0 -14 14v6q0 14 14 14h33q14 0 14 -12v-2zM1567 43v4h-43v-35h43v13h-23v10h37v-19q0 -14 -14 -14h-41q-15 0 -15 14v29 q0 14 15 14h41q14 0 14 -14zM1343 123h-116v233l-15 21l15 20h116v-41h-75v-75h55v-41h-55v-76h75v-41zM1415 16v29q0 14 15 14h45q14 0 14 -14v-29q0 -14 -14 -14h-45q-15 0 -15 14zM1401 2h-58v57h15v-47h43v-10zM1124 119q-65 0 -65 65v150q0 67 65 67q66 0 66 -67v-31 h-43v33q0 24 -23 24q-24 0 -24 -24v-150q0 -24 24 -24q23 0 23 24v54h-23l-16 18l16 23h66v-97q0 -65 -66 -65zM1303 2h-48v57h52q12 0 12 -12v-6q0 -7 -8 -10q10 -3 10 -11v-8q0 -10 -18 -10zM1212 23h19v-21h-17q-4 0 -4 4v12q0 3 2 5zM893 397h63q66 0 66 -65v-39 q0 -29 -23 -49l31 -121h-45l-24 104h-27v-104h-41v235l-14 19zM1196 2h-57v57h14v-47h43v-10zM1118 2h-61v57h61v-10h-47v-12h27v-10h-27v-15h47v-10zM805 186h-43l-10 -63l-23 -12l-20 12l45 274h57l47 -274l-22 -12l-23 12zM1020 43v4h-43v-35h43v13h-23v10h37v-19 q0 -14 -14 -14h-41q-14 0 -14 14v29q0 14 14 14h41q14 0 14 -14zM893 2h-14v57h51q12 0 12 -12v-12q0 -12 -12 -12h-8l26 -21h-18l-25 21h-12v-21zM799 2h-15l33 57h14l33 -57h-14l-8 12h-37zM555 123v115l-55 159h45l30 -98l31 98h45l-55 -159v-115h-41zM756 2h-13v25 l-30 32h18l19 -22l20 22h16l-30 -30v-27zM522 164v-41h-112v274l18 17l23 -17v-233h71zM721 2h-59v57h14v-47h45v-10zM647 2h-57v57h12v-47h45v-10zM381 164v-41h-113v274l19 17l22 -17v-233h72zM563 2h-12v57h12v-57zM510 2h-47v57h51q12 0 12 -12v-6q0 -7 -10 -10 q10 -3 10 -11v-8q0 -10 -16 -10zM418 0h-8l34 74h9zM231 397v-274l-22 -14l-21 14v274h43zM381 0h-8l35 74h8zM350 59h10q3 0 5 -2v-18h-21v18q2 2 6 2zM344 23h21v-21h-19l-2 2v19zM90 123h-76v233l-14 19l14 22h62q71 0 71 -75q0 -40 -28 -56q35 -12 35 -65q0 -78 -64 -78 zM274 2h-14v57h51q15 0 15 -12v-12q0 -10 -15 -10h-37v-23zM244 49h-29v-47h-12v47h-27v10h68v-10zM170 49h-27v-47h-14v47h-27v10h68v-10zM29 2h-15v57h15v-22h43v22h12v-57h-12v25h-43v-25zM1280 698l45 29l-98 592h-123l-100 -592l47 -29l45 29l22 135h92l21 -135z M2091 47v-35h47v35h-47zM1776 186v150q0 24 -23 24q-24 0 -24 -24v-150q0 -24 24 -24q23 0 23 24zM1788 47v-35h45v35h-45zM1737 49h-31v-14h31q6 0 6 4v6q0 4 -6 4zM1430 47v-35h45v35h-45zM1300 49h-30v-12h30q7 0 7 4v4q0 4 -7 4zM1300 27h-30v-15h30q7 0 7 4v7q0 4 -7 4 zM981 291v41q0 22 -23 22h-24v-86h24q23 0 23 23zM799 227l-17 107l-14 -107h31zM924 49h-31v-16h31q6 0 6 4v8q0 4 -6 4zM823 49l-12 -24h27zM508 49h-33v-12h33q6 0 6 4v4q0 4 -6 4zM508 27h-33v-15h33q6 0 6 4v7q0 4 -6 4zM59 356v-71h17q28 0 28 37q0 34 -28 34h-17z M305 49h-31v-14h31q6 0 6 4v6q0 4 -6 4zM59 246v-82h17q33 0 33 39q0 43 -33 43h-17zM1130 950l33 234l35 -234h-68z" />
<glyph unicode=")" d="M2324 193q3 -72 -65 -72q-67 0 -70 78l17 14l22 -12q3 -43 29 -43q27 3 27 32q0 18 -33 54q-25 22 -47 47q-11 26 -11 41q0 69 64 69q62 0 65 -63l-38 -8q-3 35 -27 35q-21 0 -21 -31q0 -20 54 -74q34 -34 34 -67zM2075 123v233h-43v41h129v-41h-45v-233l-21 -14zM2269 0 h-8l35 74h8zM2185 2h-10v57h10l29 -34l27 34h10v-57h-13v39l-24 -33h-2l-27 33v-39zM987 1245l180 393l174 -391l431 -49l-318 -287l88 -424l-373 213l-376 -213l88 418l-320 293zM1855 397h48l53 -184v184h43v-274h-45l-58 176v-176h-41v235l-14 19zM2079 16v29q0 14 14 14 h43q14 0 14 -14v-29q0 -14 -14 -14h-43q-14 0 -14 14zM2044 37v10h-37v-35h37v13l12 -2v-7q0 -14 -14 -14h-35q-14 0 -14 14v29q0 14 14 14h35q14 0 14 -14v-6zM1753 401q66 0 66 -65v-150q0 -65 -66 -65q-65 0 -65 65v150q0 65 65 65zM1950 23h18q2 -2 2 -5v-12q0 -2 -2 -4 h-16q-2 0 -2 2v19zM1931 49h-26v-47h-15v47h-26v10h67v-10zM1583 240v-117h-41v233l-14 21l14 20h117v-41h-76v-75h55v-41h-55zM1776 16v29q0 14 14 14h43q14 0 14 -14v-29q0 -14 -14 -14h-43q-14 0 -14 14zM1706 2h-14v57h51q14 0 14 -12v-12q0 -10 -14 -10h-37v-23z M1485 164v-41h-113v274l21 17l20 -17v-233h72zM1657 43v6h-39v-12h37q14 0 14 -14v-7q0 -14 -14 -14h-37q-14 0 -14 14l10 2v-6h43v13h-37q-14 0 -14 14v6q0 14 14 14h33q14 0 14 -12v-2zM1567 43v4h-43v-35h43v13h-23v10h37v-19q0 -14 -14 -14h-41q-15 0 -15 14v29 q0 14 15 14h41q14 0 14 -14zM1343 123h-116v233l-15 21l15 20h116v-41h-75v-75h55v-41h-55v-76h75v-41zM1415 16v29q0 14 15 14h45q14 0 14 -14v-29q0 -14 -14 -14h-45q-15 0 -15 14zM1401 2h-58v57h15v-47h43v-10zM1124 119q-65 0 -65 65v150q0 67 65 67q66 0 66 -67v-31 h-43v33q0 24 -23 24q-24 0 -24 -24v-150q0 -24 24 -24q23 0 23 24v54h-23l-16 18l16 23h66v-97q0 -65 -66 -65zM1303 2h-48v57h52q12 0 12 -12v-6q0 -7 -8 -10q10 -3 10 -11v-8q0 -10 -18 -10zM1212 23h19v-21h-17q-4 0 -4 4v12q0 3 2 5zM893 397h63q66 0 66 -65v-39 q0 -29 -23 -49l31 -121h-45l-24 104h-27v-104h-41v235l-14 19zM1196 2h-57v57h14v-47h43v-10zM1118 2h-61v57h61v-10h-47v-12h27v-10h-27v-15h47v-10zM805 186h-43l-10 -63l-23 -12l-20 12l45 274h57l47 -274l-22 -12l-23 12zM1020 43v4h-43v-35h43v13h-23v10h37v-19 q0 -14 -14 -14h-41q-14 0 -14 14v29q0 14 14 14h41q14 0 14 -14zM893 2h-14v57h51q12 0 12 -12v-12q0 -12 -12 -12h-8l26 -21h-18l-25 21h-12v-21zM799 2h-15l33 57h14l33 -57h-14l-8 12h-37zM555 123v115l-55 159h45l30 -98l31 98h45l-55 -159v-115h-41zM756 2h-13v25 l-30 32h18l19 -22l20 22h16l-30 -30v-27zM522 164v-41h-112v274l18 17l23 -17v-233h71zM721 2h-59v57h14v-47h45v-10zM647 2h-57v57h12v-47h45v-10zM381 164v-41h-113v274l19 17l22 -17v-233h72zM563 2h-12v57h12v-57zM510 2h-47v57h51q12 0 12 -12v-6q0 -7 -10 -10 q10 -3 10 -11v-8q0 -10 -16 -10zM418 0h-8l34 74h9zM231 397v-274l-22 -14l-21 14v274h43zM381 0h-8l35 74h8zM350 59h10q3 0 5 -2v-18h-21v18q2 2 6 2zM344 23h21v-21h-19l-2 2v19zM90 123h-76v233l-14 19l14 22h62q71 0 71 -75q0 -40 -28 -56q35 -12 35 -65q0 -78 -64 -78 zM274 2h-14v57h51q15 0 15 -12v-12q0 -10 -15 -10h-37v-23zM244 49h-29v-47h-12v47h-27v10h68v-10zM170 49h-27v-47h-14v47h-27v10h68v-10zM29 2h-15v57h15v-22h43v22h12v-57h-12v25h-43v-25zM1280 698l45 29l-98 592h-123l-100 -592l47 -29l45 29l22 135h92l21 -135z M2091 47v-35h47v35h-47zM1776 186v150q0 24 -23 24q-24 0 -24 -24v-150q0 -24 24 -24q23 0 23 24zM1788 47v-35h45v35h-45zM1737 49h-31v-14h31q6 0 6 4v6q0 4 -6 4zM1430 47v-35h45v35h-45zM1300 49h-30v-12h30q7 0 7 4v4q0 4 -7 4zM1300 27h-30v-15h30q7 0 7 4v7q0 4 -7 4 zM981 291v41q0 22 -23 22h-24v-86h24q23 0 23 23zM799 227l-17 107l-14 -107h31zM924 49h-31v-16h31q6 0 6 4v8q0 4 -6 4zM823 49l-12 -24h27zM508 49h-33v-12h33q6 0 6 4v4q0 4 -6 4zM508 27h-33v-15h33q6 0 6 4v7q0 4 -6 4zM59 356v-71h17q28 0 28 37q0 34 -28 34h-17z M305 49h-31v-14h31q6 0 6 4v6q0 4 -6 4zM59 246v-82h17q33 0 33 39q0 43 -33 43h-17zM1130 950l33 234l35 -234h-68z" />
<glyph unicode="," horiz-adv-x="538" d="M453 127q-15 -63 -39 -104q-18 -23 -80 -82q-39 -26 -168 -97q-3 3 -12 41q4 2 20 13.5t29 19.5q0 6 18 20.5t19 16.5q69 47 96 68q43 40 43 88q0 22 -6 43q-36 64 -74 84q-29 16 -109 28q89 71 140 68q21 -24 92 -113q15 -55 31 -94zM156 -84q30 80 30 123q0 32 -18 47 q-27 -10 -41 -10q-52 0 -49 114q3 3 8 3q0 6 2 8h8q0 23 43 26q-5 -1 4 -1.5t56 -0.5q0 13 2 15q161 -15 161 -146q-35 -54 -94 -98q-36 -28 -112 -80zM156 25h-54q-59 24 -59 59q0 15 6 33q22 -43 39 -51q14 -5 68 -13v-28z" />
<glyph unicode="-" horiz-adv-x="649" d="M621 571h-15q-45 35 -96 72l27 129q4 2 10 2l4 25q20 15 76 55zM170 791q-64 10 -109 16l-4 -10q-6 2 -26 6q50 64 98 106q10 -1 27.5 -3t49.5 -6t58 -7q52 -7 342 -23q-12 -38 -76 -47q-35 0 -94 -2q-162 -21 -266 -30zM33 621q-10 78 -10 112q0 25 2 33q51 3 77 6v10 l387 22h1h1h1h1h1h1h1h1h1h1h1h1l1 1h1h1h1h1h1h1h1h1h2v-8l-16 -4q0 -24 24 -33q-25 -84 -35 -107q-85 -7 -452 -32zM88 502q-12 4 -16 6v10h-9q-22 33 -55 66q0 69 2 100l10 -92q8 1 242 31q192 3 219 0q14 -6 27 -13t23 -12.5t14 -7.5q43 -25 53 -45q-38 -6 -104 -21 q-133 17 -187 17q-147 -29 -219 -39z" />
<glyph unicode="." horiz-adv-x="538" d="M317 8q4 8 31 29q25 55 25 104q0 69 -41.5 108.5t-110.5 35.5q-18 -12 -28 -17q72 84 215 99q110 -168 110 -232q0 -24 -8 -37q-86 -74 -193 -90zM195 -12q-52 21 -68 37q-26 26 -39 67q9 93 117 170q1 -2 2 -5.5t2 -4.5q67 2 95.5 -14t57.5 -72q-3 -79 -26.5 -116.5 t-67.5 -33.5q-1 -1 -1.5 -3t-1 -5.5t-1.5 -5.5q-8 -1 -32 -6t-37 -8z" />
<glyph unicode="/" horiz-adv-x="983" d="M20 211q76 37 164 72q26 -2 88 -29q-19 -16 -26 -18q-3 -13 2 -21q-87 -101 -195 -176q-35 24 -35 141q0 25 2 31zM578 1452q39 34 241 178q-126 -234 -373 -737l-286 -584q-113 -76 -146 -76q-6 0 -12 3q230 427 576 1216zM850 1636l123 -77q6 -21 6 -41q0 -13 -4 -33 q-21 -39 -526 -1006q-78 -147 -142 -211q-43 24 -119 49q92 233 463 961q89 178 92 182q56 103 107 176zM872 1262q-100 -220 -272 -560q-56 -106 -164 -282l-14 -17v5l217 430q117 236 233 424zM874 1280l31 47q-6 -12 -14.5 -30.5t-11.5 -24.5q0 1 -1 2t-2 2.5t-2 3.5z " />
<glyph unicode="0" horiz-adv-x="1261" d="M1204 858q0 -134 -33 -246q-2 -4 -7 -15t-10.5 -23.5t-10.5 -26.5q-62 -103 -66 -107q-40 -66 -88 -82q111 237 111 396q0 51 -13 114q-1 4 -4.5 17t-9.5 38l-12 50q-55 116 -184 272q40 -12 84 -41q54 -35 65 -55q153 -96 176 -207q2 -29 2 -84zM1081 827v-98 q0 -35 -2 -55q-5 -5 -32 -142q-16 -38 -33 -75.5t-17 -38.5q-34 -69 -71 -96q0 1 -13 22h-16q0 -7 -76 -68q-91 -26 -194 -26q-188 0 -310 90q-131 101 -137 283q40 185 135 381q10 19 101 172q53 67 59 77h8q40 56 52 68q35 38 69 49q0 -23 -2 -29l10 -10q138 -18 209 -59 q167 -189 226 -309zM907 827q-41 122 -162 205q-59 17 -159 17q-133 0 -133 -52q51 25 71 27q-132 -126 -162 -281q7 -33 37 -104h11q81 -100 202 -100q110 0 226 82q63 100 69 206zM885 834q-22 25 -31 40q-59 39 -117 39q-55 0 -123 -39q-26 -18 -59.5 -42t-40.5 -29 q-9 -9 -102 -115q-20 9 -29 82q19 58 49 133h8q64 99 150 117q1 1 2 4.5t2 5.5h14q213 0 277 -196zM877 764q0 -18 -11 -51q-64 -129 -221 -150q-200 0 -221 105q131 174 268 217h58q127 -27 127 -121zM766 242h12q-64 -37 -141 -37q-83 0 -260 61q-141 106 -187 140 q-15 23 -53 71q-72 177 -78 314q38 213 203 411q8 6 45 51l111 74q55 37 119 37h20q-306 -327 -391 -754q0 -113 68.5 -206.5t181.5 -141.5q113 -32 233 -35l90 13q10 2 27 2z" />
<glyph unicode="1" horiz-adv-x="745" d="M266 1313q-18 -82 -28 -119q-10 1 -27.5 -20.5t-44.5 -67.5l-10 -19q8 17 10 19l29 43q8 11 8 22v3l-197 -259l-12 -6q-1 1 -1.5 3.5t-1 6t-1.5 5.5l26 166q22 23 199 196q8 3 25 13t26 14zM635 506q-31 -64 -111 -189h-6l-53 -90v6q10 85 10 234v176q0 15 2 62v40 q0 131 -8 207q0 173 29 265q22 36 22 40q0 7 -4 15h-12q-5 -16 -41 -98q-60 8 -207 24v21l12 69q15 44 41 47q39 -8 211 -49l23 -82q14 -291 51 -522q30 -96 41 -176zM737 406q-13 -18 -26.5 -38.5t-22 -32.5t-12.5 -18q-41 -53 -72 -75q-21 -34 -45 -56q-10 16 -78 25v10 l86 144q53 80 101 131v-13q0 -8 6 -32q12 6 12 26q24 -24 51 -71zM537 170l-7 -94h-155q-157 0 -236 8l-4 96v31q51 2 103 2h20v16q0 -1 -2 10t-6 36.5t-10 60.5l-11 436q-6 2 -16 2q-49 -49 -129 -49h-16q-22 39 -70 141q17 21 98.5 121t141.5 174q2 -8 6 -28q10 10 10 20 q0 -3 0 1q-1 7 -2 15q109 -3 197 -20q3 -3 6 -213q3 -80 0 -176l-2 -115q0 -49 2 -84q2 -39 2 -84q0 -122 -21 -272q11 -14 49 -17q43 -3 52 -18zM756 383l-17 -246q-8 0 -16 -2q-24 -9 -170 -72v43q2 29 33 82h6l158 197q4 0 6 -2zM236 252v-14l-76 -2v6q8 6 30 41 q17 25 41 32q1 -15 2 -29.5t2 -23t1 -10.5zM350 63h2v-4h-2v4zM342 63h4v-4h-4v4zM264 63l12 -4q-4 0 -8 -2q-1 1 -2 3t-2 3z" />
<glyph unicode="2" horiz-adv-x="1009" d="M985 991q-24 -102 -43 -153q-37 -90 -90 -131q-130 -164 -270 -250q-18 0 -27 -19q-52 -31 -205 -116q-11 -4 -23.5 -8.5t-18 -6.5t-7.5 -2h-4q93 77 332 293q106 135 133 176q71 109 92 199l-2 102l-25 74q-50 74 -143 117q-47 22 -180 59h-6q-69 0 -142 -8 q186 82 318 82q119 0 205 -68q3 -7 10 -10q93 -122 96 -330zM600 1016q-1 -3 -14 -44t-21 -71q-22 -43 -92 -160q47 165 47 205q0 17 -4 53h-8q-9 27 -49 27q-24 0 -37 -8q-22 -26 -41 -41q-34 -64 -78 -197q-11 57 -14 129q24 79 51 138q4 5 21 23.5t30 33.5q59 26 94 26 q32 0 80 -28q18 -30 35 -86zM217 1229q0 -13 -61 -62q-49 -88 -70 -88l-2 2q2 6 45 68q5 7 88 80zM983 74q-50 23 -147 86q21 21 30 137l4 43q70 116 88 137q16 -83 25 -403zM842 313q-3 -62 -15 -118q-89 -11 -215 -35q-65 -2 -239 -33q-173 -32 -238 -37q-14 11 -14 129 q0 45 2 68q4 12 6 20q67 85 182 211q127 139 185 215q118 196 118 301v17l-43 73q-51 31 -94 31q-138 0 -205 -235v-19q0 -15 3.5 -64t3.5 -65v-2q-61 -20 -140 -43q-41 15 -41 207q0 -4 0 -3l2 13v55v50h9q18 81 102 153q68 57 162 92l39 4q14 2 55 2h27q243 -40 319 -172 l25 -73l-2 -101q-102 -277 -410 -508q0 -5 -201 -182v-18q12 -6 33 -6q28 0 55 12l525 63q2 0 4 -2zM920 467q-19 -42 -80 -125l-467 -57l-62 -9q-1 0 -4 3q37 16 258 139q107 32 355 49zM100 711q-6 -37 -63 -117l-6 2q-6 78 -21 209q22 129 56 233q2 -6 2 -10h12v-10 q0 -111 20 -307zM289 741q0 -20 -14.5 -48.5t-30.5 -35.5q-9 -22 -80 -43q-61 -20 -96 -20l-7 12l43 68q70 58 185 67zM379 639q0 -17 -41 -64q-43 -50 -59 -61q-2 -6 -26 -31t-30 -26q-43 -59 -127 -140q0 -12 -2 -24l6 -2q2 -18 2 -74v-131q-15 -30 -59 -86v18q2 12 2 31 v51q0 58 -12 99v4q0 26 -2 49q10 24 26 51l90 123q53 74 109 109q12 22 123 104z" />
<glyph unicode="3" horiz-adv-x="1056" d="M918 1337q-28 -159 -76 -303q-26 -20 -105 -20h-26q-12 2 -25 2q12 23 22 43t17 34.5t8 16.5q29 51 62 84q22 -16 28 -16q10 0 19 34q0 1 76 125zM868 1352h31q-15 -103 -100 -103q-16 0 -31 6l-354 -6q-81 0 -140 2q-42 8 -96 31q88 27 217 33l219 12q5 1 46.5 5t80.5 9 q101 11 127 11zM1057 612q0 -107 -39 -217l-62 -94q-31 -45 -75 -82h-7q63 63 121 197q1 13 13 94q-12 101 -27 160q-88 191 -174 237v8q-47 34 -111 64v8q9 1 51.5 4.5t73.5 5.5q1 -2 2 -8.5t2 -9.5q102 -21 142 -133q41 -46 77 -127q13 -57 13 -107zM516 1036l-129 -182 q-23 -9 -78 -18l-4 12q5 12 14.5 30.5t24.5 48t27 54.5q30 3 30 18q0 4 -2 18.5t-2 18.5q8 0 38 2t38 2q23 0 43 -4zM313 1071q0 -17 -16 -20q0 -23 -143 -93l-4 9q-18 150 -29 301q20 -7 29 -8v14q70 -37 122 -49q0 -25 21 -78q20 -50 20 -76zM367 1036q-3 -32 -21 -41 q-132 -30 -129 -30q-10 0 -12 2q60 37 78 45q37 18 84 24zM985 471v-8q-19 -75 -76 -174l-94 -99q-33 -14 -104 -49v-6q-82 -29 -158 -29q-48 0 -121 13q-48 18 -186 84q-96 72 -99 196q2 21 17 64q75 29 217 59q4 -40 4 -59q0 -53 -12 -90q22 -13 53 -27q7 -1 59 -8 q210 35 234 166l-2 90q-21 79 -180 172v6q-2 1 -7 2t-8 2v6q-43 36 -104 72q47 87 63 109q47 72 86 86v26q-6 6 -10 8l-16 -4v-6q-46 -14 -113 -14q-58 0 -90 14q-13 18 -29 78q-13 60 -26 78q106 0 190 2q86 2 193 2q96 0 139 -2v-6q-29 -19 -78 -113q-50 -93 -84 -102 q-6 -12 -6 -21q0 -8 2 -12q16 -4 61 -31t58 -31v-8q88 -40 174 -174q53 -121 53 -262zM702 573q0 -70 -14 -98q-17 -38 -70.5 -74t-123.5 -36q-31 0 -50 8q156 77 156 174q0 34 -16 80q-73 98 -265 186q9 1 22 3t32.5 5.5t34.5 5.5q15 -6 47 -22v-6q31 -13 51 -29 q54 -39 115 -86q72 -63 81 -111zM371 547q-66 -27 -217 -47q-44 17 -80 84l194 12q34 3 84 -6q7 -20 19 -43zM463 90q-28 -4 -45 -4q-83 0 -232 64q-2 4 -14 8v6q-138 86 -168 297q12 77 27 123q48 -9 94 -111q12 0 18 -2q-2 -22 -12 -100q18 -122 115 -191q68 -47 217 -90z " />
<glyph unicode="4" horiz-adv-x="1181" d="M754 1548q-3 -5 -66 -94q-56 -33 -199 -33q-68 0 -88 17q-19 0 -65 75q182 20 418 35zM815 987v-16q-10 -53 -45 -105l-68 -98q-7 340 -10 444q7 64 13 242l47 55q24 40 30 43q2 -52 19 -282q14 -167 14 -283zM1169 621q-93 -46 -110 -46h-8q-21 71 -21 138v8l-6 33 q17 38 53 178q47 -114 92 -311zM1059 977q-8 -92 -58 -240l-231 -26q-32 0 -59 6q-3 6 -6 24q65 102 129 195q20 7 225 41zM1120 569q-48 -43 -131 -59q-50 -9 -149 -18q-21 -3 -47 -3q-143 0 -195 43q159 17 424 31q5 -21 9 -26t24 -9v9h8q17 26 57 32zM401 1401 q0 -15 -65 -133q-38 -51 -94 -146q-71 -81 -158 -213q-22 -16 -49 -65q-23 -47 -43 -64l-2 11q26 52 92 213l100 249q48 117 123 238q3 7 6 20q10 -5 90 -110zM1008 694l10 -100q-131 -12 -494 -35q-8 -8 -8 -18q0 -11 12 -23q0 -50 13 -196q1 -2 8 -60q6 -41 6 -61 q-124 -37 -133 -37q-8 0 -10 2v2q0 6 -54 307l-6 82q10 30 10 41q0 23 -2 25q-10 0 -34 -17q-67 -16 -236 -45q-2 -5 -18 -14q-34 79 -62 201q4 0 6 2q0 30 27 71l45 66l72 106q60 85 76 90l77 115q43 62 66 121q9 12 29.5 37.5t31.5 38.5l172 16q19 0 29 -2q3 -22 14 -27 q11 11 19 17l8 -371q2 -61 2 -141q0 -87 -6 -154l-12 -12q0 -35 26 -35q5 0 21 4h20q46 0 109 8q90 11 110 11q27 0 41 -2v-13q6 0 8 -2q5 0 7 2zM473 807q0 15 -4 64t-4 65v106q0 15 2 56v37q-28 -3 -37 -41l-139 -189h-6q-22 -31 -33 -63h-6v6q-3 1 -12 2t-13 2 q3 -17 37 -43q129 -31 188 -45q8 -8 21 -8q6 21 6 51zM453 893q0 -65 -2 -98q-27 3 -59.5 8t-37.5 6q-57 8 -88 29q15 23 142 196q14 11 34 39q11 -101 11 -180zM711 168q0 -10 -2 -16q-82 0 -127 26q-24 114 -33 338q2 2 8 2q25 0 58.5 -16.5t39.5 -34.5v-27q0 -15 7 -80 q49 -162 49 -192zM328 582q-11 -35 -17 -41q-21 0 -118 20q59 12 135 21zM391 164q-3 -10 -12 -55l-53 -84q-13 20 -13 190v150q0 30 21 174q27 -123 57 -375z" />
<glyph unicode="5" horiz-adv-x="1089" d="M1049 1409l-5 -8q-135 -10 -577 -64q-4 11 -14 11l-33 -11q-43 46 -98 80q79 16 303 68q4 -2 14 -2q8 0 38 6t38 6h6q56 7 199 31l30 2q20 3 49 -23q4 -8 23 -43t27 -53zM1006 1139q0 -23 -21 -78q-95 -39 -207 -39h-4l-18 -12q-65 17 -181 37v12q12 27 50 92 q102 6 166 6q121 0 215 -18zM426 1294q-9 -95 -49 -182q-5 -15 -78 -174q-15 0 -27 -2v18q10 17 13 70l2 72q13 99 22 182q8 63 8 106q0 7 -2 9q29 0 111 -99zM1069 1329q0 -15 -12 -65l-13 -111q-101 19 -430 37q-10 -30 -20 -53h-8q-41 -90 -41 -105q0 -4 2 -6 q105 -8 110 -8q235 -84 340 -195q39 -91 39 -157v-21q-54 -155 -112 -221q0 -21 -52 -64t-73 -43h-2q-6 -12 -92 -71q-167 -37 -244 -37q-93 0 -158 35q-32 18 -70 53h-8q0 8 -2 10q-15 0 -65 127q-13 89 -13 141q4 10 15 52q24 6 61 6q13 0 56 -3t55 -3q18 -89 82 -123 q1 1 4.5 2t5.5 2q35 -11 104 -29q46 -4 64 -4q239 0 242 162q-7 26 -72 147q-82 94 -232 138q-82 11 -139 16q-52 0 -72 4q4 12 89 213l32 123q14 17 17 33q183 38 604 65q8 -21 8 -47zM809 625q0 -30 -8 -54q-59 -48 -178 -75q-80 9 -172 24v6q43 6 77 52q3 4 60 73 q20 44 20 84q0 63 -71 158q37 0 176 -86q16 -22 32.5 -44t23.5 -31.5t9 -12.5q31 -51 31 -94zM283 770q-48 2 -113.5 4.5t-81.5 3.5v6q187 -9 195 -14zM330 662q-75 -7 -105 -7q-25 0 -61 4l-33 41q-19 28 -22 50q13 0 56 2t56 2q67 0 101 -15q7 -66 8 -77zM625 199 q-85 -39 -189 -39q-172 0 -319 100q-108 120 -117 363q11 65 35 155l22 6l-4 -30q49 -25 72 -101h8l-2 -65q-3 -89 12 -172q24 -61 35 -80q28 -51 53 -68v-6q128 -78 267 -78q16 1 59.5 6.5t67.5 8.5z" />
<glyph unicode="6" horiz-adv-x="927" d="M801 1247q-18 -18 -47 -63l-58 -58q-59 89 -86 127q-8 3 -18 19q14 9 33 57q20 50 49 60q2 10 2 22l16 -8l66 -74q43 -49 43 -82zM643 1419q0 -41 -84 -166q-56 -50 -244 -198q-171 -180 -245 -312q-2 6 -2 11q41 112 106 225q57 72 145 174q123 110 226 213q33 33 96 70 q2 -6 2 -17zM797 1214v-14q-70 -114 -144 -207q-32 -39 -53 -61q-42 -56 -117 -182q-21 -23 -86 -105q-12 -6 -39 -49q-28 -41 -39 -47q-33 39 -36 104q54 129 221 293l94 74q58 40 104 55q25 45 95 139zM838 449q0 -203 -170 -332q-105 -54 -230 -54q-85 0 -180 29 q-76 39 -182 139q-65 133 -74 254q21 137 74 240q93 127 121 174h6q7 10 15.5 21t12.5 16t5 8h6q4 9 63 76q119 104 133 115q62 49 142 100q96 -78 96 -133q0 -6 -2 -10q-344 -215 -414 -451q8 -59 10 -72q18 -36 23 -51q17 -26 43 -29q1 1 4.5 4t5.5 5q9 89 137 135 q81 9 162 12q132 -38 184 -119q9 -37 9 -77zM623 367q-5 56 -21.5 73.5t-71.5 24.5q2 4 2 8q0 2 -4 10h-10q-13 0 -51 -11.5t-43 -12.5q0 -1 -4 -13h10q0 -8 -2 -10q-45 -31 -66 -86l5 -45q27 -53 106 -53q59 0 125 29q13 38 25 86zM602 399q-3 -94 -51 -94q-19 0 -45 29v2 q0 25 -2 43q2 20 22 67l47 -14q20 -6 29 -33zM516 287q-31 -8 -55 -8q-41 0 -68 24q-3 12 -6 55q49 76 107 88q0 -9 -4.5 -43t-4.5 -43q0 -51 31 -73zM930 375q0 -35 -12 -70q-27 -141 -78 -153q-38 -86 -293 -107v6q143 21 250 174q6 19 43 99q20 106 20 141q0 43 -16 80 q-88 119 -244 119q-46 0 -117 -9l-26 -10q-19 -8 -31 -8h6q3 20 78 51q57 19 78 25l86 -4q166 -52 221 -177q35 -131 35 -157z" />
<glyph unicode="7" horiz-adv-x="1300" d="M1296 1335q-20 -149 -34 -276l-17 -49h-10q-5 7 -22 36.5t-31 51.5q-3 25 -6 28q-3 13 -19 19q6 4 10 16q-37 64 -37 158h9q79 0 157 16zM1225 1352q-16 -2 -33 -2q-48 0 -68 20q-206 27 -374 27h-21q-8 -2 -20 -2q-141 -2 -471 -35q-38 -13 -91 -23l-2 17q-9 0 -42 -6.5 t-42 -6.5h-8q23 13 31 13q6 0 10 -2l6 20l105 43q5 1 34 4t56 6q145 16 256 25l70 4l172 -6l233 -33q124 -35 199 -63zM846 1067h2q-8 -59 -10 -72h-2q9 0 -7 -2q-11 -1 -34 -4v6q47 72 51 72zM801 1081h28l-71 -90q-40 6 -140 74q118 16 183 16zM680 838q0 -17 -2 -25 q-9 -6 -19 -6h-2q-6 43 -34 133q-35 35 -62 115q32 -11 94 -43l4 -11q-4 -2 -8 -6q3 -17 15 -37q14 -106 14 -120zM1212 1004q0 -14 -14 -60q-17 -41 -42 -100t-63.5 -152t-66.5 -160q-34 -128 -90 -299q-26 -23 -90 -61q-21 -13 -43.5 -26t-35 -20.5l-17.5 -10.5 q-1 -1 -9 -13q-67 22 -215 152v10q34 -3 246 -18q11 14 51 104q28 119 113 299q80 171 133 289q2 4 11.5 26t26.5 61t36 83q17 -14 69 -104zM1130 1163q0 -34 -22 -92l-37 -90q-164 -309 -272 -635q-18 -39 -47 -72q-138 3 -205 23q67 118 205 471q81 150 116 322 q5 12 21 22v6q0 12 -4.5 18.5t-12.5 4.5h-2q-4 -11 -22 -29q-22 -2 -118.5 -12t-168.5 -17q-6 2 -12 2q-17 0 -17 -26v-4h9l55 -133q-88 -40 -139 -60q2 1 5 3l4.5 3t2.5 2q-1 3 -1.5 6.5t-1 10.5t-1.5 12h-19v-8h-6q0 -15 2 -27q-35 12 -55 45h-8q0 11 -27.5 37t-42.5 31 q-12 12 -28 41h-7q-15 18 -79 125q-1 5 -6.5 22t-8.5 29l-12 4q-2 -2 -6 -2l-4 102q1 1 2 5t2 6q19 6 46 14.5t36 11.5q288 31 518 31q153 0 270 -8l72 -21q2 -46 26 -174zM637 788v-8q-7 -3 -10 -10q-49 -20 -203 -74v23q10 55 20 104q60 33 166 74q27 -59 27 -109z M150 1212q0 -67 -46 -67q-11 0 -14 8h-4q-41 0 -68 -12q-3 9 -6 30q6 36 15 150q1 -1 1.5 -3t1 -5.5t1.5 -5.5q66 14 104 16q3 -32 12 -106l3 -7v2zM430 821q-13 -50 -27 -100l-8 -4q-50 60 -153 149q-9 31 -88 97q-108 132 -111 141q42 15 133 33q31 -53 78 -111 q72 -92 82 -108q91 -88 94 -97z" />
<glyph unicode="8" horiz-adv-x="1265" d="M1059 1247q0 -143 -80 -252q-29 -18 -76 -37v9q20 -3 82 106q21 47 21 90q0 81 -105 195q-34 37 -80 74q-92 48 -207 77q-34 2 -86 9q-200 -27 -231 -58l-2 8q8 6 35 33q112 54 213 74q291 -3 444 -141q30 -46 68 -125q4 -40 4 -62zM1077 674q0 -74 -18 -154 q-18 -34 -45 -90q-53 -74 -158 -125q-191 -57 -278 -57q-77 0 -150 28q-1 1 -2 4.5t-2 4.5q-48 0 -186 123q-38 52 -54 81q-12 47 -30 132q9 229 135 331h6q12 0 27 6q2 14 2 25q0 9 -5 14q-83 0 -139 74q-50 65 -59 154q9 22 31 90q26 38 71 96q3 -18 10 -18l11 11 q10 10 23 21t20 11q6 0 12 -6q29 13 197 59q22 -1 67.5 -2t61.5 -2q29 -12 86 -31q272 -111 272 -299q0 -37 -12 -74q-60 -87 -127 -116q0 -19 -2 -23q6 -6 16 -35q13 0 21 -2q9 6 22 6q38 0 103 -71q54 -60 69 -101q4 -46 4 -65zM698 1221q0 34 -20 73q-21 49 -51 49h-37 q-46 0 -53 7q-82 -11 -125 -43t-72 -105q21 -61 59 -96q49 -21 97 -47q6 2 14 10q67 6 99 22.5t75 67.5q14 25 14 62zM731 670q0 40 -14 78q-39 57 -86 57q-25 0 -80 -14q0 -9 -2 -11q-60 -19 -84 -40.5t-49 -77.5q18 -126 112 -166q24 -4 35 -4q45 0 119 47q49 58 49 131z M680 1231q0 -60 -44 -94.5t-112 -36.5q21 44 21 88q0 32 -13 76q-27 35 -30 43q52 14 84 14q59 0 94 -90zM528 1184q0 -43 -26 -82q-84 0 -127 82q0 5 -4 41q27 52 71 75q20 -8 56 -32q30 -41 30 -84zM711 647v-6q-16 -43 -31 -70q-3 21 -6 33q-91 0 -94 127q15 21 18 49 q72 -3 94 -35q19 -29 19 -98zM672 565q-64 -43 -109 -43q-58 0 -108 80q-12 37 -15 62q21 56 86 86q3 -1 35 -9v-6q0 -76 43 -137q26 -18 68 -33zM1260 565q0 -32 -3 -47q-27 -175 -190 -289v-6q-3 -1 -30.5 -15.5t-49.5 -25.5q-110 -26 -219 -26q-172 0 -264 71 q18 -2 57 -2q295 0 445 150q24 40 69 135q25 106 25 158q0 111 -103 200v9q-3 2 -7 5.5t-6.5 5.5t-4.5 3q149 -21 170 -74q111 -111 111 -252zM262 981q-54 -4 -67 -4q-43 0 -70 8l-59 47q-22 31 -46 68q-6 22 -12 90l51 102q43 43 136 117q0 -7 -31 -49q-41 -74 -47 -84 q-6 -34 -6 -66q0 -140 151 -229zM446 242q-272 3 -385 207q-33 78 -36 180q42 162 94 225q41 32 110 74q0 4 -8 -8q-10 -15 -41 -66q-2 -9 -35 -113q-8 -41 -8 -88q0 -166 109 -284q121 -91 200 -127z" />
<glyph unicode="9" horiz-adv-x="1030" d="M700 1466q-94 18 -141 25q-9 -1 -25 -4t-43 -8t-49 -9q-4 1 -26 5q-192 -40 -269 -256v-5q0 -75 35 -178q-89 72 -186 193q0 5 -4 51q23 72 71 152h7q92 153 307 206h96q169 -34 227 -172zM1018 246q0 -21 -2 -31q-23 -7 -285 -96q-14 -10 -22 -13q-195 52 -254 99l159 6 l209 37q31 12 49 65q7 191 7 267q0 116 -35 518q-9 107 -29 168q-2 9 -5 18.5t-4 13.5t-1 5q39 -60 80 -111q26 -68 57 -135q26 -103 29 -256q6 -259 30 -406q17 -116 17 -149zM858 633q0 -91 -8 -299q-8 -31 -10 -37q-88 -64 -281 -64q-103 0 -197 15q-3 8 -12 59 q-8 33 -8 62q0 21 6 39q30 12 80 12h35q20 -1 37 -2v0q18 0 26 2q38 15 111 45q14 88 14 240q-24 182 -28 186q-47 -12 -95 -12q-154 0 -292 114q-23 41 -39 64q-12 55 -33 135q19 79 57 129q16 23 105 102q40 19 41 19q10 0 16 -12q66 3 76 20q52 12 106 12q87 0 146 -35 q-3 -8 -6 -28q61 -52 86 -131q9 -26 30 -160q14 -90 31 -283q6 -71 6 -192zM682 1178q0 57 -39 96q-54 24 -74 31q2 2 2 6q0 2 -4 10q-21 6 -45 6q-126 0 -203 -141q24 -142 166 -213h43q63 25 108.5 84t45.5 121zM655 1194l-4 -59q-50 -134 -151 -134q-118 27 -158 189 q64 110 176 110q-38 -24 -55 -57h10q26 39 72 39q47 0 106 -47q4 -24 4 -41zM637 676q0 -90 -19 -187q-31 -14 -88 -43q-111 6 -168 9q-6 125 -36 155q27 0 92 -41q66 -42 82 -63h6q4 0 16 4q0 237 -33 340q66 0 117 2q31 -64 31 -176zM344 246h-2q-4 0 -6 -2 q-98 86 -107 186q3 15 47 74q3 9 14.5 35.5t18.5 42.5q35 -103 35 -123q0 -32 -20 -35l-2 -72q-3 -70 22 -106z" />
<glyph unicode=":" horiz-adv-x="538" d="M322 444q3 8 32 31q25 52 25 103q0 69 -41.5 108t-110.5 35q-3 -1 -13 -6t-17 -8q71 80 215 98l65 -107q47 -77 47 -127q0 -17 -10 -34q-90 -78 -192 -93zM201 426q-55 21 -72.5 37t-34.5 65q6 93 117 170l4 -8q67 2 96 -14.5t58 -73.5q-6 -156 -95 -147q-1 -2 -2 -8 t-2 -9q-20 -2 -69 -12zM317 8q4 8 31 29q25 55 25 104q0 69 -41.5 108.5t-110.5 35.5q-18 -12 -28 -17q72 84 215 99q110 -168 110 -232q0 -24 -8 -37q-86 -74 -193 -90zM195 -12q-52 21 -68 37q-26 26 -39 67q9 93 117 170q1 -2 2 -5.5t2 -4.5q67 2 95.5 -14t57.5 -72 q-3 -79 -26.5 -116.5t-67.5 -33.5q-1 -1 -1.5 -3t-1 -5.5t-1.5 -5.5q-8 -1 -32 -6t-37 -8z" />
<glyph unicode=";" horiz-adv-x="538" d="M453 127q-15 -63 -39 -104q-18 -23 -80 -82q-39 -26 -168 -97q-3 3 -12 41q4 2 20 13.5t29 19.5q0 6 18 20.5t19 16.5q69 47 96 68q43 40 43 88q0 22 -6 43q-36 64 -74 84q-29 16 -109 28q89 71 140 68q21 -24 92 -113q15 -55 31 -94zM322 444q3 8 32 31q25 52 25 103 q0 69 -41.5 108t-110.5 35q-3 -1 -13 -6t-17 -8q71 80 215 98l65 -107q47 -77 47 -127q0 -17 -10 -34q-90 -78 -192 -93zM201 426q-55 21 -72.5 37t-34.5 65q6 93 117 170l4 -8q67 2 96 -14.5t58 -73.5q-6 -156 -95 -147q-1 -2 -2 -8t-2 -9q-20 -2 -69 -12zM156 -84 q30 80 30 123q0 32 -18 47q-27 -10 -41 -10q-52 0 -49 114q3 3 8 3q0 6 2 8h8q0 23 43 26q-5 -1 4 -1.5t56 -0.5q0 13 2 15q161 -15 161 -146q-35 -54 -94 -98q-36 -28 -112 -80zM156 25h-54q-59 24 -59 59q0 15 6 33q22 -43 39 -51q14 -5 68 -13v-28z" />
<glyph unicode="&#x3c;" horiz-adv-x="520" d="M481 604l-57 -57q-40 -38 -64 -41q-167 133 -170 221q55 55 142 236q14 8 14 24q-15 3 -33 0q-59 -153 -143 -250q-7 10 -47 19q-4 1 -13 2t-14 2l-30 6l2 12q72 102 178 242q62 -13 139 -41q-1 4 -2 -5q-2 -12 -6 -71q-6 -86 -6 -98q-9 -66 -23 -88l2 -19 q71 -44 131 -94zM72 688l-13 37l111 -27l57 -116l80 -103l-55 -18z" />
<glyph unicode="=" horiz-adv-x="649" d="M600 1161q3 9 8 4q-4 0 -8 -4zM621 827h-15q-67 52 -96 72l27 129q2 1 5.5 2t4.5 2l4 23q17 15 76 57zM170 1049q-64 10 -109 16l-4 -12q-6 2 -26 6q48 64 98 108q21 3 135 -18q194 -15 342 -23q-12 -36 -76 -45q-35 0 -94 -2q-162 -21 -266 -30zM33 877q-10 78 -10 114 q0 25 2 33q66 4 77 4v10l410 25v-10q-8 0 -16 -2q0 -20 24 -35q-23 -78 -35 -105q-289 -23 -452 -34zM88 760q-12 4 -16 4v10h-9q-22 33 -55 66q0 69 2 102l10 -92q8 1 242 31q176 3 219 -2q49 -19 64 -31q43 -25 53 -45q-46 -10 -104 -21q-117 15 -187 15 q-167 -30 -219 -37zM37 229q-3 -11 -8 -6q1 1 4 3t4 3zM16 561h15q35 -27 94 -72l-25 -129q-4 -2 -10 -2l-4 -24q-29 -22 -76 -58zM467 342q37 -6 108 -18l5 12q10 -3 26 -6q-52 -70 -98 -107q-2 0 -17 2t-49 6.5t-69 8.5q-40 6 -342 22q12 36 73 45q2 1 97 4q187 24 266 31 zM604 512q10 -78 10 -115q0 -24 -2 -32q-70 -4 -77 -5v-10l-410 -24v10l16 4q0 16 -2 22q-8 3 -22 11q24 81 35 106q187 15 452 33zM549 629q2 -1 5.5 -1.5t5.5 -1t3 -1.5v-11h10q11 -17 54 -65q3 -53 0 -100l-11 92l-241 -31q-63 -2 -150 -2q-59 0 -69 2q-14 6 -27 13 t-23 12.5t-14 7.5q-43 25 -53 45q36 5 104 18q109 -14 187 -14q158 32 219 37z" />
<glyph unicode="&#x3e;" horiz-adv-x="520" d="M16 850q53 -46 129 -96l2 -19q-15 -27 -24 -88q-1 -17 -4 -49t-4 -47q-6 -62 -9 -78q89 -32 140 -43q103 131 182 238l2 12l-59 12q-42 9 -45 19q-83 -91 -150 -248q-17 -3 -31 2q0 13 15 22q88 183 145 234q-3 87 -166 225q-21 -3 -63 -39q-15 -12 -60 -57zM424 758 l12 -37l-110 29l-56 118l-77 105l55 16z" />
<glyph unicode="?" horiz-adv-x="714" d="M690 1135q0 -28 -14 -66q-104 -168 -174 -192q-14 -35 -99 -95q-62 -115 -73 -135v45q0 74 24 133h8q1 1 4 7.5t5 11.5q45 43 98 100q61 67 86 113q16 62 16 92q0 55 -90 145q101 0 191 -84q18 -46 18 -75zM401 1083q0 -18 -8 -34q-2 -1 -12 -5q-16 13 -33 13 q-35 0 -72 -43q-4 -5 -22.5 -27.5t-32.5 -40.5q-4 26 -6 33q-18 18 -18 43q0 33 47 98q34 15 78 15q79 0 79 -52zM563 1159q-3 -83 -71 -166q-12 -18 -130 -135l-8 -14h-8q-35 -50 -35 -139q0 -11 2 -51t2 -52v-8h-77l-54 8q-7 14 -10 133q13 27 100 146h9v8h8q20 32 33 49 h6q2 7 41 55h8l2 11h12q0 -7 2 -11h13q-5 19 -7 35q19 36 19 59q0 66 -98 66q-38 0 -78 -12q-52 -40 -64 -140q-105 25 -133 29q0 58 57 150h9q21 49 127 86q88 30 159 30q17 0 37 -4q-8 -4 -10 -6q90 -6 137 -127zM207 928q0 -9 -2 -19h-12q-41 0 -50 6q-36 3 -39 27h-8 l-26 47l-4 12v5q9 -2 108 -31q9 -9 27 -12q6 -27 6 -35zM381 557q-23 -2 -98 -16l-74 34q70 -2 129 -8v15q14 -6 43 -25zM334 414q0 -28 -15 -58q-10 -6 -65 -28v14h-8q-3 -20 -53 -23q-66 38 -66 87q0 27 23 53q1 -1 3 -2t3 -2q6 3 14 14q32 11 70 16l2 9q92 -9 92 -80z M219 510q-41 -16 -67 -27q-2 2 -2 11h-23v-9q0 -4 4 -12q-16 -43 -16 -72q0 -52 55 -92q-10 -3 -53 -6q-44 12 -103 43q10 64 60 193q29 0 145 -29zM68 506h4v8h-4v-8z" />
<glyph unicode="@" horiz-adv-x="1441" d="M922 1415q7 14 10 17q14 0 18 -2q-5 -1 -28 -15zM1079 1378l-53 49q-27 24 -63 37q1 6 4 16t4 13q11 0 63 61q62 73 72 84q9 -180 -27 -260zM1022 1055q-3 209 -51 336h-13q6 18 11 28q58 0 92 -67h12q-23 -119 -51 -297zM641 1022q-182 298 -184 311q301 115 461 109 q-94 -109 -277 -420zM659 991q-3 17 13 56q7 19 14.5 27.5t15.5 6.5q-8 -31 -43 -90zM705 922v12h-13q-8 16 -8 45q0 78 92 229l135 189q8 -6 21 -19q-105 -376 -117 -448q-9 -1 -45.5 -3.5t-64.5 -4.5zM696 920l-37 -13l13 43zM590 895q2 3 51 96h12q0 -48 -10 -86 q-3 -1 -11.5 -2t-19.5 -3t-22 -5zM41 934l-16 -166q1 13 3.5 71t4.5 101q4 -4 8 -6zM356 711l23 8q-4 2 -19 2q-4 -8 -4 -10zM915 629q-46 130 -81 223q21 181 112 514h12q48 -124 48 -262q0 -177 -91 -475zM889 629q-68 108 -158 266h64q50 -112 59 -135q44 -104 35 -131z M928 578q-3 43 20 114q-6 -65 -20 -114zM565 578h-12q-47 29 -113 51l129 231l66 17q-17 -65 -70 -299zM571 477h-12q6 25 12 25v-25zM559 414h-6v18h6v-18zM12 362h-12q10 153 23 216q-1 -17 -5 -89t-6 -127zM1079 317q-56 82 -82 132q-46 82 -49 143l144 739 q327 -309 327 -823q-29 -44 -37 -62q-6 18 -8 23l-12 4q-38 -31 -139 -82q-90 -44 -144 -74zM293 311q-9 151 96 240q-89 -238 -96 -240zM18 305q8 89 19 344q9 199 31 346q27 33 90 105q65 68 102 82q9 30 80 80q72 50 111 59q141 -238 153 -266h12q9 -21 9 -43 q0 -34 -66 -131q-95 -39 -194 -119q-37 -29 -170 -156l-5 -16q-21 -6 -30 -37h-15q-10 -23 -24 -51h-12q-43 -75 -91 -197zM1016 272l-62 236l109 -191q-11 -25 -47 -45zM406 254q-5 35 -5 39q0 110 140 151q-6 -74 -37 -116q-25 -32 -98 -74zM375 254h-13q-19 8 -57 49 l109 275q2 0 16 -2t51.5 -7t71.5 -10q-6 -52 -6 -82q-163 -24 -172 -223zM987 276l-156 -92q-38 52 -38 115q0 64 118 272q7 -24 4 -79q-6 -64 0 -82q4 4 9 4q5 40 12 69q51 -134 51 -207zM553 145q-4 66 -4 93q0 100 29 176q3 1 9.5 2t10.5 2q3 12 6 33h-14q-3 70 -17 108 q58 251 78 320q9 2 66 10q22 -49 180 -293q-25 -77 -119 -272q-49 229 -80 329q-5 1 -11.5 2t-10 1.5t-6.5 0.5q-6 -23 -2 -41h12q31 -88 31 -174q0 -21 -4 -67q-11 -25 -86 -156q-47 -47 -68 -74zM1155 133q-59 151 -59 168q110 66 137 78q83 43 145 53q-3 -18 -108 -156 q-100 -136 -115 -143zM1124 127q-74 24 -217 39v37q68 35 72 37q8 -14 12 -25h31q25 64 63 72q35 -104 56 -156q-3 -1 -9 -2t-8 -2zM578 96l-13 37q57 34 109 121q44 73 63 152q15 -56 21 -113q-44 -75 -74 -119q-57 -75 -106 -78zM1149 39q-55 55 -51 65q13 -5 53 -18 q-2 -20 -2 -47zM272 39q-10 2 -88 22q-127 86 -127 203q0 77 56 195q41 58 100 137q68 83 123 104q25 40 90 86q64 46 115 58q-102 -195 -138 -250q-126 -102 -141 -262q14 -35 14 -82q0 -17 -5 -81.5t-5 -82.5q71 0 248 80v10q-64 -23 -235 -67q0 125 24 149q18 -37 59 -37 q75 0 162 84q5 -96 13 -180q-24 -18 -43 -37q-93 -40 -222 -49zM844 0h-94q-10 0 -324 29q59 24 121 77q3 -3 18 -43q66 22 117 84q5 5 86 123l49 -125l53 -6z" />
<glyph unicode="A" horiz-adv-x="1189" d="M1200 494q-111 -140 -127 -152q-37 267 -55 375q-67 206 -133 284q-91 110 -273 148q-68 -15 -219 -33l-96 -45q-78 -81 -88 -84q87 141 160 230q83 57 262 57q190 -44 303 -148q101 -91 186 -284q24 -78 51 -172q29 -110 29 -176zM1055 326q-144 -27 -242 -27 q-37 0 -55 2q-5 18 -21.5 69.5t-25.5 82.5h-15q-15 -30 -82 -88v-13q-19 -8 -96 -53q-50 -6 -137 -8q-73 19 -148 43l-98 76q-57 105 -57 211q0 123 104 321h13q27 89 194 158q1 -2 2 -5.5t2 -4.5q93 3 225 32q134 -27 211 -92q68 -59 132 -190q34 -103 51 -181 q34 -300 43 -333zM711 805q0 118 -95 162q-14 2 -36 2q-64 0 -115 -23q-135 -138 -135 -268q0 -57 22 -131q26 -16 80 -47q77 11 113 16q4 1 71 62l7 -13q4 -1 11.5 -2t10.5 -2q3 24 12 66q54 85 54 178zM690 858v-43q0 -138 -43 -156q-21 129 -166 129q-70 0 -123 -36 q21 82 93 157l8 -8q62 45 116 45q69 0 115 -88zM629 590q-2 -2 -6 -10v4q0 3 6 6zM627 623q-55 -61 -84 -74q-42 -18 -111 -21q-56 37 -78 80q-4 28 -4 74q0 31 4 35q6 2 17 2q43 43 106 43q64 0 107 -38.5t43 -100.5zM1059 293v-8q0 -19 -41 -99q-135 -28 -268 -49 q18 35 59 123q199 33 229 33h21zM748 262h40q-8 -15 -14.5 -28.5t-10 -21t-6.5 -13t-3 -6.5q-27 -47 -56 -50q-32 85 -36 121q8 26 43 123h10q3 -14 15 -57t18 -68zM672 375q-15 -45 -25 -84h-22q-52 -146 -203 -187q-104 13 -166 33q-96 35 -129 96h-12q-76 137 -76 295 q0 63 16 125q2 -26 6 -63t5 -49q31 -122 127.5 -197.5t220.5 -75.5q108 0 202 58q38 38 56 49z" />
<glyph unicode="B" horiz-adv-x="1208" d="M1210 502q-7 -22 -20 -94q-75 -130 -191 -177q-74 -31 -266 -34q35 20 66 34q0 7 22 29q12 15 27 27q78 159 78 272q0 67 -21 137q-2 2 -5.5 3.5t-5.5 3t-3 2.5q0 49 -199 151q-58 6 -92 6q-81 0 -166 -31q74 123 139 213q153 21 211 21q209 -40 324 -176 q102 -199 102 -387zM553 1042q-53 -85 -201 -280q-38 89 -116 323q151 236 151 271q0 2 -2 4q-8 -2 -18 -2q-123 -306 -275 -336q-12 64 -12 160v57l2 57v27q89 47 235 47q42 0 72 -6q22 9 27 10q25 -67 116 -317q11 0 19 -2q0 -7 2 -13zM907 561q0 -157 -102 -289 q-77 -71 -213 -71q-20 0 -186 16l8 -16q-2 -1 -8 -2t-9 -2q-56 6 -121 153q0 47 -10 80l-12 6l-148 541q3 24 13 24q0 16 39 33q43 19 59 19h2q128 -333 133 -338q18 0 33 43q28 15 39 41q79 39 172 39q212 0 303 -193q8 -36 8 -84zM713 512q0 145 -105 145q-84 0 -172 -79 q-33 -65 -33 -107q0 -71 119 -117q79 13 120.5 47.5t70.5 110.5zM688 541q0 -31 -24 -90h-11q-18 -35 -28 -35q-1 6 -5 29t-6 40q-47 19 -96 25q-73 -43 -92 -53q0 108 68 135v12l63 14q3 6 6 15q65 0 101 -19v-10q1 -1 3 -1.5t5.5 -1t5.5 -1.5q10 -38 10 -59zM598 428 q0 -42 -70 -45q-4 4 -69 31q0 61 69 61q31 0 58 -8q12 -21 12 -39z" />
<glyph unicode="C" horiz-adv-x="1314" d="M1249 850q-17 -11 -75 -45v-10q-24 -14 -60.5 -35.5t-48.5 -28.5l-57 139q-33 77 -43 146h-45q-7 32 -7 59q0 32 2 55q63 23 129 39q29 -44 107 -155q79 -112 98 -164zM881 1065q0 -22 -9 -49h-51q-58 9 -112 26v13h-11q-12 24 -12 49q0 43 31 73.5t74 30.5t71 -32 l-2 -60q2 -1 9 -2t10 -2q2 -25 2 -47zM1028 1208q-33 -39 -106 -39q-11 0 -31 5q-30 65 -98 65q-33 0 -70 -18q-59 -83 -59 -121q0 -32 22 -74h12v-10q16 -5 90 -27q104 -3 134 -12q-68 -121 -109 -184l-41 -11q-127 14 -233 66q-142 103 -142 270q0 56 23 127q37 55 67 98 q149 93 230 93q70 0 141 -45q24 -31 78 -74q9 -13 19 -28t14.5 -22t7.5 -10q24 -34 51 -49zM1128 545q-46 -32 -131 -80v-10q-12 -2 -75 -52q-50 -24 -105 -57q17 170 17 293q0 19 -5 127q84 156 111 190q63 -123 66 -129q36 -79 47 -137q26 -14 75 -145zM811 575 q0 -122 -20 -231q-12 -21 -115 -27q-246 49 -430 189q-180 198 -180 528v35q88 70 98 72q0 15 117 80q25 13 139 75q0 -6 2 -12q-55 -85 -55 -174q0 -165 176 -297q39 -14 102 -43q93 -11 154 -16q12 -92 12 -179z" />
<glyph unicode="D" horiz-adv-x="1292" d="M846 1565q-8 -25 -98 -78q-12 4 -21 4q-8 0 -115 -43q-17 -4 -51 -13t-49 -12q-3 1 -27 13q53 56 144 166q44 0 217 -37zM1178 563v-14l-68 -49q-38 -26 -76 -29q-84 142 -196 315l-66 127q-34 65 -51 136h-10v30q-1 9 -1 17.5t-0.5 13.5t-0.5 8.5v4.5v1v76q0 142 28 248 q90 67 154 100q-7 -59 -14 -215q50 -285 92 -475q58 -174 209 -295zM1221 537h8q-45 -109 -92 -254q-5 0 -29 -4q-26 7 -201 32v27q3 1 9.5 4t9.5 4v12h12v11h10v12h13q10 30 45 41q3 -9 6 -12l12 4q1 3 2 9.5t2 8.5q23 3 94 53q73 52 99 52zM995 463q-88 -98 -116 -98 q-17 0 -138 65q-2 6 -2 12l-47 -2q-27 -72 -137 -96q-4 -1 -113 -14l-65 -6q-51 13 -90 26q-52 21 -74 49q-19 9 -35 21v12q-27 17 -35 39h-10l-61 135l6 94h-15q0 270 375 338l11 -30q7 3 20 6q-19 194 -23 262q3 16 12.5 57.5t14.5 67.5q66 0 225 51q2 -4 3.5 -9.5 t3 -10.5t2.5 -7q-22 -145 -25 -401q13 -10 207 -354q29 -51 106 -207zM651 758q0 32 -12 67q-49 28 -117 37q-4 1 -123 4q-47 -18 -112 -49v-12q-70 -30 -70 -117q0 -12 2 -48t2 -48v-21q17 0 31 -2q9 -13 16 -30h13v-11q37 -22 106 -45q42 3 119 23v10q65 21 106 98 q10 2 21 2q8 31 10 37h-12q20 61 20 105zM629 752q0 -24 -13 -74h-10q-87 96 -155 96q-79 0 -205 -156q-8 24 -8 58q0 78 59 125q53 41 135 41q-5 -2 -14 -11q61 9 98 9q113 0 113 -88zM600 655q-27 -130 -242 -139q-86 44 -86 80q0 18 76 125q60 31 96 31q48 0 156 -97z M877 319q0 -6 -48 -12q-78 24 -88 27q-11 24 -14 69q123 -63 150 -84zM707 346q0 -6 -5 -31q-182 -159 -411 -168q-49 26 -109 72q-16 25 -39 76h-10q-49 141 -61 244q70 -126 157 -189q96 -47 195 -47q45 0 162 12q10 6 96 56v10q20 5 23 6q2 -23 2 -41z" />
<glyph unicode="E" horiz-adv-x="1163" d="M1102 885q0 -84 -51 -183l-78 -155q-32 14 -170 63q-69 60 -129 60q-121 0 -121 -183q21 -79 94 -104q82 0 141 96l117 -41q2 -2 2 -8q0 -66 -162 -182q-35 -12 -127 -21q-48 12 -73 21q-13 7 -43 25t-47 28v10h-11q-112 141 -112 301q88 296 286 340q4 -4 7 -14h63 q115 33 213 33q91 0 189 -31q12 -21 12 -55zM936 846q0 18 -2 28h-6q-30 0 -101 -22q-68 -21 -82 -41q-2 10 -2 23q-34 -6 -34 -25q0 -31 73 -74q0 -12 2 -16q38 -12 72 -39v-12l31 4q49 131 49 174zM913 844q-3 -52 -36 -133q-10 -2 -21 -2q-35 35 -35 57q0 4 13 61 q11 2 79 17zM803 805q-6 -36 -15 -45q-18 15 -18 35q0 14 16 14q5 0 17 -4zM1073 979v-2q-94 20 -182 20q-92 0 -203 -24h-98q-126 -70 -191 -160q-52 -75 -94 -229q9 -170 103 -271q102 -108 264 -108q25 0 37 2q55 18 96 43q0 10 33 33q5 7 33 43l49 63v-6q0 -20 -35 -64 q-41 -53 -43 -55q-240 -135 -471 -264q-161 65 -240 223q-70 137 -70 326q0 55 11 137q52 170 133 299q11 0 57 70h10q0 29 35 35q0 19 64 65q5 4 84 53v11q5 2 172 92q109 59 184 59q25 0 37 -2q49 -65 100 -168l86 -174q34 -36 39 -47zM752 467q-38 -50 -121 -53 q-35 21 -45 51l162 12q1 -2 2 -5.5t2 -4.5z" />
<glyph unicode="F" horiz-adv-x="882" d="M758 1241q0 -25 -13 -51q-9 -8 -55 -43q-12 -3 -78 -6l-67 18q9 6 33 47q20 50 20 82q0 49 -53 90q82 -10 174 -28q39 -68 39 -109zM799 1024l12 -113q-20 -2 -46 -4.5t-32 -3.5l-143 31q-4 20 -4 39l6 80q113 -22 207 -29zM487 1130q0 -10 -14 -67q-36 -3 -86 -6 q-25 13 -25 65q0 97 44 109q0 -70 79 -88q2 -4 2 -13zM758 885q-120 -25 -187 -41q-9 6 -16 6h-10q-2 -12 -2 -23q0 -6 2 -10h-21q-60 28 -98 60q126 20 166 20q1 1 2 4.5t2 5.5q50 -11 162 -22zM582 1284q0 -45 -28.5 -82t-68.5 -37q-35 0 -61 33q-2 27 -2 59 q-35 -6 -46 -19.5t-24 -59.5q0 -8 -2 -35t-2 -35q0 -54 17 -74h36q89 0 109 17h65q-7 -111 -8 -136q-120 -12 -176 -12l4 -45q3 -31 17 -39q22 -69 65 -231q31 -76 31 -82v-4q-55 -21 -186 -47q-22 78 -48 149q-28 170 -53 273q-10 16 -24 16q-5 0 -29 -6t-31 -6 q-34 0 -61 6q-1 19 -2 70.5t-2 76.5h16q59 0 133 -14v8q0 28 -6 92q-6 62 -4 90q3 80 49 138q48 20 98 28v-2h37q-2 -2 -2 -16q4 0 19.5 2t19.5 2h8l4 12q6 2 21 2q34 0 102 -39q15 -24 15 -53zM756 449q-12 -3 -19 -3q-103 41 -104 41q-72 25 -109 27q-56 118 -110 344 q20 -11 67 -39q36 -19 72 -26q0 12 2 16q90 -178 201 -360zM217 825q0 -10 -2 -16q-31 -19 -39 -21q-44 34 -82 72l115 6q8 -24 8 -41zM772 408q-237 -124 -350 -136l-90 158q77 44 203 53q1 1 2 3t2 3q20 -6 229 -69z" />
<glyph unicode="G" horiz-adv-x="960" d="M688 1360q-18 -21 -57 -103h-19q-77 30 -86 39l-4 64l111 10q32 0 55 -10zM514 1225q0 -51 -10 -99q-28 39 -62 129l15 22.5t23.5 35t25.5 37.5q8 -76 8 -125zM567 672q-19 -118 -69 -144q-4 -1 -22.5 -3.5t-31.5 -4.5q-50 17 -73 37h-29q-156 0 -223 49q-51 69 -86 119 q-33 98 -33 170q0 88 49 170q25 37 80 86v8l88 68q64 22 119 22q17 0 53 -4q25 -17 43 -24q39 -63 51 -95q-4 1 -118 31q-118 0 -199 -96q-80 -95 -80 -215q0 -39 8 -66q17 -33 58 -98q100 -100 229 -100q42 0 92 16q37 28 94 74zM844 547v-98q-3 -11 -17 -61.5t-22 -84.5 q-51 -99 -160 -143q-80 -31 -221 -43q-212 62 -295 293q187 45 250 45h24q0 -74 18 -100.5t87 -49.5q196 0 205 113q-44 81 -119 260q1 3 1.5 6t1 5t1 3t0.5 2q0 12 -18 15q-109 -109 -199 -109q-65 0 -156 45q-15 15 -49 35q-80 106 -80 188q0 35 17 88q65 124 94 127 q0 30 98 60q55 0 92 -6q-2 -4 -2 -13q79 -28 117 -28q8 0 12 2q0 73 13 162q84 -27 98 -31q37 -290 82 -459q61 -67 80 -104q32 -62 47 -119zM573 950q-47 68 -127 68q-30 0 -127 -23q-36 -30 -53 -47q-22 -42 -22 -78q0 -107 137 -159q192 18 192 239zM559 936 q-12 -177 -178 -201q-121 53 -121 144q0 57 66 98q24 10 41 16q-1 -8 -15 -30q8 8 47 28q35 6 56 6q77 0 104 -61zM954 469q0 -79 -12 -147q-103 -273 -280 -345q-72 -12 -158 -16q-98 14 -172 37q-94 47 -199 141q-81 159 -127 338q15 -5 21 -8q21 -17 45 -51h8v-15h10 l6 -18q3 -3 19 -6l4 8q32 -79 41 -96q35 -65 59 -76q1 -2 2 -5.5t2 -4.5h10v-10q1 -1 44.5 -28t78.5 -48q53 -15 109 -15q146 0 305 111l31 43q57 152 57 246q0 132 -121 268q-65 139 -80 434q1 6 2 12.5t2 10.5t1 6v18q-6 2 -21 2q20 47 61 103h43q0 -1 7.5 -13t13.5 -20 q76 -276 176 -668q12 -111 12 -188zM692 393q-59 -68 -188 -71q-58 24 -66 32q-20 14 -20 66v20l12 -4q2 2 8 2q7 21 19 45l26 6q1 2 1.5 5.5t1 6t1.5 3.5q27 -103 66 -103q14 0 37 13q8 19 8 41t-41 106h-6q22 61 33 86q108 -196 108 -254zM580 457q0 -30 -37 -33 q-32 44 -35 88q5 1 21.5 6t27.5 8q23 -64 23 -69zM444 502q-3 -9 -12 -27h-10q-3 12 -16 12q-9 0 -29 -10q-27 -10 -29 -12q-71 -15 -244 -39l-8 -8q-20 20 -63 69q71 31 106 48q40 4 66 4q97 0 239 -37z" />
<glyph unicode="H" horiz-adv-x="909" d="M371 1251q-44 -54 -84 -118q-11 -7 -74 -19q-16 -6 -38 -16.5t-23 -10.5q10 27 98 152q32 14 82 14q21 0 39 -2zM834 578q0 -43 -7 -111q-119 -109 -145 -160v88v1.5v3v3.5v4t0.5 5t0.5 6v6.5v7.5t0.5 8t0.5 9v36q0 157 -31 265q-33 58 -51 73q-24 17 -84 17 q-46 -8 -55 -17q1 6 2 17.5t2 15.5q-12 4 -14 4q-2 23 -2 49q12 8 20 27q76 49 133 49q50 0 103 -33q2 -5 28 -28q99 -156 99 -346zM436 815q-62 -44 -188 -194v75q0 296 59 447q29 42 88 104h8q10 -110 25 -217q2 -10 2 -51v-25q0 -90 6 -139zM672 485q0 -23 -10 -245h-222 v16q0 32 6 100q9 68 9 101q0 58 -19 98q-21 6 -41 6q-84 0 -127 -98q-32 -68 -32 -170q0 -24 4 -60l-7 -43q-2 -1 -5.5 -1.5t-5.5 -1t-3 -1.5q-30 10 -127 13q-8 12 -10 14q-2 -5 -6 -23v68q0 98 10 340q1 34 6 148t8 192q3 60 21 113q88 43 145 51v-4q0 -13 -12 -121 q-25 -227 -25 -361q0 -42 7 -45h18q9 33 45 82l57 76q95 92 187 92q38 0 61 -20q8 -15 16.5 -30.5t17 -29.5t11.5 -20q23 -112 23 -236zM393 539h19l-19 -105q-14 -73 -39 -84v-10q-30 -3 -98 -121l-6 103q-3 69 35 141q40 76 108 76z" />
<glyph unicode="I" horiz-adv-x="548" d="M537 1120q0 -32 -23 -76q-6 53 -47 86t-98 33t-97 -37v7q0 5 13 28q2 2 10 2q38 52 53 68q36 31 80 31q109 -47 109 -142zM498 1036q0 -61 -72 -96q-54 -28 -125 -31q-84 47 -84 103q0 22 8 43q25 3 43 49q81 37 115 37q48 0 106 -70q9 -18 9 -35zM430 866q-23 2 -45 2 q-47 0 -100 -6l-54 -6q-2 6 -2 31q-2 2 -8 2t-12 -2h-19q-28 40 -49 100l47 55q-2 -23 -2 -51q70 -98 150 -98q39 0 82 14q5 -20 12 -41zM285 836v-7h-17v7h17zM262 829v-6h-14v6h14zM430 846q-17 -69 -31 -150q0 -124 11 -364q-19 -148 -23 -189q-55 -2 -127 -5.5t-88 -4.5 q-20 4 -22 4q-2 4 -3.5 9t-3 8.5t-2.5 5.5q17 230 25 411h12v-10h15q2 7 6 33h-11q3 93 27 203q79 23 215 49zM195 842l-37 -275q-9 -227 -33 -415q-10 -5 -16 -9q-72 25 -95 31q15 359 80 748l2 12q8 21 8 31q0 4 -2 6q34 -3 93 -129z" />
<glyph unicode="J" horiz-adv-x="786" d="M569 1423l111 -65q-58 -37 -133 -94q-72 -8 -113 -11q24 53 135 170zM705 1346l-15 -156q0 -342 -33 -721q-28 -91 -67 -168q-61 -54 -150 -123q-59 -21 -159 -33q-63 23 -107 78q-41 109 -41 115q0 2 2 4q57 -60 125 -86q91 0 195 23q11 11 63 49q0 4 2 6q32 0 78 143 q-5 131 -14 287q-13 200 -13 289q0 97 11 213q35 28 57 41q0 7 26.5 22t39.5 17zM578 582q3 -251 -199 -306l-111 -2q-79 30 -121 78q-31 36 -67 129q0 137 24 217q1 2 46 99q20 -32 67 -101q6 -22 14 -30q-28 -22 -28 -76q0 -49 20 -105q6 -2 21 -2q23 0 96 17q69 16 98 16 l-2 16q17 70 17 134q0 66 -23 211q-29 166 -31 206l2 117h9q0 17 2 29q70 12 106 14q8 -1 15.5 -2t11 -1.5t4.5 -0.5q6 0 10 2q2 -119 10 -475q0 -9 4 -74t5 -110zM356 786q-19 -22 -120 -92q-46 76 -46 109v10q16 18 39 49q30 30 50 33q19 -26 77 -109zM393 526 q-19 -11 -162 -26q-16 50 -16 80q0 61 47 82q-1 3 -2 10.5t-2 11.5q18 13 84 66v-7l-23 -94q0 -70 74 -123z" />
<glyph unicode="K" horiz-adv-x="1155" d="M852 1079q-31 -69 -68 -164q-38 -99 -75 -155l-15 -37q-2 -2 -14 -6q-14 8 -39.5 22.5t-34.5 18.5q6 28 109 364q10 30 49 92q88 -116 88 -135zM330 1335l-64 -39q-25 -17 -71 -20q0 10 2 16h-11l-6 -10q-17 7 -76 41v10q5 4 86 60q0 32 72 41q68 -83 68 -99zM1085 307 q-28 -9 -182 -71v14q0 36 41 139q16 -4 23 -4q4 2 39 147q3 6 8 17t6 14l18 -55q0 -3 27 -100q20 -61 20 -101zM705 692l301 -106q-12 -42 -39 -160q-14 4 -31 23q-28 25 -31 26l-342 107q-6 0 -8 -2l-2 -17q27 -44 51 -123q31 -91 31 -127q0 -10 -2 -12q-33 -13 -76 -45 l-74 -55v-8h-8v-9q-19 -10 -82 -49v8h-8q0 -8 -4 -8q-38 140 -160 797q-28 162 -28 239q0 41 6 78q31 12 131 64v6l16 -2q8 -88 37 -244l78 -252q8 0 14 -2q0 97 43 219q12 38 86 209q69 -12 146 -16q-32 -63 -82 -230q-43 -153 -78 -225q-6 -12 -6 -33q61 -25 92 -38 q2 -2 2 -13h27zM944 418q-4 0 -16 -4q-45 -133 -51 -154l-19 -4q-59 22 -219 100q-19 59 -55 199q132 -31 174 -45q95 -28 166 -66q17 -17 20 -26zM354 123q-3 -1 -73 -84q-133 466 -185 1014q-2 24 -16 121q-12 82 -12 122v4l18 9v6q8 -4 38 -21.5t52 -29.5q3 -158 90 -625 q78 -422 88 -516zM410 119l172 129q-15 -86 -45 -197q-56 -39 -234 -51v20h-2q35 66 74 86q11 -8 24 -8z" />
<glyph unicode="L" horiz-adv-x="487" d="M322 1530q-42 -64 -95 -135q-45 -15 -80 -21q2 7 6 16t5 11q-4 12 -11 14q24 118 70 223q19 0 59 -43t46 -65zM455 350q-19 -56 -107 -248q-3 120 -47 721l-41 568q23 49 37 73q27 53 51 56q14 -397 107 -1170zM330 180q0 -67 -2 -98l-133 -2q-27 23 -35 51 q-2 113 -29 539q-22 363 -22 536q0 80 16 142q42 0 115 20q31 -211 77 -928q13 -203 13 -260zM139 410v-64q-29 287 -43 541q-4 94 -4 211q0 44 6 94l2 -4l25 -387q14 -210 14 -391zM145 332l-2 -49q-4 46 -4 53q1 -1 3 -2t3 -2z" />
<glyph unicode="M" horiz-adv-x="1402" d="M1108 1106v-21q-83 -45 -180 -45q-19 0 -29 2q-42 -17 -90 -84l-4 -6q-5 -8 -14.5 -21t-25 -34.5t-28.5 -40.5q6 36 27 131q1 1 4.5 2t5.5 2q52 110 139 144q37 2 74 2q79 0 121 -31zM1307 616l-2 -305q-22 -2 -51.5 -4.5t-34.5 -3.5q-88 24 -109 150l-8 202 q-6 139 -21 203q-27 115 -102 166l111 31q20 4 22 4h8q6 -12 19 -15q125 -203 168 -428zM741 983q-27 -161 -32 -205q-74 219 -181 219q-29 0 -57 -22q-11 -19 -65 -113q28 97 34 103q21 0 62 65q28 14 84 14q121 0 155 -61zM1022 301q-1 -6 -1.5 -16.5t-1 -26t-1.5 -27.5 h-27q-24 8 -114 43q-10 17 -17 19q-18 129 -18 223q0 213 90 320q40 0 57 -39q15 -211 15 -332q0 -68 -7 -154q13 -10 25 -10zM387 1047q-87 -78 -143 -113l-121 -43q6 47 51 117q47 74 84 86q0 22 21 22t61 -24q37 -22 47 -45zM418 969v-17q-19 -58 -68 -196 q-49 110 -49 153q0 50 45 70v8l25 12v11q35 28 45 30q-2 -6 -2 -20q0 -5 2 -25.5t2 -25.5zM1157 307l-139 23q0 61 2 108q2 49 2 111q0 158 -21 260q-30 53 -59 53q-43 0 -102 -157q-11 -108 -11 -197q0 -85 9 -232q-86 -7 -152 -20q-20 159 -20 240q-1 1 -3.5 1.5t-6 1 t-5.5 1.5q-61 180 -137 180q-45 -71 -45 -174q0 -50 8 -123q10 -92 10 -123v-29l15 -14q-28 -4 -47 -4q-69 0 -172 33q-7 32 -7 39h-10l-2 -9l-153 521q0 30 -9 45l-6 26q11 2 88 29q64 23 82 23q8 0 10 -2q33 -83 72 -197q3 -6 21 -6q0 10 14 24q15 137 115 232q6 2 18 2 q134 0 186 -260q9 3 21 6q18 147 151 274q22 0 68 19q53 -14 90 -64q58 -149 58 -373q0 -57 -7 -143q2 -8 39 -61q35 -47 35 -64zM1016 203v-13q-43 -27 -107 -67q-91 51 -207 110q55 14 78 19q169 0 236 -49zM639 504q-1 -2 -5.5 -12.5t-12.5 -31.5t-17 -44 q33 -332 35 -320q0 -2 -2 -4l-111 117q-47 127 -47 254q0 92 29 168q9 12 12 24q70 -15 119 -151zM618 84q0 -13 -28 -49q-29 -32 -43 -35q-49 32 -141 96q-86 64 -130 111q3 6 7 10h14q17 0 229 -27q81 -90 92 -106zM258 225l8 2l-4 -8q-1 1 -2 3t-2 3z" />
<glyph unicode="N" horiz-adv-x="811" d="M772 1085q-87 23 -137 23q-97 0 -201 -78q-36 -40 -63 -67q0 17 6 74t6 73q-10 10 -14 29q26 39 75 55q14 6 93 16q183 -40 235 -125zM352 1110l-129 -16q-22 40 -61 135l153 14q4 -16 16.5 -60t20.5 -73zM803 393q-19 -6 -166 -16q20 164 20 231q0 228 -141 262 q-43 -8 -88 -84q-18 -38 -57 -118q-2 -41 -31 -334q-106 11 -150 22l9 293q-6 -31 -29 -321q-43 -30 -150 -82v24q0 228 56 367q18 199 57 502q19 46 19 47q0 9 -9 12v19q19 -23 39 -78q23 -56 43 -76q-2 -98 -26 -408q3 3 47 414q22 16 80 16h36l-4 -36q-2 -12 -2 -70v-74 q2 1 8 2t9 2q15 72 129 148q76 30 160 30q120 0 135 -77q0 -99 -2 -179q-2 -78 -2 -176q0 -139 10 -262zM104 571l11 2v9h-11v-11zM645 594q0 -127 -39 -248q-40 -46 -129 -129q62 213 62 322q0 71 -21 135q-33 33 -86 33h-16q37 116 96 137q133 -41 133 -250zM807 367 q-28 -70 -51 -172l-35 -5l-209 19v8h8q0 13 53 66q51 54 68 57l4 10q91 13 162 17zM328 309q-3 -16 -19 -41q-18 -57 -24 -94h-27q-159 43 -201 59q119 76 142 91q49 0 129 -15z" />
<glyph unicode="O" horiz-adv-x="716" d="M745 803q0 -27 -8 -43q-27 106 -170 188q-133 80 -248 80q-115 -35 -157 -55q-75 -37 -129 -103q0 6 28 60q2 2 9 2q24 62 120 121q0 11 97 59q36 4 57 4q195 0 383 -215q18 -71 18 -98zM723 711q-12 -5 -18 -11q16 -22 16 -47q0 -68 -141 -194q-91 -55 -222 -58 q-133 39 -229 91q-47 46 -96 120q-3 15 -6 99q-4 -1 -8.5 -1.5t-7.5 -1t-5 -1.5q-4 -16 -4 -21q0 103 35 168q13 10 43 53q133 86 199 86q34 0 59 -14q2 -7 18 -16q-9 33 -32 36v9q123 -9 251 -88q148 -92 148 -209zM616 684q0 31 -20 64q-99 63 -322 98q-4 -1 -14.5 -3.5 t-29 -7t-37.5 -8.5q-63 -14 -95 -14h-16l-19 -20q3 -6 31 -60q25 -25 64 -86q20 -6 75 -35q127 -30 156 -37q8 1 29 3t43 3.5t45 2.5q110 40 110 100zM596 694q0 -22 -18 -57q-76 -36 -181 -39q-79 13 -104 20q-57 15 -100 37q9 53 88 80q33 11 125 27h51q14 0 22 -2h19 l2 10q96 -35 96 -76zM434 797q-7 -7 -115 -21q-66 -29 -79 -39q-43 -22 -66 -55q-2 -1 -5 -1.5t-4.5 -1t-2.5 -1.5q-12 16 -26 34l-13 17q-21 33 -27 57q80 19 193 37q87 -12 145 -26zM723 598q0 -119 -94 -207q-89 -87 -213 -102q-15 4 -49 8q-1 1 -5 12q-4 -4 -12 -4 q-32 0 -147 68q-80 74 -82 80l-29 39q-8 8 -8 16q78 -84 293 -127q8 1 42.5 4.5t61.5 5.5q183 74 242 207zM8 682v-10h-4v10h4z" />
<glyph unicode="P" horiz-adv-x="989" d="M344 1413v-8h-2v8h2zM965 909q0 -186 -119 -305q-98 -61 -182 -61q-52 0 -134 32q-57 20 -57 31v2l96 2q69 14 166 76q92 124 92 246q0 66 -24 160q-37 81 -78 122q-39 39 -125 66l-160 6q115 47 193 47q47 0 100 -12q27 -15 131 -96q101 -143 101 -316zM385 1268 q-92 -57 -129 -107q-6 100 -10 135l45 60q28 37 57 47q8 -53 37 -135zM319 1411q-37 -41 -108 -135q-118 -53 -164 -53h-14q0 2 -4 6l51 84q35 56 63 59q16 16 119 37l24 2l18 1.5t9 0.5q4 0 6 -2zM813 891q-17 -58 -27 -96l-51 -82q-19 -16 -98 -62q-80 -22 -168 -22 q-37 0 -57 2q-34 9 -164 92l-4 174q9 114 12 231q25 43 125 111q71 23 135 23q156 0 232 -105q62 -132 65 -266zM647 991q0 27 -6 51q-52 76 -168 76h-20q-10 -2 -23 -2q-29 0 -41 2q-15 -9 -39 -104q9 -209 160 -209q3 1 19 3.5t26 4.5l6 12q86 53 86 166zM629 987 q0 -44 -23 -88q-26 -50 -69 -53q-34 46 -37 117q27 75 75 84q6 17 19 20q35 -21 35 -80zM563 1085v-6q-43 -21 -71 -82h-7q-2 -14 -2 -43q0 -60 31 -120q-11 -7 -20 -7q-12 0 -58 17v6q-60 22 -69 164l18 67q7 -7 8 -10q4 2 17 2q50 21 98 21q28 0 55 -9zM233 698l11 -452 q-26 0 -29 -23q-87 -5 -172 -16q-15 147 -18 223q16 166 16 238v149q0 79 -8 342q2 17 8 35q98 25 164 53v-6h6q8 0 12 2q13 -29 13 -76q0 -13 -3 -28q-5 -5 -14 -11v-22h21l-11 -365q-12 18 -12 43q0 6 2 29h-10q-10 -23 -10 -41q0 -28 34 -74zM451 545q0 -8 -2.5 -38 t-2.5 -38l-43 -285q-30 3 -133 41q-6 61 -6 117q0 36 4 98q-12 15 -12 49v39q0 19 -4 39l-6 125q74 -49 96 -61q55 -34 104 -49q5 -15 5 -37zM401 156q-8 -26 -43 -52q-50 -30 -59 -36q-2 -2 -10 -2q-55 0 -137 36q-93 41 -105 82l148 15q40 0 67 -9l4 5q46 -15 135 -39z " />
<glyph unicode="Q" horiz-adv-x="1132" d="M1171 1163q0 -21 -6 -65q-67 -188 -174 -336q-4 4 -14 4q-15 0 -65 -11.5t-66 -11.5q-6 0 -8 2q181 193 190 359q-18 77 -59 145q-54 85 -113 99l-2 6l37 2q179 9 219 -70q61 -52 61 -123zM1001 680l-108 -12q-10 -1 -19.5 -2t-14.5 -1.5t-7 -0.5h-6q0 4 -2 8 q-23 3 -62 28q6 3 15 9q27 0 86 12q58 12 88 12q15 -18 30 -53zM1006 1073q-1 -6 -6.5 -24.5t-8.5 -30.5q-105 -252 -239 -295q0 -1 -5.5 -5t-9.5 -7q0 -24 60 -52v-16l-127 -166q-19 0 -45 33q-27 34 -27 55q10 0 31 43l-45 -18q-3 33 -17 41q-11 -4 -20 -19q-7 -2 -23 -12 q-95 -29 -176 -29q-102 0 -186 41q-104 96 -125 191q0 17 -4 149q27 107 88 191q66 97 155 135v-12q45 39 234 104q27 2 96 12l113 -8q0 -6 2 -12q15 -6 41 -6h26q16 -7 58 -27q157 -115 160 -256zM817 1077q0 58 -65 135q-76 27 -142 35q-133 -9 -155 -12q-91 -19 -131 -76 q-83 -56 -138 -233q9 -131 144 -185q93 -11 108 -14q18 7 94 31v8q0 17 -22 45q-15 29 -27 74q35 12 105 24q4 -4 10 -16h14q19 -22 56 -78h6q10 0 14 -2q8 11 57 76q72 147 72 188zM797 1065q-53 -160 -121 -213q-20 34 -58 66q14 40 33 104q44 -23 109 -45q4 12 4 18 q0 13 -6 19q-25 0 -63 17.5t-44 35.5q-13 0 -55 10t-55 10h-9q-6 -15 -6 -34q-77 -133 -77 -166v-8q8 0 14 -2q5 -13 17 -45.5t18 -51.5q-6 -1 -35 -14q-104 9 -131 174q14 101 84 209q51 34 73 43q40 16 80 16q41 -12 43 -12t4 2v21q94 -18 129 -39q52 -34 52 -115z M621 1014q0 -12 -15 -64l-74 -28q-28 0 -53 -2q19 51 70 129h20q52 0 52 -35zM446 1204v-8q-40 0 -43 -39q-5 -7 -19.5 -26.5t-23.5 -32.5q-41 -71 -41 -158q0 -120 84 -180q-148 3 -192 131q0 7 -4 35q42 115 84 176q57 80 155 102zM1014 627q0 -57 -35 -135 q-100 -13 -287 -33v6q118 158 125 160l152 24q17 0 41 -4q4 -8 4 -18zM563 578v-5l-8 -4v-6q-154 -98 -268 -98q-161 24 -273 98q-50 65 -53 178q16 61 53 174q3 -81 15 -163l39 -74q52 -58 55 -66q8 -5 32.5 -21.5t39.5 -25.5q117 -20 188 -20q114 0 176 45q1 -2 2 -5 l1.5 -4.5t0.5 -2.5z" />
<glyph unicode="R" horiz-adv-x="993" d="M610 1479l2 -2h-4l-2 2h4zM530 1511q-2 2 -12 2h-4q9 3 10 3q1 -1 3 -2.5t3 -2.5zM504 1516v-3h-6v3h6zM858 1145q0 -210 -125 -311l-12 4q-11 -13 -14 -27q-56 -16 -64 -16h-6q119 131 119 303q0 85 -33 155q-19 22 -53 68q-50 40 -135 94q-19 -3 -29 -20 q-62 -15 -174 -21q-116 -6 -176 -16v10q45 49 129 121q55 14 127 14q59 0 114 -8l195 -68q91 -70 119 -137q18 -70 18 -145zM926 389q-32 0 -79.5 26t-72.5 56q-6 2 -12 2q-15 26 -34 56.5t-30.5 49.5t-17.5 31q-43 76 -66 144q12 -4 17 -4h4q2 6 2 12q30 7 72 24 q36 -65 155 -313q35 -45 62 -84zM743 455q-16 -6 -79 -29.5t-105 -38.5q-12 9 -92 96h-8q0 9 -60 78q0 15 -2 25q-23 6 -67 86q-4 2 -11 2q-18 0 -18 -21q0 -4 4 -12v-23q0 -2 -10 -184h-78v-6h2q4 0 4 -4h-37v4h27v6q-63 8 -139 23v4q0 -1 0.5 0.5t1.5 7.5t2.5 12.5t4 19.5 t5.5 25h-8q-6 -20 -10 -24v10q0 21 12 246q6 87 65 559h9v14q54 12 108 23q33 2 289 14q184 -82 184 -272q0 -38 -4 -66q-30 -173 -104 -211v-8q-27 -8 -58 -8l-6 -19q6 -12 18 -33.5t34 -61.5t40 -73l50 -79q30 -53 36 -82zM565 1075q0 104 -123 119l-4 8h-18q-5 -1 -66 -8 q-43 -3 -43 -27v-6l25 -4q-13 -60 -35 -252l2 -31q2 -1 9 -2t10 -2q98 36 129 52q64 34 104 86q10 42 10 67zM551 1073q0 -22 -10 -55q-36 -42 -39 -51q-9 0 -25 -13q-3 12 -24 27q-15 38 -27 119q7 57 8 71q117 -6 117 -98zM449 944q-36 -14 -111 -49q-6 15 -6 41 q0 17 2 37q-4 0 -8 -2l-2 10l10 82q3 34 26 76l-8 22q6 1 26.5 4.5t35.5 5.5q-2 -23 -2 -59q0 -93 37 -168zM913 367q0 -22 -106 -62q-123 -46 -145 -61q-12 4 -48 49q-33 45 -43 61q128 68 195 74q6 -9 12 -47h10q17 0 17 14q0 7 -2 11q-7 5 -10 14q62 -31 120 -53z M403 356l-4 -4q-25 32 -75 70q-8 13 -11 84q3 55 13 115q33 -42 49 -64q17 -81 28 -201zM285 428v-4h-2v4h2zM252 428v-4h-8v4h8zM373 299v-4h-4v4h4zM238 428v-4h-11v4h11zM406 313q-112 -18 -281 -34q-21 69 -57 155q45 -12 86 -18h49q67 0 112 -10l7 -13 q19 -4 48.5 -32.5t35.5 -47.5zM281 285v-4h-11v4h11zM266 279h-30q14 2 26 2q4 0 4 -2z" />
<glyph unicode="S" horiz-adv-x="825" d="M848 1040q-13 1 -113 33q-23 158 -26 170q-88 113 -275 113q-5 0 -20.5 -0.5t-46 -1.5t-60.5 -2l-108 -33q-4 0 -6 2q14 11 39 28.5t34 24.5q44 33 82 45q62 10 168 37h8q125 0 207 -76q108 -156 117 -340zM825 1016q0 -12 -43 -49q-38 -36 -57 -43l-70 41q-46 25 -57 47 q61 14 135 22q6 6 8 10zM598 973q-28 4 -37 4q-27 0 -67 -27q-8 -14 -31 -14q-61 0 -105 41q0 8 -2 14q27 41 74 53q24 5 94 13q2 -1 5 -1.5t7.5 -1t8.5 -1.5q0 -1 4 -49q12 -12 49 -31zM696 1217l17 -117q0 -26 -6 -41q-12 -2 -134 -23q-3 15 -6 39q-2 2 -16 2 q-39 0 -92 -2q-121 -27 -121 -92q0 -5 4 -25q70 -31 113 -43l4 -20h12q6 6 8 12q162 -66 183 -213l2 -94q-21 -143 -72 -217q-76 -76 -133 -107q-3 -1 -11.5 -4.5t-28 -11t-38.5 -14.5q-23 -2 -51 -2q-77 0 -121 20q-16 14 -37 35q1 -3 3.5 -14.5t4.5 -18.5q-2 2 -6 10 q-66 0 -113 121v6q0 78 37 318q64 -6 234 -35q-3 -6 -13 -25.5t-28.5 -54.5t-36.5 -71q0 -57 18 -103q3 -1 10.5 -2.5t21.5 -5t28 -6.5q42 -10 59 -10q24 0 47 10q24 24 58 53q9 16 24.5 42.5t20.5 35.5q4 32 4 49q0 142 -162 276q-59 22 -193 64q-129 87 -145 242 q23 37 113 104q33 16 98 35l4 -8q74 24 156 24q133 0 229 -57q35 -35 51 -61zM801 551q0 -38 -8 -62q-50 -63 -101 -133q-50 -47 -74 -71q-121 -80 -243 -80q-38 0 -76 10v6h4q28 0 53 -2q170 24 269 174q18 41 39 86q14 87 18 113l-4 125q-15 38 -64 123q50 -20 113 -74 q74 -133 74 -215zM528 606q0 -15 -4 -51q-58 -117 -135 -129q-53 8 -59 14q62 62 84 112.5t22 135.5q0 52 -8 125q100 -106 100 -207zM324 723v-8q-83 10 -220 33q-19 19 -38 94l114 -29q62 -15 111 -39q33 -26 33 -51zM295 221v-4h-4v4h4z" />
<glyph unicode="T" horiz-adv-x="843" d="M549 1575q-15 -43 -205 -70q-35 -2 -68 -2q-20 0 -38 2q0 6 -2 8q43 43 131 125q81 -34 182 -63zM532 1524l33 28q-6 -126 -8 -137q-8 -73 -25 -135q-2 -1 -7 -4.5t-11 -7.5l-12 -8v-7q-6 -3 -21 -6v-6l-37 -33v19q21 146 88 297zM801 1233q-15 -21 -74 -68q-5 7 -12 11 l-10 -7q-10 2 -37 2h-29q-10 -1 -19 -1.5t-14.5 -0.5h-5.5h-68q-69 0 -96 2q36 36 96 82q4 -4 9 -4l10 2q3 6 6 9q215 -24 244 -27zM805 1010q0 -78 -10 -146q-36 -9 -72 -12q-5 44 -8 190l8 80q22 25 22 31q36 25 56 51q0 -55 2 -98t2 -96zM207 1188v-60q-70 -12 -107 -20 q-53 -18 -67 -18q-11 0 -15 2l-10 -11q-2 2 -2 6q1 1 98 156q101 -53 103 -55zM698 1137l7 -21q-7 -65 -7 -127q0 -72 2 -121h-32q-1 1 -2 3t-2 3q-23 -2 -103 -2l-35 7q-7 0 -12 -5v-8q0 -108 -37 -417q2 -117 8 -248q-6 -6 -18 -27l-166 -55q-9 73 -12 182q18 156 18 299 q0 97 -8 176q15 15 47 31l-6 31q-4 0 -41 -29v2q0 9 5 45t5 45v10q-13 -10 -45 -18q-37 -22 -143 -72q-33 0 -39 62q-2 2 -6 2q0 -7 -2 -11q-28 119 -41 189q12 4 51.5 16t67.5 21h77q2 8 2 20q0 16 -6 37q0 49 -8 117q-6 76 -6 117q0 45 6 86q115 7 197 20q65 17 75 19 q-7 -4 -10 -31l7 -3l10 -5l-58 -181l-6 -67q-8 -32 -31 -55v-9q0 -30 29 -30q5 0 21 4q118 4 133 4q62 0 114 -6zM631 133v-6q-82 15 -121 49q-10 143 -16 242q2 25 9.5 96t15.5 156t16 174h67q2 -20 2 -68v-43q-2 -47 -2 -61v-105q0 -170 19 -297l4 -112q6 -18 6 -25z M285 877l-6 -82l-86 -56q-20 9 -58 68q36 17 150 70zM618 106q-73 -35 -186 -106q-73 53 -113 92q67 31 185 68q38 -32 114 -54z" />
<glyph unicode="U" horiz-adv-x="946" d="M504 1421q-16 -38 -55 -82q0 -4 -3 -16h-49h-45q-2 0 -5 -1l1 -1q-34 0 -74 4v10q45 123 48 133q18 9 49 9q67 0 123 -29q1 -2 4.5 -11t5.5 -16zM934 1004q0 -86 -27 -314q-18 -154 -147 -239q-94 -27 -103 -27h-10q107 60 164 162q41 147 53 323q7 147 13 330q8 3 20 21 q37 -112 37 -256zM883 1307v-9q-186 -59 -232 -59q-12 0 -24 4q-2 -2 -11 -8v-16q0 -21 7 -203q1 -12 2 -32t3 -57.5t3 -66.5q-15 -282 -152 -282q-115 0 -162 102q29 10 117 59q61 106 84 258l41 273q4 4 6 8q4 -16 25 -55q6 2 12 2q0 7 -7 31.5t-7 31.5q0 6 2 8 q102 37 137 45q52 13 137 23q19 -28 19 -57zM862 1264l-12 -312q-6 -149 -39 -307q-85 -253 -461 -256q-46 8 -112 39v8q19 6 22 23q-63 0 -110 71q-29 49 -56 134q-7 29 -10 90q70 325 190 536q23 10 68 10q12 0 46 -2t46 -2h2q-38 -86 -102 -264q-51 -134 -51 -239 q0 -42 10 -80l-6 -2l6 -25q4 0 6 -2q35 -84 117 -127q23 -2 47 -2q35 0 69 12q27 23 68 49q31 79 47 224l-12 278q-3 40 8 94q78 23 219 52zM295 1462h6q-3 -23 -65 -188l2 -12l-95 -250q-35 -96 -73 -258q0 -112 77 -248v-8q-5 4 -65 55q-29 29 -51 65q-3 20 -12 67.5 t-13 68.5q0 57 -2 100q16 201 59 373q22 60 54 110q40 61 90 76v6q64 43 88 43z" />
<glyph unicode="V" horiz-adv-x="1040" d="M1022 1200q-17 -39 -45 -86q-86 7 -92 8q-56 9 -86 33q-9 35 -13 64q12 2 41 2zM778 1137v-7q-115 -106 -215 -272q-4 -6 -20 -22l-6 36q9 47 49 134q52 70 174 204q18 -64 18 -73zM1034 1178q0 -31 -16 -93l-96 -333q-55 -195 -80 -336q-7 -12 -49 -154q-94 9 -121 53 h-25l-2 25q140 364 316 711q36 36 36 49q0 4 -4 8q5 8 41 70zM524 985l8 -41q0 -16 -10 -26q-6 -82 -12 -107q-51 81 -92 201q-13 21 -21 116q52 -52 127 -143zM391 1004q-56 -17 -90 -29v-8q-26 -4 -35 -6v-7l-49 -18v-8q-2 2 -6 2q-24 -17 -27 -17q-2 0 -2 2l-4 -6 q-58 -23 -84 -30q-58 -17 -86 -19q0 14 -6 23q8 74 41 188q10 3 16 21h-6v6q204 76 262 76q14 0 23 -3q7 -5 29 -14l-2 -22h6q10 -43 20 -131zM958 1090q-12 -25 -20 -54q-148 -273 -205 -452q-2 -6 -10 -21.5t-23 -45.5l-30 -60q-3 -5 -8.5 -18.5t-16 -41t-20.5 -51.5 q-34 -29 -150 -65q-7 -13 -41 -29t-53 -16q-2 4 -10 8l-234 405q-27 64 -102 185q36 10 178 84q107 58 184 61q6 -6 17 -31q35 -77 90 -176l-2 -29l12 -6q132 255 279 375q1 0 4 -4l6 -8q8 8 10 8q34 0 145 -18zM131 649q-2 3 -8 13.5t-8 13.5q12 -14 16 -27zM147 623 q-12 12 -14 22q8 -8 14 -22zM752 240q-159 -86 -242 -144q-13 0 -70 45q-63 50 -71 60l18 -6q15 30 227 110q55 -25 107 -51q23 -9 31 -14zM211 520v-4h-4v4h4z" />
<glyph unicode="W" horiz-adv-x="1445" d="M987 1057q-18 -71 -33 -187l-63 148q-51 205 -62 262h-2v2l2 -2l31 2q18 3 43 -8q26 -50 53 -105q28 -61 31 -112zM1436 1061v-23q0 -169 -70 -385q-5 -16 -48 -144.5t-77 -227.5q-9 -16 -37 -70h-10q-66 160 -119 268q0 5 -4 29q77 152 148 311l86 342h12q6 -19 51 -55 q42 -34 68 -45zM1288 1171q0 -63 -61 -286q-28 -100 -176 -381l-162 16q-23 110 -119 393q-3 27 -12 27q-16 0 -25 -47q-9 -23 -172 -344q-3 0 -31 4q-59 90 -200 276q-112 232 -115 238q-74 138 -135 225l-31 62q37 29 162 78q9 -9 12 -11q52 -99 131 -293q0 -3 64 -110 q40 -67 49 -113q19 3 22 53q78 184 138 361q70 -16 176 -33q31 -91 98 -328q22 -54 41 -135q10 2 21 2q13 105 34 211q15 9 15 19q0 8 -8 24l59 289q10 -4 19.5 -11t14 -13t3.5 -7q18 -6 74 -47q57 -39 57 -49h8q10 -19 47 -43q2 -8 2 -27zM530 1102q-49 -118 -55 -150h-10 q-5 20 -59 99q-30 62 -78 196q-81 164 -86 174h10q21 0 67 -16q20 -34 113 -180q18 -8 47 -64h8q8 -14 43 -59zM862 485l23 -178l-115 228q-18 64 -18 149q0 53 14 199q100 -241 100 -348q0 -22 -4 -50zM1147 272q-3 -1 -7.5 -1.5t-11.5 -1t-12 -1.5q-158 8 -209 17 q-22 126 -22 192v27l157 -27q2 -2 2 -10q11 0 17 -2q41 -70 86 -193zM748 739q0 -110 -31 -174q-42 -61 -127 -174q0 -3 -6 -18h-9l-10 149q133 252 178 352q0 -15 2.5 -67t2.5 -68zM557 369q-59 59 -151 196l-136 209q-106 162 -166 252q-92 89 -92 221q0 43 17 92h6 q140 -224 295 -544q98 -101 205 -301q13 -4 14 -5q7 -96 8 -120z" />
<glyph unicode="X" horiz-adv-x="1191" d="M1188 1321q-88 21 -197 59v6q-40 12 -49 56h43q112 0 193 -19q1 -13 4.5 -47.5t5.5 -54.5zM954 1364l-41 -70q-61 -71 -127 -174q-76 -119 -120 -178q-1 -1 -3 -1.5t-5 -1t-5 -1.5v8q12 25 23 66q15 58 18 71q-10 13 -26 62q127 165 215 282q5 7 24 17q18 -21 47 -80z M408 1298v-4h-2v4h2zM662 1055l-15 -69l-8 -44q-142 55 -260 188q-80 66 -98 84q0 4 -2 17.5t-3 21.5q25 48 25 88v5q26 -8 74 -41q56 -42 69 -48q150 -119 193 -145q0 -7 18 -22q7 -18 7 -35zM1194 1292q-17 -58 -57 -129l-72 -123q-36 -91 -127 -303q-20 -23 -23 -35 q22 -32 66 -47q99 -77 129 -184q-89 -86 -186 -162q-106 112 -240 408h-14q-88 -78 -191 -232q-98 -147 -170 -247q-6 -2 -24 -2q-12 3 -111 18q-5 2 -78 8q-26 9 -86 21q36 38 123 143l123 154q10 16 30 42t25 33q42 54 66 60q7 15 10 30q-9 2 -51 41q-13 10 -88 62 q-21 22 -52 53t-80.5 80t-84.5 84v6q118 79 213 117h30q0 -8 45 -41q43 -32 56 -45l180 -148q3 -2 28.5 -15t49.5 -26v-2q0 -23 -2 -41q2 -2 6 -2t6 2q14 16 33 60q32 40 108 157q71 112 107 160q11 8 78 101q20 3 28 6q111 -42 197 -62zM1139 459q-3 -24 -33 -156 q-27 -16 -86 -47q-77 -41 -100 -41q-5 0 -7 2q87 172 226 242zM281 1331q-2 -7 -6 -22.5t-11 -42.5t-14 -52q-232 -126 -234 -131q-8 13 -14 35q10 76 29 135q85 44 243 103q3 -21 7 -25zM918 281q0 -14 -33 -70q-7 0 -13 -2q-123 132 -188 303v37q2 14 2 31q0 76 -24 100 q6 2 12 2q27 -49 162 -299q38 -44 82 -102zM166 922v-4h-4v4h4zM666 522q-8 0 -11 -14q-88 -128 -239 -369l-4 4q-4 4 -11.5 11t-17 16t-24 23.5l-29.5 29.5l149 228q83 128 168 213q13 -45 19 -142zM395 111q-2 1 -7.5 2t-8.5 2l14 2q0 -4 2 -6zM352 111v-5h-4v5h4z M301 106v-2h-6v2h6zM387 127l-194 -18q-112 72 -154 139q37 -4 70 -8.5t56 -7.5t25 -3q94 -15 144 -45q39 -39 53 -57zM174 113q-7 2 -57 39q32 -7 57 -39zM88 178v-4h-4v4h4z" />
<glyph unicode="Y" horiz-adv-x="1058" d="M1055 1171v-6q0 -3 -13 -63q-21 0 -88 33q-131 82 -157 122q125 -18 258 -86zM793 1210q-84 -120 -170 -321h-11l-10 16h16q11 42 11 51v7q-2 2 -6 2l-7 -7q-6 46 -18 123q11 28 78 95q68 65 94 65q2 0 4 -2q17 -25 19 -29zM596 930v-17q-20 26 -82 138q30 15 64 26 q18 -108 18 -147zM389 1194q-1 -1 -6.5 -4t-9.5 -6v-6q-177 -74 -219 -74q-11 0 -17 2q-16 8 -47 8q-25 0 -74 -8v6q52 45 66 64q24 17 50.5 35.5t56 38.5t44.5 30q35 0 156 -86zM1014 1083q-3 -17 -15 -43q-57 -105 -84 -157q-40 -56 -153 -226q-12 -8 -14 -10v-22 q8 -5 8 -11q0 -1 -23 -75q-12 -223 -45 -342q-40 3 -123 32q-87 32 -123 37q2 10 2 47v129q0 193 19 215l-6 19q-14 0 -21 -10h-8q2 10 2 18q0 12 -18 18q-78 72 -160 191q-43 66 -119 180q35 11 275 105h4q10 0 12 -2q4 -9 18.5 -34.5t22.5 -39.5l141 -242q3 -3 6 -12 q6 -3 15 -6q9 6 30 90q43 88 103 203q12 23 49 59q6 -20 14 -20t17 6q86 -51 174 -97zM412 639q-19 -25 -39 -25q-18 0 -156 185q-31 45 -90 135l-72 70q-43 43 -51 73l35 4l43 6h8q-14 -11 -14 -20q0 -2 4 -14q12 4 33 10q23 -33 88.5 -125.5t109.5 -153.5q1 -3 1.5 -7 t1 -11t1.5 -12q17 -7 60 -56q6 -10 18.5 -30t18.5 -29zM432 627l2 -84q0 -14 -6 -275h-8v-28q-18 -8 -121 -88l-4 24q37 160 61 350l13 43zM678 170q-12 -38 -39 -111h-33q-3 0 -61 -4q-97 16 -230 84q41 35 62 47q41 24 67 33q2 8 2 17q111 -17 232 -66z" />
<glyph unicode="Z" horiz-adv-x="1165" d="M1085 1051q0 -49 -57 -183h-6q0 8 -16.5 43.5t-16.5 44.5q-25 48 -37 218q60 -40 133 -123zM1012 840q-85 -114 -291 -420q-8 -22 -15 -29t-26 -8v6q39 81 240 463q16 32 53 72q20 -26 39 -84zM1167 393q-11 -74 -41 -182q-32 -126 -43 -180q-68 123 -88 270q8 86 35 178 h12q82 -59 115 -76v-4q2 -2 10 -6zM664 354l342 121q-18 -116 -29 -227q-4 -12 -4 -15l5 -11q5 -12 5 -17l-109 14q-33 -2 -229 -29q-103 -5 -360 -8q-3 10 -6 29q-11 0 -17 2q0 -4 -2 -6q-2 -1 -6.5 -2.5l-9 -3t-8.5 -2.5v4q156 266 303 504q18 27 36 57q23 34 48 47 q1 2 2 7.5t2 8.5h8q2 6 2 21v6q-7 -2 -26 -8t-33 -10l-93 -13q-97 -25 -100 -28h2q6 0 6 -4q-5 0 -14 -3q-1 1 -2 3.5t-2 3.5q-4 -11 -17 -11q-6 0 -10 2h-8v-8h-14v6q-15 -3 -45 -6l-7 13q-6 2 -14 2q-3 -3 -6 -17h-12q-31 93 -58 201q12 3 109 27.5t180 44.5l336 81 q90 37 119 37h6q0 -15 6 -64t6 -65q0 -28 -6 -49q10 -27 10 -41q0 -10 -39 -78q-69 -125 -202 -391h-7q-30 -73 -63 -106q0 -22 25 -25v6zM348 197h4v4h-4v-4zM537 813h14q-5 -5 -27 -18q-228 -103 -383 -156v6q85 94 97 94h4q15 9 32 9l9 6q201 59 254 59zM225 768 q0 -8 -2 -12q-31 -39 -90 -82v-6h-6q-4 -13 -14 -25q-45 119 -66 215q0 15 -4 105q99 12 109 12h10q15 -42 18 -66h8q0 -19 19 -71q18 -46 18 -70zM590 803q-171 -256 -236 -379q-42 -75 -147 -231q-180 -70 -193 -70q-4 0 -6 2q24 34 60.5 85t92.5 129t99 138 q56 51 182 232q2 2 7 2l2 24q45 23 137 76q2 -2 2 -8zM1057 39v-10q-76 31 -230 28q-116 -3 -149 -8q-105 2 -320 23q-64 -3 -65 -4q14 0 24 -2q0 -5 -2 -7q-16 5 -28 7l2 2q0 10 -70 10h-26v-10h59q25 0 27 -2q-27 -3 -60 -3q-55 0 -123 11q0 6 -2 10l-69 14q49 22 163 64 q9 -12 17 -12h8l645 47q74 -8 150 -27q22 -79 49 -131zM162 166q-4 0 -6 -2h-2q2 2 8 2zM150 160q-12 -6 -15 -6q-2 0 -4 2q2 1 9 2t10 2zM123 150h2q-58 -25 -64 -25h-6q67 25 68 25z" />
<glyph unicode="[" d="M2324 193q3 -72 -65 -72q-67 0 -70 78l17 14l22 -12q3 -43 29 -43q27 3 27 32q0 18 -33 54q-25 22 -47 47q-11 26 -11 41q0 69 64 69q62 0 65 -63l-38 -8q-3 35 -27 35q-21 0 -21 -31q0 -20 54 -74q34 -34 34 -67zM2075 123v233h-43v41h129v-41h-45v-233l-21 -14zM2269 0 h-8l35 74h8zM2185 2h-10v57h10l29 -34l27 34h10v-57h-13v39l-24 -33h-2l-27 33v-39zM987 1245l180 393l174 -391l431 -49l-318 -287l88 -424l-373 213l-376 -213l88 418l-320 293zM1855 397h48l53 -184v184h43v-274h-45l-58 176v-176h-41v235l-14 19zM2079 16v29q0 14 14 14 h43q14 0 14 -14v-29q0 -14 -14 -14h-43q-14 0 -14 14zM2044 37v10h-37v-35h37v13l12 -2v-7q0 -14 -14 -14h-35q-14 0 -14 14v29q0 14 14 14h35q14 0 14 -14v-6zM1753 401q66 0 66 -65v-150q0 -65 -66 -65q-65 0 -65 65v150q0 65 65 65zM1950 23h18q2 -2 2 -5v-12q0 -2 -2 -4 h-16q-2 0 -2 2v19zM1931 49h-26v-47h-15v47h-26v10h67v-10zM1583 240v-117h-41v233l-14 21l14 20h117v-41h-76v-75h55v-41h-55zM1776 16v29q0 14 14 14h43q14 0 14 -14v-29q0 -14 -14 -14h-43q-14 0 -14 14zM1706 2h-14v57h51q14 0 14 -12v-12q0 -10 -14 -10h-37v-23z M1485 164v-41h-113v274l21 17l20 -17v-233h72zM1657 43v6h-39v-12h37q14 0 14 -14v-7q0 -14 -14 -14h-37q-14 0 -14 14l10 2v-6h43v13h-37q-14 0 -14 14v6q0 14 14 14h33q14 0 14 -12v-2zM1567 43v4h-43v-35h43v13h-23v10h37v-19q0 -14 -14 -14h-41q-15 0 -15 14v29 q0 14 15 14h41q14 0 14 -14zM1343 123h-116v233l-15 21l15 20h116v-41h-75v-75h55v-41h-55v-76h75v-41zM1415 16v29q0 14 15 14h45q14 0 14 -14v-29q0 -14 -14 -14h-45q-15 0 -15 14zM1401 2h-58v57h15v-47h43v-10zM1124 119q-65 0 -65 65v150q0 67 65 67q66 0 66 -67v-31 h-43v33q0 24 -23 24q-24 0 -24 -24v-150q0 -24 24 -24q23 0 23 24v54h-23l-16 18l16 23h66v-97q0 -65 -66 -65zM1303 2h-48v57h52q12 0 12 -12v-6q0 -7 -8 -10q10 -3 10 -11v-8q0 -10 -18 -10zM1212 23h19v-21h-17q-4 0 -4 4v12q0 3 2 5zM893 397h63q66 0 66 -65v-39 q0 -29 -23 -49l31 -121h-45l-24 104h-27v-104h-41v235l-14 19zM1196 2h-57v57h14v-47h43v-10zM1118 2h-61v57h61v-10h-47v-12h27v-10h-27v-15h47v-10zM805 186h-43l-10 -63l-23 -12l-20 12l45 274h57l47 -274l-22 -12l-23 12zM1020 43v4h-43v-35h43v13h-23v10h37v-19 q0 -14 -14 -14h-41q-14 0 -14 14v29q0 14 14 14h41q14 0 14 -14zM893 2h-14v57h51q12 0 12 -12v-12q0 -12 -12 -12h-8l26 -21h-18l-25 21h-12v-21zM799 2h-15l33 57h14l33 -57h-14l-8 12h-37zM555 123v115l-55 159h45l30 -98l31 98h45l-55 -159v-115h-41zM756 2h-13v25 l-30 32h18l19 -22l20 22h16l-30 -30v-27zM522 164v-41h-112v274l18 17l23 -17v-233h71zM721 2h-59v57h14v-47h45v-10zM647 2h-57v57h12v-47h45v-10zM381 164v-41h-113v274l19 17l22 -17v-233h72zM563 2h-12v57h12v-57zM510 2h-47v57h51q12 0 12 -12v-6q0 -7 -10 -10 q10 -3 10 -11v-8q0 -10 -16 -10zM418 0h-8l34 74h9zM231 397v-274l-22 -14l-21 14v274h43zM381 0h-8l35 74h8zM350 59h10q3 0 5 -2v-18h-21v18q2 2 6 2zM344 23h21v-21h-19l-2 2v19zM90 123h-76v233l-14 19l14 22h62q71 0 71 -75q0 -40 -28 -56q35 -12 35 -65q0 -78 -64 -78 zM274 2h-14v57h51q15 0 15 -12v-12q0 -10 -15 -10h-37v-23zM244 49h-29v-47h-12v47h-27v10h68v-10zM170 49h-27v-47h-14v47h-27v10h68v-10zM29 2h-15v57h15v-22h43v22h12v-57h-12v25h-43v-25zM1280 698l45 29l-98 592h-123l-100 -592l47 -29l45 29l22 135h92l21 -135z M2091 47v-35h47v35h-47zM1776 186v150q0 24 -23 24q-24 0 -24 -24v-150q0 -24 24 -24q23 0 23 24zM1788 47v-35h45v35h-45zM1737 49h-31v-14h31q6 0 6 4v6q0 4 -6 4zM1430 47v-35h45v35h-45zM1300 49h-30v-12h30q7 0 7 4v4q0 4 -7 4zM1300 27h-30v-15h30q7 0 7 4v7q0 4 -7 4 zM981 291v41q0 22 -23 22h-24v-86h24q23 0 23 23zM799 227l-17 107l-14 -107h31zM924 49h-31v-16h31q6 0 6 4v8q0 4 -6 4zM823 49l-12 -24h27zM508 49h-33v-12h33q6 0 6 4v4q0 4 -6 4zM508 27h-33v-15h33q6 0 6 4v7q0 4 -6 4zM59 356v-71h17q28 0 28 37q0 34 -28 34h-17z M305 49h-31v-14h31q6 0 6 4v6q0 4 -6 4zM59 246v-82h17q33 0 33 39q0 43 -33 43h-17zM1130 950l33 234l35 -234h-68z" />
<glyph unicode="\" d="M2324 193q3 -72 -65 -72q-67 0 -70 78l17 14l22 -12q3 -43 29 -43q27 3 27 32q0 18 -33 54q-25 22 -47 47q-11 26 -11 41q0 69 64 69q62 0 65 -63l-38 -8q-3 35 -27 35q-21 0 -21 -31q0 -20 54 -74q34 -34 34 -67zM2075 123v233h-43v41h129v-41h-45v-233l-21 -14zM2269 0 h-8l35 74h8zM2185 2h-10v57h10l29 -34l27 34h10v-57h-13v39l-24 -33h-2l-27 33v-39zM987 1245l180 393l174 -391l431 -49l-318 -287l88 -424l-373 213l-376 -213l88 418l-320 293zM1855 397h48l53 -184v184h43v-274h-45l-58 176v-176h-41v235l-14 19zM2079 16v29q0 14 14 14 h43q14 0 14 -14v-29q0 -14 -14 -14h-43q-14 0 -14 14zM2044 37v10h-37v-35h37v13l12 -2v-7q0 -14 -14 -14h-35q-14 0 -14 14v29q0 14 14 14h35q14 0 14 -14v-6zM1753 401q66 0 66 -65v-150q0 -65 -66 -65q-65 0 -65 65v150q0 65 65 65zM1950 23h18q2 -2 2 -5v-12q0 -2 -2 -4 h-16q-2 0 -2 2v19zM1931 49h-26v-47h-15v47h-26v10h67v-10zM1583 240v-117h-41v233l-14 21l14 20h117v-41h-76v-75h55v-41h-55zM1776 16v29q0 14 14 14h43q14 0 14 -14v-29q0 -14 -14 -14h-43q-14 0 -14 14zM1706 2h-14v57h51q14 0 14 -12v-12q0 -10 -14 -10h-37v-23z M1485 164v-41h-113v274l21 17l20 -17v-233h72zM1657 43v6h-39v-12h37q14 0 14 -14v-7q0 -14 -14 -14h-37q-14 0 -14 14l10 2v-6h43v13h-37q-14 0 -14 14v6q0 14 14 14h33q14 0 14 -12v-2zM1567 43v4h-43v-35h43v13h-23v10h37v-19q0 -14 -14 -14h-41q-15 0 -15 14v29 q0 14 15 14h41q14 0 14 -14zM1343 123h-116v233l-15 21l15 20h116v-41h-75v-75h55v-41h-55v-76h75v-41zM1415 16v29q0 14 15 14h45q14 0 14 -14v-29q0 -14 -14 -14h-45q-15 0 -15 14zM1401 2h-58v57h15v-47h43v-10zM1124 119q-65 0 -65 65v150q0 67 65 67q66 0 66 -67v-31 h-43v33q0 24 -23 24q-24 0 -24 -24v-150q0 -24 24 -24q23 0 23 24v54h-23l-16 18l16 23h66v-97q0 -65 -66 -65zM1303 2h-48v57h52q12 0 12 -12v-6q0 -7 -8 -10q10 -3 10 -11v-8q0 -10 -18 -10zM1212 23h19v-21h-17q-4 0 -4 4v12q0 3 2 5zM893 397h63q66 0 66 -65v-39 q0 -29 -23 -49l31 -121h-45l-24 104h-27v-104h-41v235l-14 19zM1196 2h-57v57h14v-47h43v-10zM1118 2h-61v57h61v-10h-47v-12h27v-10h-27v-15h47v-10zM805 186h-43l-10 -63l-23 -12l-20 12l45 274h57l47 -274l-22 -12l-23 12zM1020 43v4h-43v-35h43v13h-23v10h37v-19 q0 -14 -14 -14h-41q-14 0 -14 14v29q0 14 14 14h41q14 0 14 -14zM893 2h-14v57h51q12 0 12 -12v-12q0 -12 -12 -12h-8l26 -21h-18l-25 21h-12v-21zM799 2h-15l33 57h14l33 -57h-14l-8 12h-37zM555 123v115l-55 159h45l30 -98l31 98h45l-55 -159v-115h-41zM756 2h-13v25 l-30 32h18l19 -22l20 22h16l-30 -30v-27zM522 164v-41h-112v274l18 17l23 -17v-233h71zM721 2h-59v57h14v-47h45v-10zM647 2h-57v57h12v-47h45v-10zM381 164v-41h-113v274l19 17l22 -17v-233h72zM563 2h-12v57h12v-57zM510 2h-47v57h51q12 0 12 -12v-6q0 -7 -10 -10 q10 -3 10 -11v-8q0 -10 -16 -10zM418 0h-8l34 74h9zM231 397v-274l-22 -14l-21 14v274h43zM381 0h-8l35 74h8zM350 59h10q3 0 5 -2v-18h-21v18q2 2 6 2zM344 23h21v-21h-19l-2 2v19zM90 123h-76v233l-14 19l14 22h62q71 0 71 -75q0 -40 -28 -56q35 -12 35 -65q0 -78 -64 -78 zM274 2h-14v57h51q15 0 15 -12v-12q0 -10 -15 -10h-37v-23zM244 49h-29v-47h-12v47h-27v10h68v-10zM170 49h-27v-47h-14v47h-27v10h68v-10zM29 2h-15v57h15v-22h43v22h12v-57h-12v25h-43v-25zM1280 698l45 29l-98 592h-123l-100 -592l47 -29l45 29l22 135h92l21 -135z M2091 47v-35h47v35h-47zM1776 186v150q0 24 -23 24q-24 0 -24 -24v-150q0 -24 24 -24q23 0 23 24zM1788 47v-35h45v35h-45zM1737 49h-31v-14h31q6 0 6 4v6q0 4 -6 4zM1430 47v-35h45v35h-45zM1300 49h-30v-12h30q7 0 7 4v4q0 4 -7 4zM1300 27h-30v-15h30q7 0 7 4v7q0 4 -7 4 zM981 291v41q0 22 -23 22h-24v-86h24q23 0 23 23zM799 227l-17 107l-14 -107h31zM924 49h-31v-16h31q6 0 6 4v8q0 4 -6 4zM823 49l-12 -24h27zM508 49h-33v-12h33q6 0 6 4v4q0 4 -6 4zM508 27h-33v-15h33q6 0 6 4v7q0 4 -6 4zM59 356v-71h17q28 0 28 37q0 34 -28 34h-17z M305 49h-31v-14h31q6 0 6 4v6q0 4 -6 4zM59 246v-82h17q33 0 33 39q0 43 -33 43h-17zM1130 950l33 234l35 -234h-68z" />
<glyph unicode="]" d="M2324 193q3 -72 -65 -72q-67 0 -70 78l17 14l22 -12q3 -43 29 -43q27 3 27 32q0 18 -33 54q-25 22 -47 47q-11 26 -11 41q0 69 64 69q62 0 65 -63l-38 -8q-3 35 -27 35q-21 0 -21 -31q0 -20 54 -74q34 -34 34 -67zM2075 123v233h-43v41h129v-41h-45v-233l-21 -14zM2269 0 h-8l35 74h8zM2185 2h-10v57h10l29 -34l27 34h10v-57h-13v39l-24 -33h-2l-27 33v-39zM987 1245l180 393l174 -391l431 -49l-318 -287l88 -424l-373 213l-376 -213l88 418l-320 293zM1855 397h48l53 -184v184h43v-274h-45l-58 176v-176h-41v235l-14 19zM2079 16v29q0 14 14 14 h43q14 0 14 -14v-29q0 -14 -14 -14h-43q-14 0 -14 14zM2044 37v10h-37v-35h37v13l12 -2v-7q0 -14 -14 -14h-35q-14 0 -14 14v29q0 14 14 14h35q14 0 14 -14v-6zM1753 401q66 0 66 -65v-150q0 -65 -66 -65q-65 0 -65 65v150q0 65 65 65zM1950 23h18q2 -2 2 -5v-12q0 -2 -2 -4 h-16q-2 0 -2 2v19zM1931 49h-26v-47h-15v47h-26v10h67v-10zM1583 240v-117h-41v233l-14 21l14 20h117v-41h-76v-75h55v-41h-55zM1776 16v29q0 14 14 14h43q14 0 14 -14v-29q0 -14 -14 -14h-43q-14 0 -14 14zM1706 2h-14v57h51q14 0 14 -12v-12q0 -10 -14 -10h-37v-23z M1485 164v-41h-113v274l21 17l20 -17v-233h72zM1657 43v6h-39v-12h37q14 0 14 -14v-7q0 -14 -14 -14h-37q-14 0 -14 14l10 2v-6h43v13h-37q-14 0 -14 14v6q0 14 14 14h33q14 0 14 -12v-2zM1567 43v4h-43v-35h43v13h-23v10h37v-19q0 -14 -14 -14h-41q-15 0 -15 14v29 q0 14 15 14h41q14 0 14 -14zM1343 123h-116v233l-15 21l15 20h116v-41h-75v-75h55v-41h-55v-76h75v-41zM1415 16v29q0 14 15 14h45q14 0 14 -14v-29q0 -14 -14 -14h-45q-15 0 -15 14zM1401 2h-58v57h15v-47h43v-10zM1124 119q-65 0 -65 65v150q0 67 65 67q66 0 66 -67v-31 h-43v33q0 24 -23 24q-24 0 -24 -24v-150q0 -24 24 -24q23 0 23 24v54h-23l-16 18l16 23h66v-97q0 -65 -66 -65zM1303 2h-48v57h52q12 0 12 -12v-6q0 -7 -8 -10q10 -3 10 -11v-8q0 -10 -18 -10zM1212 23h19v-21h-17q-4 0 -4 4v12q0 3 2 5zM893 397h63q66 0 66 -65v-39 q0 -29 -23 -49l31 -121h-45l-24 104h-27v-104h-41v235l-14 19zM1196 2h-57v57h14v-47h43v-10zM1118 2h-61v57h61v-10h-47v-12h27v-10h-27v-15h47v-10zM805 186h-43l-10 -63l-23 -12l-20 12l45 274h57l47 -274l-22 -12l-23 12zM1020 43v4h-43v-35h43v13h-23v10h37v-19 q0 -14 -14 -14h-41q-14 0 -14 14v29q0 14 14 14h41q14 0 14 -14zM893 2h-14v57h51q12 0 12 -12v-12q0 -12 -12 -12h-8l26 -21h-18l-25 21h-12v-21zM799 2h-15l33 57h14l33 -57h-14l-8 12h-37zM555 123v115l-55 159h45l30 -98l31 98h45l-55 -159v-115h-41zM756 2h-13v25 l-30 32h18l19 -22l20 22h16l-30 -30v-27zM522 164v-41h-112v274l18 17l23 -17v-233h71zM721 2h-59v57h14v-47h45v-10zM647 2h-57v57h12v-47h45v-10zM381 164v-41h-113v274l19 17l22 -17v-233h72zM563 2h-12v57h12v-57zM510 2h-47v57h51q12 0 12 -12v-6q0 -7 -10 -10 q10 -3 10 -11v-8q0 -10 -16 -10zM418 0h-8l34 74h9zM231 397v-274l-22 -14l-21 14v274h43zM381 0h-8l35 74h8zM350 59h10q3 0 5 -2v-18h-21v18q2 2 6 2zM344 23h21v-21h-19l-2 2v19zM90 123h-76v233l-14 19l14 22h62q71 0 71 -75q0 -40 -28 -56q35 -12 35 -65q0 -78 -64 -78 zM274 2h-14v57h51q15 0 15 -12v-12q0 -10 -15 -10h-37v-23zM244 49h-29v-47h-12v47h-27v10h68v-10zM170 49h-27v-47h-14v47h-27v10h68v-10zM29 2h-15v57h15v-22h43v22h12v-57h-12v25h-43v-25zM1280 698l45 29l-98 592h-123l-100 -592l47 -29l45 29l22 135h92l21 -135z M2091 47v-35h47v35h-47zM1776 186v150q0 24 -23 24q-24 0 -24 -24v-150q0 -24 24 -24q23 0 23 24zM1788 47v-35h45v35h-45zM1737 49h-31v-14h31q6 0 6 4v6q0 4 -6 4zM1430 47v-35h45v35h-45zM1300 49h-30v-12h30q7 0 7 4v4q0 4 -7 4zM1300 27h-30v-15h30q7 0 7 4v7q0 4 -7 4 zM981 291v41q0 22 -23 22h-24v-86h24q23 0 23 23zM799 227l-17 107l-14 -107h31zM924 49h-31v-16h31q6 0 6 4v8q0 4 -6 4zM823 49l-12 -24h27zM508 49h-33v-12h33q6 0 6 4v4q0 4 -6 4zM508 27h-33v-15h33q6 0 6 4v7q0 4 -6 4zM59 356v-71h17q28 0 28 37q0 34 -28 34h-17z M305 49h-31v-14h31q6 0 6 4v6q0 4 -6 4zM59 246v-82h17q33 0 33 39q0 43 -33 43h-17zM1130 950l33 234l35 -234h-68z" />
<glyph unicode="^" horiz-adv-x="3850" d="M2329 883q60 59 106 118h19q27 -18 88 -30q16 -3 47.5 -8.5t46.5 -8.5q67 -19 76 -16q42 91 55 135q-145 139 -221 203l-13 2q0 -1 -1.5 -6.5t-6 -20t-8.5 -28.5q-12 -41 -23 -45q85 -91 234 -170q3 -14 -4 -31q-18 4 -23 14q-167 103 -219 168q-86 3 -239 -147 q0 -20 86 -129zM2456 1280l36 8l-36 -106l-123 -45l-111 -70l-12 57z" />
<glyph unicode="`" horiz-adv-x="3850" d="M1235 854q-24 21 -69 58.5t-64 54.5q-79 70 -123 125q-6 0 -10 -2l-2 8q2 2 8 2q0 17 61 69q63 54 80 54q47 -62 86 -111q89 -82 158 -160q-45 -45 -84 -80q-27 -7 -41 -18zM879 1055q-6 41 43 172l118 18q28 0 41 -8q-1 -1 -116 -125q-41 -15 -41 -39zM1305 778 l-119 -16q19 33 98 69q21 61 68 82q0 13 26 19q-10 -30 -30 -80q-21 -52 -43 -74zM1157 776q-165 140 -262 256q69 31 72 37q1 -1 14.5 -14t31.5 -31t38 -39q58 -47 92 -72q68 -59 76 -79q-22 -28 -62 -58z" />
<glyph unicode="a" horiz-adv-x="1245" d="M610 1235h-16q-21 0 -94 -8v8q69 29 80 29q27 0 30 -29zM1227 1137v-9q0 -50 -39 -135q-11 -106 -60 -348q-53 -258 -86 -334q-58 -22 -131 -22q-17 0 -106 6q-35 94 -41 113q-22 0 -37 -9q-12 9 -22 9l-5 -2q-3 -6 -12 -21q-64 -27 -135 -27q-195 0 -326 168h-8 q-64 93 -86 187q-1 6 -1.5 15.5t-1 24.5t-1.5 27q46 267 178 334v8q20 6 92 47q54 18 84 27q42 11 88 14q100 -24 183 -41h4q177 0 239 -86h21q47 96 88 111q12 -3 32.5 -9t32.5 -9q41 -15 56 -39zM836 877q0 165 -160 239q-28 4 -45 4q-83 0 -156 -37q-89 -44 -98 -114h10 q50 63 78 80q2 -2 2 -19q-31 -19 -55 -53h-9q-3 -9 -22 -25q-48 -80 -51 -147q27 -195 116 -260q30 -10 60 -10q110 0 254 108q76 119 76 234zM672 1094v-9l-74 7q-16 -5 -27.5 -8.5t-16 -5t-3.5 -1.5q-9 0 -12 8q57 13 88 13q13 0 45 -4zM817 856q0 -65 -35 -149 q-20 -23 -22 -35q-110 -84 -142 -84h-6q40 59 56 90q6 21 6 47q0 102 -103 322q28 4 52 4h47q3 -10 12 -13l12 19q9 12 17 12h8q98 -101 98 -213zM649 735q-6 -86 -94 -168q-24 -6 -45 -6q-70 0 -129 92q-30 111 -33 195q27 65 78 119q57 63 119 63q57 -77 104 -295z M594 334q-115 -47 -203 -47q-74 0 -153 26q-78 60 -132 133q-22 54 -45 109q-26 124 -47 313q3 3 10.5 11.5t21 23t26.5 29.5q41 66 137 125q-94 -149 -94 -309q0 -46 10 -101q57 -123 172 -229q74 -52 139 -66q53 -12 158 -18zM784 256q-54 -43 -94 -72q-26 18 -80 72 q55 62 58 63q38 35 73 35h13q27 -53 30 -98zM1012 264l-279 -80q62 50 76 64q72 6 201 24q2 -2 2 -8z" />
<glyph unicode="b" horiz-adv-x="1343" d="M838 1452l-29 -14q-63 17 -113 28q-103 47 -131 47q-8 0 -20 -4l-64 37q-40 27 -49 51q202 41 246 41q17 -19 69.5 -80.5t90.5 -105.5zM1317 623h-17q1 -9 5 -105q-13 -31 -68 -153h-12q-13 -28 -39 -46v-12q-2 -1 -39 -22q-26 -42 -184 -86q-178 16 -203 22 q-123 27 -154 107l-53 4q0 -3 -4 -15q-131 -73 -154 -73q-30 0 -131 110q26 65 121 234q202 368 233 399q-3 289 -28 455q7 20 8 28q177 -57 256 -57q27 -127 29 -141q-5 -108 -25 -295q5 -2 13 -4.5t10 -3.5l12 35q424 -76 424 -381zM1143 608q0 98 -78 133v13 q-64 33 -129 55q-135 -3 -139 -4q-84 -9 -129 -41q-15 -38 -15 -78q0 -46 21 -117h-12q2 -12 12 -41q12 0 22 -2q46 -85 119 -110v-13q108 -24 135 -26q61 20 121 51v12h12q12 21 19 35q16 2 35 2v23q0 12 3 54t3 54zM1118 594q0 -33 -8 -64q-145 177 -231 177 q-82 0 -177 -109h-10q-14 46 -14 84q0 98 127 98q32 0 110 -10q-10 10 -16 14q92 0 154 -47q65 -53 65 -143zM1079 506q0 -41 -98 -90q-236 9 -270 155q75 68 90 78q48 31 84 31q43 0 108 -35q86 -115 86 -139zM588 1186v-37q-1 -27 -2 -47v0v-86q-11 0 -13 -2 q-29 -108 -133 -295q-11 -22 -219 -354q-49 3 -164 86v16q174 136 238 334q41 183 102 536q-6 154 -16 242q59 -32 174 -113q33 -109 33 -280zM1305 440q-9 -91 -68 -274q-10 0 -12 -2q-26 -53 -43 -84q-78 -60 -123 -80q-263 9 -463 188q-6 18 -6 35q0 20 2 45q9 -3 24 -6 q2 -2 2 -12q43 -24 109 -62q123 -14 180 -14q112 0 221 53q98 68 177 213zM565 287q-3 -49 -16 -78l-98 -31q-54 9 -54 15q35 28 168 94zM365 184q-175 -25 -228 -37q-2 1 -33 5q-49 150 -104 284q2 2 10 2q32 0 109 -57q84 -57 108 -62q4 -12 6 -20q2 -1 5 -1.5t5 -1 t3 -1.5q2 2 6 14q45 -15 53 -47h12v-12h13v-14h12v-13q5 -1 11.5 -4t8.5 -4q3 -9 3 -31z" />
<glyph unicode="c" horiz-adv-x="942" d="M938 1325q0 -254 -115 -281l13 93q10 85 10 135q0 137 -60 137l-4 -4q-101 94 -198 94q-39 0 -78 -8l-135 -72v-12q-30 -6 -90 -66q-61 -61 -80 -92h-13l-73 -116v4q0 6 53 118q105 151 143 195q78 100 172 168v10q68 10 113 10q249 0 338 -219q4 -58 4 -94zM926 870 q-28 -60 -205 -63q-45 10 -82 18q29 23 72 72q6 2 16 2q26 0 92 -16q61 -15 92 -15q9 0 15 2zM823 1257q0 -56 -14 -133q-24 -122 -25 -131q-133 -3 -176 -10q-3 20 -51 59q-120 0 -178 -73q-39 -50 -74 -191l-16 -155q0 -115 104 -164q7 -1 90 -17l142 349q14 2 43 2 q78 0 145 -25q-61 -264 -166 -440q-72 -75 -145 -99q-55 -19 -176 -22q-77 20 -164 94q2 -3 18 -35q-106 75 -153 178q-2 12 -6 32.5t-10.5 54.5t-12.5 63q18 364 172 606q125 134 188 184q123 99 228 99q89 0 166 -74q2 -7 57 -49q14 -43 14 -103zM944 846q-5 -94 -16 -197 q-70 -186 -119 -287q-172 -172 -348 -184v12q150 40 229 172q38 64 113 281q16 83 39 154q51 15 102 49zM563 999q-120 -21 -155 -309l32 -92q65 -38 70 -51q-16 -28 -35 -70l-53 -4q-58 22 -72 33q-28 21 -39 63q0 194 29 289q50 156 201 156h14q3 -11 8 -15zM455 184v-6 h-17v6h17z" />
<glyph unicode="d" horiz-adv-x="1073" d="M614 895q-40 15 -75 27q-159 272 -234 534q41 0 129 -55q39 -24 127 -80q1 -11 14.5 -96t24.5 -160q0 -15 14 -170zM801 778l313 -114q-5 -20 -84 -125q-77 -100 -92 -103q-49 43 -119 127q-95 41 -168 187q34 76 35 79q28 -4 115 -51zM897 440q-2 -1 -5.5 -2t-4.5 -2 q-54 3 -156 27q-86 104 -98 121q-58 79 -64 135q6 -1 28 -3.5t38 -4.5q83 -95 262 -271zM666 856q-21 -70 -52 -92v-10l-69 -4q-10 -24 -13 -48q23 -48 23 -94q0 -69 -53 -178h-10q-8 -8 -17 -20q-115 -68 -213 -68q-96 0 -225 72q-78 122 -78 186q0 57 47 166l14 4 q15 69 160 90v2h33v2q19 -8 39 -8v27q-5 0 -33 -4v26h-12q-68 281 -107 529q131 38 170 41q24 -87 70 -195q77 -168 178 -397q66 -6 148 -27zM428 635q0 128 -123 143q-78 -25 -98 -33q-69 -27 -78 -59h-12q-19 -49 -19 -86q0 -94 86 -135v-12q68 -14 90 -17q7 2 15 3.5 t15.5 2.5t10.5 2q113 55 113 191zM410 645l-97 -2q-78 -78 -84 -168h-10q-92 53 -92 148q0 80 90 92q0 8 2 10l96 20q35 0 76 -47q8 -31 19 -53zM401 602q-18 -70 -47 -99.5t-90 -33.5v14q0 45 21 86q24 49 67 49q20 0 49 -16zM741 391q-35 -203 -249 -252l-109 -4 q-142 39 -289 119v12q-33 33 -45 33q-21 36 -65 147q95 -129 272 -129q67 0 143 21q19 9 44.5 21t33.5 16q0 8 2 10q77 50 101 236q35 -44 98 -134q47 -26 63 -96z" />
<glyph unicode="e" horiz-adv-x="1116" d="M1157 969q0 -123 -88 -217q-14 -7 -74.5 -38.5t-105.5 -54.5q4 -20 4 -26q17 2 70 33q47 27 67 30q-137 -92 -170 -116q-18 25 -135 51q-118 29 -145 76h-21q-14 -23 -74 -64q-61 67 -67 129q13 6 16 16q97 -43 264 -88q123 -69 158 -69q12 0 16 4q64 152 84 205 q45 122 45 211q0 35 -10 77q-55 64 -104 107q-148 71 -266 113q79 20 186 20q94 0 182 -14l33 -17q135 -237 135 -368zM981 1090q0 -106 -39 -213q-12 -36 -88 -205h-10q-16 0 -53 16q-49 22 -52 25q-25 7 -75.5 22.5t-75.5 22.5q-80 25 -144 63l-30 -6l-11 10 q-22 -9 -22 -55q-74 -92 -74 -229q0 -96 47 -152q3 -13 6 -45q11 0 17 -2l6 27q28 -4 35 -4q30 0 49 22q6 6 39 59q38 0 94 -36q60 -35 74 -68q-39 -83 -94 -115q-40 -25 -140 -47l-118 -4q-145 60 -220 207q-69 129 -69 299q0 106 30 195q70 64 93 159h-15q-2 -3 -15 -24.5 t-22 -38.5q3 23 62 125q28 31 31 43h10q120 184 346 184q65 0 133 -18q81 -37 170 -84q91 -48 125 -133zM700 1044q0 56 -14 78q-34 37 -78 37q-62 0 -123 -76q-55 -67 -67 -135q66 -34 194 -43l15 -14q24 6 30 6q9 0 21 -4q0 1 5 5t9 7q0 15 4 69t4 70zM680 1034 q0 -22 -10 -100q-3 -1 -10 -2t-11 -2q2 4 2 8q0 8 -2 12l-10 2q-15 43 -61 70q-33 13 -91 39q44 65 117 65q35 0 60 -14q16 -37 16 -78zM616 930h-79l-68 18v17q-3 -1 -9.5 -2t-10.5 -2q3 31 24 69l10 -10q112 0 133 -90zM459 621q0 -17 -66 -121q-10 -22 -33 -90 q-30 76 -30 129q0 27 10 92q48 112 53 117q66 -123 66 -127zM877 379q-44 -204 -177 -287v-12q-87 -43 -215 -55q-117 12 -231 36q-25 13 -123 64q0 8 -2 12q-170 141 -170 377q0 145 64 297l-17 -172q77 -373 254 -467q69 -16 127 -16q154 0 258 88q18 36 45 80h10v12 q1 1 3 1.5t5 1t5 1.5q1 3 2 9.5t2 8.5q61 11 123 19q10 2 37 2z" />
<glyph unicode="f" horiz-adv-x="747" d="M702 1382q0 -28 -8 -47q-11 6 -22 12.5t-17 10t-8 4.5q-32 19 -35 33q28 25 76 51q14 -25 14 -64zM672 1470l-25 -4q-22 -43 -63 -51q-47 129 -172 129q-29 0 -86 -8q-75 -8 -93 -10q102 70 107 73q62 39 121 39q91 -21 207 -149q1 -2 2 -9t2 -10zM690 1311 q-3 -25 -18 -66q-11 0 -17 -2q-64 37 -163 78q0 3 -3 6q65 29 103 43q55 -42 98 -59zM651 956v-6q-35 9 -65 11q-25 31 -31 145q30 24 63 47q33 -179 33 -197zM575 1153q-5 -9 -45 -37q-6 -2 -10 -2q-10 0 -37 6q-2 1 -16 15q59 15 108 18zM463 1335q-5 0 -21.5 4t-21.5 4 h-6q-11 -11 -29 -20q-31 -60 -31 -104v-19q44 -80 76 -80h10v-6q-17 -2 -45 -14q-55 0 -73 178q12 57 20 70q18 34 57 34q11 0 39 -4q10 -20 15 -35h6zM578 403v-6q-8 4 -13 4h-2l-6 -18q-92 -10 -111 -10q-44 0 -84 18q-66 78 -81 232q-20 70 -58 180l-2 112q-1 1 -3 2.5 t-3 2.5q-61 -28 -145 -48q-27 21 -33 127q96 35 127 35q8 0 12 -2q2 4 2 19v12q-10 50 -39 242q-10 38 -10 65q0 134 164 146q2 0 6 4q1 -1 3 -2t3 -2q1 1 2 3t2 3q47 2 86 2q115 0 164 -88q4 -28 4 -29q0 -19 -14 -27q-44 -19 -47 -20q-23 0 -45 31q-28 22 -60 22 q-36 0 -65 -29q-21 -50 -21 -104q0 -86 60 -215q7 0 32 12.5t29 12.5q12 0 21 -9q16 13 32 13q17 0 47 -15q20 -124 21 -116v-2q-38 -11 -72 -17q-40 -3 -49 -6q0 -29 55 -166q19 -109 56 -276q27 -85 35 -93zM713 342q0 -8 -2 -14q-46 -46 -144 -86q-115 -47 -153 -74l-8 4 q-40 93 -52 199q42 -25 101 -25q21 0 135 19q38 -14 86 -35q1 -1 2 -3t2 -3l18 -5q2 6 2 13q0 2 -4 14q-46 18 -96 37q-1 3 -2 10.5t-2.5 15.5t-3.5 15q-45 80 -60 172l-32 182q-15 46 -39 135q67 15 123 21q1 1 2 3t2 3q14 -2 69 -16q2 -6 2 -15q-8 -3 -19.5 -7.5t-29 -12 t-30.5 -12.5q-8 4 -13 4l-22 -11q3 -25 20 -39q52 -114 76 -213q14 -56 16 -65l39 -156q10 -41 17 -55zM211 838v-37h-23v-25q-15 -28 -71 -78q-17 50 -37 146q14 3 110 47q21 -15 21 -53z" />
<glyph unicode="g" horiz-adv-x="770" d="M623 1411l135 -31q-15 -27 -60 -69q-50 21 -67 28q-3 10 -17 17l-6 43q4 3 9 7t6 5zM594 1343q0 -26 -19 -69l-34 -76q-8 59 -15 98q5 6 27 32t37 46q4 -20 4 -31zM510 1266q-2 2 -2 6q2 0 2 -6zM776 1372h6q-27 -381 -41 -684q-21 -104 -28 -115q-8 -8 -33 -57 q-129 -160 -223 -207q-1 1 -2 3t-2 3q11 4 32 68q49 138 97 387q56 276 90 391q35 101 43 125zM629 1313l49 -25q3 -46 -29 -143q-39 -117 -139 -613q-17 -56 -47 -137q-31 -80 -70 -127q-39 -20 -53 -53q-76 -33 -137 -33q-101 0 -180 113l-27 61q-1 5 -2 20.5t-3 33.5 t-5 36q6 38 24 111q24 4 41 4q15 0 69 -4t70 -4h17q0 -4 -2 -8h6q-18 -49 -18 -90t18 -68q50 -29 88 -29q108 0 129 142v49q0 101 27 156v24q-10 2 -33 2q-18 0 -77 -5t-77 -5q-40 0 -78 10q-58 28 -65 31q-68 59 -92 168q8 67 16 102q87 157 195 217q36 8 63 8q25 0 49 -8 q12 -9 27 -12v14q-21 21 -119 27q-79 -42 -155 -127h-7v-10h-6q-17 -30 -49 -82q-2 23 -2 57q0 195 90 273q41 14 80 14q62 0 178 -72l4 -12q9 0 39 -23v-8q46 -29 60 -51q11 -22 22 -76q-21 11 -88 49q-53 26 -94 35q1 -1 1.5 -3t1 -5.5t1.5 -5.5q12 -6 31 -25 q47 -21 69 -30q0 -5 2 -9q57 -17 78 -45h21q10 17 10 39v2l53 140q2 2 6 2l8 -13h9q2 10 2 21zM453 983q0 74 -54 96q0 11 -2 17q-44 18 -86 24q-67 -28 -110 -78q3 -98 30 -151q59 -53 95 -53q26 0 65 20q12 14 43 45q19 40 19 80zM430 975q0 -61 -37 -76q-57 20 -69 111 q7 38 14 55q15 9 20 22q3 -1 7 -1.5t6.5 -1t3.5 -1.5v-6h-6q2 -4 2 -10q4 -1 39 -14q20 -26 20 -78zM369 874q-20 -10 -39 -10q-74 0 -101 88l-8 84q52 52 111 58q-5 -7 -23 -37v-25q0 -86 60 -158zM375 432q-21 -43 -70 -43q-20 0 -67 8q-18 15 -27 74q34 123 88 145 q-8 -52 -8 -79q0 -96 84 -105zM276 633q-27 -55 -126 -55q-32 0 -144 14v10q4 8 10 19.5t15 29.5t16 31q80 -26 229 -49z" />
<glyph unicode="h" horiz-adv-x="983" d="M379 1468q-97 -22 -205 -38q-3 3 -8 7t-13 10.5t-14 12.5q-19 5 -47 60l209 61h21q8 0 40 -4q8 -18 17 -109zM895 569q-6 -8 -59 -161h-11l-18 79q-10 92 -41 230q-47 194 -107 194q-11 0 -20 -6q-8 -10 -47 -49q-33 -33 -47 -33v-8q-29 -19 -66 -74h-6q-6 -19 -22 -39 q-39 -79 -54 -114q-18 264 -18 614v39q0 2 0.5 13t1.5 33.5t2 47.5l2 43v27h10v12h6q-5 32 -8 142q33 -137 41 -299q3 -70 6 -302q19 -93 19 -112v-21q3 -6 18 -12q4 4 8 6q2 21 39 109q57 63 115 63q31 0 90 -18q3 -4 76 -107q90 -185 90 -297zM430 690h4v2h-4v-2zM807 367 q-26 -14 -123 -39q-27 145 -33 243h-6q0 9 -6 9q-1 0 -59 -23q-16 -31 -48 -41q-6 -14 -15.5 -34t-12.5 -27q-10 -52 -35 -131h-23q-15 0 -94 6l-186 -15q0 1 4 21q-5 0 -25 -4v53q-2 2 -8 2l2 -22h-8v133q0 104 10 274q40 618 49 629q81 23 179 41q0 -241 10 -938h6 q2 0 18 4q5 25 5 31v14q50 179 141 240v6q81 75 108 75q18 0 33 -12q40 -69 101 -403q4 -17 16 -92zM918 557q-12 -162 -54 -301v41q0 27 -4 59q-8 2 -16 2q-6 0 -6 -4l-4 13q2 1 7.5 2t8.5 2q2 8 2 16q12 33 66 170zM836 256q-108 -18 -207 -31l49 74q125 35 143 35h13 q2 -18 2 -78zM168 1389q0 -14 -2 -43l-4 -86l-4 -109q-6 -147 -33 -385l-4 -467q-14 -12 -41 -31q-17 478 -17 652v32q0 65 9 191q8 115 8 192v51q0 12 -2 50t-2 49v10q43 -59 90 -86q2 -6 2 -20zM657 365q0 -44 -16 -60q-13 -31 -31 -59q-3 0 -6 80q-21 80 -86 92 q0 8 -2 12q30 102 115 117q26 -121 26 -182zM455 297q-9 -12 -45 -66l-162 2q-52 -8 -92 -8q-39 0 -66 8q0 3 -2 5q12 12 39 36q46 11 197 31q93 -3 131 -8z" />
<glyph unicode="i" horiz-adv-x="481" d="M346 1098q0 -34 -6 -58q-25 49 -98 103h-33q-54 0 -125 -127q-22 105 -29 151q102 58 107 60q64 30 117 33q67 -37 67 -162zM322 1008q-17 -43 -63 -77t-93 -38q-51 12 -51 45q2 6 8 8q4 12 4 15q0 6 -2 10q-16 0 -25 -6q0 4 -4 24q23 63 51 83t97 26q-3 18 -29 18 q-7 0 -29.5 -4t-27.5 -4q20 20 47 20q40 0 75.5 -38t41.5 -82zM332 983h8q-10 -32 -37 -106q-3 0 -6 -3v-6q-17 0 -29 -4q0 -4 -2 -8q-122 -52 -186 -68l-4 -8q-13 3 -13 107q6 28 7 39q12 4 14 4h4q35 -60 86 -60q16 0 41 7l64 43v6q36 12 53 57zM461 389q-3 -27 -39 -72 q-33 -42 -60 -51q-24 219 -49 578q2 5 13 20q-4 8 -4 17q0 18 49 116l59 -55q0 -8 -2 -38t-2 -38q0 -34 2 -57q15 -245 33 -420zM344 279v-21q-41 -14 -98 -14q-32 0 -82 6q-4 8 -8 10q-9 0 -15 -2v74q-1 1 -3 2t-3 2q-14 195 -14 260q0 86 8 143h-14q-15 -34 -9 -34l-2 40 l7 21q58 26 168 63v-20q10 0 18 -2q3 -134 18 -272q2 -20 19 -127q10 -78 10 -129z" />
<glyph unicode="j" horiz-adv-x="841" d="M895 1411q-1 -6 -3.5 -32t-4.5 -46q-149 52 -211 88q-28 6 -113 41l-22 2q-25 97 -35 117h-8l-11 -10q21 -59 43 -148q-85 -141 -114 -141l-35 61q-15 28 -21 66q4 2 11 2q0 20 -33 23l-4 -7q-5 0 -10 5q2 2 20.5 18t63 55t92.5 82q118 -25 260 -90q38 -17 127 -84 q6 0 8 -2zM416 1239l121 -39q-8 -8 -21 -37h-8l-6 -18h-6q-43 -57 -88 -72q-29 23 -64 184l-10 150q9 -25 21 -54.5t14 -33.5q22 -52 47 -80zM860 1317l27 -19q0 -32 -27 -81q-39 -70 -43 -78q-18 0 -82 37q-18 -9 -18 -33q0 -13 2 -31q-60 -215 -121 -440 q-47 -121 -68 -166q-52 -101 -110 -141q0 -21 -137 -115q-41 -12 -80 -12q-74 0 -129 43v4q3 16 -37 37q-31 70 -37 151q16 172 47 279q55 0 172 -13l4 -8q-37 -130 -37 -160q0 -39 21 -86q6 -3 49 -26q85 9 170 168q62 314 115 497q34 78 34 93v2q-14 14 -65 26 q-59 15 -72 23q25 37 117 155q71 -3 305 -106zM199 719h2v6h-2v-6zM530 1159q-8 -55 -34 -155q-30 -131 -35 -136l-35 -163q-15 -75 -68 -152q-8 -3 -14 -18q-21 -16 -35 -35q-31 -17 -47 -17q-51 0 -63 103q21 78 53 147q38 14 43 15q-10 -78 -10 -142q0 -46 2 -71h28 q51 165 113 516q35 25 102 108zM256 494q0 7 -12 10q2 -7 12 -10zM743 1122q-98 -553 -268 -913q-73 -80 -196 -119q-176 18 -261 211h9v-6q4 0 26 -25q73 -58 168 -61q175 38 314 266q91 227 127 395q79 248 81 252zM244 924q-3 -44 -19 -156q-4 -2 -12 -2q-26 0 -119 8 q-29 40 -57 107q30 13 207 43zM61 774q-18 6 -22 6q-6 0 -10 -2q-39 -207 -39 -303q0 -63 12 -119h-6q-4 6 -29 31q-17 47 -20 119q1 6 1.5 15.5t1 24.5t1.5 27q33 214 47 297l8 19q51 -92 55 -115z" />
<glyph unicode="k" horiz-adv-x="968" d="M977 1044q-15 -20 -123 -153q-41 -72 -174 -266q-8 3 -39 51q136 205 307 491q29 -119 29 -123zM383 1360v-8q-121 -52 -188 -88q-8 8 -25 8h-2q-7 5 -24 16.5t-27 18.5v6l-43 24v4h4v13q40 11 137 51q79 33 137 33q31 -48 31 -78zM377 1321q0 -6 -2 -10 q-53 -11 -160 -66h-8q81 56 170 76zM440 811v-18q-3 19 -12.5 81t-15.5 107l-9 170q8 -26 11 -74q3 -75 4 -76q22 -132 22 -190zM43 1341h12q-1 -1 -3.5 -7t-4.5 -11zM938 1206q0 -21 -14 -53q-147 -244 -285 -459q-31 -16 -31 -35q0 -10 2 -14q18 -3 82 -61v-9 q11 -7 26 -16.5t19 -11.5v-8q15 0 51 -39q39 -39 39 -54q-17 0 -55 -38q-46 -46 -55 -52q-7 -5 -49 -59h-6q-43 -70 -66 -70h-4q-56 121 -121 236q-2 10 -8 29q-3 1 -6.5 2t-5 1.5t-2.5 0.5q-2 -2 -7 -2q-10 -55 -10 -121l6 -166q-1 2 -3.5 8t-4.5 10q-18 -3 -18 -12 q3 -3 22 -39h6q1 -9 2 -34.5t2 -37.5q-83 20 -260 29l-4 35l-20 -4q0 -1 -4 -21q-3 9 -6 133q13 21 22 211q1 58 23 592q3 77 12 144q64 52 172 73q0 -2 10 -196q5 -94 35 -355l12 -6q15 18 33 70q70 127 131 223q79 125 154 205h12q97 0 170 -8q2 -10 2 -21zM203 1083 q-1 -1 -4 -3t-4 -3q4 -20 4 -26v14q0 10 4 18zM168 881v-11h-4v11h4zM866 324q-147 -123 -225 -181q-39 -27 -72 -37q0 9 -2 13l19 67l8 -4q15 6 29 39l104 117q65 65 121 98l8 -4q7 -42 10 -108zM563 199q0 -25 -2 -39l-14 -56q-16 14 -41 29v6q-60 35 -60 137q0 -8 2 0 l1 5v34v50l12 73q62 -93 71 -116q31 -67 31 -123zM166 862q0 -498 -19 -526l-6 299q21 219 25 227zM172 1190q0 -15 -4 -129q-34 -202 -37 -469l-6 -469q2 -2 2 -4q0 -31 -102 -117q-21 238 -33 512q55 507 61 805q16 -6 115 -80v-25q-13 -3 -16 -26q12 0 20 2zM420 84 q-2 -20 -23.5 -48t-40.5 -32q-46 6 -104 6q-16 0 -74 -2t-74 -2q-29 0 -43 2q41 28 93 96q199 0 266 -20z" />
<glyph unicode="l" horiz-adv-x="651" d="M559 1559q-1 -3 -2.5 -14t-5.5 -30.5t-8 -39.5q-138 -21 -150 -21q-73 0 -123 47q47 12 152 43q27 9 137 15zM592 1442q0 -3 -3 -44t-11.5 -147.5t-16.5 -216.5q-7 -92 -14 -309q-7 -306 -27 -662q-38 16 -65 25q-6 43 -11 137q10 175 11 226l10 358q6 195 33 354 q21 108 51 246q16 37 16 57q0 11 -2 15q20 52 25 69q4 -70 4 -108zM537 1452q-18 -118 -48 -238q-59 -487 -59 -1009v-76q-3 -9 -16 -12v-13l-232 -2q-1 15 -1.5 34.5t-1 32.5t-1.5 21q5 23 31 318l33 371q14 151 20 196q14 96 33 170l49 180q12 2 46.5 7t71.5 10.5t75 9.5z M289 1380h10q0 -31 -14 -88h-6q-40 -178 -48 -276q-17 -207 -49 -555q-3 -28 -13.5 -138.5t-18.5 -191.5h-13q-4 -46 -15.5 -54.5t-62.5 -10.5v32q44 248 88 564q14 381 41 563q17 94 43 256l7 12q2 -6 2 -12q20 -20 53 -41q2 -2 2 -8q0 -5 -5 -20t-5 -19q0 -5 4 -13z M524 29v-27q-18 -1 -39.5 -2t-33 -1.5t-17.5 -0.5q-26 0 -53 2q-99 20 -256 23q-15 5 -35 10q0 6 -2 8q46 6 84 18q36 25 117 25q20 0 143 -8q73 -28 92 -47z" />
<glyph unicode="m" horiz-adv-x="1165" d="M1059 1171q-11 25 -43 50q0 24 -19 24q-4 0 -8 -2h-6q-5 -5 -10 -20q-60 -42 -115 -84q-57 -52 -76 -121q-4 2 -20 24h6l6 31q4 -4 6 -10h8q2 6 5 12t4.5 8.5t1.5 3.5q0 7 -13 17q0 33 74 98q59 50 107 76q68 0 92 -107zM752 1102v-39q-38 47 -111 135q-65 74 -147 74 q-113 -140 -185 -273q0 5 -2 7q16 100 23 200q81 72 172 117q26 -6 71 -37q42 -29 52 -55q27 -18 65 -62q49 -54 62 -67zM989 412q0 -15 -41 -74h-6q-11 123 -27 235q-16 58 -55 154q20 122 51 188q38 -27 68 -92q8 -101 8 -237q0 -54 -4 -156q6 -9 6 -18zM1155 530l-4 -67 q-6 -37 -25 -60q-95 -31 -137 -47v6q4 8 17.5 33t21.5 41q8 6 80 70q18 4 47 24zM311 1196v-8q0 -104 -22 -230q-22 74 -70 275q-10 -3 -29 -6q0 9 -4 71l7 7q43 -35 118 -109zM174 1290l-6 -73q-56 -23 -162 -46q-32 7 -41 7h-8q-23 8 -58 20t-42 14q38 9 139 48 q116 46 135 51q7 0 37 10q6 -3 6 -31zM1126 604v-55q-31 -21 -86 -72q-23 -3 -32 -18q-3 126 -15 375q-1 3 -6 15t-8 18.5t-8 17.5t-9.5 17.5t-9.5 14.5t-10.5 12t-11.5 5q-1 2 -3.5 4.5t-6.5 7t-7 8.5q-11 0 -20 -12q-24 -84 -47 -199q-12 -3 -12 -16q0 -11 8 -22 q0 -82 -2 -105q-15 -235 -23 -258q-86 -51 -119 -51h-12q-6 -5 -10 -19q-63 163 -70 183q-41 173 -43 178q-37 120 -82 153q-10 1 -19.5 2t-14.5 2t-7 1q-22 0 -43 -15v-2l-22 -172q-1 0 -3.5 3t-6.5 6.5t-7 4.5q-1 -1 -2.5 -2l-4.5 -3t-5 -3v-16q3 -2 10 -8t11 -9 q2 -27 2 -51q0 -8 -1.5 -29t-4.5 -65t-5 -82q-9 -141 -14 -151l-8 12h-8q-9 -27 -78 -33l-94 -8l-4 25q-2 2 -13 2h-4q-2 -3 -14 -27l-19 2q-3 40 -6 43l-6 -49h-4q-3 107 -33 371q-4 32 -73 419q0 19 -11 76l27 31q0 4 -2 6q-1 -1 -10 -4q1 9 2 34.5t2 37.5h4v10l45 6 q130 40 135 45q0 -8 2 -16q14 0 29 24q39 -151 69 -252q0 -18 7 -32q8 2 18 2q62 164 199 313q15 6 32 6q40 0 82 -45l68 -72l55 -71q33 -44 39 -80q6 0 10 -2l13 6q9 73 69 133q26 26 123 90q43 -9 64 -72q22 -95 61 -313q14 -106 14 -211zM649 248q0 -17 -2 -23 q-19 -36 -26 -47q-18 -23 -43 -33q-9 136 -93 328l-43 62q-35 44 -53 49v18l27 146q11 14 35 14h2l16 -2q49 -22 76 -127q4 -27 37 -154q67 -162 67 -231zM823 317v-20q0 -54 -8 -78q-100 -9 -176 -57l-4 4q17 27 43 72q37 22 145 79zM-133 754v-4h-4v4h4zM72 150 q-24 -20 -35 -31q-27 -21 -43 -21h-2q-9 14 -12 15l-78 536q-44 300 -56 539q2 2 4 2q18 0 111 -43q1 -10 2 -22v1q0 -4 -4 -16q3 -137 43 -365q46 -256 57 -372q5 -37 13 -223zM102 135l213 31q-15 -85 -18 -90q-37 2 -78 2q-8 0 -25 -0.5t-48.5 -1.5t-59.5 -2l-45 -8 q-13 -4 -35 -7q-2 0 -4 2q7 6 31 26.5t41 35.5q2 -3 8 -21h10q1 4 4.5 15t5.5 18z" />
<glyph unicode="n" horiz-adv-x="950" d="M377 1098q0 -25 -33 -64q-22 -16 -25 -24q-97 -54 -190 -54h-14v7q40 64 90 133q39 20 170 20q2 -6 2 -18zM926 571q0 -211 -17 -315q-52 -52 -182 -195v2q0 37 27 207q6 26 26 154q29 221 29 270q0 184 -123 273q-28 4 -45 4q-71 0 -199 -45q-24 -24 -114 -142l-2 207 q3 4 22 28t35 42q12 -67 12 -105v-14q2 -3 11 -12h10q38 34 112 84l54 18q40 15 43 29q4 -2 16 -2q9 0 41 7t41 7h2l4 -8q111 -15 172 -211q25 -125 25 -283zM791 678q0 -42 -11 -146q-52 -443 -84 -518q-4 0 -69 27l-74 12l-2 33l45 367v49q0 166 -102 178q-5 10 -11 20 q-11 0 -20 -18q-31 2 -64 2h-6q-37 -21 -65 -31v103q52 71 75 102q41 47 103 68q90 22 123 22q77 0 145 -129q17 -77 17 -141zM473 246v-8q-62 -54 -119 -111l-24 504q14 7 69 24q14 2 68 2q-4 -78 -4 -127q0 -67 2 -120t2 -121l4 -25q2 -8 2 -18zM313 612l23 -489 q-20 -45 -90 -45q-18 0 -70 8l-57 8q3 26 10 101h-4l-8 -50q-11 26 -11 263v2q0 12 6.5 52.5t6.5 53.5h-6v41q0 69 8 334l8 -4v6q0 9 -8 25h-6v10q62 3 174 43q2 -6 20 -10l4 -205h-6q-6 -10 -28 -43h-7l2 -23q4 2 15 2q7 14 22 35q2 -39 2 -86q-18 -6 -18 -29v-6q12 0 18 6 z" />
<glyph unicode="o" horiz-adv-x="862" d="M926 969q-6 -88 -90 -217q1 3 28 77q8 41 8 82q0 47 -12 93q-113 210 -317 262l-82 -2q-100 -12 -185 -78q-58 -48 -143 -146q-6 0 -10 -2v9q171 208 340 278q90 23 125 23q10 0 45 -5q106 -69 129 -83q72 -50 110 -107q45 -103 54 -184zM858 936q0 -112 -88 -252 q-9 -7 -35.5 -29.5t-42.5 -36.5q2 -2 6 -10h11v-6q-8 -6 -19 -15.5t-14 -11.5q0 7 -2 11h-8q-115 -158 -369 -158h-33q-153 28 -223 170q-18 79 -21 152q13 74 58 184h14q3 9 6 33q176 256 330 268q-4 -4 -6 -8q48 10 86 10q52 0 102 -16q92 -53 158 -119q90 -90 90 -166z M690 905q0 62 -26 115q-31 67 -80 82h-70q-2 2 -6 10q-6 2 -21 2q-75 0 -174 -102q-81 -84 -112 -160q-13 -54 -27 -109q6 -115 102 -184q30 -12 58 -12q34 0 110 28q29 20 70 33q4 15 6 17q48 20 101 110q9 15 67 137q2 10 2 33zM672 903q0 -11 -4 -35q-75 -162 -160 -223 q-46 9 -66 19q-21 24 -26 26q-31 67 -37 170q29 178 90 217q18 2 45 2q53 0 77 -15.5t56 -66.5q25 -67 25 -94zM463 618v-8q-101 -37 -129 -37q-23 0 -41 9q-56 33 -78 75q-17 39 -20 107q2 7 14 65q6 0 10 2q0 32 47 103q23 10 33 39q41 41 135 102q-44 -105 -53 -123 l-19 -80q3 -98 15 -145q20 -74 86 -109zM426 408h8q-122 -53 -198 -62h-41q-166 0 -189 57h-8q-27 44 -55 82q-3 18 -6 80q20 117 71 221q-2 -25 -2 -65q0 -117 51 -197l41 -49q26 -25 54 -35v-8q40 -10 96 -31h143l15 5q10 2 20 2z" />
<glyph unicode="p" horiz-adv-x="958" d="M463 1313q-59 -65 -94 -137q-17 73 -17 131q0 96 35 196q25 -97 57 -129q4 -18 19 -61zM371 1499q-3 -7 -7.5 -21.5t-12.5 -43t-15 -50.5q-52 -52 -195 -96q9 74 27 180q140 41 158 41q25 0 45 -10zM903 1049l2 -136q-8 -4 -12 -8q0 -13 -13 -42t-14 -34h-8v-8h-8 q-21 -21 -43 -49q-15 -6 -72 -35q-71 -6 -106 -6q-114 0 -174 51q-10 17 -29 23v8h-23q4 -37 23 -135h-8q-2 -4 -2 -21q10 -10 22 -14q25 -117 80 -307q-64 -4 -262 -29q-3 12 -14 76q-3 -6 -6 -21q-70 513 -105 818q0 28 2 51l8 -6q6 17 33 32q0 15 2 19q153 66 154 67 l30 -229q1 1 3.5 1.5t6 1t5.5 1.5q38 151 188 246q19 8 45 8q54 0 176 -104q3 -10 13 -13q83 -127 106 -206zM778 993q0 62 -57 131t-117 84q-53 0 -108 -8q-34 -21 -56 -100q-18 -64 -18 -117q0 -38 8 -57h19q22 -35 139 -56q54 5 135 35v8q55 24 55 80zM745 1049 q0 -5 -2 -7q-9 16 -84 58q-48 -9 -96 -72q-35 -56 -69 -108l-11 -2q-41 30 -41 100q0 106 66 160q57 8 100 8q38 -11 88 -58q49 -46 49 -79zM760 1001q-15 -104 -191 -110q-43 9 -51 10q3 22 70 129h8v10q40 27 55 27q12 0 58 -14q3 -1 51 -52zM889 825q0 -20 -80 -188 l-31 -25v-8q-11 -4 -65 -55q-14 -3 -43 -6q-104 27 -168 61q-31 31 -51 47q-21 81 -23 121q55 -33 64 -39q109 -20 165 -20q71 0 121 20q73 51 109 96q2 -2 2 -4zM233 315l-10 2q-44 -77 -71 -86q-24 286 -56 756q-45 205 -45 408q2 12 10 53q16 5 91 20q-4 -34 -35 -256 q17 -182 116 -897zM242 354v-8h-4v8h4zM483 315h25q-9 -55 -43 -141q-53 0 -96 -2q-29 6 -201 21q7 12 27.5 44t33.5 52q10 -2 29 -2q44 0 113 14t112 14z" />
<glyph unicode="q" horiz-adv-x="923" d="M895 678v-43q-47 -191 -258 -240q-59 77 -59 84v4q230 130 284 355q33 -23 33 -160zM836 834q0 -19 -2 -29q-70 -230 -299 -309q-3 -15 -3 -23q53 -21 146 -162q-1 -3 -2 -7.5t-2 -6.5l12 -10q-18 -18 -70 -80q-10 -29 -18 -43q-38 41 -117 139q-52 67 -80 158l-18 2 q-55 -14 -84 -14q-41 0 -100 30q-49 60 -99 152q-6 44 -6 82q0 145 111 225q4 0 12 -4q8 8 45 24l4 25q27 20 37 29q0 12 115 65q77 23 135 23q19 0 55 -4q97 -31 158 -95q70 -73 70 -167zM616 852q0 53 -49 90q-91 39 -110 39q-20 0 -23 -14q-111 -52 -147 -109h-8 q-33 -62 -33 -106q0 -35 14 -60q18 -18 80 -84q15 6 33 6q5 0 26.5 -2t26.5 -2q40 16 82 41q108 129 108 201zM602 858q-24 8 -55 8q-132 0 -215 -219q-32 24 -53 45q-13 32 -13 64q0 76 66 133q67 55 147 55h17q-33 -9 -50 -22l66 6q37 0 47 -23q5 5 14 8q8 -8 29 -55z M778 158q-47 -63 -51 -68q-40 -46 -59 -49q-3 13 -13 52t-16 65l-12 6q2 5 18 51h8q10 30 58 53q36 -74 67 -110zM461 307q-32 -17 -60 -26v10l-6 115q43 -73 66 -99zM647 41q-1 -1 -3 -2t-3 -2q-24 24 -164 160q-51 48 -51 63q26 9 37 23q0 10 4 14q68 -81 78 -98 q35 -11 51 -66q9 -6 14 -6q4 0 8 2v8h9q14 -71 20 -96zM379 381q0 -13 -3 -53t-3 -52q-13 -5 -117 -22l-147 27l-11 309q31 -54 80 -121q44 -27 105 -45l92 10q4 -32 4 -53z" />
<glyph unicode="r" horiz-adv-x="935" d="M870 836q0 -106 -65 -218q-24 -24 -43 -30q-9 -20 -70 -41q-54 -16 -84 -19q-19 21 -57 76q95 29 162 121h8q102 138 102 233q0 37 -8 68q55 -91 55 -190zM528 1194q-194 -9 -366 -78q-40 37 -84 92h-8q1 2 1.5 5.5t1 6t1.5 3.5q45 28 129 28q10 0 213 -22 q94 -30 112 -35zM852 203q0 -5 -100 -86q-99 -79 -121 -101l-2 -4q0 2 2 4q50 74 71 115h9q0 6 2 8l39 2q26 45 30 49q0 5 -4 13q-14 0 -20 -6q-9 -33 -31 -33q-9 0 -55 18q-194 146 -314 291h-12q-6 -9 -6 -18q0 -10 8 -31q1 -7 3.5 -44.5t4.5 -64.5q21 -82 21 -112v-10 q31 -15 31 -54v-6q-15 1 -36 3t-52.5 5.5t-55.5 5.5q-4 4 -39 420q-4 70 -4 148v145q0 151 -12 246q-6 -2 -14 -2q-4 -8 -7 -17q-6 6 -6 15q117 69 289 69q88 0 168 -22q84 -46 100 -74q11 0 13 -2v-8q55 -21 55 -109q0 -26 -6 -69q-87 -179 -211 -252q-28 -3 -76 -6 q-2 -6 -2 -27q18 -3 41 -29q17 -27 35 -41l-6 -34q6 2 32 2q72 -95 238 -297zM569 823v21q-12 18 -12 51q0 7 2 31.5t2 31.5q0 15 -4 35q-34 49 -115 49q-58 0 -116 -28q-22 -130 -23 -135v-33q0 -178 47 -225q113 41 191 217h12q4 -8 16 -15zM547 926q0 -17 -4 -45 q-15 7 -51 20l-50 -24v-9q-43 -9 -80 -88h-8q-15 -20 -30 -35q-1 16 -3 50t-2 47q0 88 27 153q42 25 86 25q55 0 105 -33q10 -38 10 -61zM530 848q-8 -4 -10 -6q-53 -156 -151 -180q-6 -6 -15 -21q-15 52 -18 74q2 2 8 2q70 153 150 153q19 0 32 -8q1 -2 2 -7t2 -7zM250 147 h-8q-7 7 -60 25l-69 45q-10 16 -31 211q-2 12 -2 90v68v53q0 2 1 6h1v49q-1 10 -4 62.5t-6 99.5q-9 102 -9 164q0 46 7 100q1 1 3 2t3 2q-2 10 -2 25q0 7 4 27h8q38 -38 94 -111q12 4 15 16q19 -69 22 -307v-311q0 -36 33 -316zM688 141q-22 -47 -35 -67q-18 -33 -51 -51 q-70 74 -94 96q-66 59 -107 84q-34 112 -34 205v18q139 -115 321 -285z" />
<glyph unicode="s" horiz-adv-x="878" d="M944 963q0 -9 -4 -21q-76 -62 -123 -104q-6 13 -16 104q-14 51 -103 201q-76 58 -166 61l3 10q83 50 151 50q104 0 180 -107q78 -156 78 -194zM852 371q0 -28 -21 -43q-65 -89 -71 -92q-41 -49 -84 -78q72 129 72 250q0 137 -95 243q-102 74 -188 129q-27 37 -27 88 q0 52 33 140q2 2 8 2q12 26 27 26q39 0 76 -131q0 -13 -3.5 -54t-3.5 -54v-17q28 0 31 19q39 2 86 2q111 -189 156 -381q4 -20 4 -49zM795 829l-99 -6q-35 35 -55 35q-6 0 -14 -4q4 -12 39 -29q0 -4 2 -8l-70 4q0 54 2 97q-22 77 -72 149q-62 0 -86 -84q-7 -28 -20 -135 q2 -23 20 -74q62 -40 152 -104q12 -2 84 -74q55 -107 55 -213q0 -120 -71 -215q-108 -60 -177 -72q-141 30 -211 137q-25 88 -47 299h19q70 0 207 -28q3 -71 8 -98q15 -54 67 -54l66 29v8q9 0 27 35h8q18 67 18 80q0 20 -8 39q-30 30 -55 53l-105 53q-135 29 -188 88 q-15 53 -15 92q0 48 31 136q47 85 94 149q5 0 18 12t15 13q0 -1 -3 -15.5t-5 -25.5q47 86 127 86q64 0 135 -56q14 -27 86 -149q9 -30 21 -150zM633 489q0 -84 -127 -122q-37 27 -37 61q0 12 6 47t6 47q-4 4 -6 8q-51 0 -139 15q-69 11 -137 16q-23 39 -84 129q10 2 32 2 q185 0 414 -104q28 -23 60 -47q12 -27 12 -52zM463 84l-6 -12q-27 0 -82 -6q-110 9 -182 84q-49 49 -103 182q-22 132 -22 194q0 83 28 162q22 -43 92 -160q6 2 17 2q10 -30 10 -32q27 -210 49 -262q50 -112 199 -152z" />
<glyph unicode="t" horiz-adv-x="978" d="M793 1534q0 -22 -35 -125q-7 -44 -29 -291h-24q-4 1 -26 7t-42 10q-8 8 -8 47q0 42 12 141q22 172 57 285q19 0 54 -35q38 -38 41 -39zM1014 1092q-3 -45 -29 -109q-4 -12 -10.5 -27t-16 -37t-16.5 -38q-6 -12 -33 -39q-28 24 -110 78q3 65 26 178h31q23 0 158 -6z M803 889l86 -55q-20 -6 -60 -9l-147 15q-35 0 -47 -9q-16 16 -19 25h-8q-15 22 -33 35q41 8 89 8q36 0 79 -6q36 -9 54 -12q2 4 6 8zM449 1268v-17q0 -19 -9 -65q-38 -16 -108 -25q-79 -10 -109 -20h-47q-22 -2 -43 -15q-59 30 -59 48v2l166 67zM780 1100h25 q-18 -90 -31 -189q-120 13 -192 13h-29q-1 -5 -2 -14l-6 -29v2q0 -7 4 -15q-41 -541 -41 -667v-43l-70 -15l-110 15v16q0 -44 4 15l2 40q6 111 6 164v201q34 253 37 315q-15 0 -65 -4t-66 -4q-56 0 -99 19l21 143q-4 4 -10 6q6 29 12 43q24 -8 37 -8h8v14q121 30 238 33 q0 21 73 362q5 26 17 68q12 41 28 57q71 -3 109 -26q-13 -36 -35 -154l-31 -276q-4 -50 -4 -60v-10l113 -12q0 -7 6 -19q2 0 14 -4q7 23 37 23zM569 1327h4v8h-4v-8zM145 1096q-3 -35 -12 -101q4 -16 4 -24q0 -73 -98 -119q-6 -6 -6 -10q-2 39 -2 80q0 142 30 225 q70 -48 84 -51zM719 61q-1 -1 -3 -2t-3 -2q-127 50 -181 95q-12 77 -12 170q0 89 19 274q21 213 24 268q71 -38 86 -112q4 -25 10 -252q2 -103 17 -324q20 -51 43 -115zM358 881v-78h-24q-52 12 -127 12q-34 0 -170 -8q3 30 43 45v8q39 33 65 33q17 0 66 -12h63q19 0 31 2 h19q22 0 34 -2zM713 31l-310 -31l-69 131l207 -6q63 -32 172 -94z" />
<glyph unicode="u" horiz-adv-x="1122" d="M1083 1161q0 -21 -45 -41q-9 -3 -19 -6.5t-23 -8t-21 -7.5q-1 2 -8 45h8l-2 14q28 42 41 55q29 40 49 43q20 -81 20 -94zM1028 1255q-10 -13 -74 -81q-71 12 -172 12h-86v10q0 15 25 88q1 1 3 1.5t5.5 1t5.5 1.5q51 -2 148 -10q101 -10 145 -23zM1098 1118 q-11 -18 -127 -164q-67 46 -144 93q1 1 2 3t2 3l103 -2q23 0 37 2q13 24 54 44.5t73 20.5zM557 1204h12q-24 -31 -98 -86q-139 -12 -168 -20q16 31 88 71q77 41 113 41q43 -16 45 -16q7 7 8 10zM592 1190q-7 -26 -47 -158q-37 -179 -37 -215q0 -55 18 -96q24 -8 58 -25 q-13 -41 -29 -61q-19 -22 -59 -25q-68 24 -90 43q-36 31 -39 88q33 181 118 355q2 2 17 2q6 24 36.5 56t53.5 36zM954 1083v-8q-24 -4 -45 -4q-13 0 -58 5t-58 5v-8h-9l7 -33l4 -32q-3 -133 -9 -215q-8 -126 -32 -213q-4 -14 -12.5 -39t-22.5 -66.5t-25 -75.5 q-34 -37 -110 -37q6 0 1 2q-2 0 -5 1h-35h-45q-18 2 -172 14q-166 49 -207 133q-20 7 -47 68q6 142 51 266q53 154 141 227q110 15 195 25l-70 -201q-37 -101 -47 -207q15 -47 70 -74q48 -26 100 -26q25 0 43 6v10h8q24 59 35 96h8q30 200 86 451q92 10 129 10q66 0 115 -14 q16 -53 16 -66zM862 985l84 -41q-2 -41 -10.5 -267.5t-15.5 -397.5q-12 -63 -101 -66q-150 16 -459 55q-85 9 -159 86q-47 47 -107 152l-8 4q0 4 2 6q16 -19 102 -94v-8q117 -66 320 -66h31q9 1 18 1t13 0.5t9.5 0.5t4.5 0h76l30 10q33 76 72 201q34 106 49 479 q20 -20 41 -47h8v-8z" />
<glyph unicode="v" horiz-adv-x="1091" d="M1061 1270h4q-6 -28 -135 -80q-176 -21 -195 -21q-34 0 -78 7q-3 3 -18 6q-53 -190 -70 -287q-19 -120 -22 -139l2 20q-21 71 -21 185l1 -1q1 3 1 5v51v53q38 95 56 137q38 84 71 127q14 4 60 21q-72 -114 -109 -168q1 -2 2 -8t2 -9l19 7q13 32 57 104q50 84 57 84 q-1 0 10.5 -4t38 -12t62.5 -19q16 -2 82 -16l57 -25q43 -18 66 -18zM1028 1210h4q-30 -62 -78 -188q-87 -242 -170 -838q-4 -2 -16 -6q-38 16 -61 19q0 197 63 428q46 173 131 415q2 6 8 23t17 48.5t22 62.5l68 32zM524 786q-85 128 -123 289q-5 0 -15 -5t-13 -5h-4 q7 26 15.5 61t10.5 41h8q9 -11 39 -45.5t50 -58.5l-7 -41l21 -2q6 -70 18 -234zM381 1194q-3 -44 -39 -141q-95 -34 -176 -54q-12 9 -74 95q24 12 55 39q143 61 234 61zM922 1147q-121 -398 -164 -518q-74 -325 -74 -414q0 -8 2 -14l-180 -13q-22 40 -80 201h-8 q-64 175 -246 576q12 4 14 4q0 8 2 12q65 25 168 49q0 6 2 8l27 9q86 -208 170 -332q8 0 14 6q0 138 64 379l10 6q0 1 3 15.5t5 25.5h45q41 0 107 4l98 8q6 -9 21 -12zM442 201q-2 0 -10 -4q-10 4 -24 10t-36 15t-38 16q-5 12 -37 84.5t-89.5 206.5t-121.5 284 q-21 75 -59 268l22 -2q132 -169 279 -563q11 -30 48.5 -134t65.5 -181zM647 176q-23 -16 -123 -143q-6 0 -8 -2q-119 152 -119 170v2q39 -11 97 -43l59 12q9 1 22.5 1.5t34 1t37.5 1.5z" />
<glyph unicode="w" horiz-adv-x="1411" d="M1184 1421h10q-5 -10 -86 -174q-42 -120 -80 -196q-19 -24 -59 -99h-8q-6 32 -58 150q10 10 45 59h8q10 23 48 64q11 13 112 180q46 16 68 16zM1423 1247q0 -133 -94 -221q-180 -278 -395 -592q-14 -19 -55 -65q1 24 8 120q1 1 14 5q103 198 203 301q155 320 295 544h8 q16 -46 16 -92zM1386 1354l-30 -62q-70 -99 -135 -225q-39 -80 -115 -238q-67 -76 -203 -276q-5 0 -29 -4q-148 286 -174 344q-9 47 -22 47q-9 0 -12 -27q-42 -117 -119 -393l-162 -16q-82 149 -98 186q-58 116 -78 195q-62 222 -62 286q0 15 3 27q20 12 47 43h8q0 9 55 49 q60 42 76 47v9q3 0 16 11t21 11l57 -289q-6 -18 -6 -24q0 -11 14 -19q18 -92 33 -211q13 0 23 -2q3 42 41 135q77 273 96 328q115 18 176 33q51 -149 137 -361q3 -29 4 -30q7 -20 21 -23q9 43 49 113q47 81 61 110q50 128 133 293q7 7 13 11q67 -24 161 -78zM573 1282l33 -2 q-7 -42 -63 -262q-27 -59 -62 -148q-13 100 -35 187q6 58 84 217q21 11 43 8zM870 522l-10 -149h-8q-7 14 -8 18q-39 56 -125 174q-31 64 -31 174q0 15 2 67.5t2 67.5q45 -100 178 -352zM682 684q0 -80 -16 -149l-115 -228l22 178q-4 28 -4 50q0 79 37 180q20 56 64 168 q12 -156 12 -199zM365 508q-1 -5 -5 -29q-41 -85 -120 -268h-9q-4 6 -9 16l-13 26l-14 28q-64 187 -125 372q-70 210 -70 385v23q26 11 68 45q45 36 51 55h12l84 -342q57 -129 150 -311zM551 504v-27q0 -61 -23 -192q-51 -9 -209 -17q-5 1 -12 1.5t-11 1t-7 1.5 q45 123 86 193q6 2 14 2q3 9 4 10z" />
<glyph unicode="x" horiz-adv-x="1130" d="M1063 1141q-63 -104 -219 -412q-2 -1 -7 -2t-8 -2q-13 3 -32 8t-25 6q28 91 86 185q6 10 43 68t66 106q5 9 15 26.5t15 26.5q23 33 41 37q17 -28 25 -47zM1174 469q0 -13 -3 -25q-10 -8 -77 -106q-47 -71 -86 -80q25 82 120 303h9q37 -58 37 -92zM1114 580 q-50 -114 -123 -297q-17 3 -65 51l-369 291q-5 5 -8 16q-23 0 -23 -23q-32 -78 -88 -233q-11 -26 -37 -186l-172 123q-93 69 -153 145q0 33 65 74l92 55q0 12 31 37q34 24 37 33h8q0 6 31 28q2 2 2 8q0 2 -0.5 6l-1.5 12t-2 15h-4q-4 0 -6 -2h-13q-99 126 -188 283 q14 20 61 47q46 27 70 27h6q21 -21 60 -43l77 -78l45 -25q9 -5 28 -16.5t28 -16.5q61 -36 78 -77l30 2l-14 45v-2v6l86 213q52 126 106 202l252 -71q-26 -3 -26 -12q0 -1 4 -21q-114 -165 -248 -412q-27 -46 -27 -51q0 -4 5 -14q189 -34 362 -127zM979 250q-1 -1 -4.5 -2 t-5.5 -2q-254 28 -375 53q-28 138 -41 295q43 -22 111 -70v-8q74 -59 182 -139v-8l80 -54v-8q28 -9 53 -57zM303 731q-3 -12 -86 -53q-4 8 -8 14q-93 76 -105 88q-59 59 -71 113q11 17 35 55.5t38 59.5h13q65 -109 184 -277zM569 334q-70 -107 -141 -166v12h8v29q-6 0 -8 2 q0 95 35 195q32 86 72 184q34 -182 34 -256zM311 698q-59 -71 -198 -157q-32 -35 -82 -72q-32 13 -45 20q0 24 170 156q23 3 37 23l16 -19q9 0 43 17v8q22 9 27 10v6q27 10 28 10q2 0 4 -2zM399 182q-6 -40 -143 -98q-236 227 -301 381q8 0 44.5 -11.5t45.5 -11.5q11 0 18 7 q37 -40 117 -101q57 -57 219 -166z" />
<glyph unicode="y" horiz-adv-x="905" d="M905 1253q-3 -22 -6 -61h-8q-128 74 -176 96q2 25 5.5 62.5t4.5 50.5q28 -14 59 -45q38 -38 56 -49q37 -26 65 -54zM696 1403h9q-3 -59 -3 -88q-18 -3 -36 -55q-42 -63 -195 -304q0 26 4 218h27q9 27 92 122h8q3 22 94 107zM459 1171q0 -65 -10 -253q-52 79 -144 362h8 q3 37 37 100q7 -14 96 -174q5 -23 13 -35zM336 1409q-14 -59 -37 -96q-12 12 -27 12l-2 -10q-105 -45 -250 -92q11 40 35 88q14 27 27 57l14 29q18 -2 60 -2q74 0 180 14zM891 1174q-5 -12 -10 -41q-32 -32 -35 -41h-8q-6 -9 -12.5 -19.5t-10 -15.5t-4.5 -8h-8 q-82 -125 -166 -197v-10q-6 -2 -14 -6l-5 -11q-8 -4 -14 -6l-2 -12h-8v-8q-56 -31 -86 -45q2 -18 2 -58v-8l-2 -96q-3 -189 37 -311q-141 -18 -244 -23q0 278 18 471q14 27 17 57q-3 1 -10.5 2.5t-10.5 2.5q-30 31 -72.5 76.5t-54.5 58.5q-64 73 -110 147h-8q-22 37 -70 113 q6 2 44.5 17t101.5 39t135 50q49 -145 157 -411q11 0 21 -2v8h12q9 80 90 200q67 96 131 187q2 -4 2 -10v-7q0 -5 6 -14h13q0 11 2 19q59 -19 176 -88zM305 782v-12q0 11 -1 -1q-4 -43 -15 -253q-2 -25 -2 -113v-141h-17q-11 -33 -65 -74l-2 211q-3 352 10 392h8l-4 81 l4 -12h10l56 -69h10v-9h8zM358 244l160 12q-5 -18 -21 -67.5t-26 -82.5q-97 17 -252 31v31q34 58 139 76z" />
<glyph unicode="z" horiz-adv-x="950" d="M557 1274v-2h-10v2h10zM803 1178q0 -2 -2 -4q-79 -11 -142 -11q-55 0 -131 6l-6 7q-41 -2 -99.5 -6t-76.5 -5q-29 2 -51 2q-49 0 -70 -18q-41 71 -41 82v6q227 29 355 29q117 0 229 -23q12 -12 35 -65zM266 1147v-6l-22 -11l2 11q6 0 10 2q0 4 2 6zM821 340h-26 q-17 0 -80 2t-80 2q-48 0 -107 -2q-11 0 -217 -16q-60 6 -82 10q88 168 166 311q76 139 137 234q10 18 39 61q12 4 15 16l-6 11q-27 -9 -244 -66q-82 -12 -98 -12h-11q1 24 17 233q65 35 176 35q3 0 12 -1t21 -1.5t32 -2t41.5 -2.5t52.5 -3l62 -4l168 8q-23 -49 -92 -184 q-17 -44 -63.5 -172t-75.5 -205q-17 -17 -35 -23q-2 -8 -2 -20l16 -4q-28 -49 -37 -68q0 -14 17 -14q98 86 276 115q6 -6 6 -41q0 -4 -4 -82l-4 -60q7 -44 10 -55zM786 596q-13 -9 -96 -35l-139 -67q12 34 35 90l80 57q0 7 16 17t27 10h4q20 -15 73 -72zM236 864l321 78 q-19 -45 -78 -123v15h-26q-71 0 -142 -9l-143 -16q-9 3 -10 4v6h6v8h8v7q35 30 64 30zM227 1024v-4q0 -129 -41 -150v-8q-9 -3 -36 -24v-9h-7q-4 78 -4 121q0 115 13 271q1 1 1.5 2.5t1 4.5t1.5 5q18 -18 69 -115v-43q0 -41 2 -51zM477 805q-39 -57 -131 -232 q-78 -154 -129 -229q-26 -14 -88 -27l256 478q2 7 16 24q8 0 37 -4t37 -4q0 -4 2 -6zM809 317q-5 -5 -78 -157q-10 0 -12 -2q-278 51 -565 145l47 14h39q31 0 116 2t127 3q164 6 244 6q44 -9 82 -11z" />
<glyph unicode="{" d="M2324 193q3 -72 -65 -72q-67 0 -70 78l17 14l22 -12q3 -43 29 -43q27 3 27 32q0 18 -33 54q-25 22 -47 47q-11 26 -11 41q0 69 64 69q62 0 65 -63l-38 -8q-3 35 -27 35q-21 0 -21 -31q0 -20 54 -74q34 -34 34 -67zM2075 123v233h-43v41h129v-41h-45v-233l-21 -14zM2269 0 h-8l35 74h8zM2185 2h-10v57h10l29 -34l27 34h10v-57h-13v39l-24 -33h-2l-27 33v-39zM987 1245l180 393l174 -391l431 -49l-318 -287l88 -424l-373 213l-376 -213l88 418l-320 293zM1855 397h48l53 -184v184h43v-274h-45l-58 176v-176h-41v235l-14 19zM2079 16v29q0 14 14 14 h43q14 0 14 -14v-29q0 -14 -14 -14h-43q-14 0 -14 14zM2044 37v10h-37v-35h37v13l12 -2v-7q0 -14 -14 -14h-35q-14 0 -14 14v29q0 14 14 14h35q14 0 14 -14v-6zM1753 401q66 0 66 -65v-150q0 -65 -66 -65q-65 0 -65 65v150q0 65 65 65zM1950 23h18q2 -2 2 -5v-12q0 -2 -2 -4 h-16q-2 0 -2 2v19zM1931 49h-26v-47h-15v47h-26v10h67v-10zM1583 240v-117h-41v233l-14 21l14 20h117v-41h-76v-75h55v-41h-55zM1776 16v29q0 14 14 14h43q14 0 14 -14v-29q0 -14 -14 -14h-43q-14 0 -14 14zM1706 2h-14v57h51q14 0 14 -12v-12q0 -10 -14 -10h-37v-23z M1485 164v-41h-113v274l21 17l20 -17v-233h72zM1657 43v6h-39v-12h37q14 0 14 -14v-7q0 -14 -14 -14h-37q-14 0 -14 14l10 2v-6h43v13h-37q-14 0 -14 14v6q0 14 14 14h33q14 0 14 -12v-2zM1567 43v4h-43v-35h43v13h-23v10h37v-19q0 -14 -14 -14h-41q-15 0 -15 14v29 q0 14 15 14h41q14 0 14 -14zM1343 123h-116v233l-15 21l15 20h116v-41h-75v-75h55v-41h-55v-76h75v-41zM1415 16v29q0 14 15 14h45q14 0 14 -14v-29q0 -14 -14 -14h-45q-15 0 -15 14zM1401 2h-58v57h15v-47h43v-10zM1124 119q-65 0 -65 65v150q0 67 65 67q66 0 66 -67v-31 h-43v33q0 24 -23 24q-24 0 -24 -24v-150q0 -24 24 -24q23 0 23 24v54h-23l-16 18l16 23h66v-97q0 -65 -66 -65zM1303 2h-48v57h52q12 0 12 -12v-6q0 -7 -8 -10q10 -3 10 -11v-8q0 -10 -18 -10zM1212 23h19v-21h-17q-4 0 -4 4v12q0 3 2 5zM893 397h63q66 0 66 -65v-39 q0 -29 -23 -49l31 -121h-45l-24 104h-27v-104h-41v235l-14 19zM1196 2h-57v57h14v-47h43v-10zM1118 2h-61v57h61v-10h-47v-12h27v-10h-27v-15h47v-10zM805 186h-43l-10 -63l-23 -12l-20 12l45 274h57l47 -274l-22 -12l-23 12zM1020 43v4h-43v-35h43v13h-23v10h37v-19 q0 -14 -14 -14h-41q-14 0 -14 14v29q0 14 14 14h41q14 0 14 -14zM893 2h-14v57h51q12 0 12 -12v-12q0 -12 -12 -12h-8l26 -21h-18l-25 21h-12v-21zM799 2h-15l33 57h14l33 -57h-14l-8 12h-37zM555 123v115l-55 159h45l30 -98l31 98h45l-55 -159v-115h-41zM756 2h-13v25 l-30 32h18l19 -22l20 22h16l-30 -30v-27zM522 164v-41h-112v274l18 17l23 -17v-233h71zM721 2h-59v57h14v-47h45v-10zM647 2h-57v57h12v-47h45v-10zM381 164v-41h-113v274l19 17l22 -17v-233h72zM563 2h-12v57h12v-57zM510 2h-47v57h51q12 0 12 -12v-6q0 -7 -10 -10 q10 -3 10 -11v-8q0 -10 -16 -10zM418 0h-8l34 74h9zM231 397v-274l-22 -14l-21 14v274h43zM381 0h-8l35 74h8zM350 59h10q3 0 5 -2v-18h-21v18q2 2 6 2zM344 23h21v-21h-19l-2 2v19zM90 123h-76v233l-14 19l14 22h62q71 0 71 -75q0 -40 -28 -56q35 -12 35 -65q0 -78 -64 -78 zM274 2h-14v57h51q15 0 15 -12v-12q0 -10 -15 -10h-37v-23zM244 49h-29v-47h-12v47h-27v10h68v-10zM170 49h-27v-47h-14v47h-27v10h68v-10zM29 2h-15v57h15v-22h43v22h12v-57h-12v25h-43v-25zM1280 698l45 29l-98 592h-123l-100 -592l47 -29l45 29l22 135h92l21 -135z M2091 47v-35h47v35h-47zM1776 186v150q0 24 -23 24q-24 0 -24 -24v-150q0 -24 24 -24q23 0 23 24zM1788 47v-35h45v35h-45zM1737 49h-31v-14h31q6 0 6 4v6q0 4 -6 4zM1430 47v-35h45v35h-45zM1300 49h-30v-12h30q7 0 7 4v4q0 4 -7 4zM1300 27h-30v-15h30q7 0 7 4v7q0 4 -7 4 zM981 291v41q0 22 -23 22h-24v-86h24q23 0 23 23zM799 227l-17 107l-14 -107h31zM924 49h-31v-16h31q6 0 6 4v8q0 4 -6 4zM823 49l-12 -24h27zM508 49h-33v-12h33q6 0 6 4v4q0 4 -6 4zM508 27h-33v-15h33q6 0 6 4v7q0 4 -6 4zM59 356v-71h17q28 0 28 37q0 34 -28 34h-17z M305 49h-31v-14h31q6 0 6 4v6q0 4 -6 4zM59 246v-82h17q33 0 33 39q0 43 -33 43h-17zM1130 950l33 234l35 -234h-68z" />
<glyph unicode="|" d="M2324 193q3 -72 -65 -72q-67 0 -70 78l17 14l22 -12q3 -43 29 -43q27 3 27 32q0 18 -33 54q-25 22 -47 47q-11 26 -11 41q0 69 64 69q62 0 65 -63l-38 -8q-3 35 -27 35q-21 0 -21 -31q0 -20 54 -74q34 -34 34 -67zM2075 123v233h-43v41h129v-41h-45v-233l-21 -14zM2269 0 h-8l35 74h8zM2185 2h-10v57h10l29 -34l27 34h10v-57h-13v39l-24 -33h-2l-27 33v-39zM987 1245l180 393l174 -391l431 -49l-318 -287l88 -424l-373 213l-376 -213l88 418l-320 293zM1855 397h48l53 -184v184h43v-274h-45l-58 176v-176h-41v235l-14 19zM2079 16v29q0 14 14 14 h43q14 0 14 -14v-29q0 -14 -14 -14h-43q-14 0 -14 14zM2044 37v10h-37v-35h37v13l12 -2v-7q0 -14 -14 -14h-35q-14 0 -14 14v29q0 14 14 14h35q14 0 14 -14v-6zM1753 401q66 0 66 -65v-150q0 -65 -66 -65q-65 0 -65 65v150q0 65 65 65zM1950 23h18q2 -2 2 -5v-12q0 -2 -2 -4 h-16q-2 0 -2 2v19zM1931 49h-26v-47h-15v47h-26v10h67v-10zM1583 240v-117h-41v233l-14 21l14 20h117v-41h-76v-75h55v-41h-55zM1776 16v29q0 14 14 14h43q14 0 14 -14v-29q0 -14 -14 -14h-43q-14 0 -14 14zM1706 2h-14v57h51q14 0 14 -12v-12q0 -10 -14 -10h-37v-23z M1485 164v-41h-113v274l21 17l20 -17v-233h72zM1657 43v6h-39v-12h37q14 0 14 -14v-7q0 -14 -14 -14h-37q-14 0 -14 14l10 2v-6h43v13h-37q-14 0 -14 14v6q0 14 14 14h33q14 0 14 -12v-2zM1567 43v4h-43v-35h43v13h-23v10h37v-19q0 -14 -14 -14h-41q-15 0 -15 14v29 q0 14 15 14h41q14 0 14 -14zM1343 123h-116v233l-15 21l15 20h116v-41h-75v-75h55v-41h-55v-76h75v-41zM1415 16v29q0 14 15 14h45q14 0 14 -14v-29q0 -14 -14 -14h-45q-15 0 -15 14zM1401 2h-58v57h15v-47h43v-10zM1124 119q-65 0 -65 65v150q0 67 65 67q66 0 66 -67v-31 h-43v33q0 24 -23 24q-24 0 -24 -24v-150q0 -24 24 -24q23 0 23 24v54h-23l-16 18l16 23h66v-97q0 -65 -66 -65zM1303 2h-48v57h52q12 0 12 -12v-6q0 -7 -8 -10q10 -3 10 -11v-8q0 -10 -18 -10zM1212 23h19v-21h-17q-4 0 -4 4v12q0 3 2 5zM893 397h63q66 0 66 -65v-39 q0 -29 -23 -49l31 -121h-45l-24 104h-27v-104h-41v235l-14 19zM1196 2h-57v57h14v-47h43v-10zM1118 2h-61v57h61v-10h-47v-12h27v-10h-27v-15h47v-10zM805 186h-43l-10 -63l-23 -12l-20 12l45 274h57l47 -274l-22 -12l-23 12zM1020 43v4h-43v-35h43v13h-23v10h37v-19 q0 -14 -14 -14h-41q-14 0 -14 14v29q0 14 14 14h41q14 0 14 -14zM893 2h-14v57h51q12 0 12 -12v-12q0 -12 -12 -12h-8l26 -21h-18l-25 21h-12v-21zM799 2h-15l33 57h14l33 -57h-14l-8 12h-37zM555 123v115l-55 159h45l30 -98l31 98h45l-55 -159v-115h-41zM756 2h-13v25 l-30 32h18l19 -22l20 22h16l-30 -30v-27zM522 164v-41h-112v274l18 17l23 -17v-233h71zM721 2h-59v57h14v-47h45v-10zM647 2h-57v57h12v-47h45v-10zM381 164v-41h-113v274l19 17l22 -17v-233h72zM563 2h-12v57h12v-57zM510 2h-47v57h51q12 0 12 -12v-6q0 -7 -10 -10 q10 -3 10 -11v-8q0 -10 -16 -10zM418 0h-8l34 74h9zM231 397v-274l-22 -14l-21 14v274h43zM381 0h-8l35 74h8zM350 59h10q3 0 5 -2v-18h-21v18q2 2 6 2zM344 23h21v-21h-19l-2 2v19zM90 123h-76v233l-14 19l14 22h62q71 0 71 -75q0 -40 -28 -56q35 -12 35 -65q0 -78 -64 -78 zM274 2h-14v57h51q15 0 15 -12v-12q0 -10 -15 -10h-37v-23zM244 49h-29v-47h-12v47h-27v10h68v-10zM170 49h-27v-47h-14v47h-27v10h68v-10zM29 2h-15v57h15v-22h43v22h12v-57h-12v25h-43v-25zM1280 698l45 29l-98 592h-123l-100 -592l47 -29l45 29l22 135h92l21 -135z M2091 47v-35h47v35h-47zM1776 186v150q0 24 -23 24q-24 0 -24 -24v-150q0 -24 24 -24q23 0 23 24zM1788 47v-35h45v35h-45zM1737 49h-31v-14h31q6 0 6 4v6q0 4 -6 4zM1430 47v-35h45v35h-45zM1300 49h-30v-12h30q7 0 7 4v4q0 4 -7 4zM1300 27h-30v-15h30q7 0 7 4v7q0 4 -7 4 zM981 291v41q0 22 -23 22h-24v-86h24q23 0 23 23zM799 227l-17 107l-14 -107h31zM924 49h-31v-16h31q6 0 6 4v8q0 4 -6 4zM823 49l-12 -24h27zM508 49h-33v-12h33q6 0 6 4v4q0 4 -6 4zM508 27h-33v-15h33q6 0 6 4v7q0 4 -6 4zM59 356v-71h17q28 0 28 37q0 34 -28 34h-17z M305 49h-31v-14h31q6 0 6 4v6q0 4 -6 4zM59 246v-82h17q33 0 33 39q0 43 -33 43h-17zM1130 950l33 234l35 -234h-68z" />
<glyph unicode="}" d="M2324 193q3 -72 -65 -72q-67 0 -70 78l17 14l22 -12q3 -43 29 -43q27 3 27 32q0 18 -33 54q-25 22 -47 47q-11 26 -11 41q0 69 64 69q62 0 65 -63l-38 -8q-3 35 -27 35q-21 0 -21 -31q0 -20 54 -74q34 -34 34 -67zM2075 123v233h-43v41h129v-41h-45v-233l-21 -14zM2269 0 h-8l35 74h8zM2185 2h-10v57h10l29 -34l27 34h10v-57h-13v39l-24 -33h-2l-27 33v-39zM987 1245l180 393l174 -391l431 -49l-318 -287l88 -424l-373 213l-376 -213l88 418l-320 293zM1855 397h48l53 -184v184h43v-274h-45l-58 176v-176h-41v235l-14 19zM2079 16v29q0 14 14 14 h43q14 0 14 -14v-29q0 -14 -14 -14h-43q-14 0 -14 14zM2044 37v10h-37v-35h37v13l12 -2v-7q0 -14 -14 -14h-35q-14 0 -14 14v29q0 14 14 14h35q14 0 14 -14v-6zM1753 401q66 0 66 -65v-150q0 -65 -66 -65q-65 0 -65 65v150q0 65 65 65zM1950 23h18q2 -2 2 -5v-12q0 -2 -2 -4 h-16q-2 0 -2 2v19zM1931 49h-26v-47h-15v47h-26v10h67v-10zM1583 240v-117h-41v233l-14 21l14 20h117v-41h-76v-75h55v-41h-55zM1776 16v29q0 14 14 14h43q14 0 14 -14v-29q0 -14 -14 -14h-43q-14 0 -14 14zM1706 2h-14v57h51q14 0 14 -12v-12q0 -10 -14 -10h-37v-23z M1485 164v-41h-113v274l21 17l20 -17v-233h72zM1657 43v6h-39v-12h37q14 0 14 -14v-7q0 -14 -14 -14h-37q-14 0 -14 14l10 2v-6h43v13h-37q-14 0 -14 14v6q0 14 14 14h33q14 0 14 -12v-2zM1567 43v4h-43v-35h43v13h-23v10h37v-19q0 -14 -14 -14h-41q-15 0 -15 14v29 q0 14 15 14h41q14 0 14 -14zM1343 123h-116v233l-15 21l15 20h116v-41h-75v-75h55v-41h-55v-76h75v-41zM1415 16v29q0 14 15 14h45q14 0 14 -14v-29q0 -14 -14 -14h-45q-15 0 -15 14zM1401 2h-58v57h15v-47h43v-10zM1124 119q-65 0 -65 65v150q0 67 65 67q66 0 66 -67v-31 h-43v33q0 24 -23 24q-24 0 -24 -24v-150q0 -24 24 -24q23 0 23 24v54h-23l-16 18l16 23h66v-97q0 -65 -66 -65zM1303 2h-48v57h52q12 0 12 -12v-6q0 -7 -8 -10q10 -3 10 -11v-8q0 -10 -18 -10zM1212 23h19v-21h-17q-4 0 -4 4v12q0 3 2 5zM893 397h63q66 0 66 -65v-39 q0 -29 -23 -49l31 -121h-45l-24 104h-27v-104h-41v235l-14 19zM1196 2h-57v57h14v-47h43v-10zM1118 2h-61v57h61v-10h-47v-12h27v-10h-27v-15h47v-10zM805 186h-43l-10 -63l-23 -12l-20 12l45 274h57l47 -274l-22 -12l-23 12zM1020 43v4h-43v-35h43v13h-23v10h37v-19 q0 -14 -14 -14h-41q-14 0 -14 14v29q0 14 14 14h41q14 0 14 -14zM893 2h-14v57h51q12 0 12 -12v-12q0 -12 -12 -12h-8l26 -21h-18l-25 21h-12v-21zM799 2h-15l33 57h14l33 -57h-14l-8 12h-37zM555 123v115l-55 159h45l30 -98l31 98h45l-55 -159v-115h-41zM756 2h-13v25 l-30 32h18l19 -22l20 22h16l-30 -30v-27zM522 164v-41h-112v274l18 17l23 -17v-233h71zM721 2h-59v57h14v-47h45v-10zM647 2h-57v57h12v-47h45v-10zM381 164v-41h-113v274l19 17l22 -17v-233h72zM563 2h-12v57h12v-57zM510 2h-47v57h51q12 0 12 -12v-6q0 -7 -10 -10 q10 -3 10 -11v-8q0 -10 -16 -10zM418 0h-8l34 74h9zM231 397v-274l-22 -14l-21 14v274h43zM381 0h-8l35 74h8zM350 59h10q3 0 5 -2v-18h-21v18q2 2 6 2zM344 23h21v-21h-19l-2 2v19zM90 123h-76v233l-14 19l14 22h62q71 0 71 -75q0 -40 -28 -56q35 -12 35 -65q0 -78 -64 -78 zM274 2h-14v57h51q15 0 15 -12v-12q0 -10 -15 -10h-37v-23zM244 49h-29v-47h-12v47h-27v10h68v-10zM170 49h-27v-47h-14v47h-27v10h68v-10zM29 2h-15v57h15v-22h43v22h12v-57h-12v25h-43v-25zM1280 698l45 29l-98 592h-123l-100 -592l47 -29l45 29l22 135h92l21 -135z M2091 47v-35h47v35h-47zM1776 186v150q0 24 -23 24q-24 0 -24 -24v-150q0 -24 24 -24q23 0 23 24zM1788 47v-35h45v35h-45zM1737 49h-31v-14h31q6 0 6 4v6q0 4 -6 4zM1430 47v-35h45v35h-45zM1300 49h-30v-12h30q7 0 7 4v4q0 4 -7 4zM1300 27h-30v-15h30q7 0 7 4v7q0 4 -7 4 zM981 291v41q0 22 -23 22h-24v-86h24q23 0 23 23zM799 227l-17 107l-14 -107h31zM924 49h-31v-16h31q6 0 6 4v8q0 4 -6 4zM823 49l-12 -24h27zM508 49h-33v-12h33q6 0 6 4v4q0 4 -6 4zM508 27h-33v-15h33q6 0 6 4v7q0 4 -6 4zM59 356v-71h17q28 0 28 37q0 34 -28 34h-17z M305 49h-31v-14h31q6 0 6 4v6q0 4 -6 4zM59 246v-82h17q33 0 33 39q0 43 -33 43h-17zM1130 950l33 234l35 -234h-68z" />
<glyph unicode="~" horiz-adv-x="3850" d="M596 627l-4 135q-3 75 14 133q13 -26 15 -29h10q17 -30 49 -82h10q3 -11 6 -34q-71 -108 -100 -123zM430 739q-60 25 -127 111q-33 33 -72 33q-45 0 -96 -45q0 16 45 102q91 -12 209 -72q24 -41 60 -41q33 0 45 39q30 30 84 74q4 -28 4 -41q0 -133 -152 -160zM391 592 q-73 24 -131 106q-40 -28 -100 -65q-68 18 -68 78q0 79 78 139q36 4 86 4q55 -55 82 -84q58 -49 100 -49q36 0 74 14q0 26 59 53q0 -89 2 -163q-52 -18 -182 -33z" />
<glyph unicode="&#xad;" horiz-adv-x="649" d="M621 571h-15q-45 35 -96 72l27 129q4 2 10 2l4 25q20 15 76 55zM170 791q-64 10 -109 16l-4 -10q-6 2 -26 6q50 64 98 106q10 -1 27.5 -3t49.5 -6t58 -7q52 -7 342 -23q-12 -38 -76 -47q-35 0 -94 -2q-162 -21 -266 -30zM33 621q-10 78 -10 112q0 25 2 33q51 3 77 6v10 l387 22h1h1h1h1h1h1h1h1h1h1h1h1l1 1h1h1h1h1h1h1h1h1h2v-8l-16 -4q0 -24 24 -33q-25 -84 -35 -107q-85 -7 -452 -32zM88 502q-12 4 -16 6v10h-9q-22 33 -55 66q0 69 2 100l10 -92q8 1 242 31q192 3 219 0q14 -6 27 -13t23 -12.5t14 -7.5q43 -25 53 -45q-38 -6 -104 -21 q-133 17 -187 17q-147 -29 -219 -39z" />
<glyph unicode="&#xb4;" horiz-adv-x="3850" d="M2028 1165h-11q-47 38 -92 76q-55 0 -82 70l6 12q76 -3 187 -18q-7 -107 -8 -140zM1735 862q-15 7 -82 39q9 30 30 51l-6 6q-19 -25 -24 -22q11 15 21 29l15 21t7 9q28 35 51 45q0 12 16 15v12q9 0 21 25q10 0 35 32q26 34 36 37q0 13 28.5 32t45.5 17q59 -46 86 -67v-15 q-23 -23 -129 -120q-45 -63 -65 -88q-49 -55 -86 -58zM1753 1079l-117 -139q-1 3 -22 59q69 83 194 269q3 0 10.5 6t10.5 6q21 -21 49 -72q-50 -38 -125 -129zM1714 999q13 7 29 35q-4 -4 -9 -10t-11 -13.5t-9 -11.5z" />
<glyph unicode="&#xc0;" horiz-adv-x="1245" d="M930 1315q-101 -43 -107 -49q-33 7 -78 75q-18 17 -67 70l-76 86q28 7 184 10q44 -30 88 -88t56 -104zM936 1284v-24q-23 -31 -49 -76q-102 4 -172 4h-27q68 30 80 35q4 -2 12 -2q20 0 76 30q53 33 80 33zM770 1251q-49 -21 -104 -41q-3 1 -19 4.5t-26 4.5l-5 -5 l-221 160q-16 18 -20 31q146 94 190 94q27 -25 117 -115q63 -63 88 -133zM1268 858q0 -24 -27 -203l-57 -385q-15 -100 -54 -112q-6 -12 -18 -39l-6 24l20 97q0 24 -12 51q-4 40 -4 65q0 55 16 164q24 150 33 252q33 171 39 189q12 -9 66 -58q4 -28 4 -45zM258 1071v-4h-4v4 h4zM1174 983l-25 -164q-22 -160 -57 -422q4 -118 4 -133q-81 -9 -238 -74q-34 55 -49 107q-10 2 -23 2l-10 -10q-148 -56 -241 -56q-125 0 -197 93h-8q-40 58 -113 168q-71 183 -80 315q21 106 41 147q26 60 101 109q34 17 75 31q122 16 256 16q137 0 295 -14 q159 -43 244 -82q0 -4 12.5 -16t12.5 -17zM887 688v6q-22 111 -119 226q-33 29 -123 92q-8 1 -21 1.5t-33 1t-36 1.5q66 12 66 35h-27q-154 -49 -205 -84q-87 -58 -125 -179q1 -5 3.5 -29t4.5 -42q94 -193 191 -268q118 -74 170 -109q30 -12 63 -12q22 0 64 10 q127 77 127 350zM870 684v-4q0 -137 -55 -256h-6v8q-1 0 -10.5 2t-35 7t-50.5 10q-9 7 -37 26t-47 33q-2 6 -117 174q-43 88 -53 236q10 52 10 57v12h49h45l2 2q51 0 82 -8q32 -18 74 -49v-6q36 -15 67 -68l50 -86zM807 414q-35 -56 -107 -56q-19 0 -65 11q-57 37 -146 88 q-189 149 -204 354q56 123 145 158q1 -1 2 -3l2.5 -5t3.5 -5q5 -22 8 -133q14 -84 64 -172q19 -37 106 -153l11 -2q25 -57 73 -72q18 -7 107 -10zM1102 236q-15 -88 -17 -127q-63 -16 -194 -35q-5 21 -10 32q3 15 6 39q27 64 215 91zM864 152v-74q-8 0 -16 -2q-2 -2 -2 -8 q-14 6 -68 20v14q8 46 13 60q7 29 22 51q18 -29 29 -63zM788 260q-3 -10 -6 -41q-157 -133 -358 -133q-139 24 -215 141q-153 236 -162 518q14 59 96 177q-18 -92 -18 -113q0 -198 90 -344q27 -71 147 -203q113 -61 220 -61h2q80 14 204 59z" />
<glyph unicode="&#xc1;" horiz-adv-x="1245" d="M1126 1282v-6q-43 -29 -96 -96q-65 -81 -90 -103h-10q-13 0 -37 6q-2 18 -29 84q6 -2 10 -2h11q12 44 149 160l62 35q26 -74 30 -78zM1081 1386q-11 -8 -27 -20.5t-40.5 -31.5t-44.5 -34q-63 -51 -97 -100q-36 0 -106 21q-65 20 -94 43q59 56 215 188q10 2 26 2 q73 0 168 -68zM866 1096v-9q-110 31 -280 48v14q28 35 63 84q18 -8 191 -49q0 -12 13 -46.5t13 -41.5zM1077 707q0 -127 -37 -482l-190 -8q-23 74 -23 80q-8 2 -20 6q-66 -51 -170 -51q-48 0 -203 29q-167 64 -213 292q0 11 -4 97q15 88 94 231q24 28 56 76h6v6 q110 82 196 100q27 -2 47 -2q9 0 13 2q6 19 43 19q93 0 194 -55q95 -16 115 -27q38 -20 76 -88q20 -84 20 -225zM393 987q0 6 -2 6q2 -2 2 -6zM827 680q0 89 -49 199q-37 43 -106 43h-2v6h35v8h8q-1 2 -2 7.5t-2 8.5q-97 -9 -195 -63q-17 -3 -37 -12q-34 -69 -78 -189 q0 -3 4.5 -22t6.5 -35q62 -119 69 -139h8q18 -56 101 -56q24 0 112 15q2 6 66 67q16 22 43 66q18 44 18 96zM662 926v-8q-49 -16 -89 -62q-26 15 -32 29q46 27 121 41zM809 668q0 -20 -4 -52q-12 -28 -76 -108q-2 2 -2 6l8 25q-3 112 -20 170q-28 40 -31 45q-40 37 -106 100 h6q20 45 88 45q41 0 76 -14q7 -10 38 -66q23 -112 23 -151zM711 580q0 -28 -4 -74q-27 -43 -95 -43h-32q-51 18 -66 24q-81 117 -96 211l24 80h7q1 2 1.5 5t1 7.5t1.5 8.5q7 3 10 22h6v6h8q1 2 6 17q2 1 5 1.5t7.5 1t8.5 1.5q0 6 2 8q25 -5 35 -10v-6q105 -55 161 -150 q9 -58 9 -110zM831 178q0 -38 -49 -72q-20 41 -67 97q0 4 -4 12q-6 2 -17 2q-59 -39 -155 -39q-69 0 -146 23q-21 11 -114 71q-159 150 -183 437q30 89 142 163q78 90 149 150l62 37q8 4 10 4h2q-134 -96 -197 -213q-22 -22 -43 -86q-5 -29 -22 -98l4 -113q56 -190 174 -277 q108 -51 239 -51q96 0 175 31l20 -2q20 -50 20 -76zM1028 195q-29 -72 -57 -134l-9 1q-10 1 -30.5 2t-44.5 2q-72 3 -78 24q9 6 43 55h8q7 27 8 37q93 13 160 13z" />
<glyph unicode="&#xc2;" horiz-adv-x="1245" d="M780 1407v-4l-18 -25q-63 0 -166 160q-22 0 -152 -92q-72 -81 -176 -90q-1 4 -1.5 9t-1 8t-1.5 5q6 50 6 121q127 41 289 139q25 0 51 -26q37 -34 45 -37q125 -113 125 -168zM774 1346q-8 -25 -24 -86q-42 0 -211 114q-17 -7 -66 -53q-47 -47 -74 -47q-21 15 -28 22 q-16 16 -19 31q-11 0 -41 10q32 13 133 88q83 61 138 78q55 -46 65 -76q23 -20 94 -73q2 -18 2 -43q6 0 11.5 5.5t9 11.5t6.5 12zM1065 1092q0 -46 -31 -207q-40 -197 -43 -250q-8 -112 -14 -143q-15 -61 -90 -89l-4 54q1 56 3 139t5.5 208t5.5 222q20 41 70 76q1 1 11 5.5 t34.5 16.5t50.5 25q2 -18 2 -57zM1038 1163q-29 -12 -59 -28q-5 -4 -90 -58q-26 63 -191 113q-127 10 -166 10q-29 0 -79 -4q-63 -27 -88 -37q-224 -34 -324 -235q-2 8 -10 28q40 144 235 314l41 22q9 6 25 6q40 0 55 -53q9 -6 16 -6h3q106 100 135 100q46 -26 196 -100 l8 -12h3q10 0 14 -2q11 13 14 43q3 49 25 49q58 0 235 -139q2 -2 2 -11zM868 1069l6 -55q3 -208 -12 -627q-19 -3 -22 -14q-49 -8 -92 -8q-54 50 -127 141q-19 0 -35 -25q-69 -48 -119 -75q-75 -12 -133 -19q-79 16 -98 19q-2 2 -11 6t-27 13t-36 19l-43 39q-94 116 -94 240 q0 5 24 49q-24 0 -39 -43q-1 6 -4.5 26.5t-5.5 35.5q16 49 41 108l10 4q-1 1 -2 4.5t-2 5.5q19 40 66 93q10 29 47 57q40 34 69 37v10q4 1 37.5 12t46.5 11h9q-4 -3 -9.5 -8t-14 -13t-15.5 -14l4 -4q139 77 278 77q47 0 129 -10q82 -28 94 -35q60 -25 80 -57zM657 872v5 q-25 63 -34 77q-29 44 -54 66q-28 2 -84 33q-87 0 -256 -99q-18 -26 -49 -67q-2 -6 -26 -84q13 -92 57 -154q53 -77 135 -86l107 6q8 3 19 7t28 11.5t30 12.5q12 12 86 90q41 84 41 182zM637 838q0 -65 -47 -142h-8q0 -35 -82 -75q-156 9 -168 245q9 53 12 70q8 33 29 61 q64 27 98 27q42 0 100 -37q66 -78 66 -149zM434 596q-64 -6 -80 -6q-83 0 -100 45q-68 74 -82 172q12 45 41 106q6 2 45 41q40 19 84 39q-25 -73 -25 -141q0 -101 45 -190q12 -4 39 -31q30 -27 33 -35zM702 373q-18 0 -57 20q-44 23 -55 23q-20 0 -23 -17q-77 -65 -186 -65 q-195 0 -287 153q5 -5 51 -55q9 -5 38 -20.5t46 -24.5q71 -18 144 -18q35 0 53 2l74 30q77 55 102 66q29 -6 59 -35t41 -59z" />
<glyph unicode="&#xc3;" horiz-adv-x="1245" d="M1126 1300q0 -82 -225 -159h-22q-124 0 -177 47q-26 35 -32 41q-18 21 -41 24q-44 -71 -72 -71q-26 0 -80 75q0 15 -2 25q8 4 35 53q51 51 119 51q43 0 82 -20q57 -77 59 -80q44 -47 80 -47q26 0 61 12q41 31 138 115q8 8 38 18q39 -45 39 -84zM1122 1227 q-46 -85 -110 -119q-36 -5 -90 -27q-66 -27 -86 -32q-14 0 -64 5t-63 5h-2q-6 5 -16.5 13t-17.5 13t-11 9q-26 36 -48 36q-12 0 -65 -26q-38 -10 -55 -10q-31 0 -105 51q-2 2 -12 2h-2v6q43 46 71 107q12 0 46 -58q34 -57 55 -57h4q6 18 35 24q12 36 57 45q17 -17 47 -53 q83 -53 182 -53q51 0 76 22q115 47 174 97zM633 1073h-15q-20 0 -88 -8v8q58 27 76 27q24 0 27 -27zM1210 981v-8q0 -46 -36 -125q-12 -110 -56 -326q-50 -241 -82 -311q-52 -21 -123 -21q-3 0 -15 1t-34.5 2t-46.5 2q-38 102 -39 106q-23 -3 -35 -8q-9 6 -20 6h-4l-12 -18 q-61 -27 -127 -27q-179 0 -304 158h-8q-59 90 -80 174q0 5 -4 63q43 248 168 312v8q24 8 84 43q90 36 160 39q101 -26 172 -39h4q164 0 223 -80h19q46 88 84 102q45 -12 61 -18q35 -12 51 -35zM844 739q0 153 -148 224q-28 4 -43 4q-75 0 -145 -37q-83 -41 -92 -107h10 q42 54 74 76v-16q-31 -19 -51 -49h-7q-3 -9 -22 -25q-46 -76 -49 -137q27 -182 110 -244q24 -8 56 -8q102 0 237 100q70 113 70 219zM692 942v-8l-69 6q-9 -3 -22 -7l-23 -7q-8 0 -11 8q55 10 82 10t43 -2zM827 719q0 -68 -32 -139q-19 -23 -21 -33q-104 -78 -133 -78h-6 q45 68 53 84q4 28 4 45q0 98 -94 299q28 4 47 4h45q2 -6 10 -10q3 1 13.5 15t15.5 14q4 0 6 -2q92 -95 92 -199zM670 606q-3 -76 -88 -155q-24 -7 -41 -7q-65 0 -121 86q-28 92 -31 181q73 169 182 172q55 -76 99 -277zM1008 174v-6q-20 -12 -54 -57q-39 -48 -57 -56 q-39 3 -147 29v8q14 11 69 60q52 2 189 22zM618 231q-104 -43 -188 -43q-63 0 -143 25q-77 59 -123 123q-28 63 -43 102q-23 101 -43 293q2 2 9 10t20 22l26 28q38 62 125 114q-88 -137 -88 -287q0 -48 12 -94q52 -116 160 -215q66 -46 129 -61q57 -12 147 -17zM797 160 q-6 -4 -21 -15.5t-32.5 -25t-34.5 -27.5q-30 21 -74 68q80 92 121 92q8 0 12 -2q26 -54 29 -90z" />
<glyph unicode="&#xc4;" horiz-adv-x="1245" d="M911 1176q0 -5 -2 -9q-1 1 -2 3.5t-2 3.5q2 2 6 2zM1169 1077v-14q-43 -16 -131 -117q-3 21 -18 33q1 0 -2 2t-11.5 5t-20 6.5t-30.5 9.5t-38.5 12t-47.5 14v6q8 19 50 113q9 6 30 6q1 0 113 -23zM891 1219q0 -27 -12 -48q-28 -4 -39 -10q-13 45 -45 82q-40 49 -76 49 q-7 11 -17 11q-5 0 -45 -19q0 4 -2 6q101 82 140 82q13 0 22 -6q74 -89 74 -147zM1026 938q0 -6 -2 -10l-4 8q2 2 6 2zM649 1282v-6q-1 1 -3 2t-3 2q2 2 6 2zM817 1161q0 -23 -16 -39q-68 -22 -99 -22q-70 0 -79 98q17 39 32 59v-20q19 16 54 31q37 0 72.5 -35t35.5 -72z M500 1266q0 -43 -39 -82q-4 4 -10 4h-13q-38 -60 -82 -60q-81 0 -90 111q20 51 29 55v-14q8 0 10 -2q35 90 105 90q50 0 84 -61q6 -21 6 -41zM1139 997q-37 -164 -62 -311q-12 -255 -12 -321q0 -52 4 -134q-13 -19 -68 -71q-7 0 -20 -8q-26 68 -29 215l49 208q27 114 27 211 q0 58 -8 99q9 3 10 4q3 16 27 53h6l24 31q9 9 9 10l2 -2q-25 -44 -31 -59h-6l-4 -29l22 2q3 22 25 53q28 47 29 51q4 0 6 -2zM891 1135q-42 -99 -47 -107q-4 -27 -10 -51q-9 -31 -29 -41q-108 47 -176 72q-90 20 -176 20q-94 0 -179 -31q0 3 -4 7q31 39 31 40l133 62 q70 31 133 31q17 0 45 -4q21 -62 93 -62q80 0 169 62q11 0 17 2zM1010 788v-4q0 -90 -33 -231q-37 -163 -43 -231q3 -79 29 -191q-17 0 -72.5 -2t-71.5 -2q-65 0 -117 10q-1 7 -3 17.5t-5.5 27t-5.5 27.5h-29v-8q-184 -35 -245 -35q-107 0 -187 45v6q-5 5 -20 10 q0 30 -33 39q-43 62 -47 72h-6q-29 72 -49 154l-6 120q12 86 26 133q56 114 94 158q57 66 156 94l123 4q10 -2 70 -10.5t104 -15.5q60 -22 166 -76q2 -2 2 -8l22 6q17 57 62 92q56 -13 57 -14q30 -10 47 -31q0 -5 -4 -59q8 -29 19 -97zM766 645q0 20 -6 35q-5 10 -19 30.5 t-20 30.5q-24 31 -51 52q-3 25 -43 49q-121 -3 -195 -39q-81 -40 -135 -144q1 -8 1.5 -21t1 -32.5t1.5 -34.5l25 -94q62 -96 178 -96q19 0 59 4q40 -10 53 -16q0 11 -8 24q3 3 66 49q92 127 92 203zM745 659q-5 -75 -47 -142.5t-106 -96.5q-107 0 -113 184q39 114 45 127 q41 84 88 84h9q-16 -8 -21 -10v-2q0 -6 -2 -8q88 -9 147 -136zM555 817q-90 -156 -90 -252q0 -85 51 -153h-2q-38 0 -113 16q-80 65 -86 225q53 130 240 164z" />
<glyph unicode="&#xc7;" horiz-adv-x="1314" d="M1249 850q-17 -11 -75 -45v-10q-24 -14 -60.5 -35.5t-48.5 -28.5l-57 139q-33 77 -43 146h-45q-7 32 -7 59q0 32 2 55q63 23 129 39q29 -44 107 -155q79 -112 98 -164zM881 1065q0 -22 -9 -49h-51q-58 9 -112 26v13h-11q-12 24 -12 49q0 43 31 73.5t74 30.5t71 -32 l-2 -60q2 -1 9 -2t10 -2q2 -25 2 -47zM1028 1208q-33 -39 -106 -39q-11 0 -31 5q-30 65 -98 65q-33 0 -70 -18q-59 -83 -59 -121q0 -32 22 -74h12v-10q16 -5 90 -27q104 -3 134 -12q-68 -121 -109 -184l-41 -11q-127 14 -233 66q-142 103 -142 270q0 56 23 127q37 55 67 98 q149 93 230 93q70 0 141 -45q24 -31 78 -74q9 -13 19 -28t14.5 -22t7.5 -10q24 -34 51 -49zM1128 545q-46 -32 -131 -80v-10q-12 -2 -75 -52q-50 -24 -105 -57q17 170 17 293q0 19 -5 127q84 156 111 190q63 -123 66 -129q36 -79 47 -137q26 -14 75 -145zM811 575 q0 -122 -20 -231q-12 -21 -115 -27q-246 49 -430 189q-180 198 -180 528v35q88 70 98 72q0 15 117 80q25 13 139 75q0 -6 2 -12q-55 -85 -55 -174q0 -165 176 -297q39 -14 102 -43q93 -11 154 -16q12 -92 12 -179zM1008 -45h-15q-24 21 -94 72l27 129q4 2 10 2l2 24 q48 36 76 56zM559 174q-67 11 -110 16l-3 -10q-3 1 -13 2t-15 2q52 66 98 109q18 3 135 -19q43 -3 164 -10.5t178 -11.5q-9 -36 -73 -45q-36 0 -95 -2q-27 -3 -115 -13.5t-151 -17.5zM422 4q-12 76 -12 117q0 21 2 29q51 3 77 6v8l412 24v-8q-2 -1 -7.5 -2t-8.5 -2v-22 l24 -13q-18 -60 -37 -104q-336 -26 -450 -33zM475 -115q-12 4 -14 6v9h-10q-5 9 -54 65q0 70 2 103l9 -93l243 31q192 3 219 0q15 -7 36 -18.5t28 -14.5q41 -26 51 -45q-18 -4 -104 -20q-109 14 -185 14q-168 -30 -221 -37z" />
<glyph unicode="&#xc8;" horiz-adv-x="890" d="M510 1022q0 -4 -2 -6q-80 30 -141 57v6l-5 2q3 9 3 11q-15 9 -23 22q-9 54 -33 166q4 8 6 14l183 -149v-6q0 -5 -2 -24.5t-2 -24.5q14 -74 16 -68zM324 1108q0 -27 -58 -27q-26 0 -41 9q-13 39 -49 124q4 10 4 11q47 30 101 55l6 -2q0 -16 10 -68t10 -67v-6 q17 -17 17 -29zM492 999l-5 -6q-70 22 -196 76h6q40 0 195 -70zM846 578v-25h-27q-69 0 -213 12q-1 1 -2 3t-2 3l-205 7q-38 -8 -41 -189q21 -82 90 -82q78 18 109 72h4q39 60 55 80q24 0 82 -25l82 -37q-21 -48 -47 -90h-6q-26 -29 -152 -114q-103 -50 -145 -50 q-40 0 -104 31q-5 4 -12 9t-10.5 8t-6.5 4l-53 71q-60 132 -60 273v6l19 92q57 75 57 104q0 7 -12 7q-4 -20 -53 -80q-1 -4 -27 -113v-8q0 -268 149 -387q84 -41 125 -41q21 0 39 6q-45 -27 -49 -29q-44 -20 -86 -20q-44 0 -192 80q-2 3 -10 11.5t-22 25t-28 32.5 q-52 93 -67 240q3 23 12 78q47 244 164 385q56 33 98 47q115 7 150 8v-6q-16 -6 -58 -39q-11 0 -22 -8v-4q-40 -22 -99 -90h-6q-2 -2 -20 -29h-6l-31 -51h-6q-30 -58 -45 -90l-4 -31l8 -8h6q9 72 65 143q26 36 111 121l12 4v6q80 57 142 76q20 -1 44.5 -1.5t40.5 -1t27 -1.5 q114 -21 158 -142h6q74 -160 74 -253zM647 733q0 52 -88 92l-49 -12l-6 6h-8q-57 -70 -76 -129h-6l4 -20l114 -6q28 -3 66 6q30 17 47 49q2 6 2 14zM625 735q0 -42 -80 -51v6q0 57 -25 105q10 2 29 2q44 0 74 -49q2 -4 2 -13zM526 709v-27q-78 0 -84 16q3 9 19 15 q3 39 35 71h4q26 -33 26 -75zM434 444l152 15q-65 -114 -146 -129q-41 9 -57 37q-9 15 -12 67h2q16 0 61 10z" />
<glyph unicode="&#xc9;" horiz-adv-x="890" d="M506 1094q-15 -27 -21 -39q-6 -2 -20 -2q-83 0 -98 43q-4 0 -17 16q27 2 63 4.5t46 3.5q27 -7 37 -8q3 -14 10 -18zM477 1036q-1 -3 -9.5 -20t-11.5 -23.5t-10.5 -18.5t-14 -19t-13.5 -11q-6 -24 -105 -51q48 71 115 135q24 6 49 8zM406 1044q0 -3 -3 -12 q-49 -59 -135 -155q-16 3 -45 32q-26 26 -26 45l-4 2h26v23q2 3 60 61q43 40 43 62q25 -8 84 -58zM651 711q0 -54 -20 -90q-3 0 -6 -3q-23 110 -90 164q-51 23 -107 23q-91 0 -223 -57q-7 -10 -29 -23q-86 -99 -131 -205q0 2 -2 4q50 173 72 252q56 39 157 80q143 31 215 31 q67 0 113 -21q51 -57 51 -155zM731 438q-13 -67 -65 -137.5t-113 -107.5q-107 -46 -191 -46q-64 0 -112 23q-160 83 -203 207q-3 23 -12 65q24 -8 31 -10v12q-19 13 -19 37q0 23 23 74h6q0 51 106 160q7 5 18 13t18 12.5t11 7.5q26 6 70.5 17.5t60.5 14.5q27 2 66 2 q100 0 160 -84q22 -77 22 -100q0 -28 -8 -47q-93 -28 -295 -76q-24 -21 -24 -76q0 -35 32 -84q93 -41 142 -41q14 0 22 2q57 27 68 72q3 15 6 105q23 2 61 2q56 0 119 -17zM451 684q0 20 -15 29q-28 4 -35 4q-79 0 -116 -94q4 -26 6 -35q15 -27 49 -27q23 0 61 14 q50 77 50 109zM432 690q-9 -87 -76 -108l-32 4l-19 12v27q29 69 84 69q11 0 43 -4zM522 338q-33 -45 -84 -45q-36 0 -112 31v6h-7q-17 38 -20 86l12 30q17 6 123 41q33 -68 37 -79q26 -49 51 -70zM831 352q0 -37 -14 -59q-87 -83 -244 -203q-80 -28 -219 -49 q-169 15 -245 88q-38 85 -50 180q62 -59 117 -116q16 -8 100 -52q36 -8 86 -8t121 12q29 14 47 17l72 45q154 174 154 235q0 9 -2 13q-39 8 -136 24l95 27q8 -4 14 -4l18 2q38 -33 74 -90q12 -27 12 -62z" />
<glyph unicode="&#xca;" horiz-adv-x="890" d="M561 1165q-1 -6 -1.5 -16t-1 -25.5t-1.5 -27.5q-19 8 -170 129q-14 24 -22 59q137 -57 196 -119zM553 1075v-8q-33 -29 -82 -53q-67 40 -94 67h-19q-18 -21 -125 -98q-14 -20 -40 -20q-28 0 -46 18q6 7 185 209q17 14 35 14q20 0 90 -55q19 -17 96 -74zM356 1241 q0 -2 -2 -4l-4 -2q-8 -25 -61 -72q-52 -45 -60 -65q-88 -107 -108 -107q-28 75 -35 109q62 51 86 67q129 129 160 129l12 -24q12 -25 12 -31zM860 532q-40 -3 -90 -20q-1 1 -3 4t-3 4q-44 3 -154 -43q-4 0 -8 2l105 70q12 6 31 15l34 18q25 -11 88 -50zM672 760v-10 q0 -8 -2 -36t-2 -36v-4l-6 -2q-1 3 -5 10t-13 22t-17 29q-96 68 -217 88h-56q-98 0 -159 -18q-8 -4 -16 -8.5t-14 -7.5l-12 -6t-10.5 -5.5t-8.5 -4.5t-6.5 -3t-4 -2t-1.5 -2h-1l86 110q13 12 76 60q51 -3 219 -68q17 -7 49.5 -20t46.5 -19q56 -27 74 -67zM758 350 q-1 -3 -3.5 -11t-7 -22t-8.5 -28q-4 -5 -9 -13t-13.5 -19.5t-14.5 -20.5h-8q0 -28 -108 -86q-58 -21 -140 -21h-73q-159 23 -275 127q-35 45 -71 184l16 88l-16 2q0 -10 -2 -10v21q9 56 20 110q10 3 18 11q4 0 7 -3q21 68 94 105v4q75 37 182 37q60 0 109 -8q55 -19 71 -23 q50 -18 56 -37q41 -15 71 -82q0 -4 -2 -20.5t-2 -20.5v-4q-18 -5 -112 -34.5t-162 -49.5q-65 -13 -113 -26q-6 -49 -6 -72q0 -15 4 -43q80 -141 174 -141q24 0 45 12q32 -8 31 -10h4q1 3 2 11.5t2 12.5q8 4 27 23h6q10 27 10 51q0 22 -12 74q2 4 2 18q95 45 192 60 q6 -26 15 -146zM438 705q0 13 -6 28q-23 10 -47 10q-54 0 -145 -79q9 -12 18 -27q40 -19 115 -19q0 -6 2 -10h14q4 8 4 23q45 39 45 74zM422 719q0 -74 -43 -74q-18 24 -21 60q17 3 17 16v8q41 -8 47 -10zM354 635q-52 0 -88 31q39 31 74 34v-2q0 -25 14 -63zM463 268 q-8 -2 -21 -2q-56 0 -127 62q-44 53 -47 121q8 13 11 28q38 16 131 39q-23 -90 -23 -121q0 -53 27 -94q4 -2 20 -11t27 -16q2 -2 2 -6zM864 512q-6 -123 -14 -162q-14 -86 -51 -155q-29 -39 -58 -72q-15 -3 -61 -37q-10 -4 -43 -16t-57 -21q-69 -14 -144 -14q-128 0 -229 43 q-56 24 -108.5 73t-69.5 97q-12 41 -15 125l2 28h9q30 -120 75 -168q6 -29 80 -59l94 -41q99 -27 189 -27q36 0 80 7q49 21 94 45q121 95 139 182l-6 143q8 8 94 29z" />
<glyph unicode="&#xcb;" horiz-adv-x="890" d="M825 1112q0 -32 -12 -82q-36 2 -108 17q-6 0 -27 -3h-27q-71 0 -80 46q25 -19 60 -19q53 0 96 37q10 20 10 39q0 15 -16 65q104 -6 104 -100zM719 1155v-20q-24 -43 -80 -43q-52 0 -61 45q34 52 118 73q23 -16 23 -55zM410 1092v-5q-8 8 -45 27h-19q-72 0 -143 -74 q-28 35 -53 95q40 61 114 61q26 0 68 -10q44 -20 59 -31q19 -22 19 -63zM393 1059q-16 -13 -16 -31q-42 -45 -92 -45q-44 0 -64 39q21 40 64 43q1 3 2 8.5t2 7.5q-1 1 -4 3t-4 3q23 13 53 13q59 0 59 -41zM801 743l2 -32q3 -26 -17 -52q-69 -46 -88 -57q-5 7 -8 57 q-13 59 -94 146q-101 39 -164 39h-24v8q-44 -3 -168 -61q-82 -76 -86 -78h-2q24 24 92 106q140 113 254 113q36 0 71 -12q86 -43 105 -52q29 -27 127 -125zM788 639l-6 -117q-56 -16 -135 -16h-41q-20 1 -39 2v0q-137 -14 -225 -51q-8 -16 -8 -37q0 -13 28 -86q3 -6 35 -53 q-39 6 -86 24l-30 23q-33 0 -48 90q20 68 101 100q235 28 307 35l41 -4q4 -8 10 -10q2 2 5 3.5l5 2.5t3 2q-5 11 -9 18.5t-6 10.5t-2 2q0 5 19 8q8 3 8 8v4q0 11 73 41zM680 350q0 -36 -72 -123q-10 -10 -28 -22q-21 -21 -107 -49q-41 -9 -88 -9q-217 0 -270 105l-6 -2 q2 -2 2 -4v-2h-9q-83 89 -92 200q8 25 37 68l-4 10q32 93 114 175.5t177 119.5q6 0 10 -2q15 12 53 12q27 0 150 -22q99 -42 125 -131l6 -82l-4 -3q-4 -3 -8 -7h-7l-8 -13h-2q13 0 -13 -3l-140 -15q-62 -6 -185 -21q-89 -27 -92 -120q26 -117 193 -152q2 -2 12 -2 q44 0 57 10q4 27 29 92l37 93q56 -3 104 -35q29 -37 29 -66zM477 653q0 32 -43 62h-4q-112 0 -127 -56l6 -20q24 -31 42.5 -39t62.5 -8q63 23 63 61zM461 657q0 -20 -27 -41q-19 -8 -41 -8q-58 0 -67 56q27 30 75 30q60 0 60 -37zM780 285v-21q-90 -159 -272 -174 q-188 0 -311 72q124 -31 202 -31q50 0 86 8l84 31q129 114 129 186q0 49 -53 90l78 -2q57 -51 57 -159z" />
<glyph unicode="&#xcc;" horiz-adv-x="589" d="M465 1186v-2q-4 2 -10 2q4 2 8 2q2 0 2 -2zM451 1184q-7 -21 -7 -23q0 -6 2 -8q-14 -20 -59 -20q-38 0 -53 18q40 15 117 33zM449 1208q-76 -20 -115 -37h-62l-161 107q-12 16 -17 37q102 57 119 57q52 0 86 -51q150 -99 150 -113zM549 1106q-2 -26 -10 -57h-52 q-23 0 -198 6q-1 -1 -3.5 -5t-4.5 -6q-24 0 -76 43q-8 0 -8 5q4 2 36 22q11 -3 31 -29h6q13 -1 51.5 8t45.5 9h8q7 -7 28 -10q1 2 5 18q5 1 21 2t24 2q5 15 12 29q9 0 84 -37zM328 1118l-58 -4q14 14 29 14q9 0 29 -10zM252 1149l-25 -4q-89 45 -178 45q-15 0 -35 -4v8 q53 80 70 80q85 -51 94 -57q68 -47 74 -68zM526 881q0 -113 -26 -379v-80q0 -176 -17 -346q-65 -10 -149 -10h-78v49h-8q0 -15 -2 -27h-6l-4 379q25 124 38 299l19 264h102q71 0 117 -6q14 -55 14 -143zM274 1020v-64q0 -134 -34 -362q0 -1 -1.5 -14.5t-4 -43.5t-5.5 -63 q-6 -71 -6 -119v-10q0 -23 -2 -74t-2 -57q0 -13 4 -58t4 -59v-8l-10 -6q2 -6 2 -16h-6q-2 7 -16 14v4q-5 6 -19 10q-3 14 -16 17q0 7 -15 16q-29 125 -26 264q2 74 33 461q2 17 20 221q52 -24 72 -37v-6q2 -1 11.5 -4.5t16.5 -5.5z" />
<glyph unicode="&#xcd;" horiz-adv-x="589" d="M580 1128q-35 -18 -52 -20q-15 9 -59.5 33.5t-65.5 36.5q0 1 -3 10.5t-5 15.5q1 9 13 58q20 -10 43 -33q15 -10 129 -101zM168 1133l221 143q0 -36 -14 -82l-144 -119q-26 -45 -81 -67l-5 53q-3 46 23 72zM510 1092q-3 -14 -100 -62q-36 -28 -131 -112q-3 -3 -11 -3 q-9 0 -51 11q-43 14 -51 14q-1 4 -14 25q32 32 43 32h4l4 27q30 30 78 72t86 59q4 -2 10 -2q8 0 12 2q4 -2 13.5 -5.5t26.5 -9.5t32 -12q33 -24 49 -36zM346 950v-2q0 -16 -76 -135h-8q-1 -3 -2.5 -6.5t-4 -9t-3.5 -9.5h-2q-37 0 -86 -14q-69 -4 -144 -22l-4 34q-2 1 -14 5 v14q0 45 -2 84l4 33q10 3 14 14q8 -4 15 -4q14 0 84 33q-4 -16 -4 -17v-8h12v-27h14q49 0 144 -36q9 25 63 73zM467 203q0 -11 -4 -27q-40 -46 -55 -61q-31 -34 -64 -45q-35 209 -72 706q31 61 88 148h15q8 -80 76 -559q6 -43 6 -64v-35q10 -58 10 -63zM330 49v-18 q-65 -17 -180 -31v127q-10 -17 -13 -76q-47 159 -71 332l-48 338q84 20 232 43l37 -356q13 -157 43 -359z" />
<glyph unicode="&#xce;" horiz-adv-x="589" d="M506 1243l-4 -78q-52 41 -129 135q-3 10 -4 11q-5 5 -19 37q-15 34 -28 34q-7 18 -7 50h9q57 -36 178 -136q4 -28 4 -53zM492 1120q0 -5 -3 -14q-5 0 -34 -16h-11q-3 0 -12 -3q-3 -12 -37 -30q-20 14 -47 55q-27 40 -43 53q-11 22 -12 23q-9 0 -19 -2q-71 -106 -155 -115 l-2 12q-19 5 -62 15v10q71 71 224 203q8 4 16 12q3 -8 12 -8h8q7 17 7 20v13q6 -6 63 -95q5 -6 18 -20.5t37.5 -41t48.5 -52.5q3 -15 3 -19zM295 1434l4 -56q0 -16 -2 -26q-71 -58 -129 -111q-6 -3 -64 -67q-48 -51 -71 -56v21q3 39 41 114zM371 1028l10 -6q0 -4 -23 -37 h-55q-47 0 -70 10l-14 -4q-7 -7 -69 -20v8q-10 7 -31 59h20q61 53 74 64q50 44 82 47q12 -13 47 -55q26 -41 29 -66zM461 1073l2 -411q3 -263 -14 -369q-1 -2 -7.5 -17t-21 -48t-29.5 -66q-9 41 -16 86v24q0 54 -6 224l-9 223q16 116 31 270q3 5 23 45h8v6h6v7q19 13 29 16 v10h4zM375 145q0 -30 -8 -43v-8q0 -12 2 -18q-11 -3 -47 -12l-60 -15q-62 0 -119 8q-7 7 -16 33h-6q0 -19 -2 -37q-21 47 -21 144h1q0 3 1 6v37v45q27 203 54 465q10 -22 34 -25q2 2 2 8q-7 4 -15 8.5t-12 7t-7 3.5l-2 34q-2 23 -2 60q0 92 18 104q58 13 82 17q36 -3 92 -6 v-17h23q-19 -244 -19 -272q0 -18 4 -162q6 -108 6 -160q0 -43 -2 -82q0 -12 9.5 -60.5t9.5 -62.5zM190 723l5 -4l-2 4h-3z" />
<glyph unicode="&#xcf;" horiz-adv-x="589" d="M453 1157q-2 -31 -9 -51q-38 -41 -82 -41q-58 0 -67 68q14 44 55 59v8q0 6 -6 12q25 5 27 5q26 0 67 -35v-15q-2 -6 -2 -10v-4q12 4 17 4zM504 1110q0 -36 -64 -106q-10 -5 -16 -9q-22 11 -59 43q102 18 102 101q0 12 -2 18q39 -14 39 -47zM248 1167q0 -32 -8 -63 q-15 60 -23 70q-14 32 -55 47h-2q-28 0 -51 -2v6q38 53 53 53q24 -12 65 -39q21 -27 21 -72zM221 1102q-6 -25 -12 -31q-29 -6 -29 -24l6 -7q-16 -16 -36 -16q-53 0 -74 59q3 42 22 78q12 5 37 19q0 10 -2 16q-6 2 -24 2q-29 -25 -46 -88q-15 18 -22 35l18 -6q24 65 68 65 q6 0 10 -2l6 6q4 -4 15 -4q2 2 2 4q58 -34 61 -106zM373 940q-90 -20 -121 -20h-2q-4 15 -14 28q-5 -10 -9 -20q-30 0 -43 22q57 37 140 43q46 -34 49 -53zM485 98q-1 1 -2 3t-2 3h-8q0 -6 -2 -10q-65 -22 -152 -31q-6 -3 -6 -12q0 -4 2 -6v-10h-10l-2 65q-5 -11 -8 -32 q-35 228 -35 561v47q0 44 -6 108l-10 109h2q14 0 131 20l41 -215q3 -38 45 -440q3 -38 12 -102zM283 37q-4 2 -88 41q-2 129 -31 622q-3 46 -27 226q10 10 21 10q18 0 39 -18q26 -23 34 -27q18 -162 21 -332q9 -307 10 -332q6 -53 21 -190z" />
<glyph unicode="&#xd2;" horiz-adv-x="1114" d="M518 1395l25 -74q-109 61 -191 137q-8 13 -14 58q65 -20 70 -25q43 -18 59 -43q37 -9 51 -53zM315 1495q0 -100 -55 -115q0 -6 -22 -22q-12 87 -15 133q7 34 8 45q22 10 29 14q38 -17 53 -24q2 -10 2 -31zM567 1268q-6 -20 -47 -58q-40 -34 -59 -34l-4 -7v33h-31 q-22 11 -86 72q-51 48 -86 51q12 34 74 105q12 -3 18 -3q106 -73 221 -159zM1055 463q0 -96 -72 -219h-8v-6q-20 -16 -45 -31v-8q-20 -4 -88 -43q-3 -1 -40 -12.5t-73 -22.5q0 17 -2 29q-2 2 -14 6v-9q-34 -8 -138 -26q-68 9 -120 43q-23 16 -105 78l-10 4q-3 9 -49 55 q-50 78 -82 139q-26 121 -31 168q3 15 6 49q44 131 80 187q59 92 158 119q16 0 68 3t67 3q116 0 145 -33q88 -9 103 -55q37 -22 67 -25q5 -10 25 -20q75 -75 141 -238q17 -93 17 -135zM858 545q0 35 -2 86q-36 89 -78 160q-28 36 -80 45q-32 38 -90 38q-68 0 -139 -45 q-74 -45 -96 -100l-23 -84q3 -67 35 -182q41 -71 49 -86l66 -62q21 -27 47 -36q9 -3 67 -9l117 31q73 42 115 133q12 44 12 111zM836 557q0 -49 -13 -119q-2 -3 -39 -59q-66 -72 -157 -72q-39 0 -95 12q-31 54 -34 177q55 217 213 282q34 3 39 8q86 -89 86 -229zM717 807 q-79 -34 -137 -107h-9q-21 -33 -69 -125q-15 -40 -25 -75l6 -138q-18 27 -41 50q-12 28 -49 100q-13 63 -20 141q3 9 10 37.5t12 44.5q71 109 191 109q48 0 98 -29q3 -1 14.5 -3.5t18.5 -4.5zM745 954q-71 24 -92 29q-57 8 -204 14q-96 -32 -151.5 -85.5t-100.5 -155.5 q-29 -101 -35 -111l2 -104q9 -28 31 -113q59 -193 292 -311q-30 7 -77 12q-204 104 -318 348l-29 125v12q0 47 -2 86q6 15 15 62q30 73 125 209q54 40 143 90q59 16 121 16q204 0 280 -123z" />
<glyph unicode="&#xd3;" horiz-adv-x="1114" d="M887 1208q0 -22 -2 -32q-31 10 -107 108q2 3 49 96l11 -2q49 -128 49 -170zM805 1372q-22 -30 -33 -61q-2 2 -22 2q0 -1 -148 -158q-4 -4 -10 -11t-17 -19t-20 -21h-2q15 46 65 184q15 8 45 24.5t46 24.5q66 31 96 35zM848 1149q-86 -60 -96 -66q-52 -34 -103 -51 q-7 0 -30.5 -4t-30.5 -4q-23 0 -35 12q-4 0 -16 -4l-5 6q43 74 140 150q9 6 30 35q17 3 43 43q1 -4 2 -9.5t1.5 -9t1.5 -6.5h6q8 0 16 4q27 -23 47 -43q26 -26 29 -53zM1032 362q0 -60 -12 -112q-15 -34 -45 -64v-8h-6q-53 -69 -176 -92l-5 6q150 89 150 314q0 163 -74 311 q-11 14 -26.5 34t-20.5 27h-8q0 30 -70 64q-17 9 -40 20t-35.5 17t-20.5 10q43 2 90 2h12q87 -21 134 -62q35 -30 84 -120q25 -68 49 -142q20 -123 20 -205zM920 446q-3 -251 -129 -325l-99 -37h-59q-93 0 -146 12q-86 49 -98 54q0 -5 -2 -9q-6 4 -22 16.5t-49.5 39 t-63.5 49.5q-16 9 -21 20q-95 95 -98 228l45 157q26 100 98 115v8h13v8h6q15 24 55 27q120 63 209 63q49 0 98 -18q63 -32 125 -72v-12q43 -10 113 -172q4 -22 9.5 -55t9 -56.5t6.5 -40.5zM760 449q0 44 -8 83q-11 24 -21 47t-15 35t-7 15q-35 63 -72 71q-6 24 -68 33 q-13 0 -84 8q-126 -52 -184 -215q27 -154 111 -211l4 -20q15 -18 151 -86q7 1 26 2t28 2q139 47 139 236zM745 442q0 -30 -10 -63q-67 -135 -141 -135q-39 0 -84 26q-10 16 -29 19q-6 5 -22 18t-25 21l-4 110q28 102 59 158q27 34 27 35h6v8q58 43 78 43q14 0 64 -29 q81 -112 81 -211zM567 700q-146 -110 -164 -344q-70 87 -79 183q27 60 38 82q22 17 74 71q53 17 84 17q26 0 47 -9z" />
<glyph unicode="&#xd4;" horiz-adv-x="1114" d="M729 1339q0 -1 -22 -84l-7 -4q-4 1 -12 9l-6 -7q0 26 -55 60q-19 9 -78 39q-22 22 -62 47q-3 10 -14 18v2q0 19 -2 33q12 6 33 111l8 2q29 -31 129 -131q28 -28 68 -62q20 -14 20 -33zM664 1272h4v-4h-4v4zM938 786v-6q-18 27 -100 115q21 -9 61 -49q39 -39 39 -60z M944 774h4v-6h-4v6zM686 1219q0 -24 -14 -52q-4 -2 -10 -2q-24 0 -91 43q-61 41 -90 45q-11 -9 -78 -51q-55 -44 -79 -59q-36 5 -95 22q67 67 95 97q101 104 149 104q8 0 12 -2q52 -36 142 -82l4 -8q55 -18 55 -55zM397 1518l78 41q0 -9 -6 -15q0 -72 -29 -141h-8v-23 q-50 -50 -225 -211v9q64 174 123 274q6 2 14 2q10 37 53 64zM961 623q0 -191 -150 -347q-137 -73 -301 -73h-8q-123 29 -289 133q-39 33 -50.5 54.5t-12.5 70.5h-7q-9 -24 -12 -39q-53 89 -59 233q35 258 194 396q9 0 43 2t43 2q32 0 54 -11q3 3 8 13q103 0 196 -41 q53 -23 178 -105q105 -102 162 -188q11 -64 11 -100zM815 555q-6 160 -67 221q2 2 6 10q-19 25 -39 31q-2 2 -56 8q-91 58 -235 70q-149 -53 -170 -168h-6l-12 -98q4 -83 10 -123q49 -73 49 -92q6 0 8 -2l10 -41q4 0 12.5 5t12.5 5q76 -88 184 -88q155 0 262 149q0 1 31 113 zM633 821q-94 -22 -234 -88q-40 -51 -63 -86q-40 -58 -43 -92q-3 3 -12 6q-1 0 -9 -4q0 -9 12.5 -41t12.5 -39v-6q-37 49 -43 195q52 181 162 202q14 2 45 2h31v-8q-17 -5 -62 -35q80 25 113 25q45 0 90 -31zM793 586q0 -80 -39 -154q-11 -9 -86 -72q-68 -36 -142 -36 q-57 0 -118 20q-74 71 -74 92q0 8 6 17q-1 1 -4 3t-4 3q0 12 2 22q-2 2 -12 2q6 21 6 31q0 12 -6 21q-4 0 -9 -5q-2 6 -2 11q50 129 125 184l111 41q67 25 115 25q12 0 24 -3q107 -64 107 -202zM1026 537v-39q0 -266 -156 -371q-101 -70 -237 -70q-146 0 -271 76 q-133 77 -186 207h6v-8q7 0 11 -2q97 -96 299 -146q40 -4 61 -4q133 0 260 68q68 51 131 186q34 141 37 164v12q0 38 -2 56l-2 26q0 8 2 10q39 -131 47 -165z" />
<glyph unicode="&#xd5;" horiz-adv-x="1114" d="M750 1198q0 -9 -31 -45q-43 -27 -78 -27q-51 0 -117 66q-84 84 -112 98h-15q-92 0 -180 -155q-17 -3 -31 -27q-41 3 -100 86q23 23 41 39q123 199 199 199h8q86 -57 266 -220q20 -4 27 -4q17 0 53 45q15 -3 70 -55zM819 1010q0 -7 -2 -9q-44 -16 -92 -30q-11 0 -50 5 t-50 5q-19 0 -29 -2q-28 7 -84 76q-49 67 -76 82h-10q-142 0 -195 -62q-9 0 -12 15h8q44 135 142 165l45 -4q75 -67 108 -98q76 -61 125 -61q35 0 70 24q45 45 55 45q7 0 25 -80q0 -3 11 -32t11 -39zM1075 489q0 -257 -178 -413q-195 -76 -270 -76q-43 0 -84 12 q126 16 190 47q75 55 162 213q26 80 31 99l2 112q-40 235 -107 314q-72 84 -299 131q69 16 125 16q16 0 62 -4q26 3 112 31q7 -11 23 -17q4 -11 47 -49l74 -94q44 -64 57 -106q26 -49 33 -66q20 -67 20 -150zM907 383v-10q-54 -168 -114 -228q-67 -108 -304 -108h-32 q-2 3 -8.5 8.5t-8.5 7.5q0 -8 -2 -14q-196 30 -268 90q16 3 16 6q-79 59 -102 82q-33 50 -39 86q-21 64 -27 64q0 -9 8.5 -44t8.5 -44q-35 53 -35 178q26 134 178 342q7 2 27 32q12 6 33 21q9 38 102 63v-26q-33 -23 -74 -64q6 5 88 52q45 10 80 16h25q316 0 405 -197 q43 -151 43 -313zM731 539q-21 92 -41 123q-29 48 -104 69q-1 3 -3 8.5t-3 8.5h-9q-9 0 -16 -7q-18 2 -39 2q-46 0 -67 -24q-143 -52 -213 -238q3 -82 40 -155q40 -81 107 -117q7 -14 12 -29q56 -33 82 -33q20 0 35 15q107 18 166 147q44 93 53 230zM43 559v8h-4v-8h4z M37 547q-7 -13 -8 -19l6 -2q2 4 2 21zM31 518h-8l-5 -61q-1 -1 -3 -2t-3 -2l2 -47h6q1 9 5 46t6 66zM709 520q0 -48 -15 -100q-44 -112 -45 -113q-37 -69 -74 -94q-49 -18 -75 -18q-24 0 -88 22q-28 55 -31 180q65 250 166 314q162 -3 162 -191zM514 717q-16 -22 -49 -64 l-66 -149q-33 -76 -41 -154q2 -38 23 -112q-112 106 -121 247q52 174 158 189q46 37 96 43zM49 270l6 -18q-8 3 -14 18h8zM190 104h7v-2h-7v2z" />
<glyph unicode="&#xd6;" horiz-adv-x="1226" d="M920 1452q0 -51 -91 -66q-73 12 -79 89q1 2 6 16t10 27q6 17 33 26v10l-6 7q32 4 36 4q30 0 54 -21q37 -58 37 -92zM954 1362q0 -40 -63 -74q-90 6 -156 66q-3 12 -6 37q1 2 2 8.5t2 9.5h8q27 -43 84 -43q49 0 93 27q18 21 24 24q12 -35 12 -55zM623 1473q0 -56 -43 -93 q-17 -7 -64 -30q25 52 25 90q0 84 -111 119h-6q-20 0 -64 -3q19 13 39 37q64 43 156 43h6q62 -95 62 -163zM520 1438q0 -93 -69 -99v19q-7 0 -11 -2q-5 -9 -8 -39h-35q-25 0 -39 2q-52 40 -61 131q0 15 2 25q3 -1 6 -1.5t7 -1.5t7 -2q8 24 9 31q12 4 22 4h35l6 -18q6 6 12 8 l-10 25q-34 0 -45 8q33 10 58 10q67 0 112 -63q2 -14 2 -37zM319 1118q-12 -6 -20 -6h-6q6 2 26 6zM1194 551v-8q-23 -123 -152 -297q-41 -18 -53 -53q-10 0 -43 -33q-54 -21 -135 -58q-45 -10 -111 -22q-195 3 -407 63l-6 7q33 -7 112.5 -24.5t114.5 -25.5h4q106 0 227 39 q142 67 310 289q63 123 63 238q0 46 -8 82q-87 138 -154 196q-107 87 -145 94v9h-12v8q-157 74 -236 96q-41 2 -82 2h-69q69 14 129 29q131 -3 258 -45q141 -73 182 -95v-8h8q7 -17 35 -45q28 -25 37 -39h8v-8q21 0 92 -145q33 -106 33 -246zM1098 639v-2q-14 -101 -54 -182 q-52 -88 -155 -191q-56 -56 -92 -65q-3 -18 -90 -45q-85 -27 -117 -27q-226 0 -430 109q-98 89 -137 192q0 14 -1 32.5t-2 45t-2 45.5q18 387 150 463v8h6v8q14 7 35 19v6q4 2 16.5 6.5t18.5 7.5l4 -6q-2 -1 -9 -3.5t-12 -4.5l4 -11q85 60 164 60q68 0 150 -43v-8h14 q-9 38 -63 57q-5 0 -93 18h156q32 -13 95 -37t79 -30q72 -42 215 -139q150 -141 150 -283zM862 545v20q0 99 -41 152q-105 214 -377 217q-28 -6 -84 -12v-9l15 -4q-124 -100 -164 -231q3 -116 10 -146q15 -69 58 -139q1 -4 3.5 -17.5t4.5 -23.5q19 -8 67 -47q70 -37 154 -37 q69 0 151 29q50 30 89 55q86 100 114 193zM788 727q-54 31 -135 31q-27 0 -98 -6q-171 -103 -238 -185q-25 -54 -38 -125q-6 21 -19 37q-18 76 -22 80q0 11 -1 26t-2 36.5t-2 37.5q38 159 162 234l86 18q96 0 185 -47q103 -52 122 -137zM840 623q-3 -218 -217 -312 q-77 -12 -125 -12q-60 0 -103 14q-45 31 -47 33q-28 22 -37 43v4q0 -1 0 0.5t-1 7t-1.5 12t-2 18.5t-3.5 24q14 0 16 -2q5 15 5 20q0 7 -5 12q21 13 26.5 19t6.5 24q-8 2 -14 2q-2 0 -10 -4q0 54 102 125q78 55 141 78h31q157 0 205 -63q24 -7 33 -43z" />
<glyph unicode="&#xd9;" horiz-adv-x="999" d="M784 1411v-2l-57 -6q-12 -2 -45 -2h-20q-167 77 -232 194q94 25 205 43q13 -13 78 -108q71 -106 71 -119zM930 1212l4 -6q-12 -6 -41 -35q-35 -30 -53 -30h-11q0 8 -2 14h-8q-3 0 -49 -18l-111 -27q-10 0 -12 2q50 37 123 113h2q17 0 25 8q38 -5 133 -21zM768 1378h14 q-36 -48 -90 -94l-100 -86q-18 0 -44.5 13t-27.5 24q-8 2 -14 2t-12 -2q-6 6 -7 8q1 1 11 7t36 23t50 32q60 38 102 47q2 4 2 14q70 12 80 12zM541 1438l112 -66q-17 -11 -131 -84q-53 -24 -108 -24h-2q-102 58 -201 147q5 2 8 12q-3 1 -11.5 2t-12.5 2v19q29 13 96 80 q59 59 92 59q14 0 25 -8q53 -62 133 -139zM496 1462v11q-15 4 -17 6q5 -5 8 -21zM1008 586q0 -38 -7 -92q-27 -83 -34 -97q-22 -48 -56 -82q-79 -39 -94 -39q-3 0 -6 3q78 63 78 233q0 36 -6 119q-8 119 -54 479q6 2 17 2h4q21 24 104 80q-2 -4 13 -182q10 -90 24 -213 q17 -153 17 -211zM348 1159l-35 -49q-48 9 -159 43v14h8v9q-8 0 -8 2v2h8l6 24q61 0 180 -45zM98 1210h45q0 -17 -12 -41q-19 16 -33 41zM117 1036h4v-10h-4v10zM868 565q0 -91 -12 -174q-53 -127 -158 -127h-16v-10q-98 -7 -123 -10q-203 9 -383 80q-20 12 -46 29t-28 18 q-14 14 -65 80q-1 10 -3.5 53.5t-4.5 75.5q4 17 14 116q20 75 94 398q6 6 8 12q-1 1 -3 2t-3 2q12 4 23 18q61 -21 133 -43q0 -43 -16 -112q-12 -55 -27 -111q-41 -196 -41 -282q0 -79 20 -129q65 -74 179 -74q20 4 30 2h17q9 2 35.5 8t42.5 10l4 9q50 9 86 32l2 16l1.5 12 t0.5 5q0 6 -2 8h-6q10 85 10 168q0 81 -8 193q-7 150 -7 194v47q52 13 91 17q36 20 88 20h16l37 -276q20 -146 20 -277zM106 997h5v-10h-5v10zM102 983h4q-1 -3 -3.5 -14.5t-4.5 -18.5q0 4 -2 6q3 18 6 27zM121 1118q-91 -355 -117 -592q0 8 -4 74l29 305q16 150 49 301 q21 -31 43 -88z" />
<glyph unicode="&#xda;" horiz-adv-x="999" d="M903 1440q0 -4 -2 -20.5t-2 -20.5v-8h-20q-66 45 -97 63q1 14 11 76q23 9 84 18q2 -7 7 -26.5t10 -40t9 -41.5zM764 1528v-10q0 -55 -16.5 -78.5t-71.5 -50.5v-9q-18 -8 -64 -43t-57 -41v-8l-33 -16l-2 10l64 207q61 9 180 39zM860 1372v-16q-8 -7 -27 -24.5t-40.5 -37.5 t-44.5 -41q-73 -98 -111 -98q-55 55 -100 98q21 9 59 47l154 113q12 0 22 -2q3 6 10 6q21 0 78 -45zM428 1128q0 -2 -4 -2q-8 8 -12 19l14 -4q2 -6 2 -13zM506 975q0 -138 -72 -512q-12 -65 -12 -76q0 -10 2 -20q-16 8 -76 32v11q16 72 37 184q23 108 61 276l7 179 q35 -44 53 -74zM891 610q0 -111 -6 -219l-6 -2v-10q0 -107 -99 -156q-159 -26 -469 -35q-77 14 -215 72q-44 39 -57.5 62t-20.5 73q13 59 93 324q65 223 82 323q6 100 24 115h2l146 -11h1h1h1h1h1h1h1h1h1l1 -1h1h1h1h1h1h1h2q3 -12 49 -70l2 -114q3 -72 -6 -134 q-1 -5 -31 -134t-51 -226q-24 -67 -24 -76q0 -12 2 -16q59 -17 63 -21q40 -15 57 -32q20 3 23 6q8 0 39 -2t39 -2q50 0 65 30q4 88 31 635q68 35 229 92q21 -249 21 -471zM870 272q-3 -49 -67 -217q-1 -2 -6.5 -9.5t-8.5 -12.5q-100 -35 -268 -35h-71h-1h-5.5t-9.5 0.5 t-13 0.5t-17 1h-26q-130 12 -174 27q-91 29 -133 102q-16 52 -35 152q59 -62 278 -117h21q194 0 418 29q84 21 118 79z" />
<glyph unicode="&#xdb;" horiz-adv-x="999" d="M795 1270q0 -22 -9 -37l-14 4q-101 124 -125 225q30 73 37 80q111 -206 111 -272zM674 1573q0 -38 -43 -90q-39 -48 -76 -70q-2 -2 -12 -10t-32.5 -27t-45.5 -39q-58 -34 -123 -71q-17 -24 -41 -29v14q25 79 55 144q76 35 127 69l123 78q14 11 68 31zM764 1194v-4 q-6 -9 -39 -39q-28 21 -63 39q-67 61 -99 61q-11 -19 -96 -92q-6 -4 -25.5 -16t-33.5 -21q-101 43 -107 86q109 63 234 164l75 62q7 -10 27 -19q41 -69 86 -135q7 -17 22 -39q19 -36 19 -47zM659 991v-2q0 -46 -26 -241q-8 -77 -35 -162q-26 -92 -78 -144q-23 -10 -47 -10 q-64 0 -100 45q66 53 106 182q4 14 64 205q51 54 116 127zM850 791q0 -145 -57 -297q-6 0 -21 -35q-9 -73 -74 -162q-11 -6 -27 -16t-40.5 -26t-42.5 -28q-43 -14 -115 -14q-114 0 -170 33q-152 122 -192 243l-7 93q9 64 39 198q63 130 86 162q64 98 140 107q0 6 2 8 q45 -12 98 -29q-75 -168 -100 -221q-56 -139 -56 -229q0 -46 15 -93q4 0 8 -4q0 -14 -2 -18q6 2 14 2q4 0 12 -4q52 -52 134 -58q107 37 141 236q12 68 35 279q3 23 22 67q24 -6 58 -6l96 6q2 -4 2 -12q0 -12 -2 -47.5t-2 -46.5q6 -43 6 -88zM754 342q-35 -201 -213 -270v-9 q-60 -20 -80 -28q-36 -4 -60 -4q-155 0 -270 92q-121 95 -139 248v32q0 66 -2 121q15 43 57 176q15 74 62 201q59 56 174 135v6l51 23q2 0 4 -2q-25 -15 -49 -27q-9 -42 -58 -61q-62 -114 -92 -160q-45 -176 -45 -297v-39q30 -94 107 -174q78 -84 170 -106l172 -4 q129 15 211 147z" />
<glyph unicode="&#xdc;" horiz-adv-x="806" d="M633 1300q0 -21 -35 -77q-48 -23 -76 -23q-48 0 -82 49v2q0 23 -2 41q23 29 33 29l2 -2q-6 -9 -10 -31h8q19 31 25 37q9 9 39 12q9 21 28 21t64 -25q6 -18 6 -33zM567 1174q0 -21 -73 -48q-130 0 -150 45q18 34 68 91q22 -67 96 -93q11 1 24 2t21.5 2t13.5 1zM330 1370 q0 -19 -11 -65q-21 93 -118 102q-48 -22 -58 -25v9q16 22 43 69h19q55 0 119 -43q6 -21 6 -47zM614 1069l4 -31q-106 -41 -188 -41h-20q11 26 43 90q57 6 159 15v-6q-6 2 -16 2v-2q0 -9 18 -27zM297 1300q0 -25 -49 -65v-12q-6 -2 -21 -2q-120 0 -135 67q23 36 33 60 q25 14 45 14h25v2q0 6 -7 20h13q42 0 94 -61q2 -8 2 -23zM231 1106q0 -31 -24 -139q-48 -7 -127 -21l-4 37q9 61 16 127h80q23 0 59 -4zM410 500q-9 -106 -52 -119v-8q-6 -2 -18 -2q-70 0 -117 159l-10 97l25 327q-2 10 -2 31q0 28 8 59q13 -13 22 -194q1 -14 1.5 -35 t1 -57.5t1.5 -65.5q18 -52 31 -108h6l19 -33h6v-8q19 -8 78 -43zM692 569v-8q-18 -82 -28 -119q-39 -86 -93 -155h-8q0 -17 -53 -58q-48 -37 -74 -41v-8q-2 -2 -69 -30q-98 -31 -136 -31q-39 0 -77 18q-22 25 -35 35q0 4 -3 30.5t-5 45.5q-2 -1 -9 -2t-10 -2q0 -31 -4 -35 q-30 94 -53 369h6v8h-6v6h6l-6 18q1 1 2 5t2 6h-8l-2 198l4 33h10q-2 4 -2 12q0 4 2 15.5t2 15.5q0 8 -2 10h8v6q11 0 17 -2q20 20 139 29v-25q6 0 8 -2l-14 -252q-6 -115 32 -217q47 -77 95 -96v-8q75 9 96 102h8q-4 94 -4 119v94q-6 83 -29 314q139 26 222 37q4 -24 4 -27 q0 -8 -2 -12q6 0 8 -2q61 -250 61 -394zM39 674v4h-4v-4h4zM737 494q0 -110 -28 -228q-40 -82 -131 -133q-57 -29 -181 -67q-15 0 -67 -6.5t-68 -6.5q-104 0 -119 66q48 -25 101 -25q194 0 379 221q90 153 90 312v49q-7 19 -11 53q35 -110 35 -235z" />
<glyph unicode="&#xe0;" horiz-adv-x="1245" d="M930 1315q-101 -43 -107 -49q-33 7 -78 75q-18 17 -67 70l-76 86q28 7 184 10q44 -30 88 -88t56 -104zM936 1284v-24q-23 -31 -49 -76q-102 4 -172 4h-27q68 30 80 35q4 -2 12 -2q20 0 76 30q53 33 80 33zM770 1251q-49 -21 -104 -41q-3 1 -19 4.5t-26 4.5l-5 -5 l-221 160q-16 18 -20 31q146 94 190 94q27 -25 117 -115q63 -63 88 -133zM1268 858q0 -24 -27 -203l-57 -385q-15 -100 -54 -112q-6 -12 -18 -39l-6 24l20 97q0 24 -12 51q-4 40 -4 67q0 53 16 162q24 150 33 252q33 171 39 189q12 -9 66 -58q4 -28 4 -45zM258 1071v-4h-4v4 h4zM1174 983l-25 -164q-22 -160 -57 -422q4 -118 4 -133q-81 -9 -238 -74q-34 55 -49 107q-10 2 -23 2l-10 -10q-148 -56 -241 -56q-125 0 -197 93h-8q-40 58 -113 168q-71 183 -80 315q21 106 41 147q26 60 101 109q34 17 75 31q122 16 256 16q137 0 295 -14 q159 -43 244 -82q0 -4 12.5 -16t12.5 -17zM887 688v6q-22 111 -119 226q-33 29 -123 92q-8 1 -21 1.5t-33 1t-36 1.5q66 12 66 35h-27q-154 -49 -205 -84q-87 -58 -125 -179q1 -5 3.5 -29t4.5 -42q94 -193 191 -268q118 -74 170 -109q30 -12 63 -12q22 0 64 10 q127 77 127 350zM870 684v-4q0 -137 -55 -256h-6v8q-1 0 -10.5 2t-35 7t-50.5 10q-9 7 -37 26t-47 33q-2 6 -117 174q-43 88 -53 236q10 52 10 57v12h49h45l2 2q51 0 82 -8q32 -18 74 -49v-6q36 -15 67 -68l50 -86zM807 414q-35 -56 -107 -56q-19 0 -65 11q-57 37 -146 88 q-189 149 -204 354q56 123 145 158q1 -1 2 -3l2.5 -5t3.5 -5q5 -22 8 -133q14 -84 64 -172q19 -37 106 -153l11 -2q25 -57 73 -72q18 -7 107 -10zM1102 236q-15 -88 -17 -127q-63 -16 -194 -35q-5 21 -10 32q3 15 6 39q27 64 215 91zM864 152v-74q-8 0 -16 -2q-2 -2 -2 -8 q-14 6 -68 20v14q8 46 13 60q7 29 22 51q18 -29 29 -63zM788 260q-3 -10 -6 -41q-157 -133 -358 -133q-139 24 -215 141q-153 236 -162 518q14 59 96 177q-18 -92 -18 -113q0 -198 90 -344q27 -71 147 -203q113 -61 220 -61h2q80 14 204 59z" />
<glyph unicode="&#xe1;" horiz-adv-x="1245" d="M1126 1282v-6q-43 -29 -96 -96q-65 -81 -90 -103h-10q-13 0 -37 6q-2 18 -29 84q6 -2 10 -2h11q12 44 149 160l62 35q26 -74 30 -78zM1081 1386q-11 -8 -27 -20.5t-40.5 -31.5t-44.5 -34q-63 -51 -97 -100q-36 0 -106 21q-65 20 -94 43q59 56 215 188q10 2 26 2 q73 0 168 -68zM866 1096v-9q-110 31 -280 48v14q28 35 63 84q18 -8 191 -49q0 -12 13 -46.5t13 -41.5zM1077 707q0 -127 -37 -482l-190 -8q-23 74 -23 80q-8 2 -20 6q-66 -51 -170 -51q-48 0 -203 29q-167 64 -213 292q0 11 -4 97q15 88 94 231q24 28 56 76h6v6 q110 82 196 100q27 -2 47 -2q9 0 13 2q6 19 43 19q93 0 194 -55q95 -16 115 -27q38 -20 76 -88q20 -84 20 -225zM393 987q0 6 -2 6q2 -2 2 -6zM827 680q0 89 -49 199q-37 43 -106 43h-2v6h35v8h8q-1 2 -2 7.5t-2 8.5q-97 -9 -195 -63q-17 -3 -37 -12q-34 -69 -78 -189 q0 -3 4.5 -22t6.5 -35q62 -119 69 -139h8q18 -56 101 -56q24 0 112 15q2 6 66 67q16 22 43 66q18 44 18 96zM662 926v-8q-49 -16 -89 -62q-26 15 -32 29q46 27 121 41zM809 668q0 -20 -4 -52q-12 -28 -76 -108q-2 2 -2 6l8 25q-3 112 -20 170q-28 40 -31 45q-40 37 -106 100 h6q20 45 88 45q41 0 76 -14q7 -10 38 -66q23 -112 23 -151zM711 580q0 -28 -4 -74q-27 -43 -95 -43h-32q-51 18 -66 24q-81 117 -96 211l24 80h7q1 2 1.5 5t1 7.5t1.5 8.5q7 3 10 22h6v6h8q1 2 6 17q2 1 5 1.5t7.5 1t8.5 1.5q0 6 2 8q25 -5 35 -10v-6q105 -55 161 -150 q9 -58 9 -110zM831 178q0 -38 -49 -72q-20 41 -67 97q0 4 -4 12q-6 2 -17 2q-59 -39 -155 -39q-69 0 -146 23q-21 11 -114 71q-159 150 -183 437q30 89 142 163q78 90 149 150l62 37q8 4 10 4h2q-134 -96 -197 -213q-22 -22 -43 -86q-5 -29 -22 -98l4 -113q56 -190 174 -277 q108 -51 239 -51q96 0 175 31l20 -2q20 -50 20 -76zM1028 195q-29 -72 -57 -134l-9 1q-10 1 -30.5 2t-44.5 2q-72 3 -78 24q9 6 43 55h8q7 27 8 37q93 13 160 13z" />
<glyph unicode="&#xe2;" horiz-adv-x="1245" d="M780 1407v-4l-18 -25q-63 0 -166 160q-22 0 -152 -92q-72 -81 -176 -90q-1 4 -1.5 9t-1 8t-1.5 5q6 50 6 121q127 41 289 139q25 0 51 -26q37 -34 45 -37q125 -113 125 -168zM774 1346q-8 -25 -24 -86q-42 0 -211 114q-17 -7 -66 -53q-47 -47 -74 -47q-21 15 -28 22 q-16 16 -19 31q-11 0 -41 10q32 13 133 88q83 61 138 78q55 -46 65 -76q23 -20 94 -73q2 -18 2 -43q6 0 11.5 5.5t9 11.5t6.5 12zM1065 1092q0 -46 -31 -207q-40 -197 -43 -250q-8 -112 -14 -143q-15 -61 -90 -89l-4 54q1 56 3 139t5.5 208t5.5 222q20 41 70 76q1 1 11 5.5 t34.5 16.5t50.5 25q2 -18 2 -57zM1038 1163q-29 -12 -59 -28q-5 -4 -90 -58q-26 63 -191 113q-127 10 -166 10q-29 0 -79 -4q-63 -27 -88 -37q-224 -34 -324 -235q-2 8 -10 28q40 144 235 314l41 22q9 6 25 6q40 0 55 -53q9 -6 16 -6h3q106 100 135 100q46 -26 196 -100 l8 -12h3q10 0 14 -2q11 13 14 43q3 49 25 49q58 0 235 -139q2 -2 2 -11zM868 1069l6 -55q3 -208 -12 -627q-19 -3 -22 -14q-49 -8 -92 -8q-54 50 -127 141q-19 0 -35 -25q-69 -48 -119 -75q-75 -12 -133 -19q-79 16 -98 19q-2 2 -11 6t-27 13t-36 19l-43 39q-94 116 -94 240 q0 5 24 49q-24 0 -39 -43q-1 6 -4.5 26.5t-5.5 35.5q16 49 41 108l10 4q-1 1 -2 4.5t-2 5.5q19 40 66 93q10 29 47 57q40 34 69 37v10q4 1 37.5 12t46.5 11h9q-4 -3 -9.5 -8t-14 -13t-15.5 -14l4 -4q139 77 278 77q47 0 129 -10q82 -28 94 -35q60 -25 80 -57zM657 872v5 q-25 63 -34 77q-29 44 -54 66q-28 2 -84 33q-87 0 -256 -99q-18 -26 -49 -67q-2 -6 -26 -84q13 -92 57 -154q53 -77 135 -86l107 6q8 3 19 7t28 11.5t30 12.5q12 12 86 90q41 84 41 182zM637 838q0 -65 -47 -142h-8q0 -35 -82 -75q-156 9 -168 245q9 53 12 70q8 33 29 61 q64 27 98 27q42 0 100 -37q66 -78 66 -149zM434 596q-64 -6 -80 -6q-83 0 -100 45q-68 74 -82 172q12 45 41 106q6 2 45 41q40 19 84 39q-25 -73 -25 -141q0 -101 45 -190q12 -4 39 -31q30 -27 33 -35zM702 373q-18 0 -57 20q-44 23 -55 23q-20 0 -23 -17q-77 -65 -186 -65 q-195 0 -287 153q5 -5 51 -55q9 -5 38 -20.5t46 -24.5q71 -18 144 -18q35 0 53 2l74 30q77 55 102 66q29 -6 59 -35t41 -59z" />
<glyph unicode="&#xe3;" horiz-adv-x="1245" d="M1126 1300q0 -82 -225 -159h-22q-124 0 -177 47q-26 35 -32 41q-18 21 -41 24q-44 -71 -72 -71q-26 0 -80 75q0 15 -2 25q8 4 35 53q51 51 119 51q43 0 82 -20q57 -77 59 -80q44 -47 80 -47q26 0 61 12q41 31 138 115q8 8 38 18q39 -45 39 -84zM1122 1227 q-46 -85 -110 -119q-36 -5 -90 -27q-66 -27 -86 -32q-14 0 -64 5t-63 5h-2q-6 5 -16.5 13t-17.5 13t-11 9q-26 36 -48 36q-12 0 -65 -26q-38 -10 -55 -10q-31 0 -105 51q-2 2 -12 2h-2v6q43 46 71 107q12 0 46 -58q34 -57 55 -57h4q6 18 35 24q12 36 57 45q17 -17 47 -53 q83 -53 182 -53q51 0 76 22q115 47 174 97zM633 1073h-15q-20 0 -88 -8v8q58 27 76 27q24 0 27 -27zM1210 981v-8q0 -46 -36 -125q-12 -110 -56 -326q-50 -241 -82 -311q-52 -21 -123 -21q-3 0 -15 1t-34.5 2t-46.5 2q-38 102 -39 106q-23 -3 -35 -8q-9 6 -20 6h-4l-12 -18 q-61 -27 -127 -27q-179 0 -304 158h-8q-59 90 -80 174q0 5 -4 63q43 248 168 312v8q24 8 84 43q90 36 160 39q101 -26 172 -39h4q164 0 223 -80h19q46 88 84 102q45 -12 61 -18q35 -12 51 -35zM844 739q0 153 -148 224q-28 4 -43 4q-75 0 -145 -37q-83 -41 -92 -107h10 q42 54 74 76v-16q-31 -19 -51 -49h-7q-3 -9 -22 -25q-46 -76 -49 -137q27 -182 110 -244q24 -8 56 -8q102 0 237 100q70 113 70 219zM692 942v-8l-69 6q-9 -3 -22 -7l-23 -7q-8 0 -11 8q55 10 82 10t43 -2zM827 719q0 -68 -32 -139q-19 -23 -21 -33q-104 -78 -133 -78h-6 q45 68 53 84q4 28 4 45q0 98 -94 299q28 4 47 4h45q2 -6 10 -10q3 1 13.5 15t15.5 14q4 0 6 -2q92 -95 92 -199zM670 606q-3 -76 -88 -155q-24 -7 -41 -7q-65 0 -121 86q-28 92 -31 181q73 169 182 172q55 -76 99 -277zM1008 174v-6q-20 -12 -54 -57q-39 -48 -57 -56 q-39 3 -147 29v8q14 11 69 60q52 2 189 22zM618 231q-104 -43 -188 -43q-63 0 -143 25q-77 59 -123 123q-28 63 -43 102q-23 101 -43 293q2 2 9 10t20 22l26 28q38 62 125 114q-88 -137 -88 -287q0 -48 12 -94q52 -116 160 -215q66 -46 129 -61q57 -12 147 -17zM797 160 q-6 -4 -21 -15.5t-32.5 -25t-34.5 -27.5q-30 21 -74 68q80 92 121 92q8 0 12 -2q26 -54 29 -90z" />
<glyph unicode="&#xe4;" horiz-adv-x="1245" d="M911 1176q0 -5 -2 -9q-1 1 -2 3.5t-2 3.5q2 2 6 2zM1169 1077v-14q-43 -16 -131 -117q-3 21 -18 33q1 0 -2 2t-11.5 5t-20 6.5t-30.5 9.5t-38.5 12t-47.5 14v6q8 19 50 113q9 6 30 6q1 0 113 -23zM891 1219q0 -27 -12 -48q-28 -4 -39 -10q-13 45 -45 82q-40 49 -76 49 q-7 11 -17 11q-5 0 -45 -19q0 4 -2 6q101 82 140 82q13 0 22 -6q74 -89 74 -147zM1026 938q0 -6 -2 -10l-4 8q2 2 6 2zM649 1282v-6q-1 1 -3 2t-3 2q2 2 6 2zM817 1161q0 -23 -16 -39q-68 -22 -99 -22q-70 0 -79 98q17 39 32 59v-20q19 16 54 31q37 0 72.5 -35t35.5 -72z M500 1266q0 -43 -39 -82q-4 4 -10 4h-13q-38 -60 -82 -60q-81 0 -90 111q20 51 29 55v-14q8 0 10 -2q35 90 105 90q50 0 84 -61q6 -21 6 -41zM1139 997q-37 -164 -62 -311q-12 -255 -12 -321q0 -52 4 -134q-13 -19 -68 -71q-7 0 -20 -8q-26 68 -29 215l49 208q27 114 27 211 q0 58 -8 99q9 3 10 4q3 16 27 53h6l24 31q9 9 9 10l2 -2q-25 -44 -31 -59h-6l-4 -29l22 2q3 22 25 53q28 47 29 51q4 0 6 -2zM891 1135q-42 -99 -47 -107q-4 -27 -10 -51q-9 -31 -29 -41q-108 47 -176 72q-90 20 -176 20q-94 0 -179 -31q0 3 -4 7q31 39 31 40l133 62 q70 31 133 31q17 0 45 -4q21 -62 93 -62q80 0 169 62q11 0 17 2zM1010 788v-4q0 -90 -33 -231q-37 -163 -43 -231q3 -79 29 -191q-17 0 -72.5 -2t-71.5 -2q-65 0 -117 10q-1 7 -3 17.5t-5.5 27t-5.5 27.5h-29v-8q-184 -35 -245 -35q-107 0 -187 45v6q-5 5 -20 10 q0 30 -33 39q-43 62 -47 72h-6q-29 72 -49 154l-6 120q12 86 26 133q56 114 94 158q57 66 156 94l123 4q10 -2 70 -10.5t104 -15.5q60 -22 166 -76q2 -2 2 -8l22 6q17 57 62 92q56 -13 57 -14q30 -10 47 -31q0 -5 -4 -59q8 -29 19 -97zM766 645q0 20 -6 35q-5 10 -19 30.5 t-20 30.5q-24 31 -51 52q-3 25 -43 49q-121 -3 -195 -39q-81 -40 -135 -144q1 -8 1.5 -21t1 -32.5t1.5 -34.5l25 -94q62 -96 178 -96q19 0 59 4q40 -10 53 -16q0 11 -8 24q3 3 66 49q92 127 92 203zM745 659q-5 -75 -47 -142.5t-106 -96.5q-107 0 -113 184q39 114 45 127 q41 84 88 84h9q-16 -8 -21 -10v-2q0 -6 -2 -8q88 -9 147 -136zM555 817q-90 -156 -90 -252q0 -85 51 -153h-2q-38 0 -113 16q-80 65 -86 225q53 130 240 164z" />
<glyph unicode="&#xe7;" horiz-adv-x="942" d="M938 1325q0 -254 -115 -281l13 93q10 85 10 135q0 137 -60 137l-4 -4q-101 94 -198 94q-39 0 -78 -8l-135 -72v-12q-30 -6 -90 -66q-61 -61 -80 -92h-13l-73 -116v4q0 6 53 118q105 151 143 195q78 100 172 168v10q68 10 113 10q249 0 338 -219q4 -58 4 -94zM926 870 q-28 -60 -205 -63q-45 10 -82 18q29 23 72 72q6 2 16 2q26 0 92 -16q61 -15 92 -15q9 0 15 2zM823 1257q0 -56 -14 -133q-24 -122 -25 -131q-133 -3 -176 -10q-3 20 -51 59q-120 0 -178 -73q-39 -50 -74 -191l-16 -155q0 -115 104 -164q7 -1 90 -17l142 349q14 2 43 2 q78 0 145 -25q-61 -264 -166 -440q-72 -75 -145 -99q-55 -19 -176 -22q-77 20 -164 94q2 -3 18 -35q-106 75 -153 178q-2 12 -6 32.5t-10.5 54.5t-12.5 63q18 364 172 606q125 134 188 184q123 99 228 99q89 0 166 -74q2 -7 57 -49q14 -43 14 -103zM944 846q-5 -94 -16 -197 q-70 -186 -119 -287q-172 -172 -348 -184v12q150 40 229 172q38 64 113 281q16 83 39 154q51 15 102 49zM563 999q-120 -21 -155 -309l32 -92q65 -38 70 -51q-16 -28 -35 -70l-53 -4q-58 22 -72 33q-28 21 -39 63q0 194 29 289q50 156 201 156h14q3 -11 8 -15zM455 184v-6 h-17v6h17zM637 -129h-16q-20 18 -95 72l27 129q4 2 10 2l2 24q48 36 76 56zM186 90q-67 11 -110 16l-2 -10q-5 2 -27 6q50 64 96 107q19 3 136 -19q43 -3 164 -10.5t178 -11.5q-9 -36 -74 -45q-35 0 -94 -2q-27 -3 -116 -13.5t-151 -17.5zM500 -47l-451 -33q-12 76 -12 117 q0 21 2 29q53 3 78 6v8l411 24v-8q-2 -1 -7.5 -2t-8.5 -2v-22q3 -1 11.5 -5t13.5 -6q-20 -66 -37 -106zM102 -199q-12 4 -14 6v11h-10q-24 36 -53 65q0 70 2 101l8 -93l244 31q192 3 219 0q35 -18 65 -33q41 -26 51 -45q-49 -7 -106 -20q-125 16 -184 16q-147 -29 -222 -39z " />
<glyph unicode="&#xe8;" horiz-adv-x="890" d="M510 1022q0 -4 -2 -6q-80 30 -141 57v6l-5 2q3 9 3 11q-15 9 -23 22q-9 54 -33 166q4 8 6 14l183 -149v-6q0 -5 -2 -24.5t-2 -24.5q14 -74 16 -68zM324 1108q0 -27 -58 -27q-26 0 -41 9q-13 39 -49 124q4 10 4 11q47 30 101 55l6 -2q0 -16 10 -68t10 -67v-6 q17 -17 17 -29zM492 999l-5 -6q-70 22 -196 76h6q40 0 195 -70zM846 578v-25h-27q-69 0 -213 12q-1 1 -2 3t-2 3l-205 7q-38 -8 -41 -189q21 -82 90 -82q78 18 109 72h4q39 60 55 80q24 0 82 -25l82 -37q-21 -48 -47 -90h-6q-26 -29 -152 -114q-103 -50 -145 -50 q-40 0 -104 31q-5 4 -12 9t-10.5 8t-6.5 4l-53 71q-60 132 -60 273v6l19 92q57 75 57 104q0 7 -12 7q-4 -20 -53 -80q-1 -4 -27 -113v-8q0 -268 149 -387q84 -41 125 -41q21 0 39 6q-45 -27 -49 -29q-44 -20 -86 -20q-44 0 -192 80q-2 3 -10 11.5t-22 25t-28 32.5 q-52 93 -67 240q3 23 12 78q47 244 164 385q56 33 98 47q115 7 150 8v-6q-16 -6 -58 -39q-11 0 -22 -8v-4q-40 -22 -99 -90h-6q-2 -2 -20 -29h-6l-31 -51h-6q-30 -58 -45 -90l-4 -31l8 -8h6q9 72 65 143q26 36 111 121l12 4v6q80 57 142 76q20 -1 44.5 -1.5t40.5 -1t27 -1.5 q114 -21 158 -142h6q74 -160 74 -253zM647 733q0 52 -88 92l-49 -12l-6 6h-8q-57 -70 -76 -129h-6l4 -20l114 -6q28 -3 66 6q30 17 47 49q2 6 2 14zM625 735q0 -42 -80 -51v6q0 57 -25 105q10 2 29 2q44 0 74 -49q2 -4 2 -13zM526 709v-27q-78 0 -84 16q3 9 19 15 q3 39 35 71h4q26 -33 26 -75zM434 444l152 15q-65 -114 -146 -129q-41 9 -57 37q-9 15 -12 67h2q16 0 61 10z" />
<glyph unicode="&#xe9;" horiz-adv-x="890" d="M506 1094q-15 -27 -21 -39q-6 -2 -20 -2q-83 0 -98 43q-4 0 -17 16q27 2 63 4.5t46 3.5q27 -7 37 -8q3 -14 10 -18zM477 1036q-1 -3 -9.5 -20t-11.5 -23.5t-10.5 -18.5t-14 -19t-13.5 -11q-6 -24 -105 -51q48 71 115 135q24 6 49 8zM406 1044q0 -3 -3 -12 q-49 -59 -135 -155q-16 3 -45 32q-26 26 -26 45l-4 2h26v23q2 3 60 61q43 40 43 62q25 -8 84 -58zM651 711q0 -54 -20 -90q-3 0 -6 -3q-23 110 -90 164q-51 23 -107 23q-91 0 -223 -57q-7 -10 -29 -23q-86 -99 -131 -205q0 2 -2 4q50 173 72 252q56 39 157 80q143 31 215 31 q67 0 113 -21q51 -57 51 -155zM731 438q-13 -67 -65 -137.5t-113 -107.5q-107 -46 -191 -46q-64 0 -112 23q-160 83 -203 207q-3 23 -12 65q24 -8 31 -10v12q-19 13 -19 37q0 23 23 74h6q0 51 106 160q7 5 18 13t18 12.5t11 7.5q26 6 70.5 17.5t60.5 14.5q27 2 66 2 q100 0 160 -84q22 -77 22 -100q0 -28 -8 -47q-93 -28 -295 -76q-24 -21 -24 -76q0 -35 32 -84q93 -41 142 -41q14 0 22 2q57 27 68 72q3 15 6 105q23 2 61 2q56 0 119 -17zM451 684q0 20 -15 29q-28 4 -35 4q-79 0 -116 -94q4 -26 6 -35q15 -27 49 -27q23 0 61 14 q50 77 50 109zM432 690q-9 -87 -76 -108l-32 4l-19 12v27q29 69 84 69q11 0 43 -4zM522 338q-33 -45 -84 -45q-36 0 -112 31v6h-7q-17 38 -20 86l12 30q17 6 123 41q33 -68 37 -79q26 -49 51 -70zM831 352q0 -37 -14 -59q-87 -83 -244 -203q-80 -28 -219 -49 q-169 15 -245 88q-38 85 -50 180q62 -59 117 -116q16 -8 100 -52q36 -8 86 -8t121 12q29 14 47 17l72 45q154 174 154 235q0 9 -2 13q-39 8 -136 24l95 27q8 -4 14 -4l18 2q38 -33 74 -90q12 -27 12 -62z" />
<glyph unicode="&#xea;" horiz-adv-x="890" d="M561 1165q-1 -6 -1.5 -16t-1 -25.5t-1.5 -27.5q-19 8 -170 129q-14 24 -22 59q137 -57 196 -119zM553 1075v-8q-33 -29 -82 -53q-67 40 -94 67h-19q-18 -21 -125 -98q-14 -20 -40 -20q-28 0 -46 18q6 7 185 209q17 14 35 14q20 0 90 -55q19 -17 96 -74zM356 1241 q0 -2 -2 -4l-4 -2q-8 -25 -61 -72q-52 -45 -60 -65q-88 -107 -108 -107q-28 75 -35 109q62 51 86 67q129 129 160 129l12 -24q12 -25 12 -31zM860 532q-40 -3 -90 -20q-1 1 -3 4t-3 4q-44 3 -154 -43q-4 0 -8 2l105 70q12 6 31 15l34 18q25 -11 88 -50zM672 760v-10 q0 -8 -2 -36t-2 -36v-4l-6 -2q-1 3 -5 10t-13 22t-17 29q-96 68 -217 88h-56q-98 0 -159 -18q-8 -4 -16 -8.5t-14 -7.5l-12 -6t-10.5 -5.5t-8.5 -4.5t-6.5 -3t-4 -2t-1.5 -2h-1l86 110q13 12 76 60q51 -3 219 -68q17 -7 49.5 -20t46.5 -19q56 -27 74 -67zM758 350 q-1 -3 -3.5 -11t-7 -22t-8.5 -28q-4 -5 -9 -13t-13.5 -19.5t-14.5 -20.5h-8q0 -28 -108 -86q-58 -21 -140 -21h-73q-159 23 -275 127q-35 45 -71 184l16 88l-16 2q0 -10 -2 -10v21q9 56 20 110q10 3 18 11q4 0 7 -3q21 68 94 105v4q75 37 182 37q60 0 109 -8q55 -19 71 -23 q50 -18 56 -37q41 -15 71 -82q0 -4 -2 -20.5t-2 -20.5v-4q-18 -5 -112 -34.5t-162 -49.5q-65 -13 -113 -26q-6 -49 -6 -72q0 -15 4 -43q80 -141 174 -141q24 0 45 12q32 -8 31 -10h4q1 3 2 11.5t2 12.5q8 4 27 23h6q10 27 10 51q0 22 -12 74q2 4 2 18q95 45 192 60 q6 -26 15 -146zM438 705q0 13 -6 28q-23 10 -47 10q-54 0 -145 -79q9 -12 18 -27q40 -19 115 -19q0 -6 2 -10h14q4 8 4 23q45 39 45 74zM422 719q0 -74 -43 -74q-18 24 -21 60q17 3 17 16v8q41 -8 47 -10zM354 635q-52 0 -88 31q39 31 74 34v-2q0 -25 14 -63zM463 268 q-8 -2 -21 -2q-56 0 -127 62q-44 53 -47 121q8 13 11 28q38 16 131 39q-23 -90 -23 -121q0 -53 27 -94q4 -2 20 -11t27 -16q2 -2 2 -6zM864 512q-6 -123 -14 -162q-14 -86 -51 -155q-29 -39 -58 -72q-15 -3 -61 -37q-10 -4 -43 -16t-57 -21q-69 -14 -144 -14q-128 0 -229 43 q-56 24 -108.5 73t-69.5 97q-12 41 -15 125l2 28h9q30 -120 75 -168q6 -29 80 -59l94 -41q99 -27 189 -27q36 0 80 7q49 21 94 45q121 95 139 182l-6 143q8 8 94 29z" />
<glyph unicode="&#xeb;" horiz-adv-x="890" d="M825 1112q0 -32 -12 -82q-36 2 -108 17q-6 0 -27 -3h-27q-71 0 -80 46q25 -19 60 -19q53 0 96 37q12 18 12 39q0 15 -16 65q102 -6 102 -100zM721 1155v-10q0 -23 -26.5 -38t-55.5 -15q-52 0 -61 45q38 53 118 73q25 -16 25 -55zM410 1092v-5q-10 10 -43 27h-21 q-70 0 -141 -74q-28 32 -55 95q40 61 116 61q28 0 66 -10q44 -20 59 -31q19 -22 19 -63zM393 1059q-16 -13 -16 -31q-42 -45 -90 -45q-46 0 -66 39q21 40 64 43q1 3 2 8.5t2 7.5l-6 6q23 13 51 13q59 0 59 -41zM801 743l2 -32q3 -26 -17 -52q-12 -10 -88 -57q-3 9 -6 57 q-16 61 -96 146q-101 39 -162 39h-26v8q-41 -3 -166 -61q-82 -76 -88 -78q45 51 90 106q140 113 256 113q34 0 69 -12q86 -43 105 -52q29 -27 127 -125zM788 639l-6 -117q-53 -16 -133 -16h-41q-22 1 -41 2v0q-159 -19 -225 -51q-6 -18 -6 -37q0 -18 26 -86q30 -43 35 -53 q-39 6 -86 24q-20 14 -28 14q0 7 -2 9q-15 0 -29 39q-17 39 -19 51q20 68 101 100q235 28 307 35l41 -4q4 -8 10 -10q2 2 5 3.5l5 2.5t3 2q0 6 -9 19l-8 12q0 5 19 8q8 3 8 8v4q0 11 73 41zM680 350q0 -38 -70 -123q-24 -18 -30 -22q-22 -22 -105 -49q-41 -9 -90 -9 q-217 0 -270 105l-4 -2v-6h-7q-85 88 -94 200q8 25 37 68l-2 10q29 93 110.5 175.5t178.5 119.5q6 0 10 -2q15 12 53 12q27 0 150 -22q98 -42 127 -131l4 -82l-4 -3q-4 -3 -8 -7h-4l-9 -13h-4q15 0 -13 -4l-138 -14q-62 -6 -185 -21q-91 -27 -94 -120q26 -117 193 -152 q2 -2 14 -2q42 0 55 10q4 16 31 92l35 93q56 -3 104 -35q29 -37 29 -66zM479 653q0 33 -45 62h-2q-114 0 -129 -56l6 -20q26 -32 43.5 -39.5t61.5 -7.5q65 24 65 61zM461 657q0 -20 -27 -41q-19 -8 -39 -8q-60 0 -69 56q27 30 75 30q60 0 60 -37zM782 285q0 -15 -2 -21 q-90 -159 -272 -174q-188 0 -311 72q124 -31 204 -31q48 0 84 8l84 31q131 113 131 186q0 50 -55 90l78 -2q59 -53 59 -159z" />
<glyph unicode="&#xec;" horiz-adv-x="589" d="M465 1186v-2q-4 2 -10 2q4 2 8 2q2 0 2 -2zM451 1184q-7 -21 -7 -23q0 -6 2 -8q-14 -20 -59 -20q-38 0 -53 18q40 15 117 33zM449 1208q-76 -20 -115 -37h-62l-161 107q-12 16 -17 37q102 57 119 57q52 0 86 -51q150 -99 150 -113zM549 1106q-2 -26 -10 -57h-52 q-23 0 -198 6q-1 -1 -3.5 -5t-4.5 -6q-24 0 -76 43q-8 0 -8 5q4 2 36 22q11 -3 31 -29h6q13 -1 51.5 8t45.5 9h8q7 -7 28 -10q1 2 5 18q5 1 21 2t24 2q5 15 12 29q9 0 84 -37zM328 1118l-58 -4q14 14 29 14q9 0 29 -10zM252 1149l-25 -4q-89 45 -178 45q-15 0 -35 -4v8 q53 80 70 80q85 -51 94 -57q68 -47 74 -68zM526 881q0 -113 -26 -379v-80q0 -176 -17 -346q-65 -10 -149 -10h-78v49h-8q0 -15 -2 -27h-6l-4 379q25 124 38 299l19 264h102q71 0 117 -6q14 -55 14 -143zM274 1020v-64q0 -134 -34 -362q0 -1 -1.5 -14.5t-4 -43.5t-5.5 -63 q-6 -71 -6 -119v-10q0 -23 -2 -74t-2 -57q0 -13 4 -58t4 -59v-8l-10 -6q2 -6 2 -16h-6q-2 7 -16 14v4q-5 6 -19 10q-3 14 -16 17q0 7 -15 16q-29 125 -26 264q2 74 33 461q2 17 20 221q52 -24 72 -37v-6q2 -1 11.5 -4.5t16.5 -5.5z" />
<glyph unicode="&#xed;" horiz-adv-x="589" d="M580 1128q-35 -18 -52 -20q-15 9 -59.5 33.5t-65.5 36.5q0 1 -3 10.5t-5 15.5q1 9 13 58q20 -10 43 -33q15 -10 129 -101zM168 1133l221 143q0 -36 -14 -82l-144 -119q-26 -45 -81 -67l-5 53q-3 46 23 72zM510 1092q-3 -14 -100 -62q-36 -28 -131 -112q-3 -3 -11 -3 q-9 0 -51 11q-43 14 -51 14q-1 4 -14 25q32 32 43 32h4l4 27q30 30 78 72t86 59q4 -2 10 -2q8 0 12 2q4 -2 13.5 -5.5t26.5 -9.5t32 -12q33 -24 49 -36zM346 950v-2q0 -16 -76 -135h-8q-1 -3 -2.5 -6.5t-4 -9t-3.5 -9.5h-2q-37 0 -86 -14q-69 -4 -144 -22l-4 34q-2 1 -14 5 v14q0 45 -2 84l4 33q10 3 14 14q8 -4 15 -4q14 0 84 33q-4 -16 -4 -17v-8h12v-27h14q49 0 144 -36q9 25 63 73zM467 203q0 -11 -4 -27q-40 -46 -55 -61q-31 -34 -64 -45q-35 209 -72 706q31 61 88 148h15q8 -80 76 -559q6 -43 6 -64v-35q10 -58 10 -63zM330 49v-18 q-65 -17 -180 -31v127q-10 -17 -13 -76q-47 159 -71 332l-48 338q84 20 232 43l37 -356q13 -157 43 -359z" />
<glyph unicode="&#xee;" horiz-adv-x="589" d="M506 1243l-4 -78q-52 41 -129 135q-3 10 -4 11q-5 5 -19 37q-15 34 -28 34q-7 18 -7 50h9q57 -36 178 -136q4 -28 4 -53zM492 1120q0 -5 -3 -14q-5 0 -34 -16h-11q-3 0 -12 -3q-3 -12 -37 -30q-20 14 -47 55q-27 40 -43 53q-11 22 -12 23q-9 0 -19 -2q-71 -106 -155 -115 l-2 12q-19 5 -62 15v10q71 71 224 203q8 4 16 12q3 -8 12 -8h8q7 17 7 20v13q6 -6 63 -95q5 -6 18 -20.5t37.5 -41t48.5 -52.5q3 -15 3 -19zM295 1434l4 -56q0 -16 -2 -26q-71 -58 -129 -111q-6 -3 -64 -67q-48 -51 -71 -56v21q3 39 41 114zM371 1028l10 -6q0 -4 -23 -37 h-55q-47 0 -70 10l-14 -4q-7 -7 -69 -20v8q-10 7 -31 59h20q61 53 74 64q50 44 82 47q12 -13 47 -55q26 -41 29 -66zM461 1073l2 -411q3 -263 -14 -369q-1 -2 -7.5 -17t-21 -48t-29.5 -66q-9 41 -16 86v24q0 54 -6 224l-9 223q16 116 31 270q3 5 23 45h8v6h6v7q19 13 29 16 v10h4zM375 145q0 -30 -8 -43v-8q0 -12 2 -18q-11 -3 -47 -12l-60 -15q-62 0 -119 8q-7 7 -16 33h-6q0 -19 -2 -37q-21 47 -21 144h1q0 3 1 6v37v45q27 203 54 465q10 -22 34 -25q2 2 2 8q-7 4 -15 8.5t-12 7t-7 3.5l-2 34q-2 23 -2 60q0 92 18 104q58 13 82 17q36 -3 92 -6 v-17h23q-19 -244 -19 -272q0 -18 4 -162q6 -108 6 -160q0 -43 -2 -82q0 -12 9.5 -60.5t9.5 -62.5zM190 723l5 -4l-2 4h-3z" />
<glyph unicode="&#xef;" horiz-adv-x="589" d="M453 1157q-2 -31 -9 -51q-38 -41 -82 -41q-58 0 -67 68q14 44 55 59v8q0 6 -6 12q25 5 27 5q26 0 67 -35v-15q-2 -6 -2 -10v-4q12 4 17 4zM504 1110q0 -36 -64 -106q-10 -5 -16 -9q-22 11 -59 43q102 18 102 101q0 12 -2 18q39 -14 39 -47zM248 1167q0 -32 -8 -63 q-15 60 -23 70q-14 32 -55 47h-2q-28 0 -51 -2v6q38 53 53 53q24 -12 65 -39q21 -27 21 -72zM221 1102q-6 -25 -12 -31q-29 -6 -29 -24l6 -7q-16 -16 -36 -16q-53 0 -74 59q3 42 22 78q12 5 37 19q0 10 -2 16q-6 2 -24 2q-29 -25 -46 -88q-15 18 -22 35l18 -6q24 65 68 65 q6 0 10 -2l6 6q4 -4 15 -4q2 2 2 4q58 -34 61 -106zM373 940q-90 -20 -121 -20h-2q-4 15 -14 28q-5 -10 -9 -20q-30 0 -43 22q57 37 140 43q46 -34 49 -53zM485 98q-1 1 -2 3t-2 3h-8q0 -6 -2 -10q-65 -22 -152 -31q-6 -3 -6 -12q0 -4 2 -6v-10h-10l-2 65q-5 -11 -8 -32 q-35 228 -35 561v47q0 44 -6 108l-10 109h2q14 0 131 20l41 -215q3 -38 45 -440q3 -38 12 -102zM283 37q-4 2 -88 41q-2 129 -31 622q-3 46 -27 226q10 10 21 10q18 0 39 -18q26 -23 34 -27q18 -162 21 -332q9 -307 10 -332q6 -53 21 -190z" />
<glyph unicode="&#xf2;" horiz-adv-x="1114" d="M518 1395l25 -74q-109 61 -191 137q-8 13 -14 58q65 -20 70 -25q43 -18 59 -43q37 -9 51 -53zM315 1495q0 -100 -55 -115q0 -6 -22 -22q-12 87 -15 133q7 34 8 45q22 10 29 14q38 -17 53 -24q2 -10 2 -31zM567 1268q-6 -20 -47 -58q-40 -34 -59 -34l-4 -7v33h-31 q-22 11 -86 72q-51 48 -86 51q12 34 74 105q12 -3 18 -3q106 -73 221 -159zM1055 463q0 -96 -72 -219h-8v-6q-20 -16 -45 -31v-8q-20 -4 -88 -43q-3 -1 -40 -12.5t-73 -22.5q0 17 -2 29q-2 2 -14 6v-9q-34 -8 -138 -26q-68 9 -120 43q-23 16 -105 78l-10 4q-3 9 -49 55 q-50 78 -82 139q-26 121 -31 168q3 15 6 49q44 131 80 187q59 92 158 119q16 0 68 3t67 3q116 0 145 -33q88 -9 103 -55q37 -22 67 -25q5 -10 25 -20q75 -75 141 -238q17 -93 17 -135zM858 545q0 35 -2 86q-36 89 -78 160q-28 36 -80 45q-32 38 -90 38q-68 0 -139 -45 q-74 -45 -96 -100l-23 -84q3 -67 35 -182q41 -71 49 -86l66 -62q21 -27 47 -36q9 -3 67 -9l117 31q73 42 115 133q12 44 12 111zM836 557q0 -49 -13 -119q-2 -3 -39 -59q-66 -72 -157 -72q-39 0 -95 12q-31 54 -34 177q55 217 213 282q34 3 39 8q86 -89 86 -229zM717 807 q-79 -34 -137 -107h-9q-21 -33 -69 -125q-15 -40 -25 -75l6 -138q-18 27 -41 50q-12 28 -49 100q-13 63 -20 141q3 9 10 37.5t12 44.5q71 109 191 109q48 0 98 -29q3 -1 14.5 -3.5t18.5 -4.5zM745 954q-71 24 -92 29q-57 8 -204 14q-96 -32 -151.5 -85.5t-100.5 -155.5 q-29 -101 -35 -111l2 -104q9 -28 31 -113q59 -193 292 -311q-30 7 -77 12q-204 104 -318 348l-29 125v12q0 47 -2 86q6 15 15 62q30 73 125 209q54 40 143 90q59 16 121 16q204 0 280 -123z" />
<glyph unicode="&#xf3;" horiz-adv-x="1114" d="M887 1208q0 -22 -2 -32q-31 10 -107 108q2 3 49 96l11 -2q49 -128 49 -170zM805 1372q-22 -30 -33 -61q-2 2 -22 2q0 -1 -148 -158q-4 -4 -10 -11t-17 -19t-20 -21h-2q15 46 65 184q15 8 45 24.5t46 24.5q66 31 96 35zM848 1149q-86 -60 -96 -66q-52 -34 -103 -51 q-7 0 -30.5 -4t-30.5 -4q-23 0 -35 12q-4 0 -16 -4l-5 6q43 74 140 150q9 6 30 35q17 3 43 43q1 -4 2 -9.5t1.5 -9t1.5 -6.5h6q8 0 16 4q27 -23 47 -43q26 -26 29 -53zM1032 362q0 -60 -12 -112q-15 -34 -45 -64v-8h-6q-53 -69 -176 -92l-5 6q150 89 150 314q0 163 -74 311 q-11 14 -26.5 34t-20.5 27h-8q0 30 -70 64q-17 9 -40 20t-35.5 17t-20.5 10q43 2 90 2h12q87 -21 134 -62q35 -30 84 -120q25 -68 49 -142q20 -123 20 -205zM920 446q-3 -251 -129 -325l-99 -37h-59q-93 0 -146 12q-86 49 -98 54q0 -5 -2 -9q-6 4 -22 16.5t-49.5 39 t-63.5 49.5q-16 9 -21 20q-95 95 -98 228l45 157q26 100 98 115v8h13v8h6q15 24 55 27q120 63 209 63q49 0 98 -18q63 -32 125 -72v-12q43 -10 113 -172q4 -22 9.5 -55t9 -56.5t6.5 -40.5zM760 449q0 44 -8 83q-11 24 -21 47t-15 35t-7 15q-35 63 -72 71q-6 24 -68 33 q-13 0 -84 8q-126 -52 -184 -215q27 -154 111 -211l4 -20q15 -18 151 -86q7 1 26 2t28 2q139 47 139 236zM745 442q0 -30 -10 -63q-67 -135 -141 -135q-39 0 -84 26q-10 16 -29 19q-6 5 -22 18t-25 21l-4 110q28 102 59 158q27 34 27 35h6v8q58 43 78 43q14 0 64 -29 q81 -112 81 -211zM567 700q-146 -110 -164 -344q-70 87 -79 183q27 60 38 82q22 17 74 71q53 17 84 17q26 0 47 -9z" />
</font>
</defs>
</svg>
