<?xml version="1.0" standalone="no"?>
<!DOCTYPE svg PUBLIC "-//W3C//DTD SVG 1.1//EN" "http://www.w3.org/Graphics/SVG/1.1/DTD/svg11.dtd" >
<svg xmlns="http://www.w3.org/2000/svg">
<metadata></metadata>
<defs>
<font id="mad_bubblesregular" horiz-adv-x="1014" >
<font-face units-per-em="2048" ascent="1638" descent="-410" />
<missing-glyph horiz-adv-x="508" />
<glyph horiz-adv-x="2048" />
<glyph horiz-adv-x="2048" />
<glyph unicode="&#xd;" horiz-adv-x="508" />
<glyph unicode=" "  horiz-adv-x="508" />
<glyph unicode="&#x09;" horiz-adv-x="508" />
<glyph unicode="&#xa0;" horiz-adv-x="508" />
<glyph unicode="!" horiz-adv-x="672" d="M140 1236v45q0 99 61 99h16q112 0 232 -122q50 -77 50 -182v-44q-14 -272 -171 -348l-44 -11h-17q-54 85 -105 331q-22 133 -22 232zM190 425v5q0 89 60 155q98 0 139 -194v-27q-13 -61 -61 -61h-33q-105 0 -105 122z" />
<glyph unicode="&#x22;" horiz-adv-x="837" d="M0 1376v24q0 65 124 72h4q204 -6 284 -236l4 -48q0 -142 -164 -256l-36 -8h-40v8q132 101 132 144l8 64q-4 48 -28 48q-101 -32 -136 -32q-116 60 -116 112q-36 60 -36 108zM424 1348v12q0 84 100 128q42 12 84 12h92q96 0 136 -112v-36q0 -101 -124 -172 q-69 -24 -192 -44v8q20 0 128 88v4q-200 9 -224 112z" />
<glyph unicode="#" horiz-adv-x="1257" d="M29 337v6q0 73 214 88l19 302q-164 34 -164 114q0 44 114 44q88 0 88 25q66 245 214 340q81 44 113 44h19q17 0 25 -44l-94 -365h220q88 195 101 195h31q76 -15 76 -76l-32 -144h7q220 -59 220 -101v-19q0 -54 -271 -82q-19 -79 -37 -283q207 -53 207 -88v-7 q0 -25 -220 -44q-45 -185 -151 -264l-57 -19q-69 0 -69 120l6 157h-101l-125 6q-65 -277 -152 -333h-12q-14 0 -19 31q31 111 31 321q-201 30 -201 76zM438 431l195 -12l63 258h-6l-189 19q-63 -181 -63 -265z" />
<glyph unicode="$" horiz-adv-x="1100" d="M40 555v28q0 232 345 232h49v7q-98 73 -98 127q0 40 70 99q-28 161 -28 274v22l21 21h7q83 0 106 -233l70 36l-14 183v21q5 42 21 42h7q74 0 106 -204l35 7h28q190 0 190 -176v-42q0 -100 -176 -148v-7q268 -23 268 -155v-36q0 -168 -204 -309l-127 -43 q-19 -218 -70 -218h-14q-26 0 -43 204l-35 -7h-28q0 -205 -63 -246h-22q-23 0 -49 246q-259 0 -338 190zM526 766l63 -35v7q-1 16 -63 42v-14z" />
<glyph unicode="%" horiz-adv-x="1200" d="M47 197v25q0 118 323 354l355 423q151 133 261 143q25 -9 37 -31v-6q0 -87 -305 -442q-172 -254 -317 -391q-167 -106 -304 -106q-34 0 -50 31zM233 1080v19q48 155 150 217q79 56 130 56q100 -161 100 -298q0 -131 -212 -131q-122 0 -168 137zM550 172v25q0 142 187 218 q118 68 180 68q89 0 187 -280l6 -31v-31q0 -103 -199 -124h-93q-232 0 -268 155z" />
<glyph unicode="&#x26;" horiz-adv-x="800" d="M40 628v48q0 48 88 252q0 132 372 192l36 4q-32 82 -32 132v4q6 40 52 40h72q99 0 116 -260v-28q0 -67 -116 -216l-20 -12h-20q-19 0 -40 124l-24 4h-136q-132 0 -132 -76q0 -124 160 -124l220 8q66 0 88 -64l12 -60v-4q0 -68 -104 -68h-12l-324 28q-84 0 -96 -64v-4 q0 -87 284 -108h80l32 -4l-12 108v20l8 8h16q44 -23 68 -108q64 -236 64 -296q-38 -100 -84 -100h-12q-26 0 -32 96h-12q-121 0 -288 104q-272 194 -272 424z" />
<glyph unicode="'" horiz-adv-x="440" d="M16 1324v44q0 83 116 124l68 8h44q110 0 148 -108q8 -16 8 -44v-16q0 -69 -112 -144l-80 -76h-4q32 50 32 124h-4l-56 -4q-123 0 -160 92zM184 1088v4l12 12v-4z" />
<glyph unicode="(" horiz-adv-x="758" d="M80 549v44q0 257 204 469q188 138 326 138h38q64 0 72 -55v-17q0 -93 -348 -309q-82 -75 -82 -149q0 -93 248 -320q72 -92 72 -165q-18 -105 -89 -105h-33q-124 15 -364 320q-44 92 -44 149z" />
<glyph unicode=")" horiz-adv-x="758" d="M7 1011v25q10 65 52 65h30q232 0 456 -155q116 -107 116 -181q39 -203 39 -288v-43q0 -205 -215 -297q-51 -17 -82 -17h-47q-132 0 -185 103v17q0 70 241 108q116 28 137 69q39 58 39 155v34q0 129 -95 176q0 19 -374 52q-112 77 -112 177z" />
<glyph unicode="*" horiz-adv-x="700" d="M108 1454v24q15 28 80 28h72l44 92l40 44q42 0 92 -124q24 -12 76 -12h60q22 0 28 -16v-16q-33 -39 -104 -64l-4 -4v-4q68 -83 68 -112v-4q0 -13 -52 -16h-16q-61 0 -108 92q-87 -76 -160 -76h-8q-56 0 -56 56v8q0 23 40 56q-88 27 -92 48z" />
<glyph unicode="+" d="M134 764v16q21 88 80 88h4q41 0 156 -28v4q-16 29 -16 64v16q0 172 80 228h36q107 0 140 -84q8 -16 8 -44v-4q0 -43 -32 -164v-8q0 -9 20 -12l128 16q104 -17 104 -64v-12q0 -40 -84 -84q-160 -3 -160 -20q16 -40 24 -120q0 -106 -60 -144l-32 -8h-24q-124 37 -124 72 q-44 41 -44 180l12 32h-4q-196 15 -196 48q-10 0 -16 32z" />
<glyph unicode="," horiz-adv-x="557" d="M128 -129q39 0 104 140q-39 0 -56 24q0 120 100 212h4q95 0 120 -148v-40q0 -103 -96 -164q-106 -32 -176 -32v8z" />
<glyph unicode="-" horiz-adv-x="837" d="M100 536v8q0 80 292 104h32q267 0 356 -80v-12q-36 -56 -264 -56h-224q-192 4 -192 36z" />
<glyph unicode="." horiz-adv-x="557" d="M68 144v60q0 27 32 56l-4 4v4q0 21 64 32h12q123 0 180 -72q48 -43 48 -68v-16q-9 -144 -60 -144h-72q-92 0 -184 84q-16 26 -16 60z" />
<glyph unicode="/" horiz-adv-x="569" d="M0 82v32q31 253 360 680q98 118 188 212q0 40 32 40h8q48 0 64 -80v-20q0 -88 -256 -436q-108 -187 -240 -368q-82 -96 -116 -96h-8q-32 0 -32 36z" />
<glyph unicode="0" horiz-adv-x="1053" d="M-252 292v36q0 76 108 112h20q104 0 124 -132q0 -84 -104 -120h-28q-92 0 -120 104zM-68 72v16q0 44 68 56q60 -16 60 -56h4q37 64 112 64q83 0 120 -100v-32q0 -92 -104 -120h-24q-106 0 -124 128q-21 -15 -48 -20q-64 13 -64 64zM-4 568q0 65 48 188q-12 23 -12 48 q0 100 124 116h8l4 -4h4q61 56 96 56l-4 20q0 38 140 44q188 0 464 -84q100 -85 100 -140q38 -73 60 -188h20q52 -15 52 -52v-20q-16 -56 -56 -56v-36q16 -21 16 -44v-4l-28 -56q0 -80 -160 -208q-6 -76 -72 -76q-13 0 -48 24q-85 -24 -148 -24h-20l-16 -4l-80 8 q16 -18 16 -36q0 -17 -28 -32h-8q-40 8 -40 40q8 28 24 28v8q-130 17 -272 120q-184 156 -184 364zM32 988v16q0 44 68 56q52 0 64 -72q-18 -64 -64 -64q-68 10 -68 64zM84 484l12 -12h8q14 0 60 48q141 80 256 80v-4l-4 -16v-36l-4 -40q0 -144 108 -304q50 -56 68 -56h8 q16 7 16 28q0 12 -72 76q-80 137 -80 280q0 80 12 80h88q211 0 272 -104q0 -60 32 -60q20 7 20 24q0 140 -228 180l-104 8l-80 -4q8 78 96 172q8 0 8 20t-24 20t-96 -108l-36 -116q-236 -32 -236 -56q-26 0 -100 -80v-20zM224 1164q0 48 64 60h16q52 -13 52 -60v-16 q0 -45 -68 -56q-52 0 -64 72zM928 1016q12 64 56 64h20q42 0 56 -64q-17 -64 -60 -64h-12q-47 0 -60 64z" />
<glyph unicode="1" horiz-adv-x="600" d="M-150 416v16q14 24 36 24t36 -28q0 -44 -36 -44h-12q-24 10 -24 32zM-118 508q0 51 72 64l16 -4v4q16 140 128 140q124 -23 124 -120l4 -4v-8q64 -16 64 -60v-12q0 -48 -64 -60h-12q-15 0 -52 28q-24 -15 -64 -20q-48 5 -84 32q-19 -48 -56 -48h-20q-43 0 -56 68zM18 276 q0 74 96 88q24 0 64 -28q80 0 80 -68q0 -51 -68 -64h-12l-4 4h-4q-18 -24 -52 -24h-16q-69 0 -84 92zM58 88v4q0 58 196 120q72 36 72 172v236q0 23 -104 152q-36 65 -36 124v24q1 48 8 48l-8 24q0 34 36 64q-88 30 -88 120q0 107 128 124q90 0 124 -104v-16q0 -34 -12 -64 q160 -52 160 -196q0 -37 -44 -248q-12 -45 -12 -88v-44l20 4h16q52 -13 52 -52v-16q0 -42 -60 -52q-23 0 -40 16l-48 -224h20q128 0 152 -52v-8q0 -68 -200 -144l-76 -12h-28q-205 19 -224 84zM346 1392q15 60 56 60h20q43 0 56 -64q0 -54 -72 -64q-46 0 -60 68zM498 680 q17 60 56 60h20q56 -16 56 -56v-20q0 -42 -64 -56q-60 0 -68 72zM522 1160q0 52 68 64q64 -12 64 -56v-20q-16 -56 -56 -56h-16q-46 0 -60 68z" />
<glyph unicode="2" horiz-adv-x="700" d="M-268 -73q0 46 72 64q54 0 76 -68v-4q-16 -76 -64 -76h-24q-50 10 -60 60v24zM-100 467v16q0 42 64 60q68 -13 68 -68q-11 -68 -68 -68q-64 17 -64 60zM20 67q0 86 72 148l-4 28v24q0 73 100 112h40q33 0 64 -28q108 71 108 152v16q0 62 -84 120h-8q-81 -28 -120 -28 q-78 0 -112 88q-12 39 -16 104q0 177 84 240q74 38 116 40v4q-54 0 -96 96l-4 32q0 52 48 104q-40 50 -40 104q0 73 88 120q16 8 44 8h20q81 0 120 -112v-24q0 -55 -48 -104q40 -37 40 -92v-8q0 -82 -84 -120v-8h16q115 0 236 -116q48 -71 48 -136v-16q0 -97 -76 -232 q87 0 124 -88l4 -24v-28q0 -59 -72 -100q-19 -12 -52 -12h-12q-75 0 -108 92q-70 -66 -132 -112h8q77 20 136 20q88 -11 88 -76v-4q0 -121 -264 -244q-88 -32 -148 -32h-32q-82 0 -88 92h-4zM452 -49q2 8 20 16q18 -8 20 -16q0 -21 -12 -24h-16q-12 4 -12 24z" />
<glyph unicode="3" horiz-adv-x="750" d="M-200 528v24q0 44 72 64q76 -19 76 -76q-19 -76 -76 -76q-72 20 -72 64zM-92 1264v24q0 73 100 112h40q75 0 112 -104v-28q0 -38 -36 -80v-4q75 0 372 -104q208 -124 208 -368q0 -177 -104 -364q0 -28 -56 -72q-130 -144 -264 -144h-24q-119 0 -204 84q-52 89 -52 220 q31 184 148 184l84 -16q-40 40 -40 72v24q0 53 84 60q48 0 48 12q-46 28 -80 28q-39 -20 -84 -20q-96 0 -148 172l-8 76v48l12 76q-81 0 -108 112zM28 20q18 56 56 56h4q36 0 60 -36l24 8h8l24 -24v-12q0 -22 -20 -32h-16l-24 8q-23 -32 -44 -32h-20q-39 0 -52 64zM692 540 q17 64 60 64h8q64 -12 64 -56v-20q-16 -56 -56 -56h-16q-46 0 -60 68z" />
<glyph unicode="4" d="M-100 927v16q0 81 88 112l24 4q120 -23 120 -120v-8l-4 -12l252 188l204 24h4q132 0 132 -60q24 -32 24 -132v-36q0 -98 -28 -256q0 -19 40 -44q56 -76 56 -156q-5 -36 -36 -36h-4q-16 0 -152 48v-4q20 -25 20 -60q-22 -84 -76 -84h-20q-29 -128 -100 -128h-12 q-100 14 -100 92v40q21 58 76 152l8 28q0 16 -40 24l-28 -4h-108q-68 0 -148 16q0 -7 -36 -16q-68 14 -68 68l4 28q-20 36 -20 80q0 61 56 132v4l-4 -4h-4q-120 22 -120 104zM156 643q0 -64 20 -64h12l16 16v24l-4 36l36 136l32 48q-8 24 -16 24h-16q-60 -47 -60 -140 q-20 -37 -20 -80zM196 1287v12q16 56 56 56h20q42 0 56 -64q0 -57 -72 -68q-48 0 -60 64zM324 -169q11 64 64 64q60 0 68 -72q-16 -60 -56 -60h-20q-56 16 -56 56v12zM812 159q0 33 44 36q18 -7 28 -24v-16q0 -32 -32 -32h-4q-36 5 -36 36zM828 1203q0 45 64 56 q56 -13 56 -52v-20q0 -37 -60 -52q-53 0 -60 68z" />
<glyph unicode="5" horiz-adv-x="870" d="M-16 456v28q16 148 108 148h12l180 -8q64 10 64 28v4q-40 3 -40 36l20 32q-108 21 -108 76v16q101 328 192 328q45 0 288 56l36 4q124 0 124 -96q0 -104 -96 -188q-81 -44 -228 -44q-52 -15 -52 -48q-9 0 -12 -72v-16q3 -7 128 -48q68 -47 68 -96v-4q0 -150 -252 -292h-4 v-4q79 0 116 -100v-28q0 -25 -12 -56l24 8h4q56 0 64 -68q-17 -52 -60 -52h-12q-42 0 -52 60v12h-4q-36 -28 -80 -28q-104 0 -124 128q0 42 32 84q-57 -16 -112 -16q-3 -40 -36 -40t-36 44l4 4v4q-57 0 -124 112q-20 51 -20 92zM360 1320q23 124 124 124h8q86 0 120 -96 l4 -28l-12 -52q56 0 56 -40q-12 -36 -40 -36q-40 5 -40 40q-42 -40 -96 -40q-98 0 -124 128zM720 396q0 48 64 60h12q56 -16 56 -56v-20q0 -40 -60 -56h-4q-60 0 -68 72zM768 848q0 46 68 60q64 -11 64 -56v-20q-16 -56 -56 -56h-16q-60 13 -60 72z" />
<glyph unicode="6" horiz-adv-x="800" d="M-100 1204v16q14 24 36 24h4q36 -5 36 -36v-4q-5 -36 -36 -36h-4q-36 5 -36 36zM40 352v8q0 175 72 364l8 36q-32 23 -32 48v12q0 38 44 64q30 252 204 252q160 -24 160 -148q0 -41 -40 -104q27 0 36 -40v-8q0 -44 -56 -44v-4q178 -37 276 -132q44 -56 44 -108v-8 q0 -168 -324 -308q-106 -32 -180 -32q-160 0 -212 152zM184 500q16 0 44 -20q38 24 80 32l4 -4v-48q0 -124 36 -124q20 6 20 28l-16 72q0 80 24 80q29 36 44 36v4q-48 3 -48 12q17 46 48 60q16 0 16 24q0 11 -20 20q-62 0 -96 -112q-59 0 -136 -56v-4zM404 800l20 -8h4v4 l-24 16v-12zM784 -20q19 132 132 132q100 0 124 -128q-22 -124 -124 -124h-8q-86 0 -120 96zM896 544q0 48 64 60h12q56 -16 56 -56v-20q0 -47 -72 -56q-48 0 -60 72zM920 1108q0 52 68 64q68 -13 68 -64q-12 -68 -68 -68q-68 12 -68 68zM1024 200v16q0 9 20 12 q16 -6 16 -12v-16q-4 -12 -24 -12z" />
<glyph unicode="7" horiz-adv-x="653" d="M-200 480v24l24 24h12q32 0 36 -40q-10 -32 -36 -32h-12zM12 700v12q0 92 96 140l28 4q16 0 172 -60v4q36 64 36 104t-64 40h-24q-180 0 -180 32q-28 19 -28 60q0 153 212 240q16 24 40 24h20l40 -12h76l24 4q144 0 144 -128v-4l-52 -400h40q48 0 48 -84v-48l-12 -12 h-108q-45 -164 -92 -232h4q17 28 52 28q64 -17 64 -60v-16q0 -47 -72 -60q-60 21 -60 60v8l4 24v4h-4q-43 -75 -132 -116l-40 -12v-4q112 -29 112 -108l4 -24q0 -82 -100 -120h-40q-59 0 -100 72q-12 20 -12 52q0 89 88 120v4l-28 -4q-80 0 -80 32q0 102 136 384 q-98 24 -196 32zM584 44l12 12h8l8 -8v-8l-8 -8h-8z" />
<glyph unicode="8" horiz-adv-x="770" d="M-100 -20l8 8h8l8 -8v-8l-8 -8h-8l-8 8v8zM-40 864v8q0 51 64 60q56 -14 56 -60v-8q0 -42 -60 -56q-60 14 -60 56zM4 472v24q1 8 40 32q0 98 120 160l28 4q-68 38 -68 128v16q0 115 12 180q-16 10 -16 48q25 60 68 60q74 108 256 108q166 0 208 -244v-76 q0 -147 -104 -192q-5 0 -8 -24q91 -24 136 -84q68 -96 68 -196v-28q0 -291 -116 -360l-44 -12h-16q-65 0 -152 24h-4v-4q19 0 24 -32v-12l-24 -24h-24q-24 14 -24 36q0 32 40 36v4q-58 0 -220 84q-89 59 -128 192l-24 128q-12 0 -28 24zM200 432q0 -11 20 -20l60 20h20 q23 0 48 -16q-52 -85 -52 -216l16 -12h4q24 0 24 40q0 86 52 164q137 -96 192 -148q-20 -24 -20 -36q8 -18 16 -20h16q36 33 36 56v4q0 35 -156 140q-56 39 -56 48q42 68 144 100l4 4v24l-12 12h-8q-77 0 -168 -116h-8q-58 20 -84 20q-73 0 -88 -48zM268 952q8 -16 24 -16 l44 20l4 -4v-4q0 -80 20 -80h8q20 0 24 16l-8 76h8q48 0 76 -48l16 -4q20 0 20 24q0 51 -104 76v4q0 8 24 16l4 20q-6 20 -24 20q-31 0 -64 -64q-37 0 -72 -36v-16zM604 1428q18 72 64 72h24q50 -10 60 -60v-24q-18 -64 -76 -64t-72 76z" />
<glyph unicode="9" d="M-144 520v28q0 86 96 120l24 4q92 0 128 -100l4 -36q0 -77 -100 -116l-32 -4q-84 0 -120 104zM-128 1324v4q11 72 68 72h12q57 0 68 -72q-12 -76 -76 -76q-72 17 -72 72zM-8 860q0 146 188 252l24 8q-36 22 -36 32v12q6 36 36 36q27 -7 36 -28v-12l-8 -24h8q64 20 116 20 h136l124 -12l20 8v4q-28 29 -28 48v8q10 64 64 64q64 -9 64 -64v-8q0 -18 -24 -44q43 0 88 -68q10 -52 44 -112q32 -63 60 -212l28 4h12q56 -16 56 -56v-20q0 -44 -64 -56h-12l-4 4h-4v-60l4 -20l-4 -24v-20q0 -282 -112 -464q14 0 24 -44v-4q-11 -64 -56 -64h-16 q-19 0 -48 28q-200 -48 -316 -48h-28q-43 0 -68 36v24q8 41 144 212q68 119 68 212q0 92 -40 92q-77 33 -288 92q-188 73 -188 268zM-4 132v20q16 56 56 56h20q47 0 56 -72q0 -43 -64 -60h-8q-60 16 -60 56zM80 852q8 -18 16 -20h8q84 40 104 40h8l-4 -32q9 -140 28 -140h16 q8 2 16 20l-12 112v36l8 8q123 -2 168 -80q0 -20 24 -20h4l16 16v12q0 77 -184 120h-20v4q0 35 60 72l4 12q-8 18 -16 20h-8q-59 0 -96 -112q-68 0 -136 -56zM364 408q7 18 24 28h16q32 0 32 -32v-4q0 -32 -40 -36q-28 0 -32 44z" />
<glyph unicode=":" horiz-adv-x="557" d="M136 636v24q0 57 68 108l-4 4v4q16 24 40 24h8q144 -22 144 -72l4 -44q0 -86 -60 -104q-50 -12 -88 -12h-16q-96 12 -96 68zM152 80v64q0 120 52 160v8q160 0 196 -124v-28q0 -90 -108 -128h-52q-88 25 -88 48z" />
<glyph unicode=";" horiz-adv-x="557" d="M133 88v64q0 60 72 68v8l48 -4h32q52 0 76 -132v-36q0 -142 -80 -176l-52 -36h-4q56 54 56 92v16q0 42 -116 84q-32 21 -32 52zM159 716v4q0 85 88 116h20q96 -35 96 -92q-14 -134 -72 -144h-16q-116 0 -116 116z" />
<glyph unicode="&#x3c;" d="M164 456v24q0 88 320 280q78 56 144 56h32q140 -28 140 -80v-16q-29 -55 -228 -104q-220 -39 -220 -104v-4q0 -68 268 -68q140 -22 140 -92v-4q0 -33 -64 -44h-84q-212 0 -424 112q-24 29 -24 44z" />
<glyph unicode="=" d="M160 448v4q41 108 180 108q496 -75 496 -124q0 -69 -120 -96l-84 -8h-64q-234 0 -400 92zM220 740q0 51 196 60h72q87 0 336 -92l20 -20v-8q0 -34 -164 -44q-381 0 -456 92z" />
<glyph unicode="&#x3e;" d="M200 736v12q11 52 68 52h48q149 0 328 -136q104 -106 104 -164v-20q0 -83 -316 -140h-48q-68 8 -68 64q0 72 108 84q200 0 200 64v8q0 52 -136 92h-80q-204 11 -204 68z" />
<glyph unicode="?" horiz-adv-x="748" d="M0 1012v24q0 87 92 112l32 4h36q176 0 496 -196q96 -78 96 -152v-12q0 -113 -176 -176q-148 -15 -188 -32q-44 -33 -44 -96l28 -188v-8q0 -76 -100 -76q-56 0 -80 96l-4 44v20q0 212 124 288l16 4l148 -8q100 14 100 92l4 24v4q0 132 -208 208l-52 4q-80 -11 -80 -60 q0 -40 136 -60q36 -24 36 -48q0 -33 -56 -48q-356 69 -356 236zM204 60q0 73 64 96l36 4h8q61 0 84 -36v-36q0 -64 -44 -84l-20 -4h-32q-96 11 -96 60z" />
<glyph unicode="@" horiz-adv-x="1000" d="M0 448v48q0 268 188 468q109 100 256 128l60 8h52q276 0 412 -280q40 -84 40 -308q0 -222 -188 -272q-55 -16 -108 -16q-111 0 -276 80q-183 0 -260 184l-8 60q0 110 92 140h48q86 0 208 -56l12 36l-12 8h-20q-204 0 -204 84q0 68 72 100q37 12 68 12h120l24 -4l136 40 q48 0 48 -44v-4q-44 -31 -44 -60l-4 -16l24 -288v-12q0 -85 -72 -140h68q52 0 124 40q20 21 36 152q0 341 -204 416q-56 32 -156 32q-218 0 -340 -208q-76 -136 -76 -308q16 -204 100 -204l64 4q44 -19 44 -52v-12q0 -56 -112 -56h-8q-115 0 -180 164q-24 67 -24 136z M224 512l12 -12q14 0 20 28h4l44 -36h20l4 12l-40 44q48 17 48 32l-12 12v4q-35 -16 -52 -16v52l-20 4q-12 -15 -12 -36l4 -44l-20 -24v-20z" />
<glyph unicode="A" horiz-adv-x="857" d="M-156 68q0 53 84 68q0 12 36 20h12q64 -8 64 -64v-8q-15 -64 -84 -64q0 -12 -36 -20h-12q-54 0 -64 68zM-156 228v20q0 45 64 56q59 0 68 -72q0 -57 -96 -64q-19 0 -36 60zM-112 864v8q0 22 24 36h16q32 0 32 -32v-16q-14 -24 -40 -24q-23 8 -32 28zM-16 516v24 q0 272 140 412q-24 18 -24 48q0 25 32 56q-80 33 -80 120q0 83 100 120h40q59 0 100 -72q12 -19 12 -52q0 -91 -96 -124l12 -12q102 68 196 68h64q0 49 68 60q64 0 72 -76l-4 -16q0 -14 76 -72q0 -9 44 -56q0 23 52 28q46 0 56 -68q0 -44 -68 -56q32 -99 32 -204v-4h4 q29 16 64 16q83 0 120 -88l4 -24v-28q0 -59 -72 -100q-19 -12 -52 -12h-12q-45 0 -92 52q-15 -55 -72 -144q108 -23 108 -108q0 -68 -92 -84h-4q-79 0 -88 116v4h-4l-24 -4h-12q-96 0 -164 208l-8 84h-4q0 -187 -64 -356q-33 -44 -96 -44h-24q-160 0 -232 308zM304 980 l108 -84v-4q-30 -15 -76 -120l-12 -52q8 -20 24 -20q21 0 36 68q37 80 56 80q40 -93 40 -136l-8 -32q0 -20 24 -20q25 0 32 40v4q0 34 -40 164q25 16 96 20l8 24q-6 20 -28 20h-16l-92 -20q-28 40 -128 100q-24 0 -24 -28v-4zM412 540h4v24h-4v-24zM476 112q0 51 68 64 q49 0 64 -68q0 -51 -68 -64q-51 0 -64 68zM692 1140v20q0 45 64 56h8q46 0 60 -64q-14 -68 -60 -68h-8q-64 12 -64 56zM820 1228v8l8 8h8l8 -8v-8l-8 -8h-8zM864 256v12q0 38 56 52q64 -11 64 -56v-4q-9 -64 -64 -64q-56 15 -56 60z" />
<glyph unicode="B" horiz-adv-x="900" d="M-168 1048v20q0 38 56 52q58 0 64 -68q0 -41 -60 -56q-60 15 -60 52zM-140 652v32q0 102 124 120h24q87 452 232 452h8q52 0 136 -84q136 0 312 -108q112 -98 112 -192v-48q-6 -84 -64 -84q-92 -24 -172 -24v-4q218 0 248 -84q12 -32 12 -60q0 -153 -92 -292 q-28 -28 -88 -68q-9 -68 -64 -68h-4q-35 0 -64 40l-48 -4q-218 0 -400 160l-12 16l-20 -4h-16q-44 0 -52 60q0 26 24 52l-12 92q-88 0 -124 100zM-72 1376v8l8 8h8l8 -8v-8l-8 -8h-8zM76 1368q0 16 24 32h16q32 0 32 -32v-4q0 -32 -40 -36q-32 11 -32 40zM100 -124 q11 32 40 32q18 -7 28 -24v-24q-10 -20 -32 -20h-12q-24 14 -24 36zM128 76v20q0 56 104 56q24 -8 24 -32v-24q0 -60 -52 -76h-12q-64 11 -64 56zM400 1252v12l12 12h12l12 -12v-12l-12 -12h-12zM484 312q0 -16 20 -16v-4q111 0 156 52q58 67 72 100q11 0 20 136 q0 12 -24 24q-24 0 -24 -28v-32q0 -109 -116 -196q-104 0 -104 -32v-4zM556 1248q0 56 72 68q51 0 64 -72q-16 -60 -56 -60h-24q-36 0 -56 64zM620 964q0 -18 44 -24v-112q-12 -12 -12 -28h-4q6 -24 28 -24q36 17 36 76v48q0 68 -36 80l-32 12q-24 0 -24 -28zM852 476v16 q5 54 60 60h16q44 0 56 -68q0 -50 -68 -64q-64 15 -64 56zM928 1192q7 18 24 28h16q32 0 32 -32v-4q-5 -36 -36 -36q-33 0 -36 44z" />
<glyph unicode="C" horiz-adv-x="800" d="M-170 160v15q0 70 73 112q26 14 62 14q77 0 120 -84q8 -25 8 -39v-14q0 -81 -90 -121q-22 -6 -43 -6q-82 0 -122 85q-8 22 -8 38zM1 686q0 152 280 268q96 30 110 30v2q-10 11 -10 25q8 36 37 36h3q35 -7 35 -33v-8l-4 -14h2q188 0 263 -168q21 -59 21 -122v-2 q0 -52 -145 -79h-4l3 -12v-7q115 -38 180 -157q30 -59 30 -109v-1q0 -130 -172 -189q-21 -7 -81 -13q-44 -71 -111 -71h-9q-85 0 -124 92q0 17 -28 21q-123 46 -171 145q-40 76 -84 273q-21 61 -21 93zM216 1168v4q8 35 35 35h5q35 -7 35 -35v-1q-5 -38 -35 -38h-5 q-35 7 -35 35zM250 -76q0 75 79 113q21 8 44 8q74 0 111 -78q8 -18 8 -36v-16q0 -57 -60 -97q-26 -16 -57 -16h-7q-80 0 -114 89zM258 -244q0 31 39 37q35 -9 35 -35v-6q0 -29 -40 -35q-26 0 -34 36v3zM345 -291q0 43 50 62q13 1 13 3q55 0 73 -57v-14q0 -48 -52 -65l-15 -2 h-3q-49 0 -66 56v17zM565 21v5q7 35 35 35h4q35 -8 35 -35v-5q-7 -35 -35 -35h-4q-35 7 -35 35zM753 1364v3q0 49 53 65l14 2h3q48 0 65 -53l2 -14v-3q0 -48 -53 -65l-14 -1h-6q-44 0 -62 52zM793 -242q0 29 38 36q28 0 38 -34v-2q-6 -40 -40 -40q-30 0 -36 40z" />
<glyph unicode="D" horiz-adv-x="1100" d="M-252 -64q5 36 36 36h8q28 -14 28 -40q0 -16 -24 -32h-16q-22 0 -32 20v16zM-208 288q15 32 40 32q36 -7 36 -36v-8q0 -36 -44 -36q-28 0 -32 48zM-208 1052v28q0 107 128 124q84 0 120 -96l4 -36q0 -79 -92 -116l-32 -4h-16q-73 0 -112 100zM-184 1588v8q13 52 52 52h16 q52 -13 52 -52v-8q-7 -60 -60 -60q-60 7 -60 60zM-152 724q8 23 28 32h20q28 -21 28 -36q-7 -27 -28 -36h-12q-30 0 -36 40zM8 340q7 8 40 8q-32 103 -32 256v88q0 289 128 456q60 68 164 68h20q244 0 520 -304q63 -83 112 -176l20 8q36 -12 36 -40l-8 -24q92 -34 92 -116 v-8q0 -83 -88 -116q0 -66 -84 -168v-4q20 -3 20 -32q-8 -36 -36 -36q-19 0 -36 24q-152 -104 -324 -104q-154 0 -444 104q-100 81 -100 116zM204 1536q0 48 64 60h8q46 0 60 -56v-20q0 -47 -72 -56q-48 0 -60 72zM552 308q8 -24 32 -24h116l8 -8v-28l-12 -16v-20 q4 -12 24 -12h4q28 0 28 28v60q124 123 124 144q-8 18 -16 20h-16l-96 -100h-4q-40 120 -112 120l-16 -12v-12q80 -90 80 -112l-4 -4h-108q-24 0 -32 -24zM824 16q10 84 64 84h8q51 0 64 -72q-17 -60 -56 -60h-20q-60 14 -60 48zM952 1024v8q0 42 60 56q60 -14 60 -56v-8 q0 -51 -64 -60q-56 14 -56 60z" />
<glyph unicode="E" horiz-adv-x="1000" d="M-200 196v32q0 147 172 228l60 12h4q-40 103 -40 176q0 72 64 156l-4 56q13 148 96 148h16q34 0 52 -24v-12l-4 -20q95 66 244 128q102 45 352 64q92 0 116 -68q44 -121 44 -192q0 -121 -104 -160q-8 -3 -25 -3q-31 -1 -91 9q-94 14 -224 26h-12v-4l244 -40 q64 -21 64 -76v-16q28 24 56 24h8q55 0 68 -80q-21 -68 -68 -68h-8q-72 0 -72 88q0 -18 -120 -32h-109q181 -29 181 -112l4 -48q0 -85 -96 -124q-57 -16 -100 -16q-222 4 -252 12l4 -52q0 -163 -176 -244q-37 -12 -68 -12h-40q-127 0 -216 152q-20 51 -20 92zM-152 588v20 q0 47 68 56q60 -16 60 -60v-4q-11 -64 -56 -64h-20q-52 15 -52 52zM-132 1072v20q0 68 92 84q88 -17 88 -88v-8q-16 -84 -80 -84h-20q-80 19 -80 76zM244 1124v8q5 54 60 60h16q43 0 56 -64q0 -57 -72 -68q-48 0 -60 64zM572 -48q0 22 24 36h24l24 -24v-12q-5 -36 -36 -36 q-36 5 -36 36zM588 148q0 26 36 32q32 0 32 -32v-12q-14 -24 -36 -24q-26 0 -32 36zM728 1340v12q0 61 76 84h20q84 -17 84 -84q-10 -96 -88 -96h-4q-88 17 -88 84zM788 -76q14 24 36 24q36 -9 36 -36q-5 -36 -36 -36h-4q-32 0 -32 32v16zM888 1584v8l8 8h8l12 -12l-12 -12 h-8zM908 412q0 16 24 32h12q36 -5 36 -36q0 -26 -36 -32q-36 5 -36 36zM1064 776q0 81 100 116l32 4q116 -28 116 -112v-28q-28 -108 -108 -108h-28q-108 27 -108 108z" />
<glyph unicode="F" horiz-adv-x="1133" d="M-347 1213v17q0 60 62 102q34 19 66 19q76 0 118 -74q12 -26 12 -54v-3q0 -76 -76 -116q-27 -12 -54 -12q-87 0 -125 95zM-316 114v6q0 68 75 105q19 9 44 9q85 0 116 -94l2 -19v-12q0 -74 -86 -109l-26 -3h-12q-61 0 -101 65q-12 24 -12 52zM-169 488v2q11 64 62 64h7 q42 0 61 -50l2 -18q0 -42 -52 -62l-12 -2q-68 10 -68 66zM-24 837q0 71 101 151l24 10q-22 23 -22 42v10q0 51 64 59q39 0 57 -48l1 -16q0 -32 -36 -55q33 -34 33 -106h2q0 30 31 62q285 172 527 172q131 0 232 -52q0 63 59 79l19 2q50 0 71 -59l2 -19q0 -50 -59 -71l-9 -1 v-2q26 -36 26 -76v-7q0 -105 -188 -182q-70 -24 -90 -24v-2q32 0 142 -43q93 -47 93 -97v-14q0 -47 -97 -117q-100 -63 -157 -63q-56 0 -180 68l-12 -2q24 -64 24 -102v-9q0 -98 -97 -181q-73 -49 -161 -49h-21q-52 0 -121 23q-12 -7 -27 -7h-9q-42 0 -62 59 q-123 83 -123 218l-19 294l5 121v2h-2q0 -6 -3 -6q-18 13 -18 38zM-10 -97q0 16 21 18q17 -4 17 -18v-3q-3 -17 -17 -17h-3q-16 0 -18 20zM172 -131q11 64 64 64l2 1q65 -11 65 -64v-8q0 -35 -43 -56q-7 -3 -19 -3h-10q-36 0 -56 47zM238 1197q0 45 53 64l14 2 q68 -10 68 -67v-6q0 -43 -57 -62h-16q-21 0 -43 21q-19 20 -19 48zM250 1458v7q7 35 33 35h7q32 -6 32 -33v-9q0 -23 -34 -31h-4q-34 8 -34 31zM464 21v16q9 62 70 62q39 0 58 -49l4 -13q-10 -70 -69 -70q-44 0 -63 54zM656 249q0 43 52 70l23 3h1q52 0 73 -55l4 -25 q0 -32 -40 -62q-21 -9 -35 -9q-54 0 -74 56zM732 1244v7q8 33 33 33h5q35 -7 35 -35v-3q-7 -35 -35 -35h-5q-33 7 -33 33zM751 -7q0 22 35 31q35 -6 35 -34q-7 -35 -30 -35h-10q-25 0 -30 38zM765 78v12q0 36 52 57h16q46 0 62 -53l2 -12q0 -43 -49 -63l-19 -3 q-64 12 -64 62zM788 708h5v1h-5v-1zM987 362v10q0 56 64 73l10 2q56 0 76 -63l2 -15q0 -50 -59 -73l-15 -2q-62 0 -78 68zM988 121q9 38 37 38q38 -7 38 -36v-2q-6 -36 -36 -36h-2q-37 8 -37 36zM1033 1249q0 33 40 56q15 6 28 6q64 -11 64 -64v-5q0 -45 -54 -62h-12 q-58 0 -66 69zM1103 644q0 25 34 33h4q30 0 36 -38q-10 -35 -31 -35h-12q-26 0 -31 40zM1172 1426v3q8 35 31 35h9q32 -6 32 -33v-7q0 -24 -31 -33h-7q-34 7 -34 35z" />
<glyph unicode="G" horiz-adv-x="1000" d="M0 828v44q0 200 192 280v4q-43 0 -52 60v12q0 45 64 56h4q57 0 64 -72q0 -13 -16 -36q84 18 84 24l-20 68q5 36 36 36h8l4 -4l32 12q80 -12 80 -76l-8 -32h8q230 0 368 -108q18 44 52 44h16q56 -16 56 -56v-16q-16 -56 -56 -56q76 -114 76 -200q0 -135 -156 -180h-48 q-125 0 -180 172q-34 44 -244 44q-184 0 -184 -124q0 -105 92 -192q61 -36 140 -36q112 11 112 60v12q0 8 -32 16q-18 -48 -72 -48q-104 0 -180 132l-4 36v16q0 76 112 88h12q181 0 352 -184q64 -91 64 -160q0 -84 -60 -164l4 -32l-16 -64l4 -16q-8 -64 -28 -64h-40 q-15 0 -56 20q-31 0 -76 32l-56 -4q-203 0 -292 164q-160 261 -160 492zM80 1292q0 26 36 32h4q36 -5 36 -36q0 -27 -40 -36q-27 0 -36 40zM224 88v20q0 42 64 56q64 -17 64 -60v-12q0 -50 -68 -60q-60 16 -60 56zM392 1360q0 22 24 36h16q22 0 32 -24v-12q0 -32 -40 -36 q-26 0 -32 36zM744 76v16q15 24 36 24q23 0 36 -36q0 -21 -24 -36h-16q-32 0 -32 32zM964 24v12q0 36 44 36q28 -13 28 -36v-12l-24 -24h-16q-22 0 -32 24zM996 708q0 16 24 32h16q32 0 32 -32v-16q-14 -24 -40 -24q-32 11 -32 40z" />
<glyph unicode="H" horiz-adv-x="1137" d="M-200 908v24q0 78 108 96q40 0 84 -44h4v4q0 127 100 272q76 76 164 76q130 0 176 -236q8 -20 8 -92v-32q0 -57 -16 -104h4l64 36q24 225 44 296q-64 33 -64 104q25 112 104 112h24q81 0 104 -108q0 -36 24 -36q108 -78 180 -184q216 -333 216 -580v-32q0 -166 -132 -212 l-72 -12q20 -22 20 -48q-14 -56 -60 -56h-8q-39 0 -60 64q-36 0 -92 44q-60 0 -104 28l-4 -4h-4q-31 0 -68 88q-49 366 -68 416q-36 -7 -36 -16q92 -332 92 -500q0 -151 -84 -172h-20q-31 0 -84 20l4 -4v-4q-5 -36 -36 -36h-8l-24 24v8q5 32 24 32v4h-4l-16 -4q-27 0 -36 48 q-14 0 -52 52l-28 -4h-12l-20 20v12l12 32q-160 273 -160 552q-33 -32 -80 -40q-108 21 -108 96zM-128 48v20q0 51 64 60q56 -16 56 -56v-12q0 -50 -84 -60q-17 1 -36 48zM-88 652q7 18 24 28h20l24 -24v-8q0 -32 -32 -32h-4q-32 0 -32 36zM24 1496v28q21 68 68 68h20 q20 0 60 -24q53 0 68 -44v-16q0 -64 -88 -64q-16 -16 -44 -16h-4q-80 16 -80 68zM36 164q0 40 60 56q64 -11 64 -64q0 -49 -68 -60q-44 0 -56 68zM584 68q0 51 72 68q64 -19 64 -60v-20q-16 -56 -56 -56h-20q-45 0 -60 68zM648 1512v8q0 85 100 112h28q70 0 100 -88l4 -28 q0 -82 -92 -112h-36q-80 0 -104 108zM808 76v16q10 48 48 48h12q48 -10 48 -48v-16q0 -34 -52 -48h-4q-52 14 -52 48zM944 1196q22 124 116 124q116 -23 116 -104v-16q0 -77 -80 -108l-64 -24h-8q-49 0 -60 76q-7 0 -20 52zM948 108q16 56 56 56h12q40 0 56 -60 q-12 -60 -60 -60h-12q-44 0 -52 64zM956 204v16q10 20 32 20l24 -4q11 48 48 48h16q52 -13 52 -52v-4q-8 -60 -52 -60h-16q-18 0 -44 24q-11 -20 -32 -20q-28 8 -28 32z" />
<glyph unicode="I" horiz-adv-x="740" d="M-200 616v16l12 12h20l12 -12v-20l-12 -12h-16zM-140 108q0 22 28 36h8q22 0 36 -24v-16q0 -32 -32 -32h-4q-36 5 -36 36zM-76 1160q11 29 60 48l-12 32q12 60 60 60h12q44 -11 44 -36l12 8h16q22 0 32 -20v-20q370 0 452 -132v-32q0 -76 -192 -140l-8 -16l12 -120 l-4 -180q10 -128 76 -128q53 8 172 8q46 0 56 -84v-36q0 -150 -220 -196q24 -26 24 -44v-20q0 -43 -64 -56h-8q-49 0 -60 72l12 40h-28q-100 0 -236 44q-12 -28 -36 -28h-12q-5 -48 -36 -48q-33 0 -40 44q15 32 40 32l12 -4v24l8 12q-80 48 -80 144q6 60 44 60h12l112 -12 q44 4 44 36v360q-20 -12 -40 -12h-8q-47 0 -60 64l4 28q-100 0 -172 248zM-68 892v8q7 16 28 16l12 -16v-12l-12 -12h-12zM-40 64q0 48 64 60q64 -11 64 -56v-20q-15 -52 -52 -52h-20q-47 0 -56 68zM464 820v4q0 23 28 36h4q40 -8 40 -40q0 -23 -36 -36q-36 5 -36 36z M620 668v4q6 36 36 36q36 -12 36 -40q-9 -36 -36 -36q-36 5 -36 36z" />
<glyph unicode="J" horiz-adv-x="900" d="M-20 616v28q0 74 100 108h4l-4 12q15 60 68 60q56 -17 56 -64l-16 -44q40 -31 40 -88q0 -49 -44 -96q74 -64 156 -64h4q135 0 192 152q12 43 12 72l-4 -4h-28l-24 24v12q5 36 36 36l16 -4v4q0 20 -36 20h-88q-92 8 -92 60v16q10 172 80 172l208 16l124 16q111 0 152 -200 q0 -53 -128 -76q-44 -19 -44 -56v-16q24 -120 24 -232v-40q0 -297 -64 -324q-96 -72 -220 -72h-4q-312 0 -436 244l-16 92q0 63 36 144q-60 38 -60 92zM16 -72q0 81 96 120q47 0 64 20h16q36 0 36 -52q40 -39 40 -80v-12q0 -83 -88 -120l-24 -4h-28q-77 0 -112 108v20z M24 1016q24 116 104 116h24q26 0 76 -32q51 0 60 -64q0 -24 -36 -52q-38 -84 -104 -84q12 -17 12 -32q-11 -32 -40 -32h-8l-24 24v16q0 28 20 28v4q-84 30 -84 108zM252 568v8q0 22 24 36h20l24 -24v-20l-24 -24h-20zM488 -72q2 8 20 16q18 -8 20 -16v-12l-12 -12h-16 l-12 12v12zM500 1188v16q15 52 52 52h20q47 0 56 -68q-16 -60 -60 -60h-4q-64 9 -64 60zM560 -56q8 64 64 64h8q60 -13 60 -72q-18 -60 -60 -60h-8q-64 8 -64 64v4zM756 588q0 36 44 36q28 -12 28 -36v-12l-24 -24h-24q-24 14 -24 36zM828 648q0 75 96 112h20q85 0 116 -92 v-36q-21 -104 -120 -104q-92 0 -112 120zM848 132q0 102 132 124q84 0 120 -104v-28q0 -89 -100 -120h-40q-75 0 -108 100z" />
<glyph unicode="K" horiz-adv-x="1233" d="M-100 328v16q5 54 60 60h16q44 0 56 -68q0 -52 -72 -64q-60 17 -60 56zM0 596v8q0 118 32 344l44 84l96 8q168 -42 168 -80q48 -61 48 -148q62 104 316 184l68 12q66 0 104 -136l28 4h16q107 0 124 -128q0 -104 -128 -124q-124 23 -124 116v32q-134 -48 -144 -64 q45 -61 388 -192q172 -100 172 -276v-36q0 -74 -68 -128l8 -24l-4 -16q36 -56 36 -84v-32q0 -73 -100 -112l-32 -4q-114 0 -132 136q0 34 28 76v4h-36q-17 -16 -32 -16q-11 0 -40 20q-133 20 -204 60q-64 49 -140 196l-52 96h-4q-27 -99 -112 -192q-27 -23 -84 -44 q-101 39 -120 84q-120 158 -120 372zM36 -292q0 31 40 36q16 0 32 -24v-16q0 -22 -24 -32h-24q-24 14 -24 36zM88 1220q0 64 100 64q23 -8 32 -28q0 -104 -56 -104h-20q-47 0 -56 68zM260 -188q5 36 36 36q22 0 36 -24v-12q-5 -36 -36 -36q-36 5 -36 36zM344 68v12 q17 60 60 60h20q48 0 60 -64v-16q0 -46 -68 -60h-4q-68 11 -68 68zM480 1340q16 60 56 60h20q56 -14 56 -60v-16q0 -44 -68 -56q-52 0 -64 72zM488 1160v12q0 48 64 60h4q64 -8 64 -64v-4q-10 -64 -60 -64h-4q-54 0 -68 60zM624 -176q16 56 56 56h16q52 0 60 -72 q0 -49 -72 -60q-60 16 -60 56v20zM924 1124v20q26 104 104 104h24q79 0 104 -108v-12q0 -89 -116 -112q-116 23 -116 108zM932 972v16q5 13 32 24q40 -9 40 -40q0 -24 -40 -36q-26 0 -32 36zM1012 920v4q9 68 64 68h4q64 -11 64 -56v-20q0 -44 -64 -56h-8q-60 16 -60 60z M1084 -264q9 60 52 60h20q34 0 52 -56q0 -56 -68 -64q-56 16 -56 56v4zM1184 740v16q16 24 36 24q23 0 36 -36q-9 -40 -40 -40q-26 0 -32 36zM1224 1216v16q0 32 32 32h4q32 0 36 -40q0 -28 -44 -32q-18 7 -28 24zM1264 628v16l12 12h12l12 -12v-16q0 -9 -20 -12 q-16 6 -16 12z" />
<glyph unicode="L" horiz-adv-x="1128" d="M-353 108v24q14 24 36 24q36 0 36 -44q-12 -28 -36 -28q-22 0 -36 24zM-277 16q18 132 132 132h24q21 20 36 20h12q24 -6 24 -44l28 -64q8 -16 8 -44q0 -118 -140 -132q-82 0 -120 100zM-273 1212q24 116 104 116h28q77 0 104 -112q0 -93 -112 -120h-4q-80 0 -116 92z M-265 1052q9 40 40 40q36 -12 36 -40q-13 -36 -40 -36q-23 0 -36 36zM-181 1004v12q0 44 64 56h8q60 -15 60 -60v-4q-11 -68 -60 -68h-8q-64 10 -64 64zM-145 236q15 32 40 32q23 0 36 -36q-5 -36 -36 -36h-4q-30 0 -36 40zM-109 -176q13 52 52 52h16q52 -13 52 -52v-8 q-7 -60 -60 -60h-4q-47 0 -56 60v8zM-69 444q6 17 20 24h12l16 -16v-16l-16 -16h-12q-14 8 -20 24zM-13 824q0 11 24 36q0 216 100 292q39 24 100 24q139 0 196 -120l4 -40q0 -41 -40 -268v-24q9 -68 68 -68h4l312 12q249 0 308 -100q76 -218 76 -272l-4 -28q28 -14 28 -32 q-9 -40 -40 -40q-11 0 -32 20q-46 -44 -320 -160q-148 -52 -244 -52h-4q0 -16 -24 -32h-16q-24 0 -36 32q-248 55 -352 112q-88 60 -88 136l4 296l4 40l-4 56v140q-24 24 -24 40zM27 1316q12 28 36 28h12q24 -10 24 -32v-16q-14 -24 -36 -24q-36 0 -36 44zM307 -264 q11 32 40 32q16 0 32 -24v-16q0 -32 -32 -32h-16q-24 14 -24 40zM915 840q0 86 112 128h28q132 -20 132 -132v-4q0 -93 -104 -132h-36q-90 0 -128 104zM1135 1340q16 60 56 60h20q56 -14 56 -60v-16q0 -44 -68 -56q-51 0 -64 72z" />
<glyph unicode="M" horiz-adv-x="1250" d="M-256 132v24q14 24 36 24q31 0 36 -40q0 -26 -36 -32h-12zM-208 1236v24q15 52 52 52h24q44 0 56 -68q0 -51 -72 -64q-60 16 -60 56zM-172 -284q14 56 60 56h16q43 0 56 -64q0 -57 -72 -68q-48 0 -60 64v12zM-112 1428v28q0 154 176 232q32 12 68 12h32q151 0 232 -180 q0 -16 8 -16q0 13 60 24h24q93 0 116 -128q0 -81 -96 -120l-32 -4h-8q-47 2 -92 48q-74 -144 -236 -144q-154 0 -236 168q-16 40 -16 80zM-104 124v20q46 52 80 52q54 0 64 -72q-18 -64 -64 -64q-43 0 -80 64zM-104 960q0 73 84 120q19 52 64 52q68 0 68 -80q48 44 76 44h36 q86 0 188 -136q40 -59 40 -76h8q0 108 296 204q-52 51 -52 104l4 24q-19 -12 -44 -12q-52 15 -52 52v20q0 38 60 52q60 -12 60 -60q41 48 100 48q87 0 124 -96l4 -24q0 -37 -28 -84q0 -9 76 -64q59 -68 112 -164q19 0 24 -56q104 -225 104 -432q0 -191 -124 -252 q-70 -32 -88 -32l4 -20v-12q-14 -60 -68 -60q48 -41 48 -108q0 -95 -128 -120q-70 0 -116 80q-40 23 -40 52v8q0 46 60 64q0 27 92 52h4l32 -4q-16 21 -16 36v4l4 28q-52 0 -120 108q-33 45 -76 284v32h-4q-16 -176 -64 -176q0 -8 -28 -8h-16q-118 0 -180 124h-8l8 -136 q0 -166 -124 -236l-12 -20q76 -41 76 -120q0 -82 -100 -120l-28 -4q-124 22 -124 124v8q0 86 96 120h16v8q-75 0 -176 116q-52 90 -52 188v116l4 24l-8 44q12 46 28 216l8 28q-132 14 -132 128zM480 80q23 128 128 128h20q84 0 116 -116v-28q0 -95 -132 -120 q-112 0 -132 136zM600 -348l12 12h20l12 -12v-16l-16 -16h-16l-12 12v20zM712 540h4v20h-4v-20zM888 -256q2 8 20 16q18 -8 20 -16q0 -21 -12 -24h-16l-12 12v12zM1192 1340v24q14 24 36 24q26 0 32 -36q-5 -36 -36 -36q-16 0 -32 24zM1232 -136q0 22 20 32h16q22 0 32 -20 v-16q0 -32 -32 -32h-12l-24 24v12z" />
<glyph unicode="N" horiz-adv-x="1067" d="M-132 1667v12q0 33 44 36q24 -18 24 -36q-5 -36 -36 -36q-16 0 -32 24zM-92 179v12q0 32 32 32h4q22 0 32 -20v-16q0 -22 -24 -32h-20zM-16 879v56q0 158 96 184l36 4q67 0 188 -156l4 -4h4q0 27 196 80q98 40 228 56q-12 20 -16 56q-45 -60 -108 -60h-16q-73 0 -112 100 v28q0 107 128 124q81 0 120 -96l4 -28h4q0 10 36 48q-21 0 -32 92q0 63 64 112q2 36 8 36l-4 20v20q0 45 64 56l32 -8l28 4q120 -26 120 -112v-28q0 -46 -60 -96q0 -67 -48 -108q44 -39 44 -108q0 -45 -40 -88v-4q48 -14 48 -68l-8 -36q64 -139 64 -288v-24 q0 -283 -212 -404q-253 -80 -324 -80h-20q-44 0 -44 84v108q-21 0 -32 52q0 35 32 56q0 107 -52 236h-4v-240q0 -74 -36 -88q-52 -64 -124 -64h-16q-98 0 -192 216q-48 232 -48 360zM-16 1235v12q16 56 56 56h20q47 0 56 -72q0 -49 -72 -60q-48 0 -60 64zM116 175 q0 85 92 120l40 4h12q17 0 64 -28q7 16 28 16q32 0 36 -40q0 -15 -28 -28q8 -16 8 -44v-4q0 -107 -128 -124q-87 0 -120 96zM136 -157q0 32 32 32q36 -5 36 -36q0 -26 -36 -32q-22 0 -32 20v16zM200 1639q0 48 68 64q68 -14 68 -68q-16 -68 -68 -68q-57 0 -68 72zM248 1507 v16l12 12h12l12 -12v-16q0 -9 -20 -12zM372 1491v16q0 45 64 56h16q37 68 96 68h16q108 -25 108 -108v-8q0 -92 -104 -116h-12q-57 0 -88 44l-24 -8h-16q-56 16 -56 56zM404 -17q9 56 52 56h16q44 0 52 -60q-6 -60 -60 -60h-8q-52 13 -52 52v12zM552 -113q0 76 108 112h24 q77 0 116 -100l4 -32q0 -84 -104 -120h-28q-90 0 -120 104v36zM564 1723v8l8 8h8l8 -8v-8l-8 -8h-8zM808 67v28q0 107 128 124q101 0 124 -128q-20 -124 -124 -124h-16q-73 0 -112 100zM996 -105q14 24 36 24q31 0 36 -40q-10 -32 -36 -32h-4q-32 0 -32 32v16zM1028 1583 q0 16 24 32h16q22 0 32 -20v-16q0 -32 -40 -36q-32 11 -32 40zM1032 375q6 17 20 24h12l16 -16v-16q-6 -16 -28 -16q-14 8 -20 24z" />
<glyph unicode="O" horiz-adv-x="1200" d="M-140 -364q0 36 44 36q28 -14 28 -40q0 -16 -24 -32h-16q-32 0 -32 32v4zM-136 932v16q24 66 24 88q50 80 112 80h8l40 -4q17 40 64 40q48 0 60 -64v-12q0 -25 -40 -56l4 -32q0 -88 -120 -132h-8q-56 20 -88 20q-56 16 -56 56zM-108 1336q11 32 40 32q16 0 32 -24v-16 q0 -22 -20 -32h-16q-32 0 -36 40zM-100 116v20l16 16q22 0 28 -16v-16l-16 -16h-16zM-88 352v12q12 68 68 68h28q33 107 112 236q-36 44 -36 92q19 124 124 124h4l60 -12q56 70 56 80q0 42 124 48q387 0 576 -404l24 -44h4q47 40 96 40q61 0 100 -60q14 12 40 12 q42 0 56 -60q0 -18 -16 -44q40 -35 40 -92q0 -94 -116 -124q-40 4 -76 20v-4q24 -124 24 -200v-52q0 -228 -160 -280q-68 -20 -152 -20h-4q-301 0 -672 208q-236 147 -236 348v44q-68 12 -68 64zM-64 -248q15 60 56 60h8q60 -8 60 -56v-8q-16 -56 -56 -56h-12q-40 0 -56 60z M-8 620q0 22 36 36q28 0 40 -36q-11 -40 -40 -40q-36 13 -36 40zM180 -264q0 45 68 60q64 -17 64 -60v-8q-11 -68 -68 -68q-64 11 -64 56v20zM228 1368q0 48 64 60h12q56 -16 56 -56v-20q0 -42 -64 -56q-58 0 -68 72zM236 276q8 -16 24 -16q158 100 276 100l4 -4v-4 q-16 -66 -16 -108v-8q23 -256 36 -256q0 -8 16 -8q18 8 20 16v4l-28 240q4 76 16 128l28 -4h92q131 0 292 -148q23 -68 36 -68h8q20 8 20 24q0 122 -284 228q-47 12 -108 12h-68l-4 4h-4q25 110 84 176q68 27 68 40l4 4q-6 24 -24 24q-78 0 -140 -124q-24 -47 -36 -120 l-4 -4h-24q-134 0 -284 -112v-16zM280 1068q9 64 60 64h8q60 -7 60 -60v-12q0 -45 -64 -56h-4q-48 0 -60 64zM460 1480q14 56 60 56h16q52 -15 52 -52v-16q0 -53 -68 -60q-52 0 -60 72zM512 1212v8q19 84 52 116q41 32 88 32q90 0 124 -104v-20q0 -34 -16 -64l4 -20 q0 -59 -36 -68q-49 0 -84 24q-62 0 -116 76zM784 1364v12q6 36 36 36q27 -7 36 -28v-12q-6 -36 -36 -36q-27 7 -36 28zM800 1048v12q10 24 32 24h16l24 -24v-20q-14 -28 -40 -28q-32 10 -32 36zM1008 1036v12q15 60 60 60h4q54 0 68 -60v-12q0 -50 -84 -68q-34 0 -48 68z M1012 860v12q0 54 68 64l52 24h8q64 -11 64 -56v-20q0 -47 -80 -60q0 -11 -44 -24q-68 16 -68 60zM1056 688v8q21 28 36 28q36 -8 36 -36v-4q-5 -36 -36 -36q-36 8 -36 40zM1168 740q0 75 92 112h40q100 -26 100 -100v-28q0 -77 -104 -100h-4l12 -32v-8q-19 -28 -40 -28 q-27 11 -32 24v16q0 14 16 32q-80 36 -80 112zM1188 1144q14 64 60 64h16q56 -14 56 -60v-16q0 -44 -64 -56q-68 11 -68 68zM1296 -244q0 27 40 36q16 0 32 -24v-16q0 -32 -32 -32h-4q-36 5 -36 36zM1296 1264v8q21 28 36 28q36 -8 36 -36v-4q-5 -36 -36 -36q-36 8 -36 40z " />
<glyph unicode="P" horiz-adv-x="847" d="M-130 986v12q0 45 64 52q13 0 36 -16h4q45 100 180 100h44q16 72 64 72h12q56 -17 56 -52q65 12 132 12q-56 34 -56 104l-4 4v4q13 76 76 76q112 -25 112 -100v-4q-20 -88 -76 -88v-4q181 0 280 -444q24 -125 24 -204l-8 -76q64 -8 64 -64v-8q0 -52 -72 -60l-32 8 q-39 -75 -148 -108l-124 -24l-152 76q16 -21 16 -44v-4q-11 -68 -68 -68q-25 0 -48 20h-8q0 -45 -160 -112h-20q-68 0 -68 148l4 300l-4 -4h-4q-32 15 -32 40q10 32 44 32v40l4 328l-32 12l-32 -12h-20q-48 12 -48 56zM-118 1542q0 39 60 60q76 -18 76 -56v-16 q-29 -60 -72 -60q-54 0 -64 72zM-58 -178q0 79 100 116l32 4q120 -27 120 -116v-12q0 -86 -96 -124h-44q-75 0 -112 104v28zM-18 1390q0 29 40 36q16 0 32 -24v-16q0 -32 -32 -32h-16q-24 14 -24 36zM14 1306v12q5 36 36 36q36 0 36 -44q-7 -18 -24 -28h-16q-22 0 -32 24z M198 -82q0 32 32 32h16q20 -10 20 -28h8q16 36 56 36q68 -15 68 -68q0 -55 -72 -68q-49 0 -64 68l-32 -12q-16 0 -32 24v16zM246 318q0 -36 16 -36l16 -4q0 8 12 8v8l-40 24h-4zM278 -294q0 44 64 56q64 -11 64 -56v-16q-14 -56 -60 -56h-8q-54 5 -60 60v12zM394 1554v16 q5 14 36 24q36 -12 36 -40q0 -26 -40 -36q-26 0 -32 36zM414 -150q17 88 84 88h16q59 0 84 -80v-4q0 -67 -76 -96q0 -22 -24 -36h-24q-24 14 -24 36l4 20q-26 0 -40 72zM498 298l16 -16h8q208 76 208 132q11 25 24 192l-16 12h-4q-32 0 -32 -72q0 -160 -64 -160 q-129 -60 -140 -76v-12zM538 1550v8q0 24 40 40q16 24 52 24q48 0 64 -68q-15 -64 -64 -64h-12q-15 0 -52 28q-25 0 -28 32zM646 1290v12q0 48 60 60q60 -14 60 -56v-12q0 -45 -64 -56q-56 14 -56 52zM662 1438v8q13 60 72 60q60 -18 60 -60v-8q-11 -64 -56 -64h-20 q-45 0 -56 64zM742 970q0 64 112 64l20 -24v-12l-4 -16l4 -12q0 -60 -72 -68q-45 0 -60 68zM782 1622v12l12 12h16q9 0 12 -20l-12 -16h-16zM802 1310v20q16 56 56 56h16q46 0 60 -68q-17 -64 -60 -64h-8q-64 11 -64 56zM806 1434q0 36 44 36q18 -7 28 -24v-16 q0 -22 -24 -32h-12q-36 5 -36 36zM842 54v12q16 56 56 56h4q60 -9 60 -52v-12q0 -45 -56 -60q-64 14 -64 56zM862 702q0 15 24 32h24q24 -14 24 -36q0 -16 -24 -32h-24q-24 15 -24 36zM874 -78l16 16h16q16 -8 16 -24q-8 -18 -16 -20h-20q-12 4 -12 24v4z" />
<glyph unicode="Q" horiz-adv-x="1100" d="M-148 752v16q14 24 36 24q21 0 36 -28v-8q-5 -36 -36 -36h-4q-32 0 -32 32zM-104 1004q0 60 72 68q48 0 60 -64v-12q-16 -56 -56 -56h-20q-44 0 -56 64zM-4 604q0 148 212 248q8 0 32 48q48 40 96 40q46 0 92 -40l68 4q97 -4 128 -12q32 68 128 68q92 -43 92 -124l-8 -36 l12 -8q0 36 32 36h16q24 -15 24 -36t-28 -32q208 -177 208 -316q0 -27 -24 -92l4 -20q-13 -68 -68 -68l-32 8l-124 -56q3 -23 112 -96q0 82 108 112h28q112 -28 112 -112l4 -12q0 -86 -96 -124l-24 -4h-4q-81 0 -116 72h-8q-41 -118 -112 -156q-88 0 -212 180q-24 20 -36 20 q-36 0 -176 -108q-47 -20 -64 -20v-4q37 0 48 -60q-11 -64 -56 -64h-20q-52 13 -52 60v12q0 34 44 52v4q-99 0 -236 200q-104 201 -104 436zM76 1256v12q15 60 60 60h4q64 -11 64 -56v-20q0 -38 -60 -56q-68 16 -68 60zM124 1376q9 40 40 40l12 -4v24q14 24 36 24h8 q28 -15 28 -36q0 -36 -52 -36l4 -4v-4q-9 -40 -40 -40q-23 0 -36 36zM168 1048q0 48 64 60h12q56 -14 56 -60v-16q0 -45 -68 -56q-51 0 -64 72zM196 556q0 -7 208 -116q32 -41 32 -212q5 -60 20 -60h16l16 16q-12 288 -56 288q-41 39 -216 116q-20 0 -20 -24v-8zM348 1036 v12q14 24 36 24q36 -5 36 -36q-5 -36 -36 -36q-36 5 -36 36zM428 992q0 52 72 64q48 0 60 -64v-16q0 -39 -64 -56q-57 0 -68 72zM448 1096v16q4 12 24 12l12 -12v-16l-12 -12h-12zM500 -192q16 56 56 56h12q64 -10 64 -64q0 -26 -36 -68q0 -12 -28 -24q-30 0 -52 48 q-16 14 -16 32v20zM500 1332q0 46 68 60q64 -12 64 -56v-20q0 -45 -64 -56h-8q-60 12 -60 72zM512 716q11 -16 204 -112q36 -27 36 -200l8 -68l20 -12q16 0 24 20q-12 272 -40 272q-11 32 -232 132q-18 -8 -20 -16v-16zM560 -376l12 12h12l12 -12v-12l-12 -12h-12l-12 12v12 zM656 1096q0 98 112 128h16q102 0 128 -120v-4q0 -86 -96 -124l-24 -4h-8q-98 0 -124 108zM740 -140q0 32 32 32h4q36 -5 36 -36q0 -36 -44 -36q-18 7 -28 24v16zM864 1476v8q5 36 36 36h4q32 0 32 -32v-16q-14 -24 -36 -24q-21 0 -36 28zM908 936q5 36 36 36h4q32 0 32 -32 v-16q-14 -24 -36 -24q-36 6 -36 36zM1148 516v4q5 36 36 36q36 0 36 -44q-12 -28 -36 -28h-4q-32 0 -32 32zM1204 368q5 36 36 36q36 -5 36 -36q-5 -36 -36 -36q-36 5 -36 36zM1328 584q0 23 36 36q36 -5 36 -36v-4q0 -32 -32 -32h-16q-24 14 -24 36zM1344 368v12 q8 16 20 16q20 -6 20 -28l-16 -12h-12z" />
<glyph unicode="R" horiz-adv-x="940" d="M-260 305v20q0 46 68 56q60 -17 60 -60v-4q-13 -68 -64 -68q-64 14 -64 56zM-252 929v8q20 128 128 128q124 -19 124 -120v-20l-4 -28q52 -14 52 -52v-20q0 -47 -68 -56l-20 4q0 -11 -20 -20h-12q-36 0 -36 44l8 12v4h-24q-101 0 -128 116zM-96 569v12q5 36 36 36 q32 -5 32 -24h4q0 41 68 76l4 28q0 147 36 384v4h-4q0 -29 -60 -44q-64 16 -64 56v16q11 64 64 64q64 -14 64 -56h4q0 123 180 160l80 8h16l16 4q182 0 296 -120q48 -56 48 -144v-8l-4 -40h4l24 8h12q60 -10 60 -52v-20q0 -45 -64 -56h-4q-52 12 -52 40q-105 -177 -240 -244 q19 -15 192 -72q276 -114 276 -256q0 -107 -152 -148q44 -34 44 -72q0 -46 -72 -60q-43 0 -60 64v8q0 18 28 48h-164q-31 -28 -56 -28q-41 0 -72 56q-38 0 -96 88l-32 100h-8v-4q-13 -116 -112 -116h-24q-132 19 -132 84l8 40q-10 0 -20 40v12q0 28 24 52v4q-38 0 -56 72h-4 q0 -12 -20 -24h-24zM28 177q0 49 68 64l40 -12l44 8q53 0 68 -76q0 -28 -24 -56l12 -36q-14 -64 -60 -64h-12l-16 4l-36 -4v-4q20 0 28 -36q-11 -27 -24 -32h-16q-36 5 -36 36q0 23 36 36v4q-44 15 -44 68q0 13 16 36q-44 18 -44 64zM340 9q5 36 36 36q36 -5 36 -36 q0 -22 -24 -36h-12q-36 5 -36 36zM536 1081q0 -9 48 -28v-4q-31 -26 -32 -52q7 -20 20 -20l20 8v-20q0 -31 20 -40q22 0 28 16v28l-4 48q40 0 40 28v8q0 12 -52 16q0 34 -68 48q-20 -7 -20 -32v-4zM572 1349v4q0 47 52 60h24q38 0 52 -56v-8q0 -56 -68 -64q-48 0 -60 64z M852 725q8 24 32 24q24 -8 24 -32q-8 -24 -32 -24q-24 8 -24 32zM860 1409q0 26 36 32h4q32 0 32 -32v-4q-5 -36 -36 -36q-30 0 -36 40zM872 1249v4l12 12h4l12 -12l-12 -12h-8z" />
<glyph unicode="S" horiz-adv-x="1085" d="M-24 -28q0 27 40 36q32 -10 32 -36v-4q0 -32 -40 -36q-32 15 -32 40zM-24 548v16q0 167 172 224q131 24 192 24q100 0 180 -76l28 -12l4 4v4q0 18 -132 72q-132 75 -132 140v4q0 43 56 88l-8 32v16q0 91 104 120h32q56 -8 80 -20q98 44 184 44h16q-20 23 -20 40v8 q12 64 56 64h20q56 -16 56 -56v-16q-13 -52 -40 -52v-4q38 -9 84 -68q16 24 40 24h16q46 0 60 -68q0 -52 -68 -64h-4l-20 4v-4q0 -112 -76 -144q-68 -30 -116 -40v-8q175 -28 228 -60q60 -56 60 -124v-28l-4 -20q36 -17 36 -56v-12q0 -53 -88 -60l-40 -64l20 -28l24 4 q124 -22 124 -124v-8q0 -83 -88 -116l-24 -8q-140 14 -140 132l8 44l-24 16q-93 -44 -244 -68q-32 -44 -72 -44h-16l-20 4l8 -24q0 -16 -24 -32h-28q-20 10 -20 32v16q17 24 32 24q-6 16 -12 16h-36l-124 8q0 -28 -64 -76h-4v-4q46 0 60 -64q0 -57 -72 -68q-49 0 -64 68 q11 52 32 52v4q-136 11 -136 124v20q-12 15 -12 28q0 14 16 32q-56 79 -56 168zM36 1156q19 132 132 132q83 0 120 -100l4 -32q-27 -120 -116 -120h-16q-89 0 -120 100zM40 -132q0 52 72 64q48 0 64 -68q-13 -64 -64 -64h-16q-44 0 -56 68zM152 -28l12 12h12l12 -12v-12 l-12 -12h-12l-12 12v12zM368 1276q11 27 24 32h16q36 -5 36 -36q-12 -36 -40 -36q-26 0 -36 40zM896 100v4q0 22 20 32h28q24 -14 24 -36q0 -30 -40 -36q-26 0 -32 36z" />
<glyph unicode="T" horiz-adv-x="840" d="M-232 700v20q0 86 96 120l24 4q132 -20 132 -132l-4 -28q40 -13 40 -56v-12q-14 -56 -60 -56h-16q-29 0 -48 36q-18 -8 -52 -8l-4 4v-4l12 -24q-10 -31 -24 -36h-16q-36 5 -36 36q0 21 28 32v8q-28 0 -68 68zM-176 440q0 50 68 64q29 0 60 -40l20 4l44 -8l-8 32v4 q14 72 64 72h20q49 0 64 -72v-4q0 -65 -88 -72q28 -34 28 -64v-32q0 -74 -100 -108l-28 -4q-82 0 -120 100l-4 32l8 44q-28 20 -28 52zM-112 1164v20q0 44 64 56q46 0 64 -48q34 27 184 44l-12 32q15 60 52 60h20q45 0 52 -64q0 -13 -16 -36q51 0 320 -72v4l-8 12v12 q6 36 36 36q36 -5 36 -36v-12l-24 -28q76 0 160 -220l4 -32q0 -50 -144 -84q-42 -60 -92 -60q72 -82 72 -196v-40q0 -61 -20 -132q76 0 76 -64q-9 -64 -64 -64h-8q-17 0 -40 20q-46 -84 -92 -128q-45 -32 -88 -32h-12q-129 0 -224 200q-12 0 -24 344l4 104q0 36 -80 36 q-100 117 -100 268v48l-28 -4h-12q-56 16 -56 56zM-108 172q0 22 24 36h24q24 -14 24 -36q0 -36 -44 -36q-28 12 -28 36zM24 1444v28q20 128 128 128h44q57 0 88 -108l4 -28q0 -85 -100 -124l-40 -4q-85 0 -124 108zM212 -36q0 44 68 60h4q49 0 60 -72q0 -45 -68 -60 q-51 0 -64 72zM480 -172q0 36 44 36q28 -11 28 -44v-4l-24 -24h-16q-22 0 -32 24v12zM708 -12q8 36 36 36h4q36 -5 36 -36q-8 -36 -40 -36h-8q-28 21 -28 36zM736 512q5 36 36 36q36 -5 36 -36q-5 -36 -36 -36h-12q-24 14 -24 36zM752 1456v16q14 24 36 24q36 -8 36 -36 q-5 -36 -36 -36h-4q-32 0 -32 32zM828 -120q0 26 36 32q22 0 36 -24v-24q-14 -24 -36 -24q-32 0 -36 40z" />
<glyph unicode="U" horiz-adv-x="900" d="M-70 96v24q0 81 112 100q93 0 108 -116q-23 -104 -100 -104h-24q-96 25 -96 96zM10 632v60q20 296 148 296l56 4q116 0 152 -128l8 -76l-8 -260q0 -64 72 -64q31 0 40 44q0 42 -80 324l-4 60q0 73 84 80q364 0 364 -652q12 -4 12 -24v-20q0 -32 -84 -100 q-118 -60 -260 -60q0 -32 -60 -44q-43 0 -72 56q-40 0 -40 96h-4q-65 -60 -100 -60q-100 0 -192 256q-32 126 -32 212zM618 1208v16q5 54 60 60h16q42 0 56 -64q0 -57 -72 -68q-60 17 -60 56z" />
<glyph unicode="V" horiz-adv-x="760" d="M-352 756v36q0 73 100 112h28q108 0 124 -132q0 -80 -108 -120h-24q-84 0 -120 104zM-292 1420v12q16 56 56 56h20q47 0 56 -72q0 -49 -72 -60q-48 0 -60 64zM-188 492q16 60 56 60h24q52 -16 52 -60v-16q0 -44 -68 -56q-51 0 -64 72zM-136 -72q0 108 132 124 q120 -24 120 -132q0 -82 -100 -120h-40q-51 0 -100 64l-12 48v16zM-8 1680q7 18 24 28h16q32 0 32 -32v-4q0 -36 -44 -36q-28 11 -28 44zM-4 904q30 334 88 364h8q8 -1 40 -48q0 13 60 24h16q90 0 120 -100l4 -24q0 -108 -132 -128v-4q80 -280 136 -384l12 -8h4q27 0 52 228 q40 113 144 280q125 168 164 168h12q36 -24 36 -116v-36l-8 -164l4 4h12q76 -13 76 -72v-4q-15 -72 -64 -72h-20l-32 12q-20 -123 -40 -404q-29 -137 -116 -220q-124 -96 -216 -96q-288 0 -360 800zM300 -100q14 56 60 56h12q43 0 52 -64q-16 -56 -56 -56h-4q-64 9 -64 64z M476 -4v12q9 64 64 64q60 0 68 -72q0 -49 -64 -60h-12q-56 16 -56 56zM480 1348v16l16 16h16q16 -8 16 -24q0 -12 -24 -24q-24 8 -24 16zM616 1652q0 38 56 56q43 52 88 52h20q91 0 120 -104v-24q0 -109 -132 -124q-62 0 -116 84q-28 0 -36 60zM772 1448v12l12 12h12l12 -12 v-12l-12 -12h-12z" />
<glyph unicode="W" horiz-adv-x="1343" d="M-160 1542v20q0 30 56 56q47 48 88 48h28q72 0 108 -96l4 -28q0 -86 -96 -124l-32 -4q-74 0 -120 84q-27 0 -36 44zM-88 -6q0 89 100 120h40q108 -27 108 -108l4 -24q0 -77 -100 -116l-32 -4q-120 29 -120 112v20zM-84 790q13 76 76 76h12l4 -4h4q14 256 100 256h8 q89 0 300 -292q0 23 32 32q22 0 36 -36q0 -32 -48 -32q88 -136 112 -192h4q5 84 48 84l60 20h20q50 0 80 -124h4q0 161 88 268q-72 49 -72 116q0 108 112 136l16 4q103 0 144 -108v-32q0 -28 -8 -44q110 0 192 -164q24 -65 24 -148q0 -249 -232 -408q-98 -40 -164 -40 q-69 0 -172 84q-10 -59 -104 -132q20 -29 20 -44v-4q-11 -68 -68 -68q-50 0 -60 64q-78 -24 -132 -24h-24q-162 0 -216 156q-92 350 -96 532l-4 -4h-24q-72 15 -72 72zM-8 1354v12l12 12h16q9 0 12 -20q-6 -16 -12 -16h-16zM184 -94q5 36 36 36q36 0 36 -44q-7 -18 -24 -28 h-16q-32 0 -32 32v4zM336 1482v12l24 24h12q22 0 32 -20v-16q0 -22 -20 -32h-16q-32 0 -32 32zM544 1466q17 128 128 128q36 0 76 -28h4q19 16 32 16q18 0 32 -32q-8 -36 -28 -36l8 -48q-18 -124 -124 -124h-4q-124 18 -124 124zM560 1134q8 36 40 36q32 -13 32 -36 q0 -15 -24 -32h-24q-24 17 -24 32zM588 -18q0 32 32 32h4q32 0 32 -32q-5 -36 -36 -36q-26 0 -32 36zM644 846v4q0 47 60 56h8q52 -13 52 -52v-12q-9 -56 -52 -56h-16q-42 0 -52 60zM828 1270q11 64 64 64h4q56 -16 56 -56v-4q-8 -60 -52 -60h-20q-34 0 -52 56zM848 -182 q0 48 64 60h4q54 0 64 -68q0 -48 -64 -60h-4q-55 0 -64 68zM976 1158q0 99 104 132h40q75 0 108 -100l4 -32q0 -77 -100 -116l-32 -4q-81 0 -120 100zM1044 1566q5 36 36 36q36 -5 36 -36v-12l-24 -24h-12q-36 5 -36 36zM1224 178q5 36 36 36q32 -3 32 -32v-16 q-10 -20 -32 -20h-4q-32 0 -32 32zM1236 1370v32q0 77 112 112q140 -16 140 -132q0 -102 -132 -124q-120 29 -120 112zM1240 -114q0 83 108 128h36q68 0 104 -60h8q51 0 60 -64q0 -35 -56 -60q-39 -84 -108 -84h-20q-90 0 -128 104zM1360 514q0 49 72 60q60 -16 60 -56v-20 q-16 -56 -56 -56h-20q-47 0 -56 72zM1420 1178q13 36 40 36q36 -12 36 -40q0 -22 -36 -36q-40 12 -40 40zM1436 826v4l12 12l16 -16l-12 -12h-4zM1520 458v12l12 12h12l12 -12v-16q-4 -12 -24 -12z" />
<glyph unicode="X" horiz-adv-x="1200" d="M-312 796v20q0 45 64 56h8q60 -13 60 -72q0 -46 -68 -60q-64 11 -64 56zM-128 1088q15 32 40 32q27 0 36 -40q0 -26 -36 -32h-4q-30 0 -36 40zM-24 748q9 64 64 64h12q44 -10 44 -28h4l172 132h4v12q-67 95 -76 176q0 91 104 100h32q177 0 248 -184l8 -36h4 q15 60 100 124q110 72 236 72q124 0 204 -128l16 -76v-16q0 -142 -140 -216q-128 -24 -128 -36v-4q0 -12 64 -104q36 -64 36 -144q0 -72 -60 -100v-4q30 0 44 -60q-15 -68 -68 -68q-68 15 -68 68q0 22 24 52q-77 0 -168 92q-32 41 -32 60h-12q-69 -96 -256 -96 q-10 -24 -36 -24q-14 3 -40 32q-96 0 -228 84q-72 62 -72 132l12 60h-4q-44 23 -44 64zM-20 984v20q0 37 60 52q60 -14 60 -56v-12q0 -45 -64 -56q-56 14 -56 52zM156 92q15 32 40 32q16 0 32 -24v-16q0 -32 -32 -32h-4q-32 0 -36 40zM356 1540q13 68 68 68q57 0 68 -72 l-4 -16q29 36 64 36h4q61 0 72 -80q0 -57 -84 -68q-50 0 -64 56v24l4 20q-32 -32 -52 -32h-16q-43 0 -60 64zM424 1420v8l16 16h8l16 -16v-8l-16 -16h-8zM528 1268q0 83 100 120h32q84 0 120 -100v-28q0 -92 -108 -124h-32q-112 29 -112 132zM684 1412v16q5 36 36 36 q36 -8 36 -40v-8q-21 -28 -36 -28q-31 10 -36 24zM696 1688l12 12h8l8 -8v-8l-8 -8h-8zM780 1404v12l24 24h16q22 0 32 -24v-12q0 -36 -44 -36q-28 13 -28 36zM920 1328v4q0 31 40 36q32 -15 32 -40q0 -23 -36 -36q-36 5 -36 36zM928 1564v4q0 31 40 36q28 0 32 -44 q-15 -32 -40 -32q-32 10 -32 36zM1064 700v8q15 72 72 72q76 -14 76 -72v-8q0 -61 -80 -72q-51 0 -68 72zM1100 368q9 68 64 68q64 -9 64 -60v-16l-8 -24q16 -6 16 -28q-5 -36 -36 -36q-26 0 -40 36q-60 13 -60 60zM1304 176q5 36 36 36h12q24 -10 24 -32v-16l-24 -24h-20 q-28 15 -28 36zM1348 668q0 85 96 124l28 4q128 -18 128 -124v-24q0 -47 -64 -88v-8q16 0 28 -20v-16q-5 -36 -36 -36q-36 13 -36 40v8l8 12v4h-40q-72 0 -108 96zM1504 308v4q6 36 36 36q36 -8 36 -40v-8q-14 -28 -40 -28q-32 10 -32 36z" />
<glyph unicode="Y" horiz-adv-x="1000" d="M-100 1442v24l24 24h24q24 -14 24 -40q-8 -23 -28 -32h-8q-22 0 -36 24zM-60 570v12q16 24 28 24v12q0 54 68 64q60 -17 60 -60v-12q0 -47 -68 -60l-20 4q-10 -20 -32 -20q-36 5 -36 36zM-48 350v16q0 22 24 32h12q32 -3 32 -28h4q0 64 84 80h8q72 0 88 -92 q-3 -40 -40 -76q30 0 40 -68q0 -50 -72 -68h-4q-76 14 -76 72q0 29 28 60q-56 20 -56 76h-4q-5 -28 -36 -28h-8zM0 894v4q0 39 60 60q-36 87 -36 156v4q10 120 100 120l24 4q176 0 296 -224l12 -44h8q0 145 156 220l72 12q145 0 240 -160q12 0 12 -8l-4 -16q40 -126 40 -204 q0 -222 -224 -276l-148 -20q16 -36 16 -56v-20q0 -115 -236 -240q-18 -40 -60 -40q-36 0 -80 68q-40 41 -40 132v104q0 90 80 188v4q-77 16 -172 184q-23 -20 -40 -20h-12q-54 0 -64 68zM32 1706q15 60 56 60h20q45 0 56 -68q0 -43 -64 -60h-8q-60 15 -60 68zM76 -46 q0 60 72 68l36 -12l36 8q76 -13 76 -76q-17 -72 -72 -72h-8q-29 0 -52 24l-4 -4h-20q-64 10 -64 64zM312 1418q38 116 136 116q120 -26 120 -116v-24q0 -73 -100 -112h-28q-106 0 -128 136zM464 1594v8q0 46 56 60h8q64 -10 64 -64q-12 -64 -56 -64h-12q-60 8 -60 60z M476 -10q9 64 64 64h8l-4 32q0 46 68 60q64 -12 64 -56v-20q0 -45 -64 -56h-8l4 -20v-4q0 -60 -72 -68q-60 18 -60 60v8zM648 1298v8l16 16h8l16 -16v-8l-16 -16h-8zM680 1638q0 20 12 40l-4 12q6 17 20 24h8l20 -4q4 12 24 12h16q19 0 44 -88q0 -50 -68 -64h-4 q-68 11 -68 68zM720 1314v8q11 64 56 64h20q45 0 56 -64q-12 -68 -64 -68q-68 14 -68 60zM736 -98q0 53 68 60q52 0 60 -72q-16 -56 -56 -56h-20q-52 15 -52 52v16zM824 1570v24q0 107 128 124q86 0 120 -96l4 -32v-4q64 -11 64 -56v-20q0 -47 -72 -56q-25 0 -48 32 q-37 -20 -60 -20h-12q-90 0 -124 104zM872 1266v20q19 84 84 84h12q67 0 84 -88v-4q0 -55 -72 -92q0 -15 -24 -32h-28q-24 16 -24 36l4 16q-36 38 -36 60zM900 494v20q7 16 28 16h4l20 -20v-4q0 -21 -16 -28h-20zM916 290v16q0 53 68 60q52 0 60 -72q-16 -56 -56 -56h-20 q-52 15 -52 52zM1016 74q10 32 36 32h4q32 0 32 -32v-8q0 -32 -36 -32h-8q-28 14 -28 40z" />
<glyph unicode="Z" horiz-adv-x="947" d="M-64 720v20q0 44 60 52h4l20 -4v4q-20 35 -20 72q0 69 72 108q-72 51 -72 104v16q0 90 104 120h20q90 0 132 -56q20 -32 20 -48v-20l-4 -40q131 44 188 44q70 -5 100 -16v4l-8 36q12 51 60 60h8q64 -11 64 -56v-20q-16 -56 -56 -56v-4q218 0 252 -136l4 -24 q0 -168 -400 -300v-4h8l192 4q210 0 256 -96l4 -24v-8q0 -91 -172 -180l-28 -64q-42 -56 -104 -56h-4q-81 0 -124 92q-103 16 -252 60q0 -64 -92 -76h-12l-4 4h-4v-4l4 -24q-12 -28 -36 -28h-12q-24 10 -24 32v16q14 24 36 24q-32 34 -32 64v12q0 54 56 76v12q3 60 112 172 q-27 0 -40 24v16q0 22 24 32h12q32 0 36 -40l-4 -12q104 68 252 68h20l20 4v4q-104 36 -356 96q-36 -40 -68 -40h-36q-26 0 -56 20h-4l4 -32q-15 -52 -52 -52h-16q-52 14 -52 48zM-8 1628v12l16 16h16l16 -16v-12q-7 -14 -24 -20q-16 6 -24 20zM32 1280q8 36 36 36h4 q36 -5 36 -36q-8 -36 -40 -36h-8q-28 21 -28 36zM172 -76q0 111 132 128q120 -25 120 -128q0 -88 -100 -124h-40q-84 0 -112 116v8zM396 1280v12q16 56 56 56h20q40 0 56 -60v-4q0 -60 -72 -68q-48 0 -60 64zM556 108q0 33 44 40q32 -15 32 -40q0 -15 -24 -32h-16 q-36 6 -36 32zM584 1552v12q0 57 72 64q49 0 60 -72q0 -25 -32 -52q0 -26 -36 -32q-25 0 -48 48q-10 0 -16 32zM688 1412q0 74 88 116q16 8 44 8h48q50 0 84 -116v-20q0 -110 -136 -128q-89 0 -124 104zM824 1616v16q14 24 36 24q31 0 36 -40q0 -26 -36 -32h-4q-32 0 -32 32 zM856 1200v4q11 64 60 64q60 -14 60 -56v-16q0 -38 -56 -52q-64 11 -64 56zM928 712q11 32 40 32q16 0 32 -24v-16q0 -22 -24 -32h-12q-32 0 -36 40z" />
<glyph unicode="[" horiz-adv-x="758" d="M136 852v68q0 239 72 264q43 16 80 16h40q122 0 164 -36q0 -92 -160 -92q-24 0 -36 -100l8 -176q-8 -125 -8 -392q0 -188 52 -188q152 -28 152 -80v-24q0 -51 -88 -68h-40q-129 0 -188 116q-8 0 -20 288q-28 237 -28 404z" />
<glyph unicode="\" horiz-adv-x="569" d="M-54 902v8q0 22 20 32h20q66 0 312 -320q60 -84 180 -216q160 -183 160 -244v-24q-15 -72 -56 -72h-16q-13 0 -24 40q-190 150 -388 392q-197 270 -208 404z" />
<glyph unicode="]" horiz-adv-x="758" d="M100 12q0 66 208 104q44 23 44 268v20l-8 372l4 280q0 104 -64 104q-139 0 -172 88l-4 28q71 40 216 40h28q143 0 168 -92q28 -136 28 -248v-92q0 -88 -48 -740q0 -148 -80 -188q-82 -56 -160 -56h-36q-104 0 -124 80v32z" />
<glyph unicode="^" d="M300 1016v56q0 195 136 324l44 12h20q101 0 148 -236v-36q-24 -136 -76 -136h-12q-60 0 -100 124l-4 32v24l-8 8q-60 0 -60 -60v-84q0 -39 -60 -44q-28 6 -28 16z" />
<glyph unicode="_" horiz-adv-x="1024" d="M0 5v12q0 20 157 52h52q505 0 798 -70q17 -21 17 -41v-17q0 -25 -81 -35l-623 -6h-6q-245 0 -314 105z" />
<glyph unicode="`" horiz-adv-x="1024" d="M300 1316v40q0 44 76 44h72q79 0 104 -124v-248q0 -12 -16 -12q-108 68 -192 196q-43 65 -44 104z" />
<glyph unicode="a" horiz-adv-x="847" d="M-376 432v40q0 59 72 100q20 12 52 12h12q75 0 112 -96l4 -32q0 -84 -96 -120l-32 -4q-88 0 -124 100zM-248 1188v16q14 56 60 56h8q54 -5 60 -60v-12q0 -44 -64 -56q-64 12 -64 56zM-212 768q0 22 24 36h24l24 -24v-24l-24 -24h-12q-36 5 -36 36zM-76 996v12 q16 56 56 56h8q64 -8 64 -64v-8q-16 -56 -56 -56h-20q-52 16 -52 60zM-20 740v24l24 24h12q36 -5 36 -36q-5 -36 -36 -36q-22 0 -36 24zM-12 552q0 148 112 192q26 12 64 12h4q151 0 328 -84h4l16 48q0 20 -52 20l-44 -4q-116 0 -216 52q-32 33 -32 64v16q0 102 116 144 l92 12q-28 25 -28 60q0 39 60 56l32 -8q29 80 136 80l24 4q84 -56 84 -128l-4 -40q82 28 120 28q52 -12 52 -72q-72 -43 -72 -92v-80l16 4q64 -12 64 -64v-16q0 -43 -68 -56q24 -183 24 -236q0 -272 -420 -272h-12l-104 8q44 -42 44 -96q-18 -128 -132 -128q-63 0 -108 72 q-12 31 -12 56q0 86 96 124l28 4v4q-84 31 -172 156q-40 82 -40 160zM68 504q0 -24 24 -24q16 0 24 36l4 4h4q27 -29 68 -56h4q24 0 24 24q0 14 -52 52v8q0 7 60 32l4 4v20l-20 16l-64 -28l-8 12v20l4 36q-8 20 -24 20q-28 -8 -28 -56l8 -60q-32 -22 -32 -56v-4zM152 1080v8 q0 28 28 28h4l20 -20v-16q-3 -12 -28 -20q-16 6 -24 20zM200 1472v4q0 76 76 112q21 12 56 12q65 0 108 -76q12 -19 12 -52q0 -88 -100 -124h-40q-70 0 -108 92zM224 -192q0 22 28 36h8q22 0 36 -24v-16q0 -32 -32 -32h-4q-36 5 -36 36zM648 60q0 84 96 120l32 4 q88 0 124 -100v-40q0 -59 -72 -100q-19 -12 -52 -12h-12q-75 0 -112 96zM860 984v12q8 16 24 16l12 -16v-12l-12 -12h-12z" />
<glyph unicode="b" horiz-adv-x="900" d="M-267 1316v4q0 32 32 32h16q24 -14 24 -36q0 -21 -28 -36q-44 0 -44 36zM-263 1028v12l16 16h16q16 0 16 -28l32 8q60 -14 60 -56v-12q0 -45 -64 -56q-56 14 -56 60v4l8 32q-16 0 -28 20zM-183 204q27 120 116 120h20l28 -4q-28 29 -28 64q17 50 48 64h20 q-28 110 -28 236l12 168l-40 -12q-48 0 -64 68q15 64 56 64h20q24 0 48 -28q98 332 160 332q80 -33 80 -184q7 -96 20 -96q47 16 96 16h8q200 0 404 -192q88 -117 88 -268q0 -224 -196 -284l-48 -8q-87 0 -284 60h-4v-4q23 0 32 -56v-4q-11 -72 -72 -72h-4q-72 15 -72 72 q14 76 68 76v4q-148 40 -172 40h-4q-53 -64 -120 -64q68 -57 68 -100q-14 -140 -132 -140q-103 0 -124 132zM-99 660q0 28 36 40q40 -11 40 -40q-12 -36 -40 -36q-22 0 -36 36zM29 1124v12l12 12h12l16 -16v-4l-16 -16h-12zM265 1240v8q0 18 24 44q-24 26 -24 44v12 q13 52 52 52h16q23 0 48 -32q27 28 56 28q64 -17 64 -60v-8q0 -29 -28 -56q20 -4 20 -60l4 4h20l24 -24v-16q0 -22 -24 -32h-12q-36 5 -36 36l-32 -12h-8q-28 0 -56 40q-20 -28 -52 -28q-42 0 -56 60zM345 -148q0 48 72 60q51 -12 60 -60v-8q-11 -64 -56 -64h-20 q-45 0 -56 64v8zM361 1292l16 -16l8 8l-12 16l-12 -4v-4zM557 348q0 -24 28 -24q12 0 36 56h4q38 -46 84 -76h16l16 16v4q0 20 -56 56l-16 24q79 38 88 52v12l-16 16h-8l-84 -36l-12 48l8 40q0 24 -28 24h-4q-17 0 -20 -56v-16l12 -64q-48 -36 -48 -76zM557 1076 q0 91 96 128l36 4q132 -18 132 -132q0 -115 -136 -132q-88 0 -124 100zM781 1316q0 22 36 36q22 0 36 -36q0 -22 -36 -36q-22 0 -36 36zM881 668q5 36 36 36q22 0 36 -24v-24q-14 -24 -36 -24q-36 5 -36 36z" />
<glyph unicode="c" horiz-adv-x="800" d="M-100 920v4q0 32 32 32h4q36 -5 36 -36q0 -36 -44 -36q-28 12 -28 36zM-72 1400v24q14 24 36 24q27 0 32 -40q-7 -18 -24 -28h-12q-22 0 -32 20zM-8 788v4q17 124 124 124q145 105 176 108q108 52 212 52h12q166 0 228 -140l36 -156v-28q0 -80 -228 -80h-48 q17 -14 196 -56q64 -53 64 -160q0 -132 -92 -176l-44 -4q-275 0 -500 176q-116 100 -116 236v24q-20 50 -20 76zM8 4v20q0 42 60 52h8q46 0 60 -56v-8q-10 -64 -64 -64q-64 11 -64 56zM12 1132v16q13 52 52 52h8q60 -5 60 -60q-8 -60 -52 -60h-16q-52 13 -52 52zM252 1352 v16q0 45 68 56q51 0 64 -72q0 -48 -68 -64q-64 13 -64 64zM596 1240q0 93 104 128h28q89 0 120 -100l4 -20q0 -116 -136 -132q-91 0 -120 124zM632 1464v12l24 24h16q22 0 32 -24v-12q0 -36 -44 -36q-28 12 -28 36zM720 620q10 32 36 32h12l24 -24v-16q0 -22 -24 -32h-12 q-32 0 -36 40zM752 -48q16 60 60 60h4q64 -9 64 -60v-16q-15 -52 -52 -52h-20q-47 0 -56 68zM800 432v24q14 24 36 24q36 -5 36 -36q0 -22 -24 -36h-24z" />
<glyph unicode="d" horiz-adv-x="763" d="M-60 592v16q0 32 40 36l20 -8v4q0 102 64 256q47 75 104 116l-12 36q12 64 64 64h16q47 0 56 -80q75 0 224 -188h4v4q-32 44 -32 140q0 188 64 232h16q26 0 68 -64q0 51 68 64q64 -11 64 -56v-20q0 -45 -64 -56h-8q-15 0 -36 16h-4q96 -276 96 -464v-16q0 -201 -140 -284 q-170 -132 -344 -132h-16q-171 0 -232 192q-20 81 -20 156v24l-12 -8h-16q-22 0 -32 20zM-32 -64q0 59 72 68q51 0 60 -72q-14 -56 -60 -56h-16q-40 0 -56 60zM56 544q0 -137 100 -256h16l16 16v12q-84 102 -84 228v16q0 80 52 160v4q-6 20 -28 20q-72 -61 -72 -200z M576 1336q12 64 64 64h16q41 0 56 -64q0 -57 -72 -68q-48 0 -64 68zM616 -312q0 32 36 32q32 -13 32 -36q0 -15 -24 -32h-24l-20 20v16z" />
<glyph unicode="e" horiz-adv-x="757" d="M-300 521v20q0 45 64 56h8q31 0 52 -40l20 4q116 -23 116 -104v-16q0 -79 -88 -112h-40q-82 0 -104 120l4 24q-32 23 -32 48zM-180 -3q14 24 36 24q32 -11 32 -40q-7 -18 -24 -28h-12q-32 0 -32 32v12zM-108 857v4q12 64 60 64h12q60 -15 60 -60v-12q0 -48 -64 -60h-4 q-64 8 -64 64zM-76 249q14 60 56 60h8q51 0 60 -64q-14 -56 -52 -56h-20q-38 0 -52 60zM-68 553q10 32 36 32h12l12 -8h4l-8 72v40q0 95 124 172q-28 43 -28 80q18 128 132 128q79 0 116 -92l4 -32v-28l-4 -4v-4q235 0 396 -196q24 -39 24 -76q0 -115 -284 -260v-8 q66 -37 88 -60q16 -44 16 -68q-5 -52 -40 -52h-16q-349 0 -480 288q-28 47 -28 68h-4q0 -22 -24 -32h-12q-30 0 -36 40zM-48 1049v20q0 45 64 56h8q46 0 60 -68q-17 -64 -60 -64h-8q-64 11 -64 56zM-12 73v16q0 32 32 32h4q32 0 36 -40q-11 -32 -40 -32q-16 0 -32 24z M304 1129v24q17 80 80 80h24q57 0 76 -92q0 -74 -96 -88q-84 22 -84 76zM340 69v28q14 24 36 24h8q28 -14 28 -40q0 -16 -24 -32h-16q-22 0 -32 20zM464 985q0 21 28 36h8q22 0 36 -24v-16q0 -32 -32 -32h-16q-24 14 -24 36zM480 529q8 -16 24 -16q18 0 24 36l4 4h12 q0 -24 72 -56q16 0 16 20h4q0 11 -56 64l64 32l4 20q-8 20 -24 20l-64 -28l-8 28l4 48l-24 12q-24 0 -24 -52v-12l8 -48q-36 -27 -36 -64v-8zM652 173q25 120 116 120l4 4q132 -17 132 -124v-8q0 -105 -128 -124q-82 0 -120 100z" />
<glyph unicode="f" horiz-adv-x="500" d="M-333 1463v28q0 90 104 120h24q109 0 124 -132q0 -92 -124 -120h-12q-80 0 -116 104zM-321 1239v16q17 80 80 80h16q73 0 84 -96q0 -68 -92 -84h-4q-84 19 -84 84zM-285 451v4q8 64 64 64h4q64 -12 64 -60v-4q-9 -68 -68 -68h-4q-50 0 -60 64zM-209 735v4q14 112 112 112 h20l20 -4l-8 24q10 32 40 32q31 0 36 -40q-10 -32 -36 -32q48 -42 48 -96q-23 -116 -116 -116q-116 19 -116 116zM-197 -109q0 32 36 32q31 0 36 -40q-10 -32 -36 -32h-12l-24 24v16zM-161 1087q13 36 40 36q26 0 36 -40q0 -26 -36 -32h-16q-14 5 -24 36zM-9 623 q0 49 88 100l32 4h8v72q0 423 56 484q26 24 44 24h12q104 0 220 -240q24 -77 24 -128q0 -96 -88 -96q-100 0 -100 -24v-120q69 0 200 -96v-8q-11 -28 -52 -28h-124l128 -400q0 -30 -108 -40h-16q-84 0 -120 160q-68 217 -68 280h-8q-128 0 -128 56zM91 -177q13 36 40 36 q22 0 36 -36q0 -26 -36 -40q-40 11 -40 40zM103 1463q0 42 60 56h8q45 0 56 -64q-13 -56 -52 -56h-20q-43 0 -52 64zM279 1563v12q16 56 56 56h20q44 0 56 -64q0 -58 -72 -68q-48 0 -60 64zM359 -85l8 8h8l8 -8v-8l-8 -8h-8l-8 8v8zM475 1135v4q0 32 32 32h16q24 -14 24 -36 q0 -21 -28 -36q-44 0 -44 36zM603 539v12q0 61 80 72q51 0 68 -72v-8q-15 -72 -72 -72q-76 17 -76 68zM615 -165q0 52 72 64q64 -18 64 -64q-11 -68 -64 -68h-16q-44 0 -56 68zM727 -61l12 12h12l12 -12v-12l-12 -12h-12l-12 12v12z" />
<glyph unicode="g" horiz-adv-x="899" d="M-776 1264q0 15 28 36h8q40 -8 40 -40q0 -26 -36 -32h-16q-24 15 -24 36zM-700 132v12q0 45 64 56h8q60 -11 60 -72q-15 -60 -68 -60q-64 9 -64 64zM-680 -280q7 27 28 36h12q36 -6 36 -36q-8 -36 -36 -36h-4q-36 6 -36 36zM-600 1298q5 36 36 36q36 -5 36 -36 q-5 -36 -36 -36q-36 5 -36 36zM-556 -80q0 216 412 268l184 12l324 -28q88 5 88 32q0 48 -56 48l-216 -16q-188 0 -188 148q44 368 360 368h20q278 0 428 -236q32 -73 32 -140q0 -177 -104 -356q-103 -136 -276 -136q-85 0 -412 128q-153 52 -244 52q-114 0 -136 -112v-4 q0 -6 16 -12q27 4 60 48l32 4q112 0 232 -164l16 -60v-12q0 -86 -168 -144l-36 -4h-32q-48 0 -108 24q0 -8 -24 -12q-24 0 -44 52q-107 63 -152 188l-8 56v8zM-376 1288q11 64 56 64h4q56 0 64 -68q0 -32 -52 -52h-20q-39 0 -52 56zM-264 1132v20q0 47 72 56q49 0 60 -72 q0 -48 -64 -60h-12q-56 16 -56 56zM-204 1396q10 68 64 68h16q41 0 56 -64q0 -57 -72 -68q-64 18 -64 64zM-32 860q0 47 32 88l-8 24q0 26 36 32h16q16 -8 16 -20l28 4h4q128 -15 128 -128q0 -90 -104 -124h-24q-124 19 -124 124zM56 408q2 -8 64 -40v-4l-52 -48v-16l20 -16 q35 12 76 60q9 0 16 -36l20 -4h8l12 12v20q0 22 -36 56q12 28 12 52q-4 56 -20 56h-16l-16 -16l4 -40v-20l-8 -8l-64 24q-20 0 -20 -24v-8zM136 -336q0 60 72 68q60 -18 60 -60v-8q-11 -64 -56 -64h-20q-45 0 -56 64zM244 -232l12 16h16l12 -12v-12l-12 -12h-16q-9 0 -12 20 zM284 1392q5 36 36 36q36 -5 36 -36q-5 -36 -36 -36q-36 5 -36 36zM620 1176v24q17 80 80 80h16q67 0 84 -88q0 -80 -96 -92q-84 22 -84 76zM724 764q5 36 36 36q36 -5 36 -36q0 -22 -24 -36h-24q-24 14 -24 36zM776 696q5 36 36 36q36 -5 36 -36q-5 -36 -36 -36 q-36 5 -36 36zM808 84v24q0 77 100 116l32 4q84 0 120 -104v-28q0 -89 -100 -120h-40q-76 0 -112 108zM816 -164q0 46 56 60h8q57 0 64 -72q-17 -56 -56 -56h-20q-52 15 -52 52v16zM836 400q0 52 72 60q56 -14 56 -60v-16q0 -39 -60 -56q-59 0 -68 72z" />
<glyph unicode="h" horiz-adv-x="800" d="M-100 240v24q0 87 96 120q48 0 60 20l16 8q-16 206 -16 364l12 192q-60 39 -60 100q0 94 104 128h28q92 0 120 -104v-36q0 -39 -52 -92v-24l-12 -96v-12l12 -176l4 -4q103 60 196 60v4q-89 0 -120 84l-4 24v4l4 48q-28 11 -28 32q5 36 36 36h4q28 0 28 -20q35 24 60 24 h12q102 0 116 -120q-25 -108 -96 -108v-4h8l80 8h32q174 0 236 -148q20 -38 28 -120q0 -193 -144 -336q-42 -32 -80 -32q-95 0 -164 240h-4l4 -40v-52q0 -157 -120 -220l-28 -4q-89 0 -156 136l-4 16q-43 -28 -68 -28h-20q-90 0 -120 104zM-84 724q13 36 40 36 q36 -12 36 -40q-12 -36 -40 -36q-36 13 -36 40zM-28 652v16q14 24 36 24q23 0 36 -36q-5 -36 -36 -36h-16q-20 10 -20 32zM92 -32q16 56 56 56h12q44 0 56 -64q-14 -56 -60 -56h-12q-52 11 -52 64zM144 1256v12q16 56 56 56h16q56 -16 56 -56v-8q-11 -64 -56 -64h-16 q-56 14 -56 60zM376 1080q16 56 56 56h12q45 0 56 -64q-18 -56 -52 -56h-20q-52 12 -52 64zM440 -72q16 24 32 24q36 -5 36 -36q-5 -32 -32 -32h-16q-20 10 -20 32v12zM548 776q0 26 36 32h4q36 -6 36 -36q-12 -36 -40 -36q-29 0 -36 40zM576 1192q0 110 136 128l20 -4 l-4 20v12q13 52 52 52h16q44 0 52 -60v-4q0 -37 -52 -56q24 -27 36 -76q0 -108 -108 -136h-24q-86 0 -120 96zM760 192q0 48 64 60h12q56 -16 56 -56v-20q0 -40 -60 -56h-4q-57 0 -68 72zM816 956q0 31 40 36q25 0 36 -40q0 -26 -36 -32h-4q-36 6 -36 36z" />
<glyph unicode="i" horiz-adv-x="514" d="M-324 -16q10 24 32 24t36 -24v-12q0 -32 -32 -32h-16q-20 10 -20 32v12zM-220 1332v12q14 24 36 24q26 0 32 -36q0 -16 -24 -32h-12q-32 0 -32 32zM-212 460v12q16 56 56 56h20q40 0 56 -60v-4q0 -60 -72 -68q-48 0 -60 64zM-184 -92q14 24 36 24q21 0 36 -28v-8 q-5 -36 -36 -36h-4q-32 0 -32 32v16zM-148 1444q15 56 52 56h20q52 -12 52 -64q0 -47 -68 -56q-44 0 -56 64zM-56 1056q5 36 36 36q36 -5 36 -36v-12q-10 -24 -32 -24h-16q-24 14 -24 36zM24 1008q0 89 104 164l4 4v4l32 -4l32 4q121 0 168 -132l4 -20v-32q0 -116 -144 -160 h-36q-115 0 -160 140zM40 352v8q0 141 80 300q-48 24 -48 56v20q0 57 72 68h8q37 -8 40 -20l48 4h16q69 0 136 -208q64 -169 64 -312q0 -101 -72 -132h-72q-35 0 -104 20v-4l4 -12q-13 -64 -56 -64h-20q-42 0 -56 64q13 56 40 56q-80 53 -80 156zM184 -64q0 54 72 64 q43 0 60 -64q-14 -68 -64 -68q-68 14 -68 68zM348 1272q0 85 96 120q24 0 24 20q23 48 56 48h20q45 0 56 -68q-10 -44 -24 -44q24 -38 24 -64v-28q0 -74 -96 -108h-4v-4q30 0 40 -56v-8q-13 -52 -52 -52h-16q-52 13 -52 52v16q0 21 32 48q-104 35 -104 128zM484 104 q0 26 36 32h12q24 -14 24 -36q0 -16 -24 -32h-12q-36 5 -36 36zM492 532v4q0 32 32 32h16q24 -14 24 -36q-9 -36 -36 -36q-36 5 -36 36z" />
<glyph unicode="j" horiz-adv-x="650" d="M-1040 -54q0 197 372 312q225 56 344 56q54 0 224 -32v4q8 24 32 24h4q29 0 36 -40q34 -8 100 -8q56 0 56 40q82 183 204 300l40 20l-4 20v16q14 24 36 24q91 0 124 -64l16 -116q29 0 32 -44q-1 -10 -36 -36v-8l-12 -140l4 -16q-93 -328 -236 -328q-77 0 -192 96l-28 12 q0 -22 -36 -36q-27 0 -40 36l12 28q-263 100 -480 100q-235 0 -300 -124q-16 -29 -16 -64v-8l12 -12h8q34 0 60 56q27 12 68 16q105 -9 228 -116q76 -80 76 -148v-8q0 -73 -152 -164q-57 -24 -116 -24h-32q-199 0 -364 208q-44 86 -44 136v32zM-260 838v4q0 32 40 36 q32 -11 32 -40v-8q-21 -28 -36 -28q-36 8 -36 36zM-116 410q0 22 24 36h24q24 -14 24 -36q0 -32 -40 -36q-26 0 -32 36zM-96 1362v28q0 75 104 112q15 0 24 40q29 24 44 24h20q50 0 56 -72q0 -12 -20 -44q24 -40 24 -76q0 -87 -100 -120h-4v-4q30 0 44 -56q-14 -60 -56 -60 h-8q-51 0 -60 64q0 31 36 48q0 6 -52 24q-52 50 -52 92zM-80 -202q0 45 68 56q48 0 60 -64v-8q0 -43 -64 -60q-64 12 -64 64v12zM28 438q15 72 64 72h16q68 -14 68 -64v-20q-21 -64 -72 -64q-76 13 -76 76zM44 642q9 36 36 36q36 -5 36 -36v-4q0 -32 -32 -32h-16 q-24 14 -24 36zM364 846q0 134 152 176h4q38 0 108 -96l4 -36q0 -100 -112 -192q-26 -16 -40 -16h-16q-62 0 -96 132zM596 1482v8q11 68 68 68q36 -7 36 -16q22 12 44 12q68 -19 68 -64v-24q0 -17 -20 -40l8 -32v-16q-16 -56 -56 -56h-24l-4 4l-40 -4v-4q25 0 28 -32v-4 q0 -22 -24 -32h-16q-32 0 -32 36q6 36 36 36v4q-44 14 -44 56v8q0 21 12 36q-40 31 -40 56zM804 226q9 36 36 36q21 0 36 -24v-16q0 -32 -32 -32h-16q-24 14 -24 36z" />
<glyph unicode="k" horiz-adv-x="1026" d="M-300 364v4q0 32 32 32h16q24 -14 24 -36q-9 -36 -36 -36q-36 5 -36 36zM-260 572q0 65 88 84h20q20 132 128 132h20q82 0 116 -112v-32l-8 -36h4q45 0 56 -32h4v4l-44 204l-56 16q-32 24 -32 56v12q0 35 56 60q0 37 92 76q44 32 72 32h12q110 0 188 -280 q12 -160 44 -160q325 88 416 88q104 0 104 -104v-20l-12 -60q15 12 36 12q28 -12 28 -36v-4q0 -20 -8 -20l8 -24q-6 -20 -28 -20q-13 0 -28 40q-16 5 -16 36h-4q-22 -61 -192 -120q-67 -20 -112 -20v-4q48 -49 212 -168q76 -102 76 -172q0 -72 -100 -72h-28l4 -20 q-16 -76 -72 -76q-76 13 -76 72v8l8 36h-4q-124 21 -240 100q-20 18 -44 64h-4l-140 -40q-88 16 -88 80v4q0 36 28 96h-12l-36 8l-28 -8q-32 13 -32 36l4 16q-12 19 -20 64q0 80 92 112h4l-16 64h-4q-6 -68 -64 -68h-4q-42 0 -60 44l-4 -4h-24q-19 -88 -88 -88h-8 q-46 0 -72 48h-24q-74 0 -88 96zM-224 248v16q0 45 64 60q68 -11 68 -68q-12 -64 -56 -64h-20q-56 16 -56 56zM-96 140q14 56 52 56h12q45 0 60 -56q-14 -64 -56 -64h-12q-45 0 -56 64zM24 1308v8q0 75 96 88h4q80 -25 80 -80v-20q-17 -80 -80 -80h-20q-63 0 -80 84z M56 1080q7 27 28 36h12l20 -4q14 24 40 24q32 -17 32 -36q-10 -31 -24 -36h-28l-4 4h-4q-8 -24 -32 -24h-4q-36 6 -36 36zM212 1436q12 64 56 64h20q45 0 56 -68q0 -43 -64 -60h-8q-60 16 -60 64zM264 1204v8l8 8h8l8 -8v-8l-12 -12zM292 -152q0 86 96 124l36 4 q120 -27 120 -116v-12q0 -83 -88 -120l-24 -4h-28q-72 0 -108 96zM392 964q16 68 68 68q68 -16 68 -68q0 -57 -72 -68q-48 0 -64 68zM456 1236q0 26 36 32h4q32 0 32 -32v-16q-14 -24 -36 -24q-32 0 -36 40zM500 780q8 18 16 20q24 -2 24 -12v-16q-4 -12 -24 -12 q-8 2 -16 20zM508 1404v16q14 24 40 24q32 -11 32 -40q0 -16 -24 -32h-16q-32 0 -32 32zM736 884v4q5 35 28 56q-28 19 -28 52q18 56 56 56h12q24 0 52 -36q16 28 48 28h8q64 -12 64 -64q0 -24 -28 -56q20 -22 20 -48v-12h4l4 4h4q36 -12 36 -40v-8q-19 -28 -40 -28 q-32 9 -32 40q-15 -12 -28 -12h-20q-27 0 -44 36h-4q-26 -24 -44 -24h-4q-45 0 -64 52zM832 940q16 0 16 -16l12 12q-9 0 -12 20h-4q0 -12 -12 -12v-4zM912 220q0 51 72 64q49 0 64 -68q-14 -64 -56 -64h-16q-53 0 -64 68zM1052 1684l12 16h16l12 -12v-12l-12 -12h-16 q-9 0 -12 20zM1076 112q0 17 24 20q0 80 72 80q24 0 56 -36q7 76 72 76q60 -16 60 -56v-24q0 -35 -56 -52h-20q-48 13 -48 40h-4q0 -80 -56 -80h-20q-18 0 -44 24q0 -12 -16 -12q-11 0 -20 20zM1076 540v16q0 43 60 52q60 -7 60 -60q-8 -60 -52 -60h-16q-52 13 -52 52z M1088 4v16q0 41 64 56q57 0 68 -72q0 -48 -68 -64q-64 12 -64 64zM1228 164h4v8h-4v-8z" />
<glyph unicode="l" horiz-adv-x="443" d="M-100 664v40q0 49 72 108q0 34 52 48h20q17 0 40 -20l-8 164q0 160 80 160h8q196 0 196 -472l4 -192q0 -296 -48 -352q-32 -44 -104 -44h-12q-57 62 -92 492l-24 -20q8 0 16 -24q-11 -40 -40 -40q-36 13 -36 40l4 12h-4q-88 0 -124 100zM-44 1496v8q9 64 64 64h12l32 -12 l36 12q76 -18 76 -76q0 -21 -24 -60l8 -24v-20q0 -42 -60 -52h-20l-4 4l-32 -8v-4q20 0 20 -28v-4q0 -32 -40 -36q-32 11 -32 40v8q14 24 32 24v8q-40 19 -40 56v8q0 21 12 36v4q-40 21 -40 52zM32 1332h8v4h-8v-4zM268 1336v4q5 36 36 36q19 -4 36 -24q64 0 64 -60 q-10 -60 -56 -60h-4q-64 0 -64 80q-12 4 -12 24zM384 -16q0 109 132 128q84 0 120 -104v-28q0 -90 -104 -120h-36q-72 0 -108 96z" />
<glyph unicode="m" horiz-adv-x="1100" d="M-159 -264q0 32 36 32q32 -13 32 -36q0 -15 -24 -32h-24l-20 20v16zM-147 728v12l12 12h12l12 -12v-12l-12 -12h-12zM-31 448v12q0 40 60 56q60 -15 60 -56v-16q0 -38 -56 -52h-8q-56 16 -56 56zM1 824v4q0 215 60 240q26 16 48 16q102 0 272 -156l16 -60h4q0 84 20 84 q182 72 348 72t276 -224q76 -125 76 -168v-56q0 -39 -32 -132q0 -21 -48 -56q-67 -124 -164 -124h-44q-87 0 -180 128l-28 144h-4q-38 -188 -124 -188q-62 0 -100 160h-4v-4l8 -92v-4q0 -60 -36 -60q-129 0 -304 240q-60 78 -60 236zM38 124v16q0 73 100 112h40 q75 0 112 -104v-28q0 -97 -128 -120q-124 20 -124 124zM49 340q6 17 20 24h8q28 0 28 -28v-4l-20 -20h-16q-12 3 -20 28zM97 1224v4q0 32 40 36q32 -15 32 -40q0 -16 -24 -32h-16q-32 0 -32 32zM181 1372v16q0 65 84 108l36 4h20q72 0 108 -96l4 -32q-26 -124 -124 -124 q-128 18 -128 124zM490 1136q0 17 28 32q44 -3 44 -36q0 -26 -36 -32h-12q-24 16 -24 36zM525 -140q0 32 32 32h4q36 -5 36 -36q0 -36 -44 -36q-28 12 -28 36v4zM645 36q0 47 60 64q64 -11 64 -64v-4q-16 -56 -56 -56h-12q-40 0 -56 60zM721 -244q0 32 32 32h16 q24 -14 24 -36q0 -23 -36 -36q-36 5 -36 36v4zM765 1204v4l16 16h16l16 -16v-16l-16 -16h-16q-16 7 -16 28zM953 128q0 15 24 32h12q32 0 32 -32v-4q0 -32 -32 -32q-36 5 -36 36zM989 4v20q0 45 64 56q59 0 68 -72q-16 -60 -60 -60h-16q-56 16 -56 56zM990 1124v16 q0 44 52 60h24q42 0 56 -64q0 -58 -72 -68q-60 17 -60 56zM1049 864v8l12 12l12 -12v-8l-8 -8h-8zM1158 236q12 64 56 64h20q56 -16 56 -56v-12q0 -54 -68 -64h-4q-46 0 -60 68zM1190 824v28q15 24 36 24q36 -12 36 -40q-12 -36 -40 -36q-15 0 -32 24z" />
<glyph unicode="n" horiz-adv-x="900" d="M-200 44v20l24 24h20l24 -24v-20l-24 -24h-20zM-200 1632v20q16 56 56 56h20q47 0 56 -72q0 -45 -68 -60h-4q-60 16 -60 56zM-196 592v8q0 42 64 60q68 -13 68 -68q-13 -68 -64 -68q-68 13 -68 68zM-192 376v20q0 41 64 56q51 0 64 -68v-4q0 -52 -72 -60q-56 16 -56 56z M-168 -52q0 46 68 60h4q48 0 60 -64v-12q-16 -56 -56 -56h-12q-57 0 -64 72zM-108 796v4l12 12h4l12 -12v-4l-12 -12h-4zM-16 740v4q0 23 16 44v36q0 160 132 160q88 0 144 -28q-24 27 -24 52v16q0 40 64 56q56 0 68 -72q-18 -64 -64 -64l4 -20q0 -13 -12 -28v-20h4 q79 56 196 56h72l48 -4l-12 16v12l16 16h16l16 -16v-12q-8 -16 -20 -16v-4q32 0 84 -20l-4 28q8 60 52 60h16q52 -13 52 -52v-16q0 -48 -68 -52q120 -184 120 -452q0 -175 -92 -220q-79 -28 -180 -28q-143 0 -224 212v8h-4q0 -68 -44 -84q-41 -16 -104 -20q-216 13 -216 104 q-32 89 -32 280v20q-20 25 -20 48zM44 1296q13 36 40 36q22 0 36 -36q-6 -36 -36 -36h-16q-24 15 -24 36zM100 44v20q0 42 64 56q37 0 68 -56l48 8q85 0 124 -96q8 -16 8 -44v-4q-29 -128 -128 -128h-16q-124 29 -124 116l-4 28l12 48q-52 13 -52 52zM132 1580q7 27 28 36 h20q21 -9 28 -36q-8 -36 -36 -36h-4q-36 6 -36 36zM140 1044v4l12 12h4l8 -8v-8l-12 -12zM324 168v16q0 45 68 56q49 0 64 -68q-14 -64 -56 -64h-16q-60 8 -60 60zM404 -240q0 49 64 60h4q47 0 56 -68q-15 -52 -52 -52h-12q-47 0 -60 60zM656 -12q17 64 60 64h8l32 -8l8 8 h16l16 -16v-4q0 -21 -12 -24l4 -4v-16q-11 -64 -56 -64h-12q-64 10 -64 64zM672 1596q0 50 68 64q64 -12 64 -64v-8q0 -48 -64 -64q-57 0 -68 72zM676 -156q16 68 64 68q59 0 68 -72q0 -51 -72 -60q-42 0 -60 64zM796 1200q6 16 12 16h16l12 -12v-12l-12 -12h-16 q-9 0 -12 20zM956 584v4q19 92 92 92q88 -19 88 -84v-16q0 -68 -88 -84q-92 16 -92 88z" />
<glyph unicode="o" horiz-adv-x="800" d="M-116 972v24q0 44 72 64q76 -15 76 -76q-12 -76 -76 -76q-54 0 -72 64zM-80 1228q14 56 60 56h4q51 0 60 -64q-16 -56 -56 -56h-12q-45 0 -56 64zM-56 312v16l16 16h12l16 -16v-16q-8 -16 -24 -16q-18 8 -20 16zM-8 1484v12l12 12h12l16 -16v-4l-16 -16h-12zM12 664v12 q0 199 244 376q66 37 144 60q20 45 20 124l-4 68q3 56 12 56q22 -21 24 -40q21 12 40 12q60 -17 60 -56v-20q0 -43 -60 -56q0 -150 132 -328l8 -20h4q48 52 108 52q86 0 120 -96l4 -32q-21 -124 -120 -124q32 -77 32 -120v-32q0 -82 -108 -132q-76 -20 -76 -32 q0 -13 -12 -28v-4l48 8q80 0 120 -96l4 -32q0 -109 -132 -128l-16 4l-24 -8q-25 0 -48 48q-32 34 -32 84v12q0 48 48 84v4q-61 0 -64 20l-4 -4h-32l-48 16h-52l-20 -4l-24 4h-48l-40 -8q-35 22 -88 40q-39 0 -112 252q-8 17 -8 64zM192 1388v8q10 64 64 64h4q64 -10 64 -64 v-4q0 -54 -68 -64h-4q-60 15 -60 60zM208 164v12l12 12h4q24 -2 24 -12v-12q-2 -8 -20 -16q-18 8 -20 16zM212 600l12 -12h4l48 12h8q41 0 68 -20q-44 -75 -44 -188l-4 -4v-4q0 -18 24 -24q24 6 24 28v40q0 56 44 132q11 0 140 -92l16 -4q20 8 20 24q-1 13 -148 112v4 q46 73 152 108l4 20l-12 16h-16q-67 0 -176 -124h-4q-20 12 -84 24q-45 0 -76 -28v-20zM420 24v12q0 32 40 36q28 0 32 -44q-7 -18 -24 -28h-16q-22 0 -32 24zM520 1100q14 148 128 148h4q124 -18 124 -124v-16q0 -74 -104 -112h-24q-84 0 -128 104zM652 1320v12 q15 24 36 24l28 -16q20 36 52 36h4q47 0 68 -56v-4q-13 -68 -56 -68h-20q-52 14 -52 48l-24 -8h-16q-20 10 -20 32zM720 336v4q0 73 92 88q88 -19 88 -76v-24q0 -57 -72 -80h-24q-67 0 -84 88zM748 96v8q0 43 64 60q64 -13 64 -64v-12q0 -44 -64 -56q-64 9 -64 64z" />
<glyph unicode="p" horiz-adv-x="730" d="M-260 137v8q11 64 64 64q59 0 68 -76q0 -43 -68 -60q-64 12 -64 64zM-244 941v12l24 24h8q22 0 36 -24v-12q-6 -36 -36 -36q-26 0 -32 36zM-216 -283l24 24h8q22 0 36 -24v-20l-24 -24h-20l-24 24v20zM-180 397q13 36 40 36q36 -12 36 -40q-12 -36 -40 -36q-36 13 -36 40 zM-180 1085q0 26 36 32q13 0 28 -12h4q0 20 44 32h16q51 0 60 -64v-4q-15 -60 -60 -60h-4q-45 0 -64 48l-24 -8q-36 5 -36 36zM-172 541v44q0 72 92 112q16 8 44 8l36 -4l-8 56h-8q-56 0 -56 44q28 100 72 100q0 12 96 16h116l-4 12l4 20q-21 -16 -36 -16h-8q-64 12 -64 56 v20q0 45 64 56h4q54 0 64 -68v-4l-8 -28h4l16 4q16 0 32 -24v-28q107 0 208 -40v4l-8 32v8q0 46 68 60q51 0 64 -68q-11 -60 -44 -60v-4q13 0 24 -20v-8l-8 -28q35 -31 72 -164q36 -158 36 -264v-16q0 -127 -48 -192q36 -6 36 -36q-12 -36 -40 -36q-23 0 -36 32 q-60 -32 -112 -32l-84 4l-28 -4q0 13 -168 16q20 -28 20 -52v-4q0 -142 -116 -236h-20q-15 0 -24 56l-4 200v4h-4q-22 -60 -80 -60h-8q-84 19 -84 80v20q19 80 76 80h20q45 0 68 -44h4v8l-28 300q-28 -20 -76 -20q-89 0 -128 108zM-84 -139q15 64 64 64q68 -13 68 -64 q-13 -68 -64 -68q-68 11 -68 68zM-39 -298q0 26 36 32q32 0 36 -40q-7 -18 -24 -28h-24q-24 14 -24 36zM16 1177v20q0 33 48 48h20q43 0 52 -60v-4q-16 -56 -56 -56h-4q-60 8 -60 52zM144 -268q0 100 128 124q105 0 128 -132q-25 -120 -120 -120l-4 -4h-4q-81 0 -120 88z M384 -103q0 32 32 32h12l24 -24v-20l-24 -24h-12q-32 0 -32 32v4zM448 -259q11 32 40 32q32 -11 32 -40q-11 -32 -40 -32q-32 11 -32 40zM464 581q84 -131 84 -216v-32q0 -81 -52 -160v-8l16 -16h16q68 75 68 192q0 156 -100 264h-12q-20 0 -20 -24zM488 -339q0 47 68 60 q48 0 60 -64v-4q-9 -64 -64 -64h-4q-50 0 -60 64v8zM600 -67q39 104 96 104h16q84 -19 84 -84v-12q-20 -84 -80 -84q-116 0 -116 64v12zM628 1081q0 51 68 64q56 -18 56 -56v-8q0 -46 -56 -60h-4q-64 12 -64 60zM644 -347l16 12h12l12 -12v-12q-8 -16 -20 -16q-20 6 -20 28z M692 917v4q0 32 40 36q32 -11 32 -40v-8l-24 -24h-16q-32 0 -32 32zM708 689q19 124 124 124l4 4q124 -23 124 -124v-20q0 -71 -96 -108l-28 -4q-128 21 -128 128z" />
<glyph unicode="q" horiz-adv-x="840" d="M-200 0q0 54 68 64q32 -4 60 -40q76 0 76 -64l-12 -44q11 0 16 -40v-8q-14 -68 -60 -68h-20q-55 0 -68 72q0 27 24 56l-4 4h-4l-4 -4h-4q-68 12 -68 56v16zM-168 1230v12q14 24 36 24q32 -11 32 -40q-7 -18 -24 -28h-24q-20 10 -20 32zM-164 258q8 24 20 24 q-12 15 -12 28q5 36 36 36q36 -5 36 -36q0 -15 -20 -36l8 -8v-24q-17 -24 -32 -24q-36 8 -36 40zM-48 54v8l16 16h8l16 -16v-8l-16 -16h-8zM-28 422v4q12 64 60 64h4l60 -20q68 -5 68 -64q-14 -72 -24 -72h-12q-8 8 -56 12q0 9 -72 20q-28 27 -28 56zM-12 906q0 212 148 284 l40 4h20q57 68 84 68h20l64 -72q131 -82 152 -152q212 -400 228 -564l4 -12q36 0 88 -40q38 92 120 92q81 0 120 -88l8 -44q-4 -45 -36 -84q12 -15 12 -28v-12q-17 -24 -32 -24q-21 4 -40 28l-32 -4q-50 4 -92 40h-4q0 -41 -68 -76q16 -21 16 -44q-16 -60 -60 -60 q-18 0 -60 28q-35 -23 -260 -44q-56 -18 -56 -56q0 -108 100 -108q49 0 368 136l104 12l8 -12l-4 -12q12 -6 36 -76h4q21 20 36 20q31 0 36 -40q0 -26 -36 -32h-12l-4 4h-4v-4q12 -42 12 -84q0 -77 -68 -124v-32q-28 -116 -116 -116h-8q-54 0 -84 32l-20 -4h-16 q-14 0 -44 20q-14 0 -36 -36l-20 -4q-31 0 -36 44l4 4q-17 0 -60 48q-118 0 -256 124l-20 32q-24 -16 -44 -16h-4q-64 9 -64 64q12 68 64 68l-4 20v8q0 110 56 176v4q-16 0 -16 12v16l16 16h16q16 -6 16 -28l-4 -4h4q82 32 168 32v36q23 40 52 40h16q21 0 48 -32 q28 32 28 84q0 69 -52 160q-21 16 -44 16h-4q-26 0 -184 -44h-28q-134 0 -232 192q-48 119 -48 208v24zM0 1318v16q0 22 20 32h16q32 0 36 -40q-11 -32 -40 -32q-16 0 -32 24zM84 750q0 -7 96 -68q9 -75 40 -164l20 -4q16 6 16 12l-24 124l4 4l48 -4h24q73 0 116 108 q-8 24 -16 24h-12q-28 0 -28 -24l4 -12q-34 -48 -76 -48l-20 -4l-40 8v4q0 31 92 96v20l-16 16q-45 -8 -124 -104h-4l-72 48h-16l-12 -12v-20zM88 -254q0 42 64 56q52 0 64 -68v-4q-11 -60 -72 -60q-56 17 -56 56v20zM96 -362q8 16 20 16q11 0 20 -20q-8 -18 -16 -20h-12 l-12 12v12zM120 1262q13 36 40 36q29 0 36 -40q0 -26 -36 -32h-4q-36 6 -36 36zM196 318q0 31 40 36q18 -7 28 -24v-24q-10 -20 -32 -20h-12q-24 16 -24 32zM244 -342l12 12h8l8 -8v-4l-12 -12h-4zM340 266q0 15 24 32h16q22 0 32 -24v-8q0 -22 -24 -36h-12q-36 6 -36 36z M352 1314v28q14 24 36 24h8q28 -15 28 -36t-24 -36h-16q-22 0 -32 20zM640 1266q0 12 56 68l36 8q60 -17 60 -64v-8q-11 -64 -64 -64q-88 23 -88 60zM804 1338v12l16 16h16l16 -16v-12q-7 -14 -24 -20q-16 6 -24 20zM856 822v16l16 16h12l16 -16v-16l-16 -16h-12zM868 170 v16q14 24 36 24q32 0 36 -40q0 -26 -36 -32h-4q-32 0 -32 32zM880 1050l16 28q-12 20 -12 52q0 87 104 112h12q52 0 84 -36l16 4q60 -15 60 -52v-20q-11 -48 -44 -48v-4q44 0 44 -36q-5 -36 -36 -36q-36 5 -36 36q-41 -40 -96 -40q-29 0 -72 32l-16 -12h-8q-8 2 -16 20z M904 1354l12 12h4l12 -12v-4q0 -6 -16 -12zM952 162q17 60 56 60h20q30 0 56 -44v-32q0 -42 -64 -56q-58 0 -68 72zM960 686q0 26 36 32q36 -5 36 -36q0 -16 -24 -32h-24q-24 15 -24 36zM980 -262q10 32 36 32h4q31 0 36 -40q-15 -32 -40 -32q-27 0 -36 40zM1052 -214 q0 26 36 32q22 0 36 -24v-24q-14 -24 -36 -24q-32 0 -36 40zM1144 922v8l16 16q24 -2 24 -12v-12l-16 -16h-8zM1148 246l16 12h12l12 -12v-12q-8 -16 -20 -16q-20 6 -20 28zM1164 350v16q0 9 20 12q16 -6 16 -12v-16l-12 -12h-12z" />
<glyph unicode="r" horiz-adv-x="800" d="M-60 340v24l20 20h16q32 0 32 -36q0 -18 -32 -32q-21 0 -36 24zM-16 1112v20q0 18 28 40q26 36 56 36q57 0 68 -72q-14 -60 -60 -60h-12q-25 0 -80 36zM8 712q0 160 252 160l156 -4l120 4q24 16 44 16h16q46 -20 64 -20l76 -28l24 8q16 0 32 -24v-16q0 -21 -12 -24 l12 -64v-28q0 -76 -108 -136l8 -32q-13 -72 -68 -72q-64 15 -64 56l-144 -16l-60 4q96 -70 96 -168v-12q0 -43 -32 -92q0 -15 -28 -64q12 -4 12 -24q0 -26 -36 -36q-32 9 -32 32l-36 -8q-91 0 -132 112v16l4 44q-79 59 -148 324zM28 44v12q0 42 60 52q60 -10 60 -52v-12 q0 -48 -60 -60q-60 12 -60 60zM144 1212q8 18 16 20h16l16 -16v-12l-16 -16h-16q-16 8 -16 24zM208 40q5 36 36 36q36 -5 36 -36v-12l-24 -24h-12q-36 5 -36 36zM224 912v12l12 12h12q16 -8 16 -20q-8 -18 -16 -20h-8zM248 1216v4l12 12h4l12 -12l-12 -12h-8zM264 -60l12 12 h8l8 -8v-8l-8 -8h-8zM296 20v12q16 56 56 56h20q44 0 56 -64v-8q0 -48 -72 -60q-48 0 -60 64zM328 -164q0 36 44 36q28 -12 28 -36v-4q0 -32 -32 -32h-4q-36 5 -36 36zM380 1012q13 64 64 64q50 0 60 -64v-4q0 -47 -68 -56q-39 0 -56 60zM432 904v16q0 32 36 32t36 -44 q-13 -28 -36 -28h-12zM444 -12q15 69 44 112q6 76 68 76q51 0 64 -68q0 -26 -16 -40l4 -20v-16q0 -31 -64 -104l-36 -8h-4q-48 0 -60 64v4zM472 1184v4q0 90 104 128h32q109 0 128 -132q-21 -132 -132 -132q-132 20 -132 132zM504 220v8l16 16h8l16 -16q0 -21 -12 -24h-12z M560 -68q13 28 36 28h4q36 -5 36 -36l-8 -20l16 4q36 -5 36 -36v-4q0 -30 -40 -36q-32 15 -32 40l4 20l-4 -4h-8q-40 8 -40 40v4zM608 276q15 56 56 56l-8 32q10 32 36 32h4q31 0 36 -40q-10 -28 -24 -28q28 -29 28 -48v-20q0 -46 -68 -56q-60 13 -60 72zM656 996 q0 40 68 40l16 4q52 0 64 -72q0 -49 -64 -60h-12q-42 0 -60 64q-12 4 -12 24zM736 -180q6 16 12 16h16l12 -12v-12l-12 -12h-16q-9 0 -12 20zM772 1076v24q17 80 80 80h16q73 0 84 -96q0 -65 -88 -84h-8q-84 21 -84 76zM776 180q0 32 40 36q18 -7 28 -24v-24 q-14 -24 -36 -24q-26 0 -32 36zM832 904v24q14 24 40 24q18 -7 28 -24v-12q0 -32 -40 -36q-18 7 -28 24zM884 160v12l24 24h12q22 0 32 -20v-16q0 -22 -20 -32h-16q-32 0 -32 32z" />
<glyph unicode="s" horiz-adv-x="1043" d="M-56 316v32q0 92 76 124l52 8h48l48 -4q13 32 36 32q15 0 32 -24v-20h16l40 -4q76 0 76 68q0 98 -148 148q-40 39 -40 76v16q0 104 136 232q79 68 160 68q-12 21 -12 40q11 60 44 60v4l-12 24q8 36 40 36q18 0 32 -32l-12 -28v-4q40 -21 40 -52v-16q0 -15 -16 -36v-4 l24 -12h12v12q8 40 40 40q32 -10 32 -36v-12l48 4h84l8 8v48q0 84 116 112h8q0 17 32 48q16 40 48 40h16q52 -13 52 -52v-16q0 -23 -32 -48l-12 -24q24 -42 24 -76q0 -47 -44 -96l16 -12l8 8h12l16 -16v-4l-12 -20q16 -26 16 -60q0 -50 -36 -92l8 -56q0 -42 -60 -108 q-25 -48 -92 -48h-20q-80 0 -296 96l-72 8h-40q-31 0 -48 -36q38 -35 144 -84q80 -67 80 -256q36 -55 36 -132q0 -35 -20 -100q12 0 20 -52v-28q0 -32 -36 -76q64 -18 64 -64q-11 -68 -64 -68h-16q-44 0 -56 68l12 32l-28 -4l-32 4q0 -37 -60 -48q-64 11 -64 56v24 q-94 0 -188 100l-76 16l4 -12q0 -66 -84 -76q0 -28 -48 -40h-8q-46 0 -60 56v4q0 34 52 76l20 -4q0 22 32 36v4q-116 87 -116 224zM-24 1036q12 28 36 28h4q22 0 32 -24v-24q-14 -24 -36 -24q-36 0 -36 44zM28 1300v24q0 56 88 76q80 0 92 -96v-4l-8 -28h4l24 -4 q0 90 104 124h36q75 0 112 -104v-36q0 -74 -104 -112h-20q-54 0 -100 44q0 -27 -48 -40h-12q-64 11 -64 64l4 12h-12v-4q-96 13 -96 84zM88 1120v16q0 32 32 32h4q22 0 32 -24v-12q0 -22 -20 -32h-16q-22 0 -32 20zM284 1064v20l16 16h20q16 -6 16 -28q-8 -24 -32 -24 q-18 8 -20 16zM440 1516v4q13 68 56 68h20q47 0 56 -68q-16 -60 -60 -60h-4q-47 0 -68 56zM572 1276q0 46 68 60q68 -13 68 -64q-13 -68 -68 -68q-59 0 -68 72zM752 56q0 51 52 92l-8 24q12 68 68 68q64 -16 64 -64l-4 -24h4q56 -38 56 -88v-24q0 -72 -92 -100l-28 -4 q-73 0 -108 88zM860 1320v16q11 64 64 64q57 0 68 -72q0 -48 -68 -64q-64 17 -64 56zM872 344q6 16 12 16h16l12 -12v-12l-12 -12h-16q-9 0 -12 20zM884 -108l24 24h16q22 0 32 -24v-12q0 -36 -44 -36q-28 13 -28 36v12zM944 332q12 64 64 64h8q48 0 64 -64q-14 -68 -68 -68 q-68 11 -68 68zM1068 12v8l8 8h8l8 -8v-8l-8 -8h-8z" />
<glyph unicode="t" horiz-adv-x="843" d="M-144 1260v4q0 32 32 32t36 -40q-12 -28 -36 -28q-32 0 -32 32zM-84 580l16 12q24 -2 24 -12v-16q-4 -12 -24 -12q-16 7 -16 28zM-44 -68q0 31 40 36q32 -11 32 -40q-8 -36 -36 -36q-36 5 -36 36v4zM-8 1444q15 56 52 56h20q38 0 52 -60q0 -52 -68 -60q-45 0 -56 64z M8 44v4q0 40 48 68l-16 40q13 64 68 64q47 0 56 -68q0 -24 -36 -52q28 -17 28 -52v-4q-14 -72 -64 -72h-12q-72 11 -72 72zM8 1048v8q14 28 40 28q32 -10 32 -36v-12q-10 -24 -32 -24h-16q-24 14 -24 36zM28 308v20q0 50 88 60q0 18 44 28h16q56 -16 56 -56v-32q20 0 28 -36 q0 -26 -36 -32h-16l-44 20l-4 4h-8l-24 -20l8 -24l-12 -8q-11 0 -12 20h-20q-64 12 -64 56zM44 560q0 102 88 148l36 4h16q58 0 136 -60v132q0 34 -8 52l8 24l-4 76v24q0 76 40 132q11 28 32 28l20 -4l32 4q62 -44 92 -120q12 -51 16 -204l-8 -32v-8q43 40 140 40l16 4 q53 0 68 -64q0 -111 -72 -148q-127 -56 -180 -56l-24 -52q0 -20 8 -20q124 64 164 64h12q148 0 148 -96q0 -192 -416 -240h-56q-84 0 -84 92l12 168l-4 -4l-120 -4h-16q-74 0 -92 120zM92 924q0 32 32 32h4q22 0 32 -20v-16q0 -32 -32 -32h-12q-24 14 -24 36zM92 1200v16 q4 12 24 12q8 -2 16 -20q-8 -18 -16 -20h-12zM164 1212v8q0 52 68 64q51 0 64 -72q0 -48 -68 -64q-64 12 -64 64zM268 1432v4q13 60 72 60q56 -17 56 -56v-20q0 -40 -60 -56q-68 11 -68 68zM444 1412v8q11 64 56 64h20q44 0 56 -64v-8q0 -19 -12 -28l4 -20v-8l-12 -12h-12 l-12 12l-20 -4q-54 0 -68 60zM448 1184v20q0 72 96 108l32 4h12q0 19 48 28q36 0 80 -44v-12q0 -12 -24 -48l8 -52q-21 -124 -124 -124h-16q-65 0 -108 84zM564 4v12q20 128 128 128h24q72 0 112 -100l4 -28v-20q0 -77 -100 -116l-32 -4h-16q-77 0 -116 100zM772 1180v4 q5 52 40 52q26 0 32 -36q-5 -36 -36 -36h-20zM840 576v8l16 16h8l16 -16v-8l-16 -16h-8zM840 744v16q14 24 36 24q36 -8 36 -36q-5 -36 -36 -36h-4q-32 0 -32 32zM868 868q0 22 16 28h16l16 -16v-4q0 -28 -24 -28q-16 6 -24 20zM1064 -248l12 12h12l12 -12v-12l-12 -12h-12 l-12 12v12z" />
<glyph unicode="u" horiz-adv-x="1059" d="M-200 1544v20q0 45 68 56q47 0 60 -64l8 8q-12 21 -12 40q11 64 56 64h20q56 -16 56 -56v-8q0 -30 -32 -60q9 0 16 -36q-14 -68 -68 -68q-68 14 -68 64h-4q0 -11 -40 -16q-60 16 -60 56zM-184 744v24q8 24 44 24q28 -12 28 -36q-5 -36 -36 -36q-22 0 -36 24zM-160 -40 q15 64 84 64q0 17 80 28q67 0 108 -76l4 4h12q36 -5 36 -36v-12q-6 -15 -40 -28q-37 -104 -112 -104h-28q-72 0 -112 100q-32 16 -32 60zM-156 876v12l16 16h16l16 -16v-12q-7 -14 -24 -20q-16 6 -24 20zM-148 1196q0 48 48 48q28 -13 28 -40q0 -28 -44 -32h-16 q-16 8 -16 24zM-88 1060v28q0 90 108 128h44l36 -8v4l-4 24q19 132 128 132q86 0 124 -100v-28h8q0 86 96 124l32 4q44 0 96 -44q19 28 52 28h8q44 0 68 -76q40 -35 40 -104q0 -20 -20 -68q32 -24 32 -44h8q0 47 84 108q47 23 96 24l32 -4q23 24 44 24h16q56 -16 56 -56v-20 l-4 -16q33 -53 36 -92v-44q-37 -164 -192 -164q-121 0 -172 140v4h-4q-31 -76 -112 -76h-8q-106 0 -124 132l4 20q-33 -24 -72 -24q-112 23 -112 104v16l4 40l-4 4h-4q-39 -64 -92 -64h-20l-40 4q0 -68 32 -68l12 -16l28 4h32q177 0 316 -212q16 -24 16 -44v-16l-24 -292 l4 -24q20 0 64 216q89 78 240 104l28 4q78 0 132 -132l8 -80v-24q15 12 28 12q36 -5 36 -36q-5 -36 -36 -36q-14 0 -32 16v-8l8 -32v-16q0 -34 -36 -60l-12 -40h4l4 4h4q45 -20 68 -20q36 -26 36 -60q-11 -68 -68 -68q-68 0 -68 100h-4q-91 -188 -348 -188l-132 12l-20 -8 l-40 20q-192 37 -192 64q-56 30 -128 272q-74 278 -76 412l8 64l-4 4h-36q-80 0 -120 112zM4 220v4q0 32 32 32h12l24 -24v-12q0 -32 -32 -32h-4q-32 0 -32 32zM188 -56q0 109 136 132q128 -24 128 -128v-20q0 -77 -96 -112l-28 -4h-24q-76 0 -112 104zM284 1384v8 q5 36 36 36h12q24 -10 24 -32v-16q-14 -24 -36 -24t-36 28zM336 1492q15 64 60 64h16q45 0 60 -68q0 -50 -68 -64q-68 12 -68 68zM516 -12q0 48 64 60h12q56 -16 56 -56v-20q0 -47 -72 -56q-48 0 -60 72zM712 1316q43 120 136 120q124 -20 124 -124q0 -107 -128 -124 q-94 0 -132 128zM856 1608v12q14 24 36 24q36 -5 36 -36q-5 -36 -36 -36q-36 5 -36 36zM980 1392q9 24 28 24q18 -8 20 -16v-16l-16 -16h-12q-20 12 -20 24zM984 1604v8q12 68 68 68h12q57 0 68 -72q-13 -76 -76 -76q-72 17 -72 72zM1008 40q18 60 60 60h8q64 -11 64 -56 v-20q0 -45 -64 -56q-60 0 -68 72z" />
<glyph unicode="v" horiz-adv-x="700" d="M-200 1144v4q0 32 32 32h16q20 -11 20 -24q23 29 40 32q31 -10 36 -24v-16q-5 -36 -36 -36q-21 0 -32 28q-22 -32 -40 -32q-36 5 -36 36zM-196 424v12l12 12h12q16 -8 16 -20q0 -11 -20 -20q-18 8 -20 16zM-148 504q0 26 40 36q26 0 32 -36v-4q0 -26 -32 -36 q-40 9 -40 40zM-148 1424q21 124 124 124h20q66 0 108 -92q36 -26 36 -64q0 -64 -96 -76q-23 -20 -72 -20q-77 0 -116 100zM-84 340v20q0 47 72 56q46 0 60 -72q-5 -28 -12 -28l36 -52l8 -24v-12q0 -62 -80 -72q-51 0 -68 72v8q0 26 24 52q-40 23 -40 52zM-28 932 q0 23 24 56q10 148 64 148q0 10 48 24v4q0 83 88 120l24 4h28q65 0 112 -92q44 -16 44 -60v-12q-16 -56 -56 -56h-32l-48 -32q40 -128 52 -140l8 -8l-4 -40q44 -173 64 -376h4q0 143 136 368v4h-16q-68 13 -68 64q13 68 68 68q61 0 68 -76l-4 -12q51 0 104 -240l4 -36 q0 -130 -140 -336v-4q52 -34 52 -68q25 28 60 28q60 -15 60 -68q0 -49 -64 -60h-12q-18 0 -44 24q-41 -88 -120 -88q-82 0 -120 92q0 52 -16 52q-117 42 -216 248q-72 149 -112 348q0 76 -28 120q-12 3 -12 32zM-12 1180q8 18 16 20h16l16 -16v-12l-16 -16h-16q-16 8 -16 24 zM8 92q5 36 36 36l76 -24q28 -29 28 -56q-17 -64 -60 -64h-16q-60 0 -60 96zM16 -180q11 68 68 68q64 -17 64 -60v-8q-13 -68 -64 -68q-68 13 -68 68zM68 300v16q14 24 36 24q27 0 36 -40q0 -27 -44 -36q-28 12 -28 36zM320 -168q27 116 112 116l20 4l48 -12v4q0 19 32 24 q36 -5 36 -36q-3 -28 -20 -28v-4q24 -35 24 -60v-32q0 -74 -104 -108h-24q-109 0 -124 132zM332 1420v12q0 30 52 48l8 8h12q36 -5 36 -36q-24 -72 -52 -72h-16q-40 8 -40 40zM504 1100q13 36 40 36q26 0 36 -40q0 -26 -36 -32h-4q-36 5 -36 36zM520 1232l12 12h4l12 -12v-4 l-12 -12zM620 -12q11 68 68 68h16q64 -15 64 -80q0 -53 -76 -68q-72 19 -72 64v16zM664 812v20q0 101 128 124q124 -21 124 -124v-16q0 -75 -92 -108l-28 -4h-20q-76 0 -112 108z" />
<glyph unicode="w" horiz-adv-x="1357" d="M-96 92q17 64 60 64h8q57 0 64 -72q-17 -56 -56 -56h-12q-64 11 -64 64zM-88 964v12q16 56 56 56h20q44 0 56 -64q0 -60 -72 -68q-48 0 -60 64zM-48 376q0 37 56 44q40 -13 40 -52q0 -33 -44 -44h-8q-36 0 -44 52zM0 -136q0 46 68 56q30 -2 60 -40q124 -19 124 -120v-20 q0 -74 -100 -108h-36q-72 0 -108 96l-4 28l12 56q-16 5 -16 36v16zM0 796q0 85 96 120l32 4q72 0 120 -88q167 0 360 -148q140 -137 140 -208h8q20 72 72 72h16q56 0 56 -76q32 43 112 200l-8 32v8q0 45 68 68l16 -4q81 68 144 68q80 0 80 -168l24 -188q0 -57 -64 -180h4 l20 -20v-24l-20 -20h-24l-16 12q-35 -57 -112 -112q76 -39 76 -100v-20q0 -92 -104 -120l-20 -4q-128 25 -128 128v8q0 41 44 88q-101 0 -148 116l-12 16l-4 4h-4q-11 -104 -32 -104q-43 -36 -112 -36l-148 28q-161 0 -180 44q-35 39 -96 136q-28 0 -40 48v24l4 4l-52 128 l-20 -4q-57 0 -92 76q-40 22 -40 64v4q0 23 16 44q-32 33 -32 80zM80 80q14 68 68 68q68 -14 68 -68q-14 -68 -68 -68q-68 14 -68 68zM208 -64q13 68 68 68q80 -19 80 -56q-30 -76 -80 -76q-68 13 -68 64zM412 -140q0 33 44 36q28 -12 28 -36q0 -32 -40 -36q-32 17 -32 36z M488 880q0 92 112 124h24q94 0 120 -128q0 -92 -112 -124h-28q-93 0 -116 128zM800 1184v12q14 56 60 56h16q47 0 56 -72q0 -48 -72 -60q-48 0 -60 64zM952 828v4l12 12h4l12 -12l-12 -12h-8zM1032 856v4q5 36 36 36q36 -8 36 -40t-40 -36q-32 10 -32 36zM1100 1360 q0 48 64 60h12q56 -14 56 -60v-16q0 -47 -72 -56q-48 0 -60 72zM1232 -248l12 12h16q9 0 12 -20q0 -11 -20 -20q-18 8 -20 16v12zM1304 1023q0 37 56 44q40 -13 40 -52q0 -33 -44 -44h-8q-36 0 -44 52zM1400 -12q14 68 68 68q68 -14 68 -68q-14 -68 -68 -68q-68 15 -68 68z " />
<glyph unicode="x" horiz-adv-x="1010" d="M-212 84v20q0 45 64 56h8q60 -13 60 -72q-18 -60 -60 -60h-8q-64 11 -64 56zM-204 596v12q0 32 32 32h4q32 0 32 -32q-5 -36 -36 -36q-15 0 -32 24zM-188 1028v8l16 16h8l16 -16v-8l-16 -16h-8zM-164 204v16l12 12h12l12 -12v-16q0 -9 -20 -12zM-128 1160v12q17 56 56 56 h12q64 -12 64 -60v-12q-15 -60 -60 -60h-8q-64 10 -64 64zM4 752v12q0 18 16 52q-8 16 -8 44v4q11 100 64 100h12q104 -5 408 -168l60 36q152 328 224 328h4q79 0 112 -124l4 -32v-4q0 -112 -128 -340v-4q111 -44 244 -168q-32 -100 -124 -100h-8q-52 0 -236 60 q-34 -62 -124 -188q21 0 36 -24v-24q-17 -24 -32 -24q-36 10 -36 36q-59 -56 -100 -56h-16q-36 6 -76 36q0 78 116 340h-4l-224 100q-19 -12 -52 -12h-20q-83 0 -112 120zM20 1128v12q0 54 68 64q57 0 64 -80q64 -10 64 -60v-4q-9 -64 -64 -64h-8q-45 0 -60 68l4 4 q-53 0 -68 60zM32 1352v20q0 43 64 56q52 0 64 -68v-4q0 -46 -68 -60q-60 16 -60 56zM60 -48q8 40 40 40q23 0 36 -36q-5 -36 -36 -36h-4q-23 0 -36 28v4zM124 260v4q10 68 60 68h8q64 -10 64 -64v-12q-16 -56 -56 -56h-12q-64 12 -64 60zM184 60q10 24 24 24q-24 29 -24 52 q14 60 56 60h12q45 0 56 -64q-14 -56 -60 -56l8 -28q-7 -18 -24 -28h-16q-32 0 -32 40zM304 1292v4q0 28 24 28q17 -5 24 -20q0 -21 -16 -28h-16zM380 1012l16 12h12l12 -12v-12q-2 -8 -20 -16q-20 6 -20 28zM464 1056q0 52 72 64q60 -17 60 -56v-16q0 -44 -52 -60h-24 q-44 0 -56 68zM524 112q15 64 56 64h16q64 -11 64 -64q0 -57 -72 -68q-48 0 -64 68zM688 192v12q0 46 68 60h4l40 -12q16 36 56 36q32 0 60 -32q23 32 48 32h16q68 -14 68 -60v-24q0 -45 -68 -64q-41 0 -76 44q-16 -24 -40 -24h-16l-32 12q-22 -40 -52 -40h-12 q-64 10 -64 60zM740 1464v12q10 24 32 24h16l24 -24v-12q-6 -36 -36 -36q-36 5 -36 36zM752 -28q13 36 40 36q26 0 36 -40q0 -26 -36 -32h-4q-36 6 -36 36zM832 1216v4l12 12h4l12 -12v-4l-12 -12h-4zM916 1092q12 64 64 64h12q44 0 56 -68q-17 -60 -56 -60h-12 q-64 11 -64 64zM1064 1048v16l12 12h12l12 -12v-16l-12 -12h-12z" />
<glyph unicode="y" horiz-adv-x="868" d="M-600 314v12q8 16 20 16l16 -12v-16l-12 -12h-12zM-588 694v4l12 12h4l12 -12v-4l-12 -12h-4zM-520 -298q0 49 72 68q-28 37 -28 80q0 72 136 136l64 12h24l268 -60l76 -8q124 12 124 76q0 63 -168 208q-23 56 -32 56q-38 0 -56 68q0 34 40 72l-8 172q15 36 60 36h32 q133 0 256 -116q56 -50 56 -288v-32h4q43 132 160 132h16q72 0 72 -60q0 -112 -224 -372q-49 -69 -368 -188l-20 -4q24 -26 24 -44v-16q-16 -56 -56 -56h-16q-36 8 -36 20l-40 -4h-16q-49 0 -104 68q-67 0 -164 48v-20q-19 -64 -64 -64h-20q-49 0 -64 72v8zM-360 530v8 l16 16h8l16 -16v-8l-16 -16h-8zM-132 518v16q13 52 52 52h16q52 -13 52 -52v-8q-9 -60 -56 -60h-8q-56 14 -56 52zM-104 382q6 17 20 24h12l16 -16v-16l-16 -16h-12q-14 8 -20 24zM-60 30q0 31 40 36q26 0 32 -36v-4q0 -22 -24 -32h-24q-24 14 -24 36zM133 901q16 60 56 60 h20q41 0 56 -64q-17 -64 -60 -64h-8q-55 0 -64 68zM200 1324v20q0 45 64 56h8q49 0 60 -72q0 -46 -68 -60q-64 11 -64 56zM268 -286l24 24h12q36 -5 36 -36q0 -36 -44 -36q-28 12 -28 36v12zM340 -238q14 24 36 24q32 0 36 -40q0 -26 -36 -32q-36 0 -36 32v16zM372 1018 q0 31 48 36l-8 20q5 36 36 36h4q31 0 36 -40q0 -29 -48 -32l8 -20q-10 -31 -24 -36h-16q-36 5 -36 36zM472 970v8l8 8h8l8 -8v-8l-8 -8h-8zM500 618v8q16 60 56 60h20q56 -16 56 -56v-12q0 -54 -68 -64h-4q-43 0 -60 64zM600 462q0 36 44 36q18 -7 28 -24v-16q0 -32 -32 -32 h-4q-36 5 -36 36zM600 832v4q5 36 36 36q33 0 36 -44q-7 -18 -24 -28h-16q-32 0 -32 32zM600 1094v12l24 24h24q24 -14 24 -36q0 -32 -40 -36q-26 0 -32 36z" />
<glyph unicode="z" horiz-adv-x="1000" d="M-100 772v20q0 34 80 60h16q36 0 72 -36q9 35 44 72l-8 24v4l16 16h16l8 -8l4 4h4l144 -4h16q7 64 64 64t68 -72h4q214 0 264 -72q36 -38 36 -80q0 -88 -136 -236q-160 -168 -160 -220v-8q0 -81 268 -96q276 -14 276 -104v-16q-19 -54 -232 -64h-96q-77 0 -256 36 q0 -27 -40 -32q-28 12 -28 36v12q-68 0 -276 84q-44 33 -44 40v12q0 75 308 192q156 87 156 180l-4 28h-8q0 -33 -60 -44q-56 14 -56 60v16l4 4v4h-184q-120 7 -120 52q-37 -28 -64 -28h-8q-77 0 -88 100zM220 1112q0 31 36 48v4q-16 0 -16 12v12l12 12h12l12 -12v-20h12 q42 0 56 -60q-14 -60 -56 -60h-12q-45 0 -56 64zM296 472q0 28 44 32q18 -7 28 -24v-16q0 -32 -32 -32h-4q-32 0 -36 40zM588 -180q0 16 24 32h24q14 -5 24 -36q0 -15 -24 -32h-24q-24 14 -24 36zM744 -168q14 24 36 24q32 0 36 -40q0 -26 -36 -32q-22 0 -36 24v24zM780 376 v16q5 54 60 60h16q43 0 56 -68q0 -54 -72 -64q-60 16 -60 56zM964 300q14 64 56 64h20q56 -17 56 -52v-24q0 -43 -64 -56q-68 13 -68 68z" />
<glyph unicode="{" horiz-adv-x="653" d="M0 572v8h8q143 0 196 136l4 20v44q0 41 -92 188q-24 69 -24 108v12q0 166 252 212h60q130 -4 140 -28q0 -61 -108 -80l-176 8q-44 -14 -44 -48v-36q2 -81 120 -212q20 -47 20 -64v-32q0 -53 -136 -208l-16 -52q41 -156 104 -208q51 -48 240 -48q104 -27 104 -92v-20 q0 -76 -120 -136q-35 -16 -76 -16h-40q-116 0 -252 144q-28 47 -28 136l20 248q-45 16 -144 16h-12z" />
<glyph unicode="|" d="M388 -12v606q0 566 144 977l29 29h10q62 0 62 -852l10 -582v-67q0 -93 -154 -202l-38 -15h-15q-48 0 -48 106z" />
<glyph unicode="}" horiz-adv-x="800" d="M0 1248v28q0 87 148 164q50 16 84 16h44q155 0 316 -184q24 -56 24 -152l-24 -292q37 -20 164 -20h44v-8h-16q-169 0 -240 -140q-16 -34 -16 -72q0 -87 100 -224q40 -92 40 -144v-32q0 -178 -264 -244l-68 -4h-44q-96 0 -164 28q24 100 128 100l216 -8q52 15 52 68v8 q0 121 -132 256q-40 66 -40 112q0 88 132 228q42 46 52 104q-48 187 -124 248q-67 60 -300 60q-112 37 -112 104z" />
<glyph unicode="~" d="M112 628v24q70 92 168 92h28q67 0 156 -68q46 -32 104 -32q74 0 232 96l24 4h4q72 -28 72 -84v-16q0 -81 -220 -140l-56 -4h-16q-122 0 -272 136l-44 12h-20l-108 -44h-4q-34 0 -48 24z" />
<glyph unicode="&#xad;" horiz-adv-x="837" d="M100 536v8q0 80 292 104h32q267 0 356 -80v-12q-36 -56 -264 -56h-224q-192 4 -192 36z" />
<glyph unicode="&#xae;" horiz-adv-x="1650" d="M100 676v72q0 256 236 496q151 120 276 144q169 32 204 32q172 -16 280 -56q128 -51 280 -220q144 -208 144 -400v-68q0 -282 -264 -524q-208 -152 -420 -152h-64q-196 0 -412 156q-167 164 -184 232q-76 154 -76 288zM228 688q0 -109 76 -264q21 -55 144 -168 q66 -56 216 -108l20 -4l20 4v4q-21 0 -32 44q0 15 12 32q-32 14 -32 40q0 41 52 52q24 -4 24 -12l36 8q48 -13 48 -56v-4q0 -22 -16 -32l8 -28q0 -48 -76 -48h-12v-4q19 -14 96 -16l68 4v28l16 16h8q28 0 28 -32q89 12 200 84q0 21 20 40h-124q-3 -20 -32 -20h-12 q-20 0 -48 40q-72 39 -72 88l-16 44h-8v-8q0 -76 -88 -76h-4q-67 0 -100 48v16l4 28q-10 0 -16 36q0 15 20 40q-40 14 -40 52l-20 -16h-16q-20 12 -20 28q6 17 20 24h16l20 -16q15 52 48 52l4 88v16q-14 -28 -64 -28l-12 -12h-20q-14 8 -20 24l8 20l-16 -4q-96 18 -96 96 q20 92 92 92q92 -17 92 -84v-32l-4 -4v-4q40 0 40 -60h4q0 62 20 192q-24 -28 -48 -28q-44 14 -44 44v12q0 33 48 44q44 -12 44 -40h4q0 105 180 120l28 4q193 0 252 -152v-72l28 4q39 0 44 -56q0 -20 -40 -40q-29 0 -52 28q-36 -85 -168 -180q332 -102 332 -212 q92 142 92 304q0 171 -108 340l-4 -4h-8q-8 0 -8 12l4 12q-115 129 -184 152q-119 68 -272 68v4q-162 -16 -252 -60q-97 -44 -212 -168q-116 -170 -116 -336v-24zM444 368v12q0 36 48 40q44 -8 44 -44v-16q-16 -32 -40 -32h-12q-40 8 -40 40zM1020 928q23 -16 36 -16v-4 q-18 -19 -24 -40l4 -12h8l20 4v-32l16 -12l16 12v28l-4 28q32 4 32 20t-36 16q-9 24 -48 36q-20 -6 -20 -28zM1048 1120v12q0 36 48 40q44 -8 44 -44q0 -34 -36 -52q-56 7 -56 44zM1252 660v16l12 12h12q8 -2 16 -20q-8 -18 -16 -20h-12z" />
<glyph unicode="&#xd7;" d="M201 519q-1 60 97 158l31 13l-2 3q-128 150 -104 173q-7 8 11 34l12 12q77 46 119 5l2 -3q29 -29 90 -131l3 3q10 32 34 56l12 11q122 121 218 104l25 -26q75 -76 39 -158q-5 -17 -26 -37l-2 -3q-31 -30 -140 -92l-5 -6q-7 -6 5 -23l102 -79q60 -87 27 -119l-8 -9 q-29 -28 -119 1q-114 112 -127 100q-17 -40 -68 -102q-75 -74 -145 -58l-28 17l-17 17q-61 114 -36 139z" />
<glyph unicode="&#xf7;" d="M164 756v8q0 14 108 36h36q347 0 548 -48q12 -15 12 -28v-12q0 -17 -56 -24l-428 -4h-4q-169 0 -216 72zM400 361v54q0 23 27 50l-3 3v4q0 18 54 28h10q104 0 152 -64q40 -39 40 -60v-15q-8 -128 -50 -128h-61q-78 0 -155 75q-14 23 -14 53zM400 1061v54q0 23 27 49l-3 4 v4q0 18 54 28h10q103 0 152 -64q40 -39 40 -61v-14q-8 -128 -51 -128h-60q-78 0 -156 75q-13 23 -13 53z" />
<glyph unicode="&#x2000;" horiz-adv-x="883" />
<glyph unicode="&#x2001;" horiz-adv-x="1766" />
<glyph unicode="&#x2002;" horiz-adv-x="883" />
<glyph unicode="&#x2003;" horiz-adv-x="1766" />
<glyph unicode="&#x2004;" horiz-adv-x="588" />
<glyph unicode="&#x2005;" horiz-adv-x="441" />
<glyph unicode="&#x2006;" horiz-adv-x="294" />
<glyph unicode="&#x2007;" horiz-adv-x="294" />
<glyph unicode="&#x2008;" horiz-adv-x="220" />
<glyph unicode="&#x2009;" horiz-adv-x="353" />
<glyph unicode="&#x200a;" horiz-adv-x="98" />
<glyph unicode="&#x2010;" horiz-adv-x="837" d="M100 536v8q0 80 292 104h32q267 0 356 -80v-12q-36 -56 -264 -56h-224q-192 4 -192 36z" />
<glyph unicode="&#x2011;" horiz-adv-x="837" d="M100 536v8q0 80 292 104h32q267 0 356 -80v-12q-36 -56 -264 -56h-224q-192 4 -192 36z" />
<glyph unicode="&#x2012;" horiz-adv-x="837" d="M100 536v8q0 80 292 104h32q267 0 356 -80v-12q-36 -56 -264 -56h-224q-192 4 -192 36z" />
<glyph unicode="&#x2013;" horiz-adv-x="1181" d="M100 536v8q0 80 440 104h48q402 0 536 -80v-12q-54 -56 -398 -56h-337q-289 4 -289 36z" />
<glyph unicode="&#x2014;" horiz-adv-x="2205" d="M100 536v8q0 80 879 104h97q804 0 1072 -80v-12q-108 -56 -795 -56h-675q-578 4 -578 36z" />
<glyph unicode="&#x2018;" horiz-adv-x="557" d="M116 1252v16q0 69 112 144l80 76h4q-32 -50 -32 -124h4l56 4q123 0 160 -92v-44q0 -83 -116 -124l-68 -8h-44q-110 0 -148 108q-8 16 -8 44zM320 1496v4l12 12v-4z" />
<glyph unicode="&#x2019;" horiz-adv-x="557" d="M70 1324v44q0 83 116 124l68 8h44q110 0 148 -108q8 -16 8 -44v-16q0 -69 -112 -144l-80 -76h-4q32 50 32 124h-4l-56 -4q-123 0 -160 92zM238 1088v4l12 12v-4z" />
<glyph unicode="&#x201a;" horiz-adv-x="557" d="M100 -192q39 0 104 140q-39 0 -56 24q0 120 100 212h4q95 0 120 -148v-40q0 -103 -96 -164q-106 -32 -176 -32v8z" />
<glyph unicode="&#x201c;" horiz-adv-x="963" d="M64 1298v36q40 112 136 112h92q42 0 84 -12q100 -44 100 -128v-12q-24 -103 -224 -112v-4q108 -88 128 -88v-8q-123 20 -192 44q-124 71 -124 172zM484 1134l4 48q80 230 284 236h4q124 -7 124 -72v-24q0 -48 -36 -108q0 -52 -116 -112q-35 0 -136 32q-24 0 -28 -48 l8 -64q0 -43 132 -144v-8h-40l-36 8q-164 114 -164 256z" />
<glyph unicode="&#x201d;" horiz-adv-x="910" d="M119 1410v42l119 125q44 0 88.5 -65.5t44.5 -151.5q0 -109 -71 -226.5t-139 -117.5v43q73 43 87 190q0 119 -129 161zM454 1424v12q0 84 100 128q42 12 84 12h92q96 0 136 -112v-36q0 -101 -124 -172q-69 -24 -192 -44v8q20 0 128 88v4q-200 9 -224 112z" />
<glyph unicode="&#x201e;" horiz-adv-x="910" d="M100 -176q39 0 104 140q-39 0 -56 24q0 120 100 212h4q95 0 120 -148v-40q0 -103 -96 -164q-106 -32 -176 -32v8zM428 -192q39 0 104 140q-39 0 -56 24q0 120 100 212h4q95 0 120 -148v-40q0 -103 -96 -164q-106 -32 -176 -32v8z" />
<glyph unicode="&#x202f;" horiz-adv-x="353" />
<glyph unicode="&#x205f;" horiz-adv-x="441" />
<glyph unicode="&#xe000;" horiz-adv-x="1500" d="M0 0v1500h1500v-1500h-1500z" />
</font>
</defs>
</svg>
